<?xml version="1.0" encoding="utf-8"?>
<!-- Generator: Adobe Illustrator 27.1.1, SVG Export Plug-In . SVG Version: 6.00 Build 0)  -->
<svg version="1.1" id="Layer_1" xmlns="http://www.w3.org/2000/svg" xmlns:xlink="http://www.w3.org/1999/xlink" x="0px" y="0px"
	 viewBox="0 0 69.8 11.3" style="enable-background:new 0 0 69.8 11.3;" xml:space="preserve">
<style type="text/css">
	.st0{fill:#FFFFFF;}
</style>
<g>
	<path class="st0" d="M7.1,2H4.4v7H2.7V2H0V0.5h7V2z"/>
	<path class="st0" d="M14.6,4.7V9h-1.7V5c0-0.7-0.4-1.1-1.1-1.1c-0.5,0-1,0.2-1.5,0.5V9H8.7V0h1.7v3.3c0.7-0.5,1.4-0.8,2.2-0.8
		C13.8,2.5,14.6,3.3,14.6,4.7z"/>
	<path class="st0" d="M22.2,6.3l-4.2,0c0.1,1.1,0.8,1.6,2.1,1.6c0.6,0,1.2-0.1,1.7-0.2L22,8.8c-0.7,0.2-1.4,0.3-2.1,0.3
		c-2.4,0-3.6-1.2-3.6-3.3c0-2,1.2-3.4,3.2-3.4c1.8,0,2.7,1.1,2.7,2.7V6.3z M17.9,5.3h2.7V5.1c0-0.8-0.3-1.3-1.2-1.3
		C18.7,3.8,18.1,4.3,17.9,5.3z"/>
	<path class="st0" d="M27.7,9V0.5h1.7V9H27.7z"/>
	<path class="st0" d="M41.7,4.7V9H40V5c0-0.7-0.4-1.1-1.1-1.1c-0.5,0-0.9,0.2-1.4,0.4c0,0.1,0,0.2,0,0.3V9h-1.7V5
		c0-0.7-0.4-1.1-1.1-1.1c-0.5,0-0.9,0.2-1.4,0.4V9h-1.7V2.7h1.1l0.4,0.8c0.7-0.6,1.4-0.9,2.2-0.9c0.8,0,1.4,0.4,1.8,1
		c0.8-0.6,1.5-1,2.4-1C40.9,2.5,41.7,3.3,41.7,4.7z"/>
	<path class="st0" d="M50.1,5.8c0,2.2-1.1,3.4-2.9,3.4c-0.6,0-1.2-0.1-1.7-0.4v2.4h-1.7V2.7h1.1l0.4,0.7c0.6-0.6,1.4-0.9,2.1-0.9
		C49,2.5,50.1,3.6,50.1,5.8z M48.4,5.8c0-1.4-0.6-2-1.5-2c-0.4,0-0.9,0.1-1.4,0.5v3.3c0.4,0.1,0.8,0.2,1.2,0.2
		C47.7,7.8,48.4,7.2,48.4,5.8z"/>
	<path class="st0" d="M56.9,5.2V9h-1.1l-0.4-0.8c-0.6,0.5-1.3,0.9-2.2,0.9c-1.2,0-2-0.7-2-1.9c0-1.2,0.7-1.9,2.3-2l1.7-0.1v0
		c0-0.8-0.4-1.4-1.6-1.4c-0.6,0-1.2,0.1-1.8,0.2l-0.2-1.2c0.7-0.2,1.5-0.3,2.3-0.3C56.2,2.5,56.9,3.5,56.9,5.2z M53.8,8
		c0.6,0,1-0.2,1.5-0.5V6.2l-1.5,0.1c-0.6,0-0.9,0.5-0.9,0.9C52.8,7.7,53.1,8,53.8,8z"/>
	<path class="st0" d="M58.6,5.8c0-2,1.2-3.3,3.4-3.3c0.6,0,1.2,0.1,1.7,0.3L63.4,4c-0.4-0.1-0.8-0.2-1.2-0.2c-1.2,0-1.9,0.7-1.9,2
		c0,1.3,0.7,2,1.9,2c0.5,0,0.9-0.1,1.3-0.2l0.3,1.2C63.2,9,62.6,9.2,62,9.2C59.7,9.2,58.6,7.8,58.6,5.8z"/>
	<path class="st0" d="M69.8,9c-0.4,0.1-0.9,0.2-1.4,0.2c-2,0-2.8-1-2.8-2.6V3.9h-1V2.7h1L66.4,1h0.9l0,1.7h2.4v1.3h-2.4v2.6
		c0,0.8,0.4,1.2,1.4,1.2c0.3,0,0.7,0,1-0.1L69.8,9z"/>
</g>
</svg>
