<?xml version="1.0" encoding="utf-8"?>
<!-- Generator: Adobe Illustrator 27.1.1, SVG Export Plug-In . SVG Version: 6.00 Build 0)  -->
<svg version="1.1" id="Layer_1" xmlns="http://www.w3.org/2000/svg" xmlns:xlink="http://www.w3.org/1999/xlink" x="0px" y="0px"
	 viewBox="0 0 78.4 9.2" style="enable-background:new 0 0 78.4 9.2;" xml:space="preserve">
<style type="text/css">
	.st0{fill:#FFFFFF;}
</style>
<g>
	<path class="st0" d="M7.2,2.1H4.5v7H2.8v-7H0.1V0.6h7V2.1z"/>
	<path class="st0" d="M14.7,4.7v4.4H13V5c0-0.7-0.4-1.1-1.1-1.1c-0.5,0-1,0.2-1.5,0.5v4.7H8.8v-9h1.7v3.3c0.7-0.5,1.4-0.8,2.2-0.8
		C13.9,2.6,14.7,3.4,14.7,4.7z"/>
	<path class="st0" d="M22.2,6.4l-4.2,0C18.1,7.5,18.8,8,20.1,8c0.6,0,1.2-0.1,1.7-0.2l0.3,1.1c-0.7,0.2-1.4,0.3-2.1,0.3
		c-2.4,0-3.6-1.2-3.6-3.3c0-2,1.2-3.4,3.2-3.4c1.8,0,2.7,1.1,2.7,2.7V6.4z M18,5.4h2.7V5.2c0-0.8-0.3-1.3-1.2-1.3
		C18.7,3.8,18.2,4.3,18,5.4z"/>
	<path class="st0" d="M27.2,8.8l0.3-1.3c0.9,0.2,1.8,0.3,2.6,0.3c1.4,0,2-0.4,2-1.2c0-0.6-0.4-0.9-1-1l-1.7-0.4
		c-1.1-0.3-2.1-0.9-2.1-2.3c0-1.7,1.4-2.5,3.5-2.5c0.9,0,1.9,0.1,2.7,0.3l-0.3,1.3c-0.8-0.2-1.5-0.3-2.4-0.3c-1.2,0-1.9,0.3-1.9,1.1
		c0,0.5,0.3,0.8,0.7,0.9l2.1,0.5c1.2,0.3,2,0.9,2,2.4c0,1.7-1.4,2.5-3.6,2.5C29.2,9.2,28.2,9.1,27.2,8.8z"/>
	<path class="st0" d="M35.1,5.9c0-2.2,1.3-3.3,3.2-3.3c1.9,0,3.3,1.2,3.3,3.3c0,2.2-1.3,3.3-3.3,3.3C36.4,9.2,35.1,8.1,35.1,5.9z
		 M40,5.9c0-1.3-0.6-2-1.6-2c-1,0-1.6,0.7-1.6,2c0,1.3,0.6,2,1.6,2C39.3,7.9,40,7.2,40,5.9z"/>
	<path class="st0" d="M43.3,9.1v-9h1.7v9H43.3z"/>
	<path class="st0" d="M51.2,2.7h1.7v6.4h-1.1l-0.4-0.8c-0.7,0.6-1.4,0.9-2.3,0.9c-1.3,0-2-0.8-2-2.2V2.7h1.7v4
		c0,0.7,0.4,1.1,1.1,1.1c0.5,0,0.9-0.2,1.4-0.5V2.7z"/>
	<path class="st0" d="M59.4,9.1C59,9.2,58.5,9.2,58,9.2c-2,0-2.8-1-2.8-2.6V4h-1V2.7h1L56,1h0.9l0,1.7h2.4V4h-2.4v2.6
		c0,0.8,0.4,1.2,1.4,1.2c0.3,0,0.7,0,1-0.1L59.4,9.1z"/>
	<path class="st0" d="M61,1.8l-0.1-1.5h1.8l-0.1,1.5H61z M61,9.1V2.7h1.7v6.4H61z"/>
	<path class="st0" d="M64.3,5.9c0-2.2,1.3-3.3,3.2-3.3c1.9,0,3.3,1.2,3.3,3.3c0,2.2-1.3,3.3-3.3,3.3C65.6,9.2,64.3,8.1,64.3,5.9z
		 M69.1,5.9c0-1.3-0.6-2-1.6-2c-1,0-1.6,0.7-1.6,2c0,1.3,0.6,2,1.6,2C68.5,7.9,69.1,7.2,69.1,5.9z"/>
	<path class="st0" d="M78.3,4.6v4.5h-1.7V5c0-0.7-0.4-1.1-1.1-1.1c-0.5,0-1,0.2-1.5,0.5v4.7h-1.7V2.7h1.1l0.4,0.8
		c0.7-0.6,1.5-0.9,2.4-0.9C77.6,2.6,78.3,3.3,78.3,4.6z"/>
</g>
</svg>
