<?xml version="1.0" encoding="utf-8"?>
<!-- Generator: Adobe Illustrator 27.1.1, SVG Export Plug-In . SVG Version: 6.00 Build 0)  -->
<svg version="1.1" id="Layer_1" xmlns="http://www.w3.org/2000/svg" xmlns:xlink="http://www.w3.org/1999/xlink" x="0px" y="0px"
	 viewBox="0 0 77.1 9.2" style="enable-background:new 0 0 77.1 9.2;" xml:space="preserve">
<style type="text/css">
	.st0{fill:none;}
	.st1{enable-background:new    ;}
	.st2{fill:#FFFFFF;}
</style>
<rect x="-6.7" y="0" class="st0" width="97.5" height="19.8"/>
<g class="st1">
	<path class="st2" d="M0,4.8c0-2.8,1.7-4.4,4.7-4.4c0.8,0,1.6,0.1,2.4,0.3L6.8,2.1C6.1,1.9,5.5,1.8,4.7,1.8c-2,0-3,1.1-3,3
		c0,1.9,0.9,3,2.7,3c0.4,0,0.8,0,1.2-0.1v-2L3.9,5.2V4.3h3.3v4.5C6.4,9,5.4,9.2,4.5,9.2C1.6,9.2,0,7.6,0,4.8z"/>
	<path class="st2" d="M15,6.3l-4.2,0c0.1,1.1,0.8,1.6,2.1,1.6c0.6,0,1.2-0.1,1.7-0.2l0.3,1.1c-0.7,0.2-1.4,0.3-2.1,0.3
		c-2.4,0-3.6-1.2-3.6-3.3c0-2,1.2-3.4,3.2-3.4c1.8,0,2.7,1.1,2.7,2.7V6.3z M10.7,5.3h2.7V5.1c0-0.8-0.3-1.3-1.2-1.3
		C11.5,3.8,10.9,4.3,10.7,5.3z"/>
	<path class="st2" d="M21.1,9c-0.4,0.1-0.9,0.2-1.4,0.2c-2,0-2.8-1-2.8-2.6V4h-1V2.7h1L17.6,1h0.9l0,1.7H21V4h-2.4v2.6
		c0,0.8,0.4,1.2,1.4,1.2c0.3,0,0.7,0,1-0.1L21.1,9z"/>
	<path class="st2" d="M26.5,9V0.5h1.7V9H26.5z"/>
	<path class="st2" d="M36.5,4.6V9h-1.7V4.9c0-0.7-0.4-1.1-1.1-1.1c-0.5,0-1,0.2-1.5,0.5V9h-1.7V2.7h1.1l0.4,0.8
		c0.7-0.6,1.5-0.9,2.4-0.9C35.7,2.5,36.5,3.2,36.5,4.6z"/>
	<path class="st2" d="M42.8,2.7h1.6v0.4L42,9h-1.7l-2.4-6V2.7h1.6l1.6,4.6L42.8,2.7z"/>
	<path class="st2" d="M45.2,5.9c0-2.2,1.3-3.3,3.2-3.3c1.9,0,3.2,1.2,3.2,3.3c0,2.2-1.3,3.3-3.2,3.3C46.6,9.2,45.2,8,45.2,5.9z
		 M50.1,5.9c0-1.3-0.6-2-1.6-2c-1,0-1.6,0.7-1.6,2c0,1.3,0.6,2,1.6,2C49.5,7.9,50.1,7.2,50.1,5.9z"/>
	<path class="st2" d="M53.4,9V0H55v9H53.4z"/>
	<path class="st2" d="M61.3,2.7h1.6v0.4l-2.4,6h-1.7l-2.4-6V2.7H58l1.6,4.6L61.3,2.7z"/>
	<path class="st2" d="M69.7,6.3l-4.2,0c0.1,1.1,0.8,1.6,2.1,1.6c0.6,0,1.2-0.1,1.7-0.2l0.3,1.1c-0.7,0.2-1.4,0.3-2.1,0.3
		c-2.4,0-3.6-1.2-3.6-3.3c0-2,1.2-3.4,3.2-3.4c1.8,0,2.7,1.1,2.7,2.7V6.3z M65.5,5.3h2.7V5.1c0-0.8-0.3-1.3-1.2-1.3
		S65.6,4.3,65.5,5.3z"/>
	<path class="st2" d="M75.4,0h1.7v9H76l-0.4-0.7c-0.6,0.6-1.4,0.9-2.1,0.9c-1.6,0-2.7-1.1-2.7-3.2c0-2.1,1.1-3.4,2.9-3.4
		c0.6,0,1.2,0.1,1.7,0.4V0z M74,7.8c0.4,0,0.9-0.1,1.4-0.5V4.1c-0.4-0.1-0.8-0.2-1.2-0.2c-1,0-1.7,0.6-1.7,2
		C72.5,7.2,73.1,7.8,74,7.8z"/>
</g>
</svg>
