<?xml version="1.0" encoding="utf-8"?>
<!-- Generator: Adobe Illustrator 27.1.1, SVG Export Plug-In . SVG Version: 6.00 Build 0)  -->
<svg version="1.1" id="Layer_1" xmlns="http://www.w3.org/2000/svg" xmlns:xlink="http://www.w3.org/1999/xlink" x="0px" y="0px"
	 viewBox="0 0 78.7 9.3" style="enable-background:new 0 0 78.7 9.3;" xml:space="preserve">
<style type="text/css">
	.st0{fill:#FFFFFF;}
</style>
<g>
	<path class="st0" d="M7.1,2.1H4.4v7H2.7v-7H0.1V0.6h7V2.1z"/>
	<path class="st0" d="M14.6,4.8v4.4H13v-4c0-0.7-0.4-1.1-1.1-1.1c-0.5,0-1,0.2-1.5,0.5v4.7H8.8v-9h1.7v3.3c0.7-0.5,1.4-0.8,2.2-0.8
		C13.9,2.6,14.6,3.4,14.6,4.8z"/>
	<path class="st0" d="M22.2,6.4l-4.2,0C18.1,7.5,18.8,8,20,8c0.6,0,1.2-0.1,1.7-0.2L22,8.9c-0.7,0.2-1.4,0.3-2.1,0.3
		c-2.4,0-3.6-1.2-3.6-3.3c0-2,1.2-3.4,3.2-3.4c1.8,0,2.7,1.1,2.7,2.7V6.4z M18,5.4h2.7V5.2c0-0.8-0.3-1.3-1.2-1.3
		C18.7,3.8,18.1,4.4,18,5.4z"/>
	<path class="st0" d="M34.8,3.7c0,1.8-1,3.1-3.3,3.1h-2v2.4h-1.7V0.6h3.7C33.7,0.6,34.8,1.8,34.8,3.7z M31.4,5.4
		c1.1,0,1.7-0.7,1.7-1.7c0-1-0.6-1.7-1.7-1.7h-2v3.5H31.4z"/>
	<path class="st0" d="M40.7,2.7v1.8l-2.4,0.8v3.8h-1.7V2.7h1.1l0.5,1.4l1.7-1.4H40.7z"/>
	<path class="st0" d="M41.9,5.9c0-2.2,1.3-3.3,3.2-3.3c1.9,0,3.3,1.2,3.3,3.3c0,2.2-1.3,3.3-3.3,3.3C43.2,9.2,41.9,8.1,41.9,5.9z
		 M46.7,5.9c0-1.3-0.6-2-1.6-2c-1,0-1.6,0.7-1.6,2c0,1.3,0.6,2,1.6,2C46.1,7.9,46.7,7.2,46.7,5.9z"/>
	<path class="st0" d="M56.3,5.8c0,2.2-1.1,3.4-2.9,3.4c-0.8,0-1.5-0.2-2.1-0.5l-0.2,0.4H50v-9h1.7v3.2c0.6-0.5,1.3-0.7,1.9-0.7
		C55.2,2.6,56.3,3.7,56.3,5.8z M54.6,5.9c0-1.4-0.6-2-1.5-2c-0.4,0-0.9,0.1-1.4,0.5v3.3c0.4,0.1,0.8,0.2,1.2,0.2
		C53.9,7.9,54.6,7.3,54.6,5.9z"/>
	<path class="st0" d="M57.9,9.1v-9h1.7v9H57.9z"/>
	<path class="st0" d="M67.1,6.4l-4.2,0C63,7.5,63.7,8,65,8c0.6,0,1.2-0.1,1.7-0.2L67,8.9c-0.7,0.2-1.4,0.3-2.1,0.3
		c-2.4,0-3.6-1.2-3.6-3.3c0-2,1.2-3.4,3.3-3.4c1.8,0,2.7,1.1,2.7,2.7V6.4z M62.9,5.4h2.7V5.2c0-0.8-0.3-1.3-1.2-1.3
		C63.6,3.8,63.1,4.4,62.9,5.4z"/>
	<path class="st0" d="M78.7,4.8v4.4H77v-4C77,4.3,76.6,4,75.9,4c-0.5,0-0.9,0.2-1.4,0.4c0,0.1,0,0.2,0,0.3v4.4h-1.7v-4
		c0-0.7-0.4-1.1-1.1-1.1c-0.5,0-0.9,0.2-1.4,0.4v4.7h-1.7V2.7h1.1l0.4,0.8C71,3,71.7,2.6,72.6,2.6c0.8,0,1.4,0.4,1.8,1
		c0.8-0.6,1.5-1,2.4-1C77.9,2.6,78.7,3.4,78.7,4.8z"/>
</g>
</svg>
