<?xml version="1.0" encoding="utf-8"?>
<svg xmlns="http://www.w3.org/2000/svg" xmlns:xlink="http://www.w3.org/1999/xlink" style="margin: auto; background-color: none; display: block; shape-rendering: auto;"   
  width="100px" height="100px" viewBox="0 0 100 100" preserveAspectRatio="xMidYMid">
<defs>
  <clipPath id="progress-u2d1cs6t4v-cp" x="0" y="0" width="100" height="100">
    <rect 
      x="0" y="41.5" width="0" height="17px" rx="8">
      <animate attributeName="width" repeatCount="indefinite" dur="2.7027027027027026s" values="0;100;100" keyTimes="0;0.5;1"></animate>
      <animate attributeName="x" repeatCount="indefinite" dur="2.7027027027027026s" values="0;0;100" keyTimes="0;0.5;1"></animate>
    </rect>
  </clipPath>
</defs>
<path fill="none" stroke="#163f45" stroke-width="2.66" d="M23.5 37.33L76.5 37.33A12.670000000000002 12.670000000000002 0 0 1 89.17 50L89.17 50A12.670000000000002 12.670000000000002 0 0 1 76.5 62.67L23.5 62.67A12.670000000000002 12.670000000000002 0 0 1 10.829999999999998 50L10.829999999999998 50A12.670000000000002 12.670000000000002 0 0 1 23.5 37.33 Z"></path>
<path fill="#7ebc42" clip-path="url(#progress-u2d1cs6t4v-cp)" d="M23.5 41.46L76.5 41.46A8.540000000000001 8.540000000000001 0 0 1 85.04 50L85.04 50A8.540000000000001 8.540000000000001 0 0 1 76.5 58.54L23.5 58.54A8.540000000000001 8.540000000000001 0 0 1 14.959999999999999 50L14.959999999999999 50A8.540000000000001 8.540000000000001 0 0 1 23.5 41.46 Z"></path>
</svg>