<?xml version="1.0" encoding="UTF-8"?>
<svg width="61px" height="33px" viewBox="0 0 61 33" version="1.1" xmlns="http://www.w3.org/2000/svg" xmlns:xlink="http://www.w3.org/1999/xlink">
    <title>Group 5</title>
    <g id="Symbols" stroke="none" stroke-width="1" fill="none" fill-rule="evenodd">
        <g id="website-header" transform="translate(-170.000000, -19.000000)" fill-rule="nonzero">
            <g id="Group-5" transform="translate(171.000000, 20.000000)">
                <rect id="Rectangle" stroke="#153F45" stroke-width="2" x="0" y="0" width="59" height="31" rx="15.5"></rect>
                <circle id="Oval" stroke="#153F45" stroke-width="2" cx="43.5" cy="15.5" r="12.5"></circle>
                <g id="Group" transform="translate(32.000000, 3.000000)" fill="#153F45">
                    <path d="M13.8364312,0.280199404 C14.2825279,0.313823333 13.9739777,2.8673739 13.3903346,3.21295317 C12.8066914,3.55853243 10.5055762,2.97198168 9.99070632,3.2465771 C9.47583643,3.52304051 7.44052045,8.11457475 6.69516729,8.07721483 C5.94795539,8.03985491 6.00929368,6.17933086 4.70446097,6.3511865 C3.39962825,6.52304213 3.88104089,9.42217197 4.32713755,10.3188101 C4.7732342,11.2154482 6.69702602,12.1830701 7.31412639,11.8374908 C7.9330855,11.4919116 8.13754647,10.6643893 9.51115242,11.3200559 C10.8847584,11.9757225 10.4386617,14.3219255 11.330855,15.0803319 C12.2230483,15.8387383 13.2695167,15.3026235 13.9739777,16.012462 C14.5241636,16.5653888 14.4888476,17.8412301 14.1449814,18.6351284 C13.8011152,19.4290267 12.7026022,19.8773457 11.4330855,20.8094758 C10.5613383,21.4483304 9.20074349,23.8468373 8.51486989,23.983201 C7.82899628,24.1214327 6.3866171,23.3611583 6.3866171,23.3611583 C6.3866171,23.3611583 6.73048327,19.737246 6.45539033,18.7714921 C6.1802974,17.8057381 4.32713755,16.6662606 4.15427509,15.7341305 C3.98327138,14.8020005 5,13.9912903 4.5669145,13.6643909 C3.88104089,13.146956 0,10.3860579 0,9.00560885 C0,7.62515979 1.23605948,5.62453604 1.23605948,5.62453604 L3.91449814,2.51805865 L7.84572491,0.580946765 L11.0910781,0 C11.0910781,0 12.9814126,0.209215555 13.83829,0.276463412 L13.8364312,0.280199404 Z" id="Path"></path>
                    <path d="M17.33829,1.21232942 C17.33829,1.21232942 17.6784387,5.00436136 18.9869888,5.69738789 C20.2230483,6.35305449 20.0855019,5.66376396 20.6003717,5.35180862 C21.1152416,5.04172128 21.802974,5.52366426 21.802974,5.52366426 L19.7769517,3.14196932 L17.33829,1.21046143 L17.33829,1.21232942 Z" id="Path"></path>
                    <path d="M23.3122677,8.35367824 C23.3122677,8.35367824 22.3513011,7.24969259 21.6635688,7.59527185 C20.9776952,7.94085112 20.8736059,8.25093846 20.4275093,8.49190994 C19.9814126,8.73288143 18.2304833,9.35492411 17.6802974,10.2870541 C17.1301115,11.2191841 17.5427509,13.9109664 18.2639405,14.566633 C18.9851301,15.2222996 20.7286245,14.8449644 20.9758364,15.9470821 C21.2843866,17.3275312 19.7732342,17.9140819 19.2936803,18.9844436 C18.8122677,20.0548054 19.260223,22.0218052 19.260223,22.0218052 L22.3513011,18.364269 L23.8178439,15.7939064 L24,12.222298 L23.3141264,8.35741423 L23.3122677,8.35367824 Z" id="Path"></path>
                </g>
            </g>
        </g>
    </g>
</svg>