<svg xmlns="http://www.w3.org/2000/svg" viewBox="-1.04 0 1922.87 501.61">
<path style="fill:#010101; stroke:none;" d="M0 0L0 55L1 55C3.09612 29.3368 29.3124 3.10089 55 1L37 0L0 0z"/>
<path style="fill:#1b478f; stroke:none;" d="M0 375L139 375C139 366.181 141.931 350.915 137.682 343.04C132.696 333.799 117.573 327.515 110.001 319.996C89.8417 299.98 76.4159 270.938 79.1698 242C83.6957 194.441 111.688 154.78 158 139.355C172.11 134.655 185.753 136.175 199.96 133.852C208.183 132.507 213.459 120.871 223 118.681C226.498 117.878 233.519 119.367 235.987 116.397C238.432 113.453 237.84 107.582 238.68 104C240.226 97.3997 244.111 90.8823 249.09 86.3009C263.297 73.2294 284.244 77 302 77C312.41 77 322.307 76.8422 331 83.5293C359.616 105.543 336.819 140.67 347.264 169C349.892 176.127 357.762 181.762 363 187C375.977 199.977 391.267 212.459 402.471 227C412.193 239.619 410 255.046 410 270L410 320C410 328.645 411.346 338.597 409.073 347C405.362 360.717 393.009 371.931 379 374L379 375L1920 375L1920 117C1920 81.2973 1928.64 39.8552 1898 14.3256C1880.4 -0.343536 1860.59 0 1839 0L1778 0L1478 0L414 0L140 0L84 0C62.8788 0 43.8405 -0.515228 26 12.7608C-7.01663 37.3301 0 78.9363 0 115L0 375z"/>
<path style="fill:#010101; stroke:none;" d="M1867 0L1867 1C1890.11 2.88776 1913 24.0489 1919 46L1920 46L1920 0L1867 0z"/>
<path style="fill:#6f8bb8; stroke:none;" d="M265 77L265 78L268 78L265 77z"/>
<path style="fill:#fdfdfe; stroke:none;" d="M268 77.4391C255.864 79.35 245.776 86.5992 240.879 98C238.632 103.232 239.712 115.056 233.941 117.397C227.492 120.013 220.454 118.616 214 122.363C208.863 125.346 205.48 133.163 199.907 134.682C190.051 137.369 178.309 134.899 168 137.004C138.841 142.959 112.755 161.024 96.6983 186C73.233 222.501 73.4722 274.259 99.8989 309C110.189 322.527 126.406 329.348 136.721 342.015C141.402 347.763 140 356.066 140 363C140 377.773 137.963 392.917 148.468 404.91C160.247 418.358 177.972 416 194 416L278 416C291.507 416 306.698 417.934 320 415.535C332.115 413.351 341.45 404.931 344.522 393C345.626 388.709 344.429 378.623 348.318 376.028C352.757 373.065 362.833 375.024 368 374.999C379.462 374.944 390.602 372.253 398.96 363.957C410.638 352.365 410 338.217 410 323L410 262C410 249.873 410.319 238.608 403.452 228C389.016 205.701 361.629 192.47 347.742 170C344.564 164.858 346 156.804 346 151C346 136.708 347.739 121.147 345.7 107C340.701 72.3265 294.647 73.2429 268 77.4391z"/>
<path style="fill:#6f8bb8; stroke:none;" d="M315 77L315 78L318 78L315 77M261.667 78.3333L262.333 78.6667L261.667 78.3333M320.667 78.3333L321.333 78.6667L320.667 78.3333M259 79L260 80L259 79M323.667 79.3333L324.333 79.6667L323.667 79.3333M257 80L258 81L257 80M326 80L327 81L326 80M255 81L256 82L255 81M328 81L329 82L328 81M253 82L254 83L253 82M252 83L253 84L252 83M331 83L332 84L331 83M332 84L333 85L332 84M249 85L250 86L249 85M248 86L249 87L248 86M247 87L248 88L247 87M246 88L247 89L246 88M244 91L245 92L244 91M339 91L340 92L339 91M243 92L244 93L243 92M340 92L341 93L340 92M271 93L271 94L314 94C302.774 89.2896 283.219 93 271 93M242 94L243 95L242 94M268 94L269 95L268 94z"/>
<path style="fill:#1b478f; stroke:none;" d="M256 384C256 376.395 259.003 360.507 254.258 354.228C250.651 349.456 243.1 350.63 240.894 356.044C237.767 363.717 240 375.794 240 384L195 384C189.546 384 181.011 385.581 176.109 382.821C172.412 380.74 172.057 376.818 172.004 373C171.889 364.742 167.926 339.785 176.109 335.179C180.592 332.655 188.027 334 193 334L234 334C240.584 334 249.668 335.792 254.816 330.852C271.544 314.798 283.488 289.268 296.333 270C299.311 265.534 310.546 253.594 302.852 249.028C294.463 244.049 273.71 248 264 248L229 248C224.57 248 218.111 246.842 214.093 249.028C204.924 254.015 197.835 271.497 191.975 280C180.819 296.186 163.117 315.139 157.221 334C154.352 343.176 156 354.478 156 364C156 372.262 154.447 382.422 158.442 389.999C165.556 403.491 184.379 400 197 400L280 400C291.986 400 307.456 402.586 318.996 399.211C338.718 393.441 320.282 369.474 332.148 360.603C335.914 357.788 342.575 359 347 359C359.415 359 377.061 362.14 386.906 352.812C397.52 342.754 393 320.4 393 307L393 262C393 255.404 394.349 247.074 391.312 241C387.998 234.372 381.163 229.163 376 224C362.147 210.147 341.95 195.015 331.991 177.999C323.583 163.635 329 135.278 329 119C329 108.392 327.891 96.657 315 94.3295C301.361 91.8669 265.862 89.032 258.442 103.004C253.917 111.525 260.075 125.512 254.258 132.581C247.54 140.744 232.503 132.792 224.105 137.457C218.068 140.81 219.737 149.886 212.981 152.393C204.984 155.36 191.856 150.326 183 151.17C156.82 153.663 133.252 165.528 116.465 186C91.4434 216.513 89.7572 261.884 110.425 295C116.204 304.26 125.41 317.049 136 321.139C145.587 324.841 152.185 309.223 156.333 303L185.667 259C190.67 251.495 195.296 242.372 202.09 236.329C214.417 225.364 243.388 231 259 231C264.389 231 276.755 233.337 279.971 227.852C282.696 223.205 279.136 215.475 277.385 211C271.389 195.675 261.873 182.122 249 171.808C244.791 168.435 235.224 164.48 233.712 158.964C232.484 154.48 237.328 151.796 241.001 151.214C249.293 149.899 261.151 154.091 267.867 147.772C276.807 139.358 268.716 125.103 272.742 115.019C275.919 107.064 300.752 108.433 307.981 110.318C317.896 112.903 314 135.268 314 143L314 214C314 222.143 311.245 236.323 314.603 243.772C316.802 248.649 325.719 247 330 247L363 247C367.917 247 373.13 246.439 376.258 251.059C379.683 256.119 378 265.17 378 271L378 321C378 327.651 380.037 338.044 372.956 341.821C357.901 349.851 333.709 335.594 319.043 344.858C306.122 353.02 318.841 370.737 311.258 380.772C307.897 385.219 300.869 384 296 384L256 384z"/>
<path style="fill:#6f8bb8; stroke:none;" d="M316.667 94.3333L317.333 94.6667L316.667 94.3333M341 94L342 95L341 94M265 95L266 96L265 95M319 95L320 96L319 95M241 96L242 97L241 96M264 96L265 97L264 96M342 96L343 97L342 96M262 97L263 98L262 97M322 97L323 98L322 97M240 98L241 99L240 98M261 98L262 99L261 98M323 98L324 99L323 98M343 98L344 99L343 98M260 99L261 100L260 99M324 99L325 100L324 99M239.333 100.667L239.667 101.333L239.333 100.667M325 100L326 101L325 100M344.333 100.667L344.667 101.333L344.333 100.667M326 101L327 102L326 101M258 102L259 103L258 102M327 103L328 104L327 103M238.333 104.667L238.667 105.333L238.333 104.667M257 104L258 105L257 104M345.333 104.667L345.667 105.333L345.333 104.667M328 105L329 106L328 105M256.333 107.667L256.667 108.333L256.333 107.667M329 108L329 172L330 172L330 128L329 108M275 110L276 111L275 110M310 110L311 111L310 110M237 111L237 116L238 116L237 111M311 111L312 112L311 111M273 112L274 113L273 112M312 112L313 113L312 112M272 114L272 140L273 140L272 114M313 115L313 244L314 244L314 154C314 142.842 317.308 125.266 313 115M223 118L223 119L226 119L223 118M219.667 119.333L220.333 119.667L219.667 119.333M217 120L218 121L217 120M215 121L216 122L215 121M952 121L952 122L958 122L952 121M1524 121L1524 122L1531 122L1524 121M213 122L214 123L213 122M947.667 122.333L948.333 122.667L947.667 122.333z"/>
<path style="fill:#fdfdfe; stroke:none;" d="M949 122.519C916.927 129.477 929.001 178.424 961 171.481C992.841 164.573 980.71 115.639 949 122.519z"/>
<path style="fill:#6f8bb8; stroke:none;" d="M961.667 122.333L962.333 122.667L961.667 122.333M1519.67 122.333L1520.33 122.667L1519.67 122.333z"/>
<path style="fill:#fdfdfe; stroke:none;" d="M1521 122.529C1488.72 129.979 1501.94 178.879 1534 171.471C1565.58 164.172 1552.57 115.243 1521 122.529z"/>
<path style="fill:#6f8bb8; stroke:none;" d="M1533.67 122.333L1534.33 122.667L1533.67 122.333M944.667 123.333L945.333 123.667L944.667 123.333M964 123L965 124L964 123M1517 123L1518 124L1517 123M1536.67 123.333L1537.33 123.667L1536.67 123.333M210 124L211 125L210 124M473 124L473 125L539 125L518 124L473 124M605 124L605 125L675 125L675 138L668 138C675.857 141.261 679.723 129.246 674.397 125.028C670.706 122.105 660.513 124 656 124L605 124M942 124L943 125L942 124M966 124L967 125L966 124M1515 124L1516 125L1515 124M1539 124L1540 125L1539 124M1637 124L1637 125L1703 125L1682 124L1637 124M209 125L210 126L209 125z"/>
<path style="fill:#fdfdfe; stroke:none;" d="M473 125L473 137C491.892 138.428 494 163.055 494 177L494 275C494 287.925 497.489 306.756 493.297 318.996C490.213 328.003 480.088 328.995 472 329L472 342L545 342L545 329C536.432 328.994 526.276 327.233 522.742 318C518.726 307.503 522 290.212 522 279L522 189C553.69 225.621 581.841 267.576 610 307C617.007 316.81 624.413 326.341 631.626 336C634.263 339.532 637.082 345.58 641.3 347.397C645.364 349.147 651.637 348 656 348L656 187C656 168.537 648.968 138.54 675 138L675 125L605 125L605 138C613.536 138 622.063 138.352 626.547 147.004C631.21 156.001 629 169.203 629 179L629 248C619.647 239.698 612.883 227.121 605.576 217C591.123 196.982 576.749 176.886 562.116 157C555.719 148.308 548.047 131.488 538.7 126.028C534.063 123.319 525.222 125 520 125L473 125z"/>
<path style="fill:#6f8bb8; stroke:none;" d="M941 125L942 126L941 125M968 125L969 126L968 125M1513 125L1514 126L1513 125z"/>
<path style="fill:#fdfdfe; stroke:none;" d="M1637 125L1637 137C1644.31 137.001 1652.74 137.159 1657.26 144.043C1660.26 148.616 1659 155.79 1659 161L1659 201C1635.43 179.491 1602.56 187.532 1585.36 213C1557.66 254.017 1564.17 346.756 1628 345.996C1640.35 345.849 1648.88 340.243 1659 334L1659 342L1716 342L1716 330C1696.42 327.982 1703 295.963 1703 282L1703 125L1637 125z"/>
<path style="fill:#6f8bb8; stroke:none;" d="M208 126L209 127L208 126M939 126L940 127L939 126M1512 126L1513 127L1512 126M1542 126L1543 127L1542 126M207 127L208 128L207 127M540 127L541 128L540 127M938 127L939 128L938 127M971 127L972 128L971 127M1543 127L1544 128L1543 127M206 128L207 129L206 128M541 128L542 129L541 128M937 128L938 129L937 128M972 128L973 129L972 128M1509 128L1510 129L1509 128M936 129L937 130L936 129M973 129L974 130L973 129M1508 129L1509 130L1508 129M935 130L936 131L935 130M974 130L975 131L974 130M1546 130L1547 131L1546 130M204 131L205 132L204 131M255 131L256 132L255 131M543 131L544 132L543 131M934 131L935 132L934 131M1547 131L1548 132L1547 131M544 132L545 133L544 132M1506 132L1507 133L1506 132M1548 132L1549 133L1548 132M254 133L255 134L254 133M933 133L934 134L933 133M976 133L977 134L976 133M1505 133L1506 134L1505 133M181 134L181 135L203 135L181 134M252 134L253 135L252 134M545 134L546 135L545 134M932 134L933 135L932 134M1549 134L1550 135L1549 134M174 135L174 136L177 136L174 135M227 135L227 136L250 136L227 135M546 135L547 136L546 135M977 135L978 136L977 135M1504 135L1505 136L1504 135M168 136L168 137L171 137L168 136M225 136L226 137L225 136M931 136L932 137L931 136M1550 136L1551 137L1550 136M164.667 137.333L165.333 137.667L164.667 137.333M223 137L224 138L223 137M478 137L479 138L478 137M978 137L979 138L978 137M1503 137L1504 138L1503 137M1637 137L1637 138L1648 138L1637 137M160.667 138.333L161.333 138.667L160.667 138.333M479 138L480 139L479 138M548 138L549 139L548 138M605 138L605 139L617 139L605 138M1551.33 138.667L1551.67 139.333L1551.33 138.667M1650 138L1651 139L1650 138M157.667 139.333L158.333 139.667L157.667 139.333M480 139L481 140L480 139M549 139L550 140L549 139M619 139L620 140L619 139M664 139L665 140L664 139M930 139L931 140L930 139M979.333 139.667L979.667 140.333L979.333 139.667M1652 139L1653 140L1652 139M154.667 140.333L155.333 140.667L154.667 140.333M220 140L221 141L220 140M871 140L872 141L871 140z"/>
<path style="fill:#fdfdfe; stroke:none;" d="M824 211L839 211L839 290C839 302.559 836.643 317.499 842.634 329C853.435 349.733 893.24 353.572 904.012 330C905.766 326.16 905 321.123 905 317C897.464 319.056 889.049 321.71 884.318 312.96C880.292 305.515 883 291.317 883 283L883 211L909 211L909 193L883 193L883 154C883 150.685 884.351 143.367 881.397 141.028C873.365 134.668 866.28 148.08 863 153C856.256 163.116 848.99 172.966 840.83 182C830.917 192.976 824 195.629 824 211z"/>
<path style="fill:#6f8bb8; stroke:none;" d="M882 140L883 141L882 140M1502.33 140.667L1502.67 141.333L1502.33 140.667M1654 140L1655 141L1654 140M152 141L153 142L152 141M622 141L623 142L622 141M660 141L661 142L660 141M1655 141L1656 142L1655 141M149 142L150 143L149 142M219 142L220 143L219 142M271.333 142.667L271.667 143.333L271.333 142.667M551 142L552 143L551 142M623 142L624 143L623 142M659 142L660 143L659 142M1552 142L1552 145L1553 145L1552 142M1656 142L1657 143L1656 142M147 143L148 144L147 143M483 143L484 144L483 143M624 143L625 144L624 143M658 143L659 144L658 143M869 143L870 144L869 143M929 143L929 151L930 151L929 143M1657 143L1658 144L1657 143M144.667 144.333L145.333 144.667L144.667 144.333M218 144L218 147L219 147L218 144M484 144L485 145L484 144M625 144L626 145L625 144M980 144L980 150L981 150L980 144M142 145L143 146L142 145M270 145L271 146L270 145M485 145L486 146L485 145M553 145L554 146L553 145M1658 145L1659 146L1658 145M140 146L141 147L140 146M269 146L270 147L269 146M554 146L555 147L554 146M626 146L627 147L626 146M867 146L868 147L867 146M1501.33 146.667L1501.67 147.333L1501.33 146.667M138 147L139 148L138 147M268 147L269 148L268 147M656 147L657 148L656 147M267 148L268 149L267 148M627 148L628 149L627 148M135 149L136 150L135 149M217 149L218 150L217 149M266 149L267 150L266 149M556 149L557 150L556 149M865 149L866 150L865 149M1552 149L1552 152L1553 152L1552 149M133 150L134 151L133 150M264 150L265 151L264 150M489 150L490 151L489 150M557 150L558 151L557 150M131 151L132 152L131 151M177 151L177 152L181 152L177 151M199 151L199 152L203 152L199 151M238 151L238 152L262 152L238 151M490 151L491 152L490 151M130 152L131 153L130 152M171.667 152.333L172.333 152.667L171.667 152.333M206 152L206 153L209 153L206 152M213.667 152.333L214.333 152.667L213.667 152.333M236 152L237 153L236 152M491 152L492 153L491 152M558 152L559 153L558 152M863 152L864 153L863 152M1502.33 152.667L1502.67 153.333L1502.33 152.667M128 153L129 154L128 153M166 153L166 154L169 154L166 153M234 153L235 154L234 153M559 153L560 154L559 153M628 153L628 215L627 248C631.451 244.111 629 230.681 629 225L629 176C629 169.049 630.701 159.436 628 153M979.333 153.667L979.667 154.333L979.333 153.667M127 154L128 155L127 154M163.667 154.333L164.333 154.667L163.667 154.333M930 154L931 155L930 154M1551.33 154.667L1551.67 155.333L1551.33 154.667M160 155L161 156L160 155M233 155L234 156L233 155M493 155L493 320L494 320L494 204C494 190.223 498.306 167.645 493 155M861 155L862 156L861 155M124 156L125 157L124 156M157 156L158 157L157 156M561 156L562 157L561 156M978 156L979 157L978 156M1503 156L1504 157L1503 156M154.667 157.333L155.333 157.667L154.667 157.333M562 157L563 158L562 157M931 157L932 158L931 157M1550 157L1551 158L1550 157M152 158L153 159L152 158M859 158L860 159L859 158M977 158L978 159L977 158M1504 158L1505 159L1504 158M120 159L121 160L120 159M150 159L151 160L150 159M233.333 159.667L233.667 160.333L233.333 159.667M858 159L859 160L858 159M932 159L933 160L932 159M1549 159L1550 160L1549 159M119 160L120 161L119 160M148 160L149 161L148 160M564 160L565 161L564 160M976 160L977 161L976 160M1505 160L1506 161L1505 160M146 161L147 162L146 161M234 161L235 162L234 161M857 161L858 162L857 161M1548 161L1549 162L1548 161M144 162L145 163L144 162M235 162L236 163L235 162M856 162L857 163L856 162M934 162L935 163L934 162M1547 162L1548 163L1547 162M142 163L143 164L142 163M566 163L567 164L566 163M935 163L936 164L935 163M974 163L975 164L974 163M1507 163L1508 164L1507 163M114 164L115 165L114 164M238 164L239 165L238 164M567 164L568 165L567 164M936 164L937 165L936 164M973 164L974 165L973 164M1508 164L1509 165L1508 164M113 165L114 166L113 165M139 165L140 166L139 165M240 165L241 166L240 165M854 165L855 166L854 165M937 165L938 166L937 165M972 165L973 166L972 165M1509 165L1510 166L1509 165M112 166L113 167L112 166M137 166L138 167L137 166M241 166L242 167L241 166M346 166L346 169L347 169L346 166M853 166L854 167L853 166M938 166L939 167L938 166M971 166L972 167L971 166M1510 166L1511 167L1510 166M1543 166L1544 167L1543 166M111 167L112 168L111 167M136 167L137 168L136 167M243 167L244 168L243 167M569 167L570 168L569 167M939 167L940 168L939 167M970 167L971 168L970 167M1542 167L1543 168L1542 167M110 168L111 169L110 168M244 168L245 169L244 168M570 168L571 169L570 168M968 168L969 169L968 168M1513 168L1514 169L1513 168M109 169L110 170L109 169M133 169L134 170L133 169M851 169L852 170L851 169M942 169L943 170L942 169M967 169L968 170L967 169M1515 169L1516 170L1515 169M1539 169L1540 170L1539 169M132 170L133 171L132 170M247 170L248 171L247 170M347 170L348 171L347 170M571 170L572 171L571 170M850 170L851 171L850 170M944 170L945 171L944 170M964.667 170.333L965.333 170.667L964.667 170.333M1517 170L1518 171L1517 170M1537 170L1538 171L1537 170M248 171L249 172L248 171M572 171L573 172L572 171M947 171L948 172L947 171M961.667 171.333L962.333 171.667L961.667 171.333M1519.67 171.333L1520.33 171.667L1519.67 171.333M1534 171L1535 172L1534 171M129 172L130 173L129 172M249 172L250 173L249 172M951 172L951 173L959 173L951 172M1523 172L1523 173L1531 173L1523 172M128 173L129 174L128 173M127 174L128 175L127 174M574 174L575 175L574 174M847 174L848 175L847 174M104 175L105 176L104 175M126 175L127 176L126 175M253 175L254 176L253 175M330 175L331 176L330 175M575 175L576 176L575 175M846 175L847 176L846 175M103 176L104 177L103 176M125 176L126 177L125 176M254 176L255 177L254 176M845 176L846 177L845 176M124 177L125 178L124 177M255 177L256 178L255 177M331 177L332 178L331 177M123 178L124 179L123 178M256 178L257 179L256 178M577 178L578 179L577 178M101 179L102 180L101 179M122 179L123 180L122 179M257 179L258 180L257 179M332 179L333 180L332 179M578 179L579 180L578 179M100 180L101 181L100 180M121 180L122 181L121 180M258 180L259 181L258 180M842 180L843 181L842 180M120 181L121 182L120 181M259 181L260 182L259 181M579 181L580 182L579 181M841 181L842 182L841 181M119 182L120 183L119 182M580 182L581 183L580 182M840 182L841 183L840 182M98 183L99 184L98 183M118 183L119 184L118 183M839 183L840 184L839 183M97 184L98 185L97 184M117 184L118 185L117 184M336 184L337 185L336 184M838 184L839 185L838 184M262 185L263 186L262 185M582 185L583 186L582 185M837 185L838 186L837 185M96 186L97 187L96 186M263 186L264 187L263 186M583 186L584 187L583 186M836 186L837 187L836 186M115 187L116 188L115 187M264 187L265 188L264 187M835 187L836 188L835 187M114 188L115 189L114 188M340 188L341 189L340 188M834 188L835 189L834 188M1059 188L1059 189L1063 189L1059 188z"/>
<path style="fill:#fdfdfe; stroke:none;" d="M1063 188.425C1013.9 195.029 992.988 244.078 1001.46 289C1008.03 323.832 1039.68 350.934 1076 345.7C1129.86 337.939 1143.22 272.77 1124.85 230C1114.8 206.593 1090.32 184.751 1063 188.425z"/>
<path style="fill:#6f8bb8; stroke:none;" d="M1071 188L1071 189L1075 189L1071 188M1236 188L1236 189L1247 189L1236 188M1619 188L1619 189L1622 189L1619 188M1634 188L1634 189L1637 189L1634 188M1777 188L1777 189L1780 189L1777 188z"/>
<path style="fill:#fdfdfe; stroke:none;" d="M1835 308C1827.56 312.123 1820.38 317.065 1812 319.1C1777.61 327.453 1770 294.371 1770 268L1842 268C1842 254.98 1841.45 242.491 1837.33 230C1824.08 189.799 1776.35 172.884 1745.29 206.09C1723.68 229.194 1720.16 269.558 1728.43 299C1736.22 326.736 1760.49 349.78 1791 346.83C1805.4 345.438 1819.3 339.743 1830 329.907C1832.97 327.179 1838.27 323.265 1838.87 319C1839.37 315.411 1836.33 311.201 1835 308z"/>
<path style="fill:#6f8bb8; stroke:none;" d="M1792 188L1792 189L1795 189L1792 188M94 189L95 190L94 189M585 189L586 190L585 189M729 189L729 190L734 190L729 189z"/>
<path style="fill:#fdfdfe; stroke:none;" d="M688 253C691.182 253 696.683 254.017 699.062 251.397C703.009 247.051 703.565 237.406 706.27 232C714.724 215.104 736.803 198.997 753.812 215.326C759.111 220.413 762.876 239.371 757.397 245.487C752.743 250.681 738.559 252.554 732 255.201C715.586 261.824 698.759 271.73 689.093 287C675.034 309.211 682.531 343.66 712 346.826C731.78 348.952 744.208 340.318 761 332C769.366 353.592 802.591 349.772 813.852 332.985C817.096 328.149 816 321.557 816 316C802.943 325.809 802 313.653 802 302L802 242C802 229.718 803.079 218.075 794.671 208.004C776.817 186.62 740.76 186.175 716 192.375C707.376 194.534 695 198.553 689.603 206.174C686.984 209.873 688 215.712 688 220L688 253z"/>
<path style="fill:#6f8bb8; stroke:none;" d="M750 189L750 190L756 190L750 189M833 189L834 190L833 189M1053 189L1053 190L1056 190L1053 189M1078.67 189.333L1079.33 189.667L1078.67 189.333M1229 189L1229 190L1232 190L1229 189z"/>
<path style="fill:#fdfdfe; stroke:none;" d="M1202 206L1202 193L1143 193L1143 205C1150.55 205.068 1156.76 207.7 1157.81 216C1161.45 244.699 1158 276.052 1158 305C1158 317.236 1157.15 329.214 1142 330L1142 342L1216 342L1216 330C1201.03 329.18 1202 314.198 1202 303C1202 281.237 1197.62 254.202 1202.39 233C1204.25 224.727 1213.44 215.734 1222 214.703C1234.02 213.256 1236.96 226.988 1237 236C1237.11 258.665 1237 281.334 1237 304C1237 315.878 1237.99 326.636 1224 330L1224 342L1295 342L1295 329C1276.48 328.832 1282 304.076 1282 291C1282 267.755 1287.27 236.961 1278.93 215C1265.83 180.486 1224.37 183.647 1202 206z"/>
<path style="fill:#6f8bb8; stroke:none;" d="M1250.67 189.333L1251.33 189.667L1250.67 189.333M1616 189L1617 190L1616 189M1639 189L1640 190L1639 189M1773.67 189.333L1774.33 189.667L1773.67 189.333M1798.67 189.333L1799.33 189.667L1798.67 189.333M266 190L267 191L266 190M523 190L524 191L523 190M722 190L722 191L725 191L722 190M759 190L759 191L762 191L759 190M832 190L833 191L832 190M1050 190L1051 191L1050 190M1082.67 190.333L1083.33 190.667L1082.67 190.333M1225.67 190.333L1226.33 190.667L1225.67 190.333M1254 190L1255 191L1254 190M1613 190L1614 191L1613 190M1642 190L1643 191L1642 190M1769.67 190.333L1770.33 190.667L1769.67 190.333M1801.67 190.333L1802.33 190.667L1801.67 190.333M93 191L94 192L93 191M112 191L113 192L112 191M524 191L525 192L524 191M718.667 191.333L719.333 191.667L718.667 191.333M764.667 191.333L765.333 191.667L764.667 191.333M831 191L832 192L831 191M1047 191L1048 192L1047 191M1085.67 191.333L1086.33 191.667L1085.67 191.333M1222.67 191.333L1223.33 191.667L1222.67 191.333M1257 191L1258 192L1257 191M1610.67 191.333L1611.33 191.667L1610.67 191.333M1644.67 191.333L1645.33 191.667L1644.67 191.333M1767 191L1768 192L1767 191M1804 191L1805 192L1804 191M111 192L112 193L111 192M344 192L345 193L344 192M587 192L588 193L587 192M714.667 192.333L715.333 192.667L714.667 192.333M768.667 192.333L769.333 192.667L768.667 192.333M830 192L831 193L830 192M1044.67 192.333L1045.33 192.667L1044.67 192.333M1088 192L1089 193L1088 192M1143 192L1143 193L1202 193L1183 192L1143 192M1220 192L1221 193L1220 192M1259 192L1260 193L1259 192M1290 192L1291 205L1292 205L1291 193L1357 193L1357 205L1358 205L1358 192L1290 192M1608 192L1609 193L1608 192M1647 192L1648 193L1647 192M1764.67 192.333L1765.33 192.667L1764.67 192.333M1806 192L1807 193L1806 192M92 193L93 194L92 193M268 193L269 194L268 193M588 193L589 194L588 193M711 193L712 194L711 193M772 193L773 194L772 193M909 193L909 211L910 211L909 193z"/>
<path style="fill:#fdfdfe; stroke:none;" d="M933 193L933 296C933 310.308 936.529 327.491 918 330L918 342L991 342L991 329C974.008 328.117 978 309.19 978 297L978 193L933 193z"/>
<path style="fill:#6f8bb8; stroke:none;" d="M1042 193L1043 194L1042 193M1091 193L1092 194L1091 193M1217 193L1218 194L1217 193M1261 193L1262 194L1261 193z"/>
<path style="fill:#fdfdfe; stroke:none;" d="M1291 193C1291 205.48 1301.02 214.911 1305.58 227C1316.84 256.85 1327.79 286.893 1338.34 317C1342.17 327.929 1345.88 352.903 1362.78 345.397C1368.24 342.971 1370.52 329.262 1372.34 324C1379.5 303.393 1386.13 281.925 1395 262C1398.52 274.402 1402.58 286.652 1406.28 299C1408.48 306.34 1410.62 313.715 1413 321C1415.77 329.475 1419.48 355.322 1434.5 344.972C1440.96 340.524 1444.21 321.332 1446.67 314C1455.85 286.542 1466.18 259.466 1475.33 232C1478.89 221.319 1481.62 207.232 1494 204L1494 193L1447 193L1447 205C1451.98 205.107 1458.37 205.978 1459.39 212.005C1460.33 217.526 1456.38 224.857 1454.67 230C1449.92 244.229 1446.08 259.29 1440 273C1435.81 258.11 1432.13 243.008 1428.37 228C1427.12 223.002 1423.59 215.183 1425.61 210.105C1427.56 205.186 1433.56 205.04 1438 205L1438 193L1368 193L1368 205C1378.51 205.488 1380.14 212.244 1383 221C1388.6 238.149 1373.53 258.419 1369 275L1368 275C1364.02 257.814 1356.44 240.502 1350.19 224C1346.86 215.213 1344.3 205.695 1357 205L1357 193L1291 193z"/>
<path style="fill:#6f8bb8; stroke:none;" d="M1367 193L1367 205L1368 205L1367 193M1494 193L1494 204L1495 204L1494 193z"/>
<path style="fill:#fdfdfe; stroke:none;" d="M1505 193L1505 295C1505 309.677 1509.07 326.211 1491 330L1491 342L1564 342L1564 329C1546.39 328.574 1550 309.489 1550 297L1550 193L1505 193z"/>
<path style="fill:#6f8bb8; stroke:none;" d="M1606 193L1607 194L1606 193M1762 193L1763 194L1762 193M1808 193L1809 194L1808 193M110 194L111 195L110 194M526 194L527 195L526 194M708 194L709 195L708 194M774.667 194.333L775.333 194.667L774.667 194.333M1040 194L1041 195L1040 194M1093 194L1094 195L1093 194M1215 194L1216 195L1215 194M1604 194L1605 195L1604 194M1650 194L1651 195L1650 194M1760 194L1761 195L1760 194M1810 194L1811 195L1810 194M91 195L92 196L91 195M527 195L528 196L527 195M706 195L707 196L706 195M777 195L778 196L777 195M826 195L827 196L826 195M1038 195L1039 196L1038 195M1094 195L1095 196L1094 195M1214 195L1215 196L1214 195M1264 195L1265 196L1264 195M1603 195L1604 196L1603 195M1652 195L1653 196L1652 195M1812 195L1813 196L1812 195M270 196L271 197L270 196M348 196L349 197L348 196M590 196L591 197L590 196M703 196L704 197L703 196M779 196L780 197L779 196M825 196L826 197L825 196M1036 196L1037 197L1036 196M1096 196L1097 197L1096 196M1212 196L1213 197L1212 196M1265 196L1266 197L1265 196M1601 196L1602 197L1601 196M1653 196L1654 197L1653 196M1757 196L1758 197L1757 196M90 197L91 198L90 197M108 197L109 198L108 197M528 197L529 198L528 197M591 197L592 198L591 197M701 197L702 198L701 197M781 197L782 198L781 197M1035 197L1036 198L1035 197M1098 197L1099 198L1098 197M1600 197L1601 198L1600 197M1755 197L1756 198L1755 197M1815 197L1816 198L1815 197M271 198L272 199L271 198M529 198L530 199L529 198M699 198L700 199L699 198M783 198L784 199L783 198M823 198L823 211L824 211L823 198M1033 198L1034 199L1033 198M1099 198L1100 199L1099 198M1209 198L1210 199L1209 198M1754 198L1755 199L1754 198M1816 198L1817 199L1816 198M89 199L90 200L89 199M107 199L108 200L107 199M351 199L352 200L351 199M530 199L531 200L530 199M592 199L593 200L592 199M698 199L699 200L698 199M784 199L785 200L784 199M1032 199L1033 200L1032 199M1101 199L1102 200L1101 199M1208 199L1209 200L1208 199M1597 199L1598 200L1597 199M1657 199L1658 200L1657 199M1817 199L1818 200L1817 199M272 200L273 201L272 200M352 200L353 201L352 200M593 200L594 201L593 200M696 200L697 201L696 200M786 200L787 201L786 200M1030 200L1031 201L1030 200M1102 200L1103 201L1102 200M1207 200L1208 201L1207 200M1596 200L1597 201L1596 200M1658 200L1659 201L1658 200M1751 200L1752 201L1751 200M88 201L89 202L88 201M106 201L107 202L106 201M531 201L532 202L531 201M787 201L788 202L787 201M1029 201L1030 202L1029 201M1103 201L1104 202L1103 201M1206 201L1207 202L1206 201M1595 201L1596 202L1595 201M1750 201L1751 202L1750 201M273 202L274 203L273 202M354 202L355 203L354 202M532 202L533 203L532 202M693 202L694 203L693 202M1205 202L1206 203L1205 202M1271 202L1272 203L1271 202M1594 202L1595 203L1594 202M1749 202L1750 203L1749 202M105 203L106 204L105 203M355 203L356 204L355 203M595 203L596 204L595 203M692 203L693 204L692 203M790 203L791 204L790 203M1204 203L1205 204L1204 203M1272 203L1273 204L1272 203M1593 203L1594 204L1593 203M87 204L88 205L87 204M274 204L275 205L274 204M356 204L357 205L356 204M596 204L597 205L596 204M791 204L792 205L791 204M1025 204L1026 205L1025 204M1107 204L1108 205L1107 204M1203 204L1204 205L1203 204M1273 204L1274 205L1273 204M1491 204L1491 205L1494 205L1491 204M1592 204L1593 205L1592 204M104 205L105 206L104 205M357 205L358 206L357 205M534 205L535 206L534 205M792 205L793 206L792 205M1024 205L1025 206L1024 205M1108 205L1109 206L1108 205M1143 205L1143 206L1151 206L1143 205M1202 205L1203 206L1202 205M1293 205L1294 206L1293 205M1351.67 205.333L1352.33 205.667L1351.67 205.333M1368 205L1368 206L1374 206L1368 205M1430.67 205.333L1431.33 205.667L1430.67 205.333M1452.67 205.333L1453.33 205.667L1452.67 205.333M1488 205L1489 206L1488 205M1591 205L1592 206L1591 205M86.3333 206.667L86.6667 207.333L86.3333 206.667M275 206L276 207L275 206M358 206L359 207L358 206M535 206L536 207L535 206M793 206L794 207L793 206M1023 206L1024 207L1023 206M1109 206L1110 207L1109 206M1152 206L1153 207L1152 206M1274 206L1275 207L1274 206M1295 206L1296 207L1295 206M1349 206L1350 207L1349 206M1375.67 206.333L1376.33 206.667L1375.67 206.333M1428 206L1429 207L1428 206M1456 206L1457 207L1456 206M1590 206L1591 207L1590 206M103 207L104 208L103 207M359 207L360 208L359 207M598 207L599 208L598 207M794 207L795 208L794 207M1022 207L1023 208L1022 207M1110 207L1111 208L1110 207M1275 207L1276 208L1275 207M1296 207L1297 208L1296 207M1377 207L1378 208L1377 207M1426 207L1427 208L1426 207M1457 207L1458 208L1457 207M1589 207L1590 208L1589 207M1782.67 207.333L1783.33 207.667L1782.67 207.333z"/>
<path style="fill:#1b478f; stroke:none;" d="M1770 248L1803 248C1803 237.497 1804.24 218.124 1795.79 210.394C1789.48 204.632 1779.53 206.979 1775.37 214.015C1769.77 223.482 1770 237.345 1770 248z"/>
<path style="fill:#6f8bb8; stroke:none;" d="M1791 207L1792 208L1791 207M1825 207L1826 208L1825 207M276 208L277 209L276 208M360 208L361 209L360 208M599 208L600 209L599 208M687 208L687 253L688 253C688 240.258 691.91 219.701 687 208M735 208L735 209L741 209L735 208M1021 208L1022 209L1021 208M1061.67 208.333L1062.33 208.667L1061.67 208.333z"/>
<path style="fill:#1b478f; stroke:none;" d="M1063 208.537C1052.9 210.873 1050.55 223.28 1049.08 232C1045.14 255.413 1044.97 282.599 1049.08 306C1050.97 316.711 1056.82 329.617 1070 326.606C1080.04 324.312 1082.62 311.643 1084.08 303C1087.93 280.114 1087.66 253.767 1083.2 231C1081.19 220.778 1076.72 205.367 1063 208.537z"/>
<path style="fill:#6f8bb8; stroke:none;" d="M1069.67 208.333L1070.33 208.667L1069.67 208.333M1155 208L1156 209L1155 208M1347 208L1348 209L1347 208M1378 208L1379 209L1378 208M1425 208L1426 209L1425 208M1458 208L1459 209L1458 208M1588 208L1589 209L1588 208M1743 208L1744 209L1743 208M1780 208L1781 209L1780 208M1793 208L1794 209L1793 208M1826 208L1827 209L1826 208M85 209L86 210L85 209M102.333 209.667L102.667 210.333L102.333 209.667M361 209L362 210L361 209M537 209L538 210L537 209M730.667 209.333L731.333 209.667L730.667 209.333M744 209L745 210L744 209M1020 209L1021 210L1020 209M1059 209L1060 210L1059 209M1072 209L1073 210L1072 209M1276 209L1277 210L1276 209M1298 209L1299 210L1298 209M1379.33 209.667L1379.67 210.333L1379.33 209.667M1484 209L1485 210L1484 209M1742 209L1743 210L1742 209M1778 209L1779 210L1778 209M1795 209L1796 210L1795 209M277.333 210.667L277.667 211.333L277.333 210.667M362 210L363 211L362 210M538 210L539 211L538 210M600 210L601 211L600 210M727 210L728 211L727 210M746.667 210.333L747.333 210.667L746.667 210.333M796 210L797 211L796 210M1019 210L1020 211L1019 210M1074 210L1075 211L1074 210M1156 210L1157 211L1156 210M1299.33 210.667L1299.67 211.333L1299.33 210.667M1346 210L1346 214L1347 214L1346 210M1459 210L1460 211L1459 210M1483 210L1484 211L1483 210M1741 210L1742 211L1741 210M1777 210L1778 211L1777 210M1796 210L1797 211L1796 210M363 211L364 212L363 211M601 211L602 212L601 211M725 211L726 212L725 211M797 211L798 212L797 211M824 211L824 212L838 212L838 315L839 315L839 211L824 211M1075 211L1076 212L1075 211M1277 211L1278 212L1277 211M1586 211L1587 212L1586 211M1828 211L1829 212L1828 211M84.3333 212.667L84.6667 213.333L84.3333 212.667M101 212L102 213L101 212M364 212L365 213L364 212M723 212L724 213L723 212M750 212L751 213L750 212M1076 212L1077 213L1076 212M1114 212L1115 213L1114 212M1380.33 212.667L1380.67 213.333L1380.33 212.667M1482 212L1483 213L1482 212M1585 212L1586 213L1585 212M278 213L279 214L278 213M365 213L366 214L365 213M540 213L541 214L540 213M721 213L722 214L721 213M798 213L799 214L798 213M1115 213L1116 214L1115 213M1157 213L1157 320L1158 320L1158 246L1157 213M1278 213L1279 214L1278 213M1300 213L1301 214L1300 213M1633.67 213.333L1634.33 213.667L1633.67 213.333z"/>
<path style="fill:#1b478f; stroke:none;" d="M1635 213.534C1625.2 215.867 1621.78 226.265 1620 235C1615.78 255.813 1615.57 279.182 1619.81 300C1621.72 309.405 1627.55 325.078 1640 322.403C1646.94 320.91 1655.03 313.694 1657.3 307C1659.66 300.019 1658 290.315 1658 283C1658 266.681 1661.5 245.826 1657.58 230C1655.28 220.72 1644.97 211.159 1635 213.534z"/>
<path style="fill:#6f8bb8; stroke:none;" d="M1642.67 213.333L1643.33 213.667L1642.67 213.333M1739 213L1740 214L1739 213M1775 213L1776 214L1775 213M1798 213L1799 214L1798 213M366 214L367 215L366 214M541 214L542 215L541 214M603 214L604 215L603 214M720 214L721 215L720 214M753 214L754 215L753 214M1016 214L1017 215L1016 214M1054 214L1055 215L1054 214M1221 214L1221 215L1225 215L1221 214M1459 214L1460 215L1459 214M1481.33 214.667L1481.67 215.333L1481.33 214.667M1584 214L1585 215L1584 214M1631 214L1632 215L1631 214M1645 214L1646 215L1645 214M1830 214L1831 215L1830 214M83.3333 215.667L83.6667 216.333L83.3333 215.667M100 215L101 216L100 215M367 215L368 216L367 215M604 215L605 216L604 215M754 215L755 216L754 215M799 215L800 216L799 215M1015 215L1016 216L1015 215M1078 215L1079 216L1078 215M1218 215L1219 216L1218 215M1228 215L1229 216L1228 215M1425.33 215.667L1425.67 216.333L1425.33 215.667M1583 215L1584 216L1583 215M1629 215L1630 216L1629 215M1646 215L1647 216L1646 215M1774 215L1775 216L1774 215M1799 215L1800 216L1799 215M279.333 216.667L279.667 217.333L279.333 216.667M368 216L369 217L368 216M717 216L718 217L717 216M755 216L756 217L755 216M1053 216L1054 217L1053 216M1117 216L1118 217L1117 216M1216 216L1217 217L1216 216M1230 216L1231 217L1230 216M1279 216L1280 217L1279 216M1301 216L1302 217L1301 216M1347 216L1348 217L1347 216M1381 216L1382 217L1381 216M1628 216L1629 217L1628 216M1737 216L1738 217L1737 216M1831 216L1832 217L1831 216M369 217L370 218L369 217M543 217L544 218L543 217M716 217L717 218L716 217M800 217L801 218L800 217M1079 217L1080 218L1079 217M1214 217L1215 218L1214 217M1231 217L1232 218L1231 217M1458.33 217.667L1458.67 218.333L1458.33 217.667M1480 217L1481 218L1480 217M1582 217L1583 218L1582 217M1627 217L1628 218L1627 217M1773 217L1774 218L1773 217M99.3333 218.667L99.6667 219.333L99.3333 218.667M370 218L371 219L370 218M544 218L545 219L544 218M606 218L607 219L606 218M715 218L716 219L715 218M756 218L757 219L756 218M1013 218L1014 219L1013 218M1052 218L1053 219L1052 218M1212 218L1213 219L1212 218M1232 218L1233 219L1232 218M1302.33 218.667L1302.67 219.333L1302.33 218.667M1626 218L1627 219L1626 218M1736 218L1737 219L1736 218M1800.33 218.667L1800.67 219.333L1800.33 218.667M1832 218L1833 219L1832 218M82.3333 219.667L82.6667 220.333L82.3333 219.667M280.333 219.667L280.667 220.333L280.333 219.667M371 219L372 220L371 219M714 219L715 220L714 219M757.333 219.667L757.667 220.333L757.333 219.667M1080.33 219.667L1080.67 220.333L1080.33 219.667M1119 219L1120 220L1119 219M1211 219L1212 220L1211 219M1233 219L1234 220L1233 219M1280 219L1281 220L1280 219M1348 219L1349 220L1348 219M1382 219L1383 220L1382 219M1426.33 219.667L1426.67 220.333L1426.33 219.667M1581 219L1582 220L1581 219M1625 219L1626 220L1625 219M1735 219L1736 220L1735 219M372 220L373 221L372 220M713 220L714 221L713 220M801.333 220.667L801.667 221.333L801.333 220.667M1051.33 220.667L1051.67 221.333L1051.33 220.667M1210 220L1211 221L1210 220M1457.33 220.667L1457.67 221.333L1457.33 220.667M1479 220L1480 221L1479 220M1772.33 220.667L1772.67 221.333L1772.33 220.667M1833 220L1834 221L1833 220M373 221L374 222L373 221M546 221L547 222L546 221M608 221L609 222L608 221M1011 221L1012 222L1011 221M1120 221L1121 222L1120 221M1209 221L1210 222L1209 221M1234 221L1235 222L1234 221M1303 221L1304 222L1303 221M1349.33 221.667L1349.67 222.333L1349.33 221.667M1580 221L1581 222L1580 221M1624 221L1625 222L1624 221M1734 221L1735 222L1734 221M98.3333 222.667L98.6667 223.333L98.3333 222.667M374 222L375 223L374 222M547 222L548 223L547 222M609 222L610 223L609 222M758 222L758 246L759 246L758 222M1081.33 222.667L1081.67 223.333L1081.33 222.667M1208 222L1209 223L1208 222M1281 222L1281 225L1282 225L1281 222M1383.33 222.667L1383.67 223.333L1383.33 222.667M1478.33 222.667L1478.67 223.333L1478.33 222.667M1653 222L1654 223L1653 222M1801 222L1801 225L1802 225L1801 222M1834 222L1835 223L1834 222M281 223L281 227L282 227L281 223M375 223L376 224L375 223M1010 223L1011 224L1010 223M1050.33 223.667L1050.67 224.333L1050.33 223.667M1207 223L1208 224L1207 223M1235.33 223.667L1235.67 224.333L1235.33 223.667M1427.33 223.667L1427.67 224.333L1427.33 223.667M1579 223L1580 224L1579 223M1623 223L1624 224L1623 223M1654 223L1655 224L1654 223M1733 223L1734 224L1733 223M81.3333 224.667L81.6667 225.333L81.3333 224.667M376 224L377 225L376 224M710 224L711 225L710 224M802 224L802 317L803 317L803 253L802 224M1122 224L1123 225L1122 224M1206 224L1207 225L1206 224M1304 224L1305 225L1304 224M1350 224L1351 225L1350 224M1456 224L1457 225L1456 224M1771 224L1771 227L1772 227L1771 224M1835 224L1836 225L1835 224M377 225L378 226L377 225M401 225L402 226L401 225M549 225L550 226L549 225M611 225L612 226L611 225M1384.33 225.667L1384.67 226.333L1384.33 225.667M1477.33 225.667L1477.67 226.333L1477.33 225.667M1578 225L1579 226L1578 225M1622 225L1623 226L1622 225M1655 225L1656 226L1655 225M1732.33 225.667L1732.67 226.333L1732.33 225.667M97 226L97 229L98 229L97 226M378 226L379 227L378 226M402 226L403 227L402 226M550 226L551 227L550 226M612 226L613 227L612 226M1008 226L1009 227L1008 226M1082.33 226.667L1082.67 227.333L1082.33 226.667M1123 226L1124 227L1123 226M1305.33 226.667L1305.67 227.333L1305.33 226.667M379 227L380 228L379 227M708 227L709 228L708 227M1049 227L1049 230L1050 230L1049 227M1204 227L1205 228L1204 227M1351 227L1352 228L1351 227M1428.33 227.667L1428.67 228.333L1428.33 227.667M1455 227L1456 228L1455 227M1577 227L1578 228L1577 227M1836 227L1837 228L1836 227M280 228L281 229L280 228M380 228L381 229L380 228M613 228L614 229L613 228M1007 228L1008 229L1007 228M1124.33 228.667L1124.67 229.333L1124.33 228.667M1236 228L1236 322L1237 322L1237 257L1236 228M1282 228L1282 322L1283 322L1283 257L1282 228M1476.33 228.667L1476.67 229.333L1476.33 228.667M1621 228L1622 229L1621 228M1657 228L1658 229L1657 228M1731 228L1732 229L1731 228M80 229L80 233L81 233L80 229M279 229L280 230L279 229M381 229L382 230L381 229M404 229L405 230L404 229M552 229L553 230L552 229M614 229L615 230L614 229M707 229L708 230L707 229M1203 229L1204 230L1203 229M1306 229L1307 230L1306 229M1352.33 229.667L1352.67 230.333L1352.33 229.667M1385.33 229.667L1385.67 230.333L1385.33 229.667M1802 229L1802 237L1803 237L1802 229M278 230L279 231L278 230M382 230L383 231L382 230M553 230L554 231L553 230M1083 230L1083 233L1084 233L1083 230M1454 230L1455 231L1454 230M1576 230L1577 231L1576 230M1658 230L1658 306L1659 306L1659 254L1658 230M1730.33 230.667L1730.67 231.333L1730.33 230.667M1837 230L1838 231L1837 230M209 231L209 232L212 232L209 231M383 231L384 232L383 231M405 231L406 232L405 231M706 231L707 232L706 231M1006 231L1007 232L1006 231M1125 231L1126 232L1125 231M1202 231L1202 320L1203 320L1203 258L1202 231M1429.33 231.667L1429.67 232.333L1429.33 231.667M1475 231L1476 232L1475 231M1620.33 231.667L1620.67 232.333L1620.33 231.667M1770 231L1770 236L1771 236L1770 231M96 232L96 237L97 237L96 232M207 232L208 233L207 232M384 232L385 233L384 232M616 232L617 233L616 232M1307 232L1308 233L1307 232M1353.33 232.667L1353.67 233.333L1353.33 232.667M1384 232L1385 233L1384 232M205 233L206 234L205 233M385 233L386 234L385 233M406 233L407 234L406 233M555 233L556 234L555 233M617 233L618 234L617 233M705 233L706 234L705 233M1005 233L1006 234L1005 233M1048 233L1048 236L1049 236L1048 233M1126 233L1127 234L1126 233M1453 233L1454 234L1453 233M1575 233L1576 234L1575 233M1729.33 233.667L1729.67 234.333L1729.33 233.667M1838 233L1839 234L1838 233M386 234L387 235L386 234M556 234L557 235L556 234M1308.33 234.667L1308.67 235.333L1308.33 234.667M1474 234L1475 235L1474 234M202 235L203 236L202 235M387 235L388 236L387 235M407 235L408 236L407 235M704.333 235.667L704.667 236.333L704.333 235.667M1354 235L1355 236L1354 235M1383 235L1384 236L1383 235M1430.33 235.667L1430.67 236.333L1430.33 235.667M1619 235L1619 238L1620 238L1619 235M201 236L202 237L201 236M388 236L389 237L388 236M557 236L558 237L557 236M619 236L620 237L619 236M1004 236L1005 237L1004 236M1084 236L1084 239L1085 239L1084 236M1127 236L1128 237L1127 236M1452 236L1453 237L1452 236M1574 236L1575 237L1574 236M1839.33 236.667L1839.67 237.333L1839.33 236.667M200 237L201 238L200 237M389 237L390 238L389 237M408.333 237.667L408.667 238.333L408.333 237.667M558 237L559 238L558 237M620 237L621 238L620 237M1309.33 237.667L1309.67 238.333L1309.33 237.667M1382.33 237.667L1382.67 238.333L1382.33 237.667M1473 237L1474 238L1473 237M1728 237L1729 238L1728 237M199 238L200 239L199 238M703 238L704 239L703 238M1003.33 238.667L1003.67 239.333L1003.33 238.667M1355 238L1356 239L1355 238M79 239L79 257L80 257L79 239M390 239L391 240L390 239M621 239L622 240L621 239M1128 239L1129 240L1128 239M1431.33 239.667L1431.67 240.333L1431.33 239.667M1451 239L1452 240L1451 239M1573.33 239.667L1573.67 240.333L1573.33 239.667M391 240L392 241L391 240M560 240L561 241L560 240M622 240L623 241L622 240M1047 240L1047 245L1048 245L1047 240M1310 240L1311 241L1310 240M1381 240L1382 241L1381 240M1472 240L1473 241L1472 240M197 241L198 242L197 241M409 241L409 244L410 244L409 241M561 241L562 242L561 241M702 241L703 242L702 241M1356 241L1357 242L1356 241M1618 241L1618 245L1619 245L1618 241M1727.33 241.667L1727.67 242.333L1727.33 241.667M1840.33 241.667L1840.67 242.333L1840.33 241.667M196 242L197 243L196 242M1002 242L1003 243L1002 242M1129.33 242.667L1129.67 243.333L1129.33 242.667M1450 242L1451 243L1450 242M1471.33 242.667L1471.67 243.333L1471.33 242.667M392 243L393 244L392 243M624 243L625 244L624 243M1311 243L1312 244L1311 243M1357.33 243.667L1357.67 244.333L1357.33 243.667M1380 243L1381 244L1380 243M1432 243L1433 244L1432 243M195 244L196 245L195 244M563 244L564 245L563 244M625 244L626 245L625 244M701.333 244.667L701.667 245.333L701.333 244.667M1085 244L1085 251L1086 251L1085 244M1572.33 244.667L1572.67 245.333L1572.33 244.667M194 245L195 246L194 245M564 245L565 246L564 245M1001 245L1001 248L1002 248L1001 245M1312.33 245.667L1312.67 246.333L1312.33 245.667M1379.33 245.667L1379.67 246.333L1379.33 245.667M1449 245L1450 246L1449 245M1470.33 245.667L1470.67 246.333L1470.33 245.667M1726 245L1726 248L1727 248L1726 245M316 246L317 247L316 246M756.667 246.333L757.333 246.667L756.667 246.333M1130.33 246.667L1130.67 247.333L1130.33 246.667M1358.33 246.667L1358.67 247.333L1358.33 246.667M1433.33 246.667L1433.67 247.333L1433.33 246.667M193 247L194 248L193 247M215 247L215 248L302 248L275 247L215 247M318 247L318 248L374 248L356 247L318 247M393 247L393 342L394 342L394 276L393 247M753.667 247.333L754.333 247.667L753.667 247.333M1841 247L1841 250L1842 250L1841 247M192 248L193 249L192 248M213 248L214 249L213 248M303 248L304 249L303 248M566 248L567 249L566 248M700.333 248.667L700.667 249.333L700.333 248.667M750 248L751 249L750 248M1313 248L1314 249L1313 248M1378 248L1379 249L1378 248M1448 248L1449 249L1448 248M1469.33 248.667L1469.67 249.333L1469.33 248.667M1770 248L1770 249L1803 249L1770 248M212 249L213 250L212 249M304 249L305 250L304 249M567 249L568 250L567 249M747 249L748 250L747 249M1359 249L1360 250L1359 249M1571 249L1571 252L1572 252L1571 249M191 250L192 251L191 250M211 250L212 251L211 250M305 250L306 251L305 250M376 250L377 251L376 250M744 250L745 251L744 250M1000 250L1000 253L1001 253L1000 250M1434.33 250.667L1434.67 251.333L1434.33 250.667M1617 250L1617 259L1618 259L1617 250M190 251L191 252L190 251M741 251L742 252L741 251M1131.33 251.667L1131.67 252.333L1131.33 251.667M1314 251L1315 252L1314 251M1377 251L1378 252L1377 251M1447 251L1448 252L1447 251M1468 251L1469 252L1468 251M210 252L211 253L210 252M377 252L377 338L378 338L378 279L377 252M569 252L570 253L569 252M699 252L700 253L699 252M738 252L739 253L738 252M1360 252L1361 253L1360 252M1725 252L1725 256L1726 256L1725 252M96 253L96 257L97 257L96 253M189 253L190 254L189 253M209 253L210 254L209 253M570 253L571 254L570 253M736 253L737 254L736 253M1376.33 253.667L1376.67 254.333L1376.33 253.667M188 254L189 255L188 254M733 254L734 255L733 254M1046 254L1046 285L1047 285L1046 254M1315 254L1316 255L1315 254M1435.33 254.667L1435.67 255.333L1435.33 254.667M1446 254L1447 255L1446 254M1467 254L1468 255L1467 254M208 255L209 256L208 255M731 255L732 256L731 255M1361 255L1362 256L1361 255M187 256L188 257L187 256M207 256L208 257L207 256M305 256L306 257L305 256M572 256L573 257L572 256M728 256L729 257L728 256M1316.33 256.667L1316.67 257.333L1316.33 256.667M1375 256L1376 257L1375 256M1842 256L1842 268L1770 268L1770 269L1843 269L1842 256M186 257L187 258L186 257M304 257L305 258L304 257M573 257L574 258L573 257M726 257L727 258L726 257M999 257L999 278L1000 278L999 257M1132 257L1132 261L1133 261L1132 257M1445 257L1446 258L1445 257M1466 257L1467 258L1466 257M1570 257L1570 264L1571 264L1570 257M206 258L207 259L206 258M724 258L725 259L724 258M1362 258L1363 259L1362 258M1436.33 258.667L1436.67 259.333L1436.33 258.667M185 259L186 260L185 259M205 259L206 260L205 259M303 259L304 260L303 259M722 259L723 260L722 259M1317 259L1318 260L1317 259M1374 259L1375 260L1374 259M184 260L185 261L184 260M302 260L303 261L302 260M575 260L576 261L575 260M720 260L721 261L720 260M1363.33 260.667L1363.67 261.333L1363.33 260.667M1444 260L1445 261L1444 260M1465 260L1466 261L1465 260M97.3333 261.667L97.6667 262.333L97.3333 261.667M204 261L205 262L204 261M576 261L577 262L576 261M718 261L719 262L718 261M1373.33 261.667L1373.67 262.333L1373.33 261.667M80 262L80 265L81 265L80 262M183 262L184 263L183 262M203 262L204 263L203 262M301 262L302 263L301 262M716 262L717 263L716 262M1318 262L1319 263L1318 262M1394 262L1395 263L1394 262M1437.33 262.667L1437.67 263.333L1437.33 262.667M1464.33 262.667L1464.67 263.333L1464.33 262.667M182 263L183 264L182 263M300 263L301 264L300 263M715 263L716 264L715 263M1364.33 263.667L1364.67 264.333L1364.33 263.667M1395.33 263.667L1395.67 264.333L1395.33 263.667M1443 263L1444 264L1443 263M202 264L203 265L202 264M578 264L579 265L578 264M713 264L714 265L713 264M1086 264L1086 278L1087 278L1086 264M1372 264L1373 265L1372 264M181 265L182 266L181 265M201 265L202 266L201 265M299 265L300 266L299 265M579 265L580 266L579 265M711 265L712 266L711 265M1319 265L1320 266L1319 265M1393 265L1394 266L1393 265M1463.33 265.667L1463.67 266.333L1463.33 265.667M98.3333 266.667L98.6667 267.333L98.3333 266.667M180 266L181 267L180 266M298 266L299 267L298 266M710 266L711 267L710 266M1365 266L1366 267L1365 266M1438.33 266.667L1438.67 267.333L1438.33 266.667M1442 266L1443 267L1442 266M1724 266L1724 271L1725 271L1724 266M200 267L201 268L200 267M708 267L709 268L708 267M757 267L758 308L759 308C759 297.819 763.176 275.151 757 267M1320.33 267.667L1320.67 268.333L1320.33 267.667M1371 267L1372 268L1371 267M1396 267L1397 268L1396 267M81.3333 268.667L81.6667 269.333L81.3333 268.667M179 268L180 269L179 268M199 268L200 269L199 268M297 268L298 269L297 268M581 268L582 269L581 268M707 268L708 269L707 268M754.667 268.333L755.333 268.667L754.667 268.333z"/>
<path style="fill:#1b478f; stroke:none;" d="M758 268C741.196 271.993 716.442 298.997 734.214 315.721C741.358 322.444 754.333 316.297 757.397 308C759.106 303.372 758 296.873 758 292L758 268z"/>
<path style="fill:#6f8bb8; stroke:none;" d="M1392 268L1393 269L1392 268M1462.33 268.667L1462.67 269.333L1462.33 268.667M178 269L179 270L178 269M296 269L297 270L296 269M582 269L583 270L582 269M705 269L706 270L705 269M752 269L753 270L752 269M1366 269L1367 270L1366 269M1370.33 269.667L1370.67 270.333L1370.33 269.667M1441 269L1442 270L1441 269M99 270L100 271L99 270M198 270L199 271L198 270M704 270L705 271L704 270M750 270L751 271L750 270M1321 270L1322 271L1321 270M1391.33 270.667L1391.67 271.333L1391.33 270.667M1397 270L1398 271L1397 270M1439.33 270.667L1439.67 271.333L1439.33 270.667M177 271L178 272L177 271M197 271L198 272L197 271M295 271L296 272L295 271M583 271L584 272L583 271M703 271L704 272L703 271M748 271L749 272L748 271M1461 271L1462 272L1461 271M82.3333 272.667L82.6667 273.333L82.3333 272.667M176 272L177 273L176 272M294 272L295 273L294 272M584 272L585 273L584 272M747 272L748 273L747 272M1367 272L1368 273L1367 272M1369 272L1370 273L1369 272M1440 272L1441 273L1440 272M100.333 273.667L100.667 274.333L100.333 273.667M196 273L197 274L196 273M745 273L746 274L745 273M1322 273L1323 274L1322 273M1390 273L1391 274L1390 273M1398.33 273.667L1398.67 274.333L1398.33 273.667M175 274L176 275L175 274M195 274L196 275L195 274M293 274L294 275L293 274M699 274L700 275L699 274M744 274L745 275L744 274M1368 274L1369 275L1368 274M1460 274L1461 275L1460 274M174 275L175 276L174 275M292 275L293 276L292 275M586 275L587 276L586 275M698 275L699 276L698 275M83.3333 276.667L83.6667 277.333L83.3333 276.667M101 276L102 277L101 276M194 276L195 277L194 276M587 276L588 277L587 276M697 276L698 277L697 276M741 276L742 277L741 276M1323 276L1324 277L1323 276M1389 276L1390 277L1389 276M1399.33 276.667L1399.67 277.333L1399.33 276.667M1570 276L1570 283L1571 283L1570 276M173 277L174 278L173 277M193 277L194 278L193 277M291 277L292 278L291 277M696 277L697 278L696 277M740 277L741 278L740 277M1459 277L1460 278L1459 277M172 278L173 279L172 278M290 278L291 279L290 278M695 278L696 279L695 278M739 278L740 279L739 278M1324.33 278.667L1324.67 279.333L1324.33 278.667M102 279L103 280L102 279M192 279L193 280L192 279M589 279L590 280L589 279M738 279L739 280L738 279M1388 279L1389 280L1388 279M84 280L85 281L84 280M171 280L172 281L171 280M191 280L192 281L191 280M590 280L591 281L590 280M737 280L738 281L737 280M1400 280L1401 281L1400 280M1458 280L1459 281L1458 280M1617 280L1617 287L1618 287L1617 280M1770 280L1770 286L1771 286L1770 280M103 281L104 282L103 281M170 281L171 282L170 281M288 281L289 282L288 281M1132 281L1132 285L1133 285L1132 281M1325 281L1326 282L1325 281M1387.33 281.667L1387.67 282.333L1387.33 281.667M1725 281L1725 285L1726 285L1725 281M85.3333 282.667L85.6667 283.333L85.3333 282.667M190 282L191 283L190 282M692 282L693 283L692 282M1000 282L1000 286L1001 286L1000 282M1457.33 282.667L1457.67 283.333L1457.33 282.667M189 283L190 284L189 283M592 283L593 284L592 283M691 283L692 284L691 283M1401.33 283.667L1401.67 284.333L1401.33 283.667M104 284L105 285L104 284M168 284L169 285L168 284M286 284L287 285L286 284M593 284L594 285L593 284M734 284L735 285L734 284M1326 284L1327 285L1326 284M1386.33 284.667L1386.67 285.333L1386.33 284.667M86 285L87 286L86 285M1456.33 285.667L1456.67 286.333L1456.33 285.667M105 286L106 287L105 286M187 286L188 287L187 286M689 286L690 287L689 286M1402.33 286.667L1402.67 287.333L1402.33 286.667M87.3333 287.667L87.6667 288.333L87.3333 287.667M166 287L167 288L166 287M284 287L285 288L284 287M595 287L596 288L595 287M732 287L733 288L732 287M1327 287L1328 288L1327 287M1385 287L1386 288L1385 287M106 288L107 289L106 288M596 288L597 289L596 288M1131.33 288.667L1131.67 289.333L1131.33 288.667M1455.33 288.667L1455.67 289.333L1455.33 288.667M1571 288L1571 291L1572 291L1571 288M185 289L186 290L185 289M687 289L688 290L687 289M731 289L732 290L731 289M1001.33 289.667L1001.67 290.333L1001.33 289.667M1328.33 289.667L1328.67 290.333L1328.33 289.667M1403.33 289.667L1403.67 290.333L1403.33 289.667M1726 289L1726 292L1727 292L1726 289M88 290L89 291L88 290M164 290L165 291L164 290M282 290L283 291L282 290M1085 290L1085 295L1086 295L1085 290M1384 290L1385 291L1384 290M1771.33 290.667L1771.67 291.333L1771.33 290.667M108 291L109 292L108 291M598 291L599 292L598 291M686 291L687 292L686 291M1454 291L1455 292L1454 291M89 292L90 293L89 292M183 292L184 293L183 292M327 292L327 293L331 293L327 292M599 292L600 293L599 292M730 292L731 293L730 292M1130.33 292.667L1130.67 293.333L1130.33 292.667M1329 292L1330 293L1329 292M1618 292L1618 295L1619 295L1618 292M109 293L110 294L109 293M162 293L163 294L162 293M280 293L281 294L280 293M325 293L326 294L325 293z"/>
<path style="fill:#1b478f; stroke:none;" d="M326.044 293.746C317.101 297.258 317.972 328.974 330.985 325.012C341.426 321.834 340.166 288.201 326.044 293.746z"/>
<path style="fill:#6f8bb8; stroke:none;" d="M332 293L333 294L332 293M685.333 293.667L685.667 294.333L685.333 293.667M1002.33 293.667L1002.67 294.333L1002.33 293.667M1047 293L1047 298L1048 298L1047 293M1383 293L1384 294L1383 293M1404 293L1405 294L1404 293M90 294L91 295L90 294M323 294L324 295L323 294M1453 294L1454 295L1453 294M1572.33 294.667L1572.67 295.333L1572.33 294.667M181 295L182 296L181 295M322 295L323 296L322 295M601 295L602 296L601 295M729.333 295.667L729.667 296.333L729.333 295.667M1330 295L1331 296L1330 295M1382.33 295.667L1382.67 296.333L1382.33 295.667M1727.33 295.667L1727.67 296.333L1727.33 295.667M1772.33 295.667L1772.67 296.333L1772.33 295.667M91 296L92 297L91 296M111 296L112 297L111 296M160 296L161 297L160 296M278 296L279 297L278 296M602 296L603 297L602 296M684 296L685 297L684 296M1129.33 296.667L1129.67 297.333L1129.33 296.667M1405.33 296.667L1405.67 297.333L1405.33 296.667M92 297L93 298L92 297M321 297L322 298L321 297M336.333 297.667L336.667 298.333L336.333 297.667M1003 297L1004 298L1003 297M1452 297L1453 298L1452 297M179 298L180 299L179 298M1331 298L1332 299L1331 298M1381 298L1382 299L1381 298M1619 298L1619 301L1620 301L1619 298M93 299L94 300L93 299M113 299L114 300L113 299M158 299L159 300L158 299M276 299L277 300L276 299M604 299L605 300L604 299M683.333 299.667L683.667 300.333L683.333 299.667M1128.33 299.667L1128.67 300.333L1128.33 299.667M1406.33 299.667L1406.67 300.333L1406.33 299.667M1573.33 299.667L1573.67 300.333L1573.33 299.667M1728 299L1729 300L1728 299M1773 299L1774 300L1773 299M605 300L606 301L605 300M1004 300L1005 301L1004 300M1084 300L1084 303L1085 303L1084 300M1332.33 300.667L1332.67 301.333L1332.33 300.667M1451 300L1452 301L1451 300M94 301L95 302L94 301M177 301L178 302L177 301M1380 301L1381 302L1380 301M95 302L96 303L95 302M115 302L116 303L115 302M156 302L157 303L156 302M274 302L275 303L274 302M1048 302L1048 305L1049 305L1048 302M1127 302L1128 303L1127 302M1450.33 302.667L1450.67 303.333L1450.33 302.667M1574.33 302.667L1574.67 303.333L1574.33 302.667M1729.33 302.667L1729.67 303.333L1729.33 302.667M1774 302L1775 303L1774 302M116 303L117 304L116 303M607 303L608 304L607 303M682 303L682 306L683 306L682 303M1005 303L1006 304L1005 303M1333 303L1334 304L1333 303M1407 303L1408 304L1407 303M1620.33 303.667L1620.67 304.333L1620.33 303.667M96 304L97 305L96 304M117 304L118 305L117 304M175 304L176 305L175 304M608 304L609 305L608 304M1379 304L1380 305L1379 304M1775 304L1776 305L1775 304M97 305L98 306L97 305M154 305L155 306L154 305M272 305L273 306L272 305M1006 305L1007 306L1006 305M1126 305L1127 306L1126 305M1449.33 305.667L1449.67 306.333L1449.33 305.667M1730.33 305.667L1730.67 306.333L1730.33 305.667M609 306L610 307L609 306M729.333 306.667L729.667 307.333L729.333 306.667M1083.33 306.667L1083.67 307.333L1083.33 306.667M1334 306L1335 307L1334 306M1378.33 306.667L1378.67 307.333L1378.33 306.667M1408 306L1409 307L1408 306M1575 306L1576 307L1575 306M1621.33 306.667L1621.67 307.333L1621.33 306.667M1776 306L1777 307L1776 306M173 307L174 308L173 307M610 307L611 308L610 307M1007 307L1008 308L1007 307M1125 307L1126 308L1125 307M1657 307L1658 308L1657 307M99 308L100 309L99 308M152 308L153 309L152 308M270 308L271 309L270 308M1049.33 308.667L1049.67 309.333L1049.33 308.667M1448.33 308.667L1448.67 309.333L1448.33 308.667M1731 308L1732 309L1731 308M1777 308L1778 309L1777 308M1833 308L1834 309L1833 308M100 309L101 310L100 309M1124 309L1125 310L1124 309M1335 309L1336 310L1335 309M1377.33 309.667L1377.67 310.333L1377.33 309.667M1409.33 309.667L1409.67 310.333L1409.33 309.667M1576 309L1577 310L1576 309M1622 309L1623 310L1622 309M1656 309L1657 310L1656 309M1832 309L1833 310L1832 309M1835 309L1836 310L1835 309M122 310L123 311L122 310M171 310L172 311L171 310M612 310L613 311L612 310M730 310L731 311L730 310M756 310L757 311L756 310M1008 310L1009 311L1008 310M1082.33 310.667L1082.67 311.333L1082.33 310.667M1655 310L1656 311L1655 310M1732 310L1733 311L1732 310M1830 310L1831 311L1830 310M123 311L124 312L123 311M150 311L151 312L150 311M268 311L269 312L268 311M613 311L614 312L613 311M755 311L756 312L755 311M1009 311L1010 312L1009 311M1123 311L1124 312L1123 311M1336.33 311.667L1336.67 312.333L1336.33 311.667M1447 311L1448 312L1447 311M1577 311L1578 312L1577 311M1623.33 311.667L1623.67 312.333L1623.33 311.667M1829 311L1830 312L1829 311M1836 311L1837 312L1836 311M124 312L125 313L124 312M731 312L732 313L731 312M754 312L755 313L754 312M883 312L884 313L883 312M1050 312L1051 313L1050 312M1122 312L1123 313L1122 312M1376 312L1377 313L1376 312M1410.33 312.667L1410.67 313.333L1410.33 312.667M1780 312L1781 313L1780 312M1827 312L1828 313L1827 312M103 313L104 314L103 313M169 313L170 314L169 313M753 313L754 314L753 313M1010 313L1011 314L1010 313M1578.33 313.667L1578.67 314.333L1578.33 313.667M1624 313L1625 314L1624 313M1733 313L1734 314L1733 313M1825 313L1826 314L1825 313M1837 313L1838 314L1837 313M104 314L105 315L104 314M148 314L149 315L148 314M266 314L267 315L266 314M615 314L616 315L615 314M732 314L733 315L732 314M752 314L753 315L752 314M1081 314L1082 315L1081 314M1121 314L1122 315L1121 314M1337 314L1338 315L1337 314M1446 314L1447 315L1446 314M1652 314L1653 315L1652 314M1734 314L1735 315L1734 314M1823 314L1824 315L1823 314M105 315L106 316L105 315M616 315L617 316L616 315M733 315L734 316L733 315M815 315L816 316L815 315M885 315L886 316L885 315M1011 315L1012 316L1011 315M1051 315L1052 316L1051 315M1375 315L1376 316L1375 315M1625 315L1626 316L1625 315M1651 315L1652 316L1651 315M1784 315L1785 316L1784 315M1821 315L1822 316L1821 315M1838 315L1839 316L1838 315M106 316L107 317L106 316M129 316L130 317L129 316M167 316L168 317L167 316M734 316L735 317L734 316M749 316L750 317L749 316M814 316L815 317L814 316M886 316L887 317L886 316M904 316L905 317L904 316M1080 316L1081 317L1080 316M1411 316L1412 317L1411 316M1579 316L1580 317L1579 316M1626 316L1627 317L1626 316M1735 316L1736 317L1735 316M1819 316L1820 317L1819 316M107 317L108 318L107 317M130 317L131 318L130 317M146 317L147 318L146 317M166 317L167 318L166 317M264 317L265 318L264 317M747 317L748 318L747 317M902 317L903 318L902 317M1052 317L1053 318L1052 317M1119 317L1120 318L1119 317M1338 317L1339 318L1338 317M1445 317L1446 318L1445 317M1788 317L1789 318L1788 317M1816.67 317.333L1817.33 317.667L1816.67 317.333M108 318L109 319L108 318M131 318L132 319L131 318M145 318L146 319L145 318M522 318L523 319L522 318M618 318L619 319L618 318M682 318L682 321L683 321L682 318M737.667 318.333L738.333 318.667L737.667 318.333M744 318L745 319L744 318M803 318L804 319L803 318M889.667 318.333L890.333 318.667L889.667 318.333M900 318L901 319L900 318M1013 318L1014 319L1013 318M1079 318L1080 319L1079 318M1374 318L1375 319L1374 318M1647 318L1648 319L1647 318M1736 318L1737 319L1736 318M1790.67 318.333L1791.33 318.667L1790.67 318.333M1813.67 318.333L1814.33 318.667L1813.67 318.333M1839 318L1840 319L1839 318M109 319L110 320L109 319M165 319L166 320L165 319M619 319L620 320L619 319M893 319L893 320L898 320L893 319M932 319L932 322L933 322L932 319M1014 319L1015 320L1014 319M1053 319L1054 320L1053 319M1412 319L1413 320L1412 319M1550 319L1550 322L1551 322L1550 319M1581 319L1582 320L1581 319M1646 319L1647 320L1646 319M1794 319L1794 320L1797 320L1794 319M1809.67 319.333L1810.33 319.667L1809.67 319.333M110 320L111 321L110 320M134 320L135 321L134 320M164 320L165 321L164 320M262 320L263 321L262 320M321 320L322 321L321 320M336 320L337 321L336 320M523 320L524 321L523 320M805 320L806 321L805 320M811 320L812 321L811 320M839.333 320.667L839.667 321.333L839.333 320.667M1078 320L1079 321L1078 320M1117 320L1118 321L1117 320M1339 320L1340 321L1339 320M1373.33 320.667L1373.67 321.333L1373.33 320.667M1444 320L1445 321L1444 320M1630 320L1631 321L1630 320M1644 320L1645 321L1644 320M1703.33 320.667L1703.67 321.333L1703.33 320.667M1737 320L1738 321L1737 320M1839 320L1840 321L1839 320M111 321L112 322L111 321M135 321L136 322L135 321M142 321L143 322L142 321M492 321L493 322L492 321M807 321L807 322L811 322L807 321M978.333 321.667L978.667 322.333L978.333 321.667M1054 321L1055 322L1054 321M1116 321L1117 322L1116 321M1504.33 321.667L1504.67 322.333L1504.33 321.667M1582 321L1583 322L1582 321M1643 321L1644 322L1643 321M1738 321L1739 322L1738 321M1838 321L1839 322L1838 321M112 322L113 323L112 322M163 322L164 323L163 322M322 322L323 323L322 322M335 322L336 323L335 322M621 322L622 323L621 322M1016 322L1017 323L1016 322M1055 322L1056 323L1055 322M1115 322L1116 323L1115 322M1156 322L1157 323L1156 322M1203 322L1204 323L1203 322M1340.33 322.667L1340.67 323.333L1340.33 322.667M1413.33 322.667L1413.67 323.333L1413.33 322.667M1443.33 322.667L1443.67 323.333L1443.33 322.667M1634.67 322.333L1635.33 322.667L1634.67 322.333M1640 322L1641 323L1640 322M1837 322L1838 323L1837 322M113 323L114 324L113 323M162 323L163 324L162 323M260 323L261 324L260 323M323 323L324 324L323 323M334 323L335 324L334 323M622 323L623 324L622 323M683.333 323.667L683.667 324.333L683.333 323.667M931 323L932 324L931 323M1017 323L1018 324L1017 323M1056 323L1057 324L1056 323M1076 323L1077 324L1076 323M1235 323L1236 324L1235 323M1372.33 323.667L1372.67 324.333L1372.33 323.667M1551 323L1552 324L1551 323M1704 323L1705 324L1704 323M1836 323L1837 324L1836 323M114 324L115 325L114 324M259 324L260 325L259 324M324 324L325 325L324 324M333 324L334 325L333 324M490 324L491 325L490 324M527 324L528 325L527 324M840 324L841 325L840 324M1018 324L1019 325L1018 324M1057 324L1058 325L1057 324M1075 324L1076 325L1075 324M1204 324L1205 325L1204 324M1584 324L1585 325L1584 324M1740 324L1741 325L1740 324M1835 324L1836 325L1835 324M115 325L116 326L115 325M161 325L162 326L161 325M326.667 325.333L327.333 325.667L326.667 325.333M330.667 325.333L331.333 325.667L330.667 325.333M528 325L529 326L528 325M980 325L981 326L980 325M1019 325L1020 326L1019 325M1058 325L1059 326L1058 325M1073 325L1074 326L1073 325M1154 325L1155 326L1154 325M1283 325L1284 326L1283 325M1341.33 325.667L1341.67 326.333L1341.33 325.667M1414.33 325.667L1414.67 326.333L1414.33 325.667M1442.33 325.667L1442.67 326.333L1442.33 325.667M1502 325L1503 326L1502 325M1585 325L1586 326L1585 325M1705 325L1706 326L1705 325M1741 325L1742 326L1741 325M1834 325L1835 326L1834 325M160 326L161 327L160 326M258 326L259 327L258 326M487 326L488 327L487 326M530 326L531 327L530 326M624 326L625 327L624 326M684 326L685 327L684 326M841.333 326.667L841.667 327.333L841.333 326.667M928 326L929 327L928 326M981 326L982 327L981 326M1020 326L1021 327L1020 326M1060.67 326.333L1061.33 326.667L1060.67 326.333M1071 326L1072 327L1071 326M1153 326L1154 327L1153 326M1284 326L1285 327L1284 326M1371 326L1372 327L1371 326M1706 326L1707 327L1706 326M1742 326L1743 327L1742 326M1833 326L1834 327L1833 326M257 327L258 328L257 327M484 327L485 328L484 327M532.667 327.333L533.333 327.667L532.667 327.333M625 327L626 328L625 327M927 327L928 328L927 327M983 327L984 328L983 327M1021 327L1022 328L1021 327M1151 327L1152 328L1151 327M1231 327L1232 328L1231 327M1285 327L1286 328L1285 327M1499 327L1500 328L1499 327M1555 327L1556 328L1555 327M1707 327L1708 328L1707 327M1832 327L1833 328L1832 327M119 328L120 329L119 328M159 328L160 329L159 328M479 328L479 329L482 329L479 328M535 328L535 329L545 329L535 328M685.333 328.667L685.667 329.333L685.333 328.667M924.667 328.333L925.333 328.667L924.667 328.333M985 328L986 329L985 328M1022 328L1023 329L1022 328M1149 328L1150 329L1149 328M1208 328L1209 329L1208 328M1229 328L1230 329L1229 328M1287.67 328.333L1288.33 328.667L1287.67 328.333M1342 328L1343 329L1342 328M1441.33 328.667L1441.67 329.333L1441.33 328.667M1497 328L1498 329L1497 328M1557.67 328.333L1558.33 328.667L1557.67 328.333M1587 328L1588 329L1587 328M1831 328L1832 329L1831 328M120 329L121 330L120 329M256 329L257 330L256 329M545 329L545 342L546 342L545 329M842 329L843 330L842 329M918 329L918 330L922 330L918 329M991 329L991 342L918 342L918 343L992 343L991 329M1023 329L1024 330L1023 329M1145 329L1145 330L1148 330L1145 329M1210 329L1210 330L1213 330L1210 329M1223 329L1223 342L1224 342C1224 337.614 1222.97 332.615 1227 330L1223 329M1295 329L1295 342L1296 342L1295 329M1370 329L1371 330L1370 329M1415 329L1416 330L1415 329M1490 329L1490 343L1564 343L1564 342L1491 342C1491 337.614 1489.97 332.615 1494 330L1490 329M1588 329L1589 330L1588 329M1711.67 329.333L1712.33 329.667L1711.67 329.333M1830 329L1831 330L1830 329M158 330L159 331L158 330M255 330L256 331L255 330M627 330L628 331L627 330M686 330L687 331L686 330M843 330L844 331L843 330M1024 330L1025 331L1024 330M1107 330L1108 331L1107 330M1216 330L1216 342L1217 342L1216 330M1589 330L1590 331L1589 330M1716 330L1716 342L1717 342L1716 330M1829 330L1830 331L1829 330M123 331L124 332L123 331M254 331L255 332L254 331M628 331L629 332L628 331M903 331L904 332L903 331M1025 331L1026 332L1025 331M1106 331L1107 332L1106 331M1343 331L1344 332L1343 331M1440 331L1441 332L1440 331M1590 331L1591 332L1590 331M124 332L125 333L124 332M157 332L158 333L157 332M253 332L254 333L253 332M687 332L688 333L687 332M814 332L815 333L814 332M844 332L845 333L844 332M902 332L903 333L902 332M1105 332L1106 333L1105 332M1369 332L1370 333L1369 332M1416.33 332.667L1416.67 333.333L1416.33 332.667M1591 332L1592 333L1591 332M1748 332L1749 333L1748 332M126 333L127 334L126 333M252 333L253 334L252 333M757 333L758 334L757 333M813 333L814 334L813 333M845 333L846 334L845 333M901 333L902 334L901 333M1028 333L1029 334L1028 333M1344.33 333.667L1344.67 334.333L1344.33 333.667M1592 333L1593 334L1592 333M1749 333L1750 334L1749 333M1825 333L1826 334L1825 333M127 334L128 335L127 334M176.667 334.333L177.333 334.667L176.667 334.333M630 334L631 335L630 334M756 334L757 335L756 334M761 334L762 335L761 334M812 334L813 335L812 334M1029 334L1030 335L1029 334M1102 334L1103 335L1102 334M1368.33 334.667L1368.67 335.333L1368.33 334.667M1439 334L1440 335L1439 334M1593 334L1594 335L1593 334M1658 334L1658 342L1659 342L1658 334M1750 334L1751 335L1750 334M1824 334L1825 335L1824 334M129 335L130 336L129 335M156.333 335.667L156.667 336.333L156.333 335.667M174 335L175 336L174 335M631 335L632 336L631 335M689 335L690 336L689 335M762 335L763 336L762 335M1031 335L1032 336L1031 335M1101 335L1102 336L1101 335M1417.33 335.667L1417.67 336.333L1417.33 335.667M1594 335L1595 336L1594 335M1822 335L1823 336L1822 335M130 336L131 337L130 336M173 336L174 337L173 336M690 336L691 337L690 336M753 336L754 337L753 336M1032 336L1033 337L1032 336M1099 336L1100 337L1099 336M1345.33 336.667L1345.67 337.333L1345.33 336.667M1753 336L1754 337L1753 336M1821 336L1822 337L1821 336M132 337L133 338L132 337M691 337L692 338L691 337M751 337L752 338L751 337M763 337L764 338L763 337M848 337L849 338L848 337M1034 337L1035 338L1034 337M1367 337L1368 338L1367 337M1438 337L1439 338L1438 337M1597 337L1598 338L1597 337M1653 337L1654 338L1653 337M1819 337L1820 338L1819 337M133 338L134 339L133 338M172.333 338.667L172.667 339.333L172.333 338.667M633 338L634 339L633 338M692 338L693 339L692 338M750 338L751 339L750 338M764 338L765 339L764 338M808 338L809 339L808 338M896 338L897 339L896 338M1036 338L1037 339L1036 338M1096 338L1097 339L1096 338M1418.33 338.667L1418.67 339.333L1418.33 338.667M1598 338L1599 339L1598 338M1652 338L1653 339L1652 338M1756 338L1757 339L1756 338M376 339L377 340L376 339M634 339L635 340L634 339M748 339L749 340L748 339M765 339L766 340L765 339M807 339L808 340L807 339M851 339L852 340L851 339M895 339L896 340L895 339M1038 339L1039 340L1038 339M1094 339L1095 340L1094 339M1346 339L1347 340L1346 339M1600 339L1601 340L1600 339M1650 339L1651 340L1650 339M1758 339L1759 340L1758 339M1816 339L1817 340L1816 339M695 340L696 341L695 340M746 340L747 341L746 340M766 340L767 341L766 340M806 340L807 341L806 340M852 340L853 341L852 340M1040 340L1041 341L1040 340M1092 340L1093 341L1092 340M1366 340L1367 341L1366 340M1437 340L1438 341L1437 340M1649 340L1650 341L1649 340M1760 340L1761 341L1760 340M1814 340L1815 341L1814 340M635 341L636 342L635 341M696 341L697 342L696 341M744 341L745 342L744 341M804 341L805 342L804 341M854 341L855 342L854 341M892 341L893 342L892 341M1042 341L1043 342L1042 341M1090 341L1091 342L1090 341M1603 341L1604 342L1603 341M1647 341L1648 342L1647 341M1762 341L1763 342L1762 341M1812 341L1813 342L1812 341M137 342L138 343L137 342M324 342L324 343L373 343C360.348 337.691 337.788 342 324 342M473 342L473 343L545 343L522 342L473 342M636 342L637 343L636 342M698 342L699 343L698 342M742 342L743 343L742 342M769 342L770 343L769 342M803 342L804 343L803 342M890 342L891 343L890 342M1045 342L1046 343L1045 342M1087.67 342.333L1088.33 342.667L1087.67 342.333M1143 342L1143 343L1216 343L1193 342L1143 342M1224 342L1224 343L1295 343L1273 342L1224 342M1347 342L1348 343L1347 342M1419 342L1420 343L1419 342M1436.33 342.667L1436.67 343.333L1436.33 342.667M1605.67 342.333L1606.33 342.667L1605.67 342.333M1645 342L1646 343L1645 342M1659 342L1659 343L1716 343L1698 342L1659 342M1764 342L1765 343L1764 342M1809 342L1810 343L1809 342M138 343L139 344L138 343M320.667 343.333L321.333 343.667L320.667 343.333M700 343L701 344L700 343M740 343L741 344L740 343M771 343L772 344L771 343M801 343L802 344L801 343M858 343L859 344L858 343M888 343L889 344L888 343M1047.67 343.333L1048.33 343.667L1047.67 343.333M1084.67 343.333L1085.33 343.667L1084.67 343.333M1365 343L1366 344L1365 343M1608 343L1609 344L1608 343M1642 343L1643 344L1642 343M1767 343L1768 344L1767 343M1807 343L1808 344L1807 343M392 344L393 345L392 344M409.333 344.667L409.667 345.333L409.333 344.667M702 344L703 345L702 344M737 344L738 345L737 344M773 344L774 345L773 344M799 344L800 345L799 344M860.667 344.333L861.333 344.667L860.667 344.333M884.667 344.333L885.333 344.667L884.667 344.333M1051 344L1052 345L1051 344M1081.67 344.333L1082.33 344.667L1081.67 344.333M1348.33 344.667L1348.67 345.333L1348.33 344.667M1610.67 344.333L1611.33 344.667L1610.67 344.333M1639.67 344.333L1640.33 344.667L1639.67 344.333M1770 344L1771 345L1770 344M1803.67 344.333L1804.33 344.667L1803.67 344.333M317 345L318 346L317 345M638 345L639 346L638 345M704.667 345.333L705.333 345.667L704.667 345.333M733.667 345.333L734.333 345.667L733.667 345.333M775.667 345.333L776.333 345.667L775.667 345.333M796 345L797 346L796 345M864 345L864 346L867 346L864 345M878 345L878 346L882 346L878 345M1055.67 345.333L1056.33 345.667L1055.67 345.333M1077.67 345.333L1078.33 345.667L1077.67 345.333M1364 345L1365 346L1364 345M1420 345L1421 346L1420 345M1435 345L1436 346L1435 345M1614.67 345.333L1615.33 345.667L1614.67 345.333M1634 345L1634 346L1637 346L1634 345M1773.67 345.333L1774.33 345.667L1773.67 345.333M1799.67 345.333L1800.33 345.667L1799.67 345.333M139 346L139 384L140 384C140 373.089 143.211 356.036 139 346M316 346L317 347L316 346M639 346L640 347L639 346M708.667 346.333L709.333 346.667L708.667 346.333M729.667 346.333L730.333 346.667L729.667 346.333M779.667 346.333L780.333 346.667L779.667 346.333M791.667 346.333L792.333 346.667L791.667 346.333M1061 346L1061 347L1073 347L1061 346M1349 346L1349 347L1364 347L1349 346M1421 346L1421 347L1435 347L1421 346M1619 346L1619 347L1631 347L1619 346M1778 346L1778 347L1781 347L1778 346M1793 346L1793 347L1797 347L1793 346M315 347L316 348L315 347M391 347L392 348L391 347M714 347L714 348L725 348L714 347M390 348L391 349L390 348M408.333 348.667L408.667 349.333L408.333 348.667M641 348L641 349L655 349L641 348M314 349L315 350L314 349M389 350L390 351L389 350M244 351L245 352L244 351M251 351L252 352L251 351M313 351L314 352L313 351M388 351L389 352L388 351M407 351L408 352L407 351M387 352L388 353L387 352M386 353L387 354L386 353M406 353L407 354L406 353M385 354L386 355L385 354M240.333 355.667L240.667 356.333L240.333 355.667M255 355L256 356L255 355M383 355L384 356L383 355M405 355L406 356L405 355M379 357L380 358L379 357M404 357L405 358L404 357M374 358L374 359L377 359L374 358M403 358L404 359L403 358M332 359L333 360L332 359M401 361L402 362L401 361M329.333 362.667L329.667 363.333L329.333 362.667M400 362L401 363L400 362M399 363L400 364L399 363M398 364L399 365L398 364M397 365L398 366L397 365M396 366L397 367L396 366M393 368L394 369L393 368M391 369L392 370L391 369M390 370L391 371L390 370M388 371L389 372L388 371M385 372L386 373L385 372M382 373L383 374L382 373M375 374L375 375L379 375L375 374z"/>
<path style="fill:#ed1d25; stroke:none;" d="M0 375C0 412.204 -8.28897 456.053 22 483.907C49.418 509.12 96.7485 500 131 500L405 500L1562 500L1807 500C1842.71 500 1882.08 506.715 1907.67 476C1928.84 450.597 1920 406.101 1920 375L554 375L414 375L371 375C364.566 375 356.279 373.61 350.059 375.318C344.381 376.877 346.1 385.462 345.192 390C343.543 398.244 338.87 405.438 332 410.363C313.721 423.468 279.339 417 258 417L199 417C187.951 417 175.673 418.356 165 414.906C147.117 409.125 139.049 392.758 139 375L0 375z"/>
<path style="fill:#6f8bb8; stroke:none;" d="M347 375L348 376L347 375M346 376L347 377L346 376M172.333 378.667L172.667 379.333L172.333 378.667M312.333 378.667L312.667 379.333L312.333 378.667M173 381L174 382L173 381M311 381L312 382L311 381M174 382L175 383L174 382M310 382L311 383L310 382M176 383L176 384L240 384L220 383L176 383M256 383L256 384L309 384L292 383L256 383M156.333 384.667L156.667 385.333L156.333 384.667M157 388L158 389L157 388M345 388L346 389L345 388M140 389L141 390L140 389M158 390L159 391L158 390M328.333 390.667L328.667 391.333L328.333 390.667M160 393L161 394L160 393M344 393L345 394L344 393M161 394L162 395L161 394M326 394L327 395L326 394M142 395L143 396L142 395M162 395L163 396L162 395M325 395L326 396L325 395M343 396L344 397L343 396M143 397L144 398L143 397M165 397L166 398L165 397M323 397L324 398L323 397M167 398L168 399L167 398M321 398L322 399L321 398M170.667 399.333L171.333 399.667L170.667 399.333M318.667 399.333L319.333 399.667L318.667 399.333M147 403L148 404L147 403M152 408L153 409L152 408M332 410L333 411L332 410M158 412L159 413L158 412M163 414L164 415L163 414M324 414L325 415L324 414M166 415L167 416L166 415M320 415L321 416L320 415M173 416L173 417L315 417C303.782 412.293 284.206 416 272 416L173 416z"/>
<path style="fill:#010101; stroke:none;" d="M0 445L0 500L55 500L55 499C34.8568 497.355 16.2687 481.249 7.1196 464C3.87656 457.886 2.92202 451.068 0 445M1919 454C1912.71 475.996 1890.33 497.095 1867 499L1867 500L1920 500C1920 486.997 1924.01 465.939 1919 454z"/>
</svg>