<svg xmlns="http://www.w3.org/2000/svg" xmlns:xlink="http://www.w3.org/1999/xlink" version="1.1" id="layer" x="0px" y="0px" style="enable-background:new 0 0 652 652;" xml:space="preserve" viewBox="20.8 283.6 599.9 77.11">
<style type="text/css">
	.st0{fill:#00937B;}
	.st1{fill:#00006B;}
</style>
<g>
	<path class="st0" d="M409.9,324c0-10.4-3.8-20.1-10.8-27.7c-3.6-3.8-7.6-7-12.3-9.3l-1.1,1.7c2.5,1.5,4.9,3.4,7,5.5   c7.2,7.4,11.2,17.1,11.4,27.5c0,1.5,0,4-0.2,6.1c-1.3-4.4-3.6-8.5-6.8-11.8c-1.1-1.3-2.1-2.3-3.6-3c-0.2,3.2-0.8,6.3-1.7,9.5   c1.3,0.8,2.3,1.9,3.4,3c2.8,2.5,4.4,6.1,4.7,9.9c0,1.9-0.8,3.8-2.3,5.1c-2.1,1.7-4.7,2.5-7.4,2.5c-4-0.2-8-1.5-11.4-3.8   c5.3-5.3,9.1-11.8,10.8-19c0.8-3.2,1.3-6.3,1.3-9.7c0-5.5-1.3-11-4-15.9c-3.6-6.8-10.6-11-18.2-11c-9.5,0.2-18.6,4.4-25,11.4   c-7.2,7-11.4,16.7-11.4,26.9c0,1.7,0,3.4,0.2,5.1h1.9c0-10.2,4-19.7,11.4-26.7c3.8-3.6,8-6.8,12.9-8.9c-3.4,3.2-5.7,7.4-7,11.8   c-0.4,1.5-0.6,3-0.6,4.4c3-1.5,5.9-2.5,9.1-3.2c0.4-4.4,2.3-8.5,5.3-11.8c1.5-1.5,3.4-2.5,5.5-2.5c3.4,0.2,6.3,2.3,7.8,5.3   c1.9,3.6,2.8,7.8,2.3,11.8c-7.2-2.3-14.8-2.3-22,0c-6.1,1.5-11.6,4.7-16.1,9.1c-4.7,4.4-7.4,10.4-7.8,16.7c0.2,6.3,3,12.3,7.6,16.5   c7.6,7.2,17.6,11.4,28.1,11.2c8.3,0,16.1-2.5,22.8-7.2l-0.4-1.3c-5.3,3-11.2,4.4-17.3,4.4c-9.3,0.2-18.2-2.8-25.6-8.3   c1.9,0.6,4,1.1,6.1,1.1c4,0,8-0.8,11.6-2.5c-2.8-1.9-5.3-4-7.4-6.3c-2.8,1.1-5.9,1.9-8.9,1.9c-3,0.2-5.7-0.8-7.8-2.8   c-1.3-1.3-1.9-3-1.9-4.9c0.2-3.6,1.9-7.2,4.7-9.5c1.7-1.9,3.8-3.4,6.1-4.4c1.9,7.2,5.7,14,11,19.3c6.1,6.3,14.6,10.2,23.5,10.6   c5.7,0.2,11.2-1.9,15.2-5.7C407.3,339.3,409.9,331.7,409.9,324 M380.5,317.7c-1.9,5.9-5.3,11.2-9.7,15.7c-4.2-4.7-7-10.2-8.5-16.3   c2.5-0.6,5.1-0.8,7.6-0.8C373.5,316.2,377.1,316.9,380.5,317.7"/>
	<path class="st1" d="M40.9,292.9h-3.6c-2.1,0-4,0.2-5.9,0.4c-1.3,0.4-2.5,1.1-3.6,1.9c-1.1,1.1-1.7,2.3-2.1,3.6   c-0.4,1.7-1.1,3.6-1.7,5.9h-3.2c0-0.4,0-1.3,0.2-2.8c0.2-1.5,0.2-3,0.4-4.7c0.2-1.7,0.2-3.4,0.4-4.9c0-1.1,0.2-2.1,0.4-3h49.5   c0,0.4,0.2,1.5,0.2,3s0.2,3.2,0.4,4.9c0.2,1.7,0.2,3.2,0.2,4.7s0.2,2.3,0.2,2.8h-3.4c-0.6-2.3-1.1-4.2-1.7-5.9   c-0.4-1.3-1.1-2.5-2.1-3.6c-1.1-0.8-2.3-1.7-3.6-1.9c-1.9-0.4-4-0.6-5.9-0.4h-3.6v42.3c0,2.3,0,4,0,5.3c0,1.1,0.2,1.9,0.6,3   c0.4,0.6,1.1,1.3,1.7,1.5c1.1,0.2,2.1,0.4,3.4,0.6l2.1,0.2v2.3H33.1v-2.3l2.1-0.2c1.1-0.2,2.3-0.4,3.4-0.6c0.8-0.2,1.5-0.6,1.7-1.5   c0.4-0.8,0.6-1.9,0.6-3c0-1.3,0-3,0-5.3V292.9z"/>
	<path class="st1" d="M76.7,319.2c0-0.8,0-1.7,0-2.3c0-0.8-0.2-1.5-0.2-2.3c-0.2-0.6-0.4-1.3-0.8-1.7s-0.8-0.6-1.5-0.6   s-1.1,0-1.7,0.2c-0.4,0-0.8,0.2-1.1,0.4v-2.3c1.7-0.6,3.2-1.1,4.2-1.5c1.1-0.4,2.3-0.6,3.4-1.1l3.2-0.8c1.1-0.2,2.5-0.4,4-0.6   c0.2,0.8,0.2,1.7,0.4,2.8c0.2,1.1,0.2,2.3,0.2,3.4c0.4-0.4,1.1-1.1,1.7-1.7c0.6-0.6,1.5-1.5,2.3-1.9c0.8-0.6,1.9-1.3,2.8-1.7   c1.1-0.4,2.1-0.6,3.4-0.6c0.8,0,1.7,0.2,2.5,0.4c0.6,0.2,1.5,0.6,2.1,1.1s1.1,0.8,1.5,1.3s0.8,0.8,1.1,1.3   c-0.6,1.3-1.3,2.3-2.1,3.4c-1.1,1.1-2.1,2.1-3.2,2.8c-0.6-0.2-1.1-0.2-1.7-0.4c-0.6-0.2-1.5-0.6-2.3-0.8l-2.1-1.1   c-0.4-0.2-1.1-0.2-1.5-0.4c-0.6,0-1.3,0.2-1.9,0.4c-0.6,0.4-1.3,0.8-1.7,1.5v21.6c0,1.7,0,3,0,3.8c0,0.8,0.2,1.5,0.4,2.3   c0.2,0.6,0.6,1.1,1.1,1.3c0.6,0.2,1.5,0.4,2.1,0.4l3.6,0.4v2.3H71.2v-2.3l1.9-0.2c0.6,0,1.3-0.2,1.9-0.4c0.4-0.2,0.8-0.4,1.1-1.1   c0.2-0.6,0.4-1.1,0.4-1.7c0-1.1,0.2-1.9,0.2-3V319.2z"/>
	<path class="st1" d="M108,345.8l1.9-0.2c0.6,0,1.3-0.2,1.9-0.4c0.4-0.2,0.8-0.4,1.1-0.8c0.2-0.6,0.4-1.1,0.4-1.7   c0-1.1,0.2-1.9,0.2-3v-20.9c0-0.8,0-1.5,0-2.3s-0.2-1.5-0.4-2.3c-0.2-0.6-0.4-1.3-0.8-1.7s-0.8-0.6-1.5-0.6s-1.3,0-1.7,0.2   l-1.1,0.2v-2.5c5.3-1.9,10.6-3,16.1-3.2v33.4c0,1.1,0,1.9,0.2,3c0,0.6,0.2,1.3,0.4,1.7c0.2,0.4,0.6,0.8,1.1,0.8   c0.6,0.2,1.3,0.4,1.9,0.4l1.9,0.2v2.3H108V345.8z M118.3,299.1c-1.7,0-3.2-0.6-4.4-1.7c-1.3-1.3-1.9-2.8-1.7-4.4   c0-1.7,0.6-3.2,1.7-4.4c1.3-1.3,2.8-1.9,4.4-1.7c1.7,0,3.2,0.6,4.4,1.7c1.1,1.1,1.7,2.5,1.7,4.2c0,1.7-0.6,3.4-1.9,4.7   C121.5,298.4,119.8,299.1,118.3,299.1z"/>
	<path class="st1" d="M154.7,349.4c-2.8,0-5.5-0.4-8.3-1.3c-2.5-0.8-4.9-2.1-7-3.8c-2.1-1.7-3.8-4-4.9-6.6c-1.3-3-1.9-6.3-1.7-9.5   c0-3.4,0.6-6.8,1.9-9.9c1.3-2.5,3-5.1,5.1-6.8c2.1-1.9,4.7-3.2,7.2-4c2.8-0.8,5.5-1.3,8.3-1.3c2.8,0,5.7,0.4,8.5,1.3   c2.5,0.8,5.1,2.1,7,3.8c2.1,1.7,3.8,3.8,4.9,6.3c1.3,3,1.9,6.1,1.9,9.3c0,3.6-0.6,7-1.9,10.2c-1.3,2.8-3,5.1-5.1,7   c-2.1,1.9-4.7,3.2-7.2,4C160.4,349,157.7,349.4,154.7,349.4z M144.1,326.6c0,2.3,0.2,4.7,0.6,7c0.4,2.1,1.1,4.4,2.1,6.3   c0.8,1.7,2.1,3.4,3.6,4.4c1.5,1.3,3.4,1.9,5.5,1.7c1.9,0,3.6-0.4,5.1-1.7c1.3-1.1,2.3-2.5,3.2-4.2c0.8-1.7,1.3-3.6,1.5-5.5   s0.4-3.8,0.4-5.7c0-2.3-0.2-4.7-0.6-7c-0.4-2.1-1.1-4.2-1.9-6.1c-0.8-1.7-2.1-3.2-3.6-4.4c-1.7-1.3-3.6-1.7-5.7-1.7   c-1.9,0-3.6,0.4-5.1,1.7c-1.3,1.1-2.5,2.3-3.2,4c-0.8,1.7-1.3,3.6-1.7,5.5C144.4,322.8,144.1,324.7,144.1,326.6z"/>
	<path class="st1" d="M214.6,299.7c0-3,0-5.7-0.4-8.7c-0.2-1.7-1.1-2.8-2.5-2.8c-0.4,0-1.1,0-1.5,0h-1.1v-2.1   c1.9-0.4,3.6-0.6,4.9-0.8c1.3-0.2,3-0.4,4-0.6c1.1-0.2,2.5-0.2,3.6-0.4c1.1-0.2,2.3,0,3.6,0v49.9c0,1.7,0,3.2,0,4.4   c0,0.8,0.2,1.9,0.4,2.8c0.2,0.6,0.6,1.1,1.3,1.5c0.6,0.4,1.5,0.4,2.3,0.4h1.9l0.2,2.3c-2.3,0.8-4.7,1.5-7,2.1   c-2.3,0.6-4.7,1.1-7.2,1.5l-2.3-4l-2.1,1.1c-0.8,0.4-1.9,1.1-2.8,1.3c-1.1,0.4-2.3,0.8-3.4,1.1c-1.3,0.2-2.8,0.4-4,0.4   c-2.5,0-4.9-0.4-7.2-1.3c-4.9-1.7-8.7-5.1-10.8-9.7c-1.3-2.8-1.7-5.7-1.7-8.9c0-3,0.4-5.9,1.5-8.7c0.8-2.3,2.1-4.4,3.6-6.3   c1.5-1.7,3.2-3.2,5.1-4.2c1.7-1.1,3.6-1.9,5.7-2.5c1.7-0.6,3.6-1.1,5.5-1.3c1.5-0.2,3-0.2,4.4-0.2c1.1,0,2.1,0,3.4,0.2l2.5,0.4   L214.6,299.7z M214.6,312.8c-0.8-0.8-1.9-1.5-2.8-2.1c-1.5-0.8-3.2-1.1-4.7-1.1c-1.9,0-3.6,0.4-5.3,1.3c-1.5,0.8-2.8,1.9-3.8,3.4   c-1.1,1.5-1.9,3.2-2.3,4.9c-0.6,2.1-0.8,4-0.8,6.1c0,2.8,0.4,5.5,1.3,8c0.8,2.1,1.9,4.2,3.4,5.9c1.3,1.5,3,2.8,4.7,3.6   c1.7,0.8,3.4,1.3,5.3,1.3c1.1,0,2.1-0.2,3.2-0.4c0.8-0.2,1.5-0.6,2.1-1.1L214.6,312.8z"/>
	<path class="st1" d="M256.7,349.4c-2.8,0-5.5-0.4-8.3-1.3c-2.5-0.8-4.9-2.1-7-3.8c-2.1-1.7-3.8-4-4.9-6.6c-1.3-3-1.9-6.3-1.9-9.5   c0-3.4,0.6-6.8,1.9-9.9c1.3-2.5,3-5.1,5.1-6.8c2.1-1.9,4.7-3.2,7.2-4c2.8-0.8,5.5-1.3,8.3-1.3c3,0,5.7,0.4,8.5,1.3   c2.5,0.8,4.9,2.1,6.8,3.8c2.1,1.7,3.8,3.8,4.9,6.3c1.3,3,1.9,6.1,1.9,9.3c0,3.6-0.6,7-1.9,10.2c-1.3,2.8-3,5.1-5.1,7   c-2.1,1.9-4.7,3.2-7.2,4C262.2,349,259.4,349.4,256.7,349.4z M246.1,326.6c0,2.3,0.2,4.7,0.6,7c0.4,2.1,1.1,4.4,2.1,6.3   c0.8,1.7,2.1,3.4,3.6,4.4c1.5,1.3,3.4,1.9,5.5,1.7c1.9,0,3.6-0.4,5.1-1.7c1.3-1.1,2.3-2.5,3.2-4.2c0.8-1.7,1.3-3.6,1.5-5.5   s0.4-3.8,0.4-5.7c0-2.3-0.2-4.7-0.6-7c-0.4-2.1-1.1-4.2-1.9-6.1c-0.8-1.7-2.1-3.4-3.6-4.4c-1.7-1.3-3.6-1.7-5.7-1.7   c-1.9,0-3.6,0.4-5.1,1.7c-1.3,1.1-2.5,2.5-3.2,4c-0.8,1.7-1.3,3.6-1.7,5.5C246.1,322.8,246.1,324.7,246.1,326.6z"/>
	<path class="st1" d="M310,319.8c0-0.8-0.2-1.9-0.6-2.8c-0.4-1.3-0.8-2.3-1.5-3.4c-0.6-1.1-1.5-2.1-2.5-2.8c-1.3-0.8-2.8-1.3-4-1.1   c-1.3,0-2.5,0.6-3.6,1.7c-1.1,1.1-1.5,2.5-1.5,4s0.4,2.8,1.5,3.8c1.1,1.1,2.3,2.1,3.6,2.8c1.5,0.8,3.2,1.7,4.9,2.3   c1.7,0.8,3.4,1.7,4.9,2.8c1.5,1.1,2.8,2.3,3.8,3.8c1.1,1.7,1.5,3.6,1.5,5.7c0,1.7-0.2,3.4-0.8,4.9c-0.6,1.5-1.7,3-3,4   c-1.5,1.3-3.4,2.3-5.3,2.8c-2.5,0.6-5.1,1.1-7.8,1.1c-2.3,0-4.7-0.2-7-0.8c-1.9-0.4-3.6-1.1-5.3-1.9c-1.1-4.2-1.7-8.5-1.7-12.7h3.6   c0.2,1.3,0.4,2.8,1.1,4c0.6,1.5,1.3,2.8,2.3,3.8c0.8,1.3,2.1,2.3,3.4,3.2c1.3,0.8,3,1.3,4.4,1.3c1.7,0.2,3.2-0.6,4.4-1.7   c1.1-1.1,1.5-2.5,1.5-4.2c0-1.5-0.4-3.2-1.5-4.4c-1.1-1.3-2.3-2.1-3.6-3c-1.5-0.8-3.2-1.7-4.9-2.5c-1.7-0.6-3.4-1.7-4.9-2.8   s-2.8-2.3-3.6-4c-1.1-1.7-1.5-3.8-1.5-5.9c0-0.2,0-0.8,0.2-2.1c0.2-1.5,0.8-2.8,1.7-4c1.3-1.7,2.8-3,4.7-3.8c3-1.3,5.9-1.9,9.1-1.7   c2.1,0,4.2,0.2,6.3,0.8c1.5,0.4,3,1.1,4.4,1.7c0.4,1.7,0.8,3.6,0.8,5.5c0,1.9,0.2,3.8,0.2,5.5L310,319.8z"/>
	<path class="st1" d="M425.5,345.8l2.1-0.2c1.1-0.2,1.9-0.4,2.3-0.6c0.6-0.2,1.1-0.6,1.3-1.3c0.4-1.1,0.4-1.9,0.4-3   c0-1.3,0-3.2,0-5.7v-32.6c0-2.5,0-4.4,0-5.7c0-1.1-0.2-1.9-0.4-3c-0.2-0.6-0.6-1.1-1.3-1.3c-0.8-0.2-1.5-0.4-2.3-0.6l-2.1-0.2v-2.1   H452h3c1.3,0,2.5,0.2,3.8,0.4c1.5,0.2,2.8,0.6,4.2,1.1s2.8,1.3,4,2.1c1.3,0.8,2.1,2.1,3,3.4c0.8,1.7,1.3,3.4,1.1,5.1   c0,2.1-0.4,4.2-1.3,6.1c-0.8,1.7-1.7,3-3,4.2c-1.3,1.1-2.5,1.9-4,2.5c-1.3,0.6-2.5,1.1-4,1.5v0.2c1.7,0.2,3.2,0.6,4.7,1.1   c1.7,0.6,3.4,1.5,4.9,2.8c1.5,1.3,3,2.8,3.8,4.7c1.1,2.1,1.7,4.4,1.5,6.8c0,2.8-0.6,5.7-2.1,8c-1.5,2.1-3.4,3.8-5.5,5.1   c-2.5,1.3-5.3,2.3-8,2.8c-3.2,0.6-6.3,0.8-9.5,0.8h-23.1v-2.3C425.3,345.8,425.5,345.8,425.5,345.8z M443.3,315.4h3.4   c1.7,0,3.2-0.2,4.9-0.4c1.5-0.2,3-0.8,4-1.7c1.3-0.8,2.1-2.1,2.8-3.4c0.8-1.9,1.1-3.8,1.1-5.9c0.2-3-1.1-5.9-3.2-8   c-2.3-2.1-5.3-3-8.3-3c-1.5,0-3.2,0.2-4.4,0.6L443.3,315.4z M443.3,343.3c1.1,0.4,2.3,0.8,3.6,1.1c1.3,0.2,2.3,0.4,3.6,0.4   c3.4,0.2,6.6-0.8,8.9-3.4c1.9-2.5,3-5.5,2.8-8.7c0-1.7-0.2-3.4-0.8-5.1c-0.6-1.7-1.5-3.2-2.8-4.4c-1.3-1.5-3-2.5-4.7-3.2   c-2.1-0.8-4.4-1.3-6.8-1.3h-3.8V343.3z"/>
	<path class="st1" d="M518,347.1c-0.6,0.2-1.5,0.8-2.8,1.3c-1.5,0.6-3.2,1.1-4.9,0.8c-1.3,0-2.3,0-3.6-0.4c-0.8-0.2-1.7-0.6-2.3-1.1   s-1.3-0.8-1.7-1.5c-0.4-0.6-0.8-1.1-1.1-1.7l-2.1,1.5c-0.8,0.6-1.7,1.1-2.8,1.5c-1.1,0.4-2.1,0.8-3.4,1.1c-1.5,0.2-2.8,0.4-4.2,0.4   c-3,0.2-6.1-0.8-8.5-2.8c-2.1-1.7-3.2-4.2-3.2-7c0-2.5,0.8-5.1,2.5-7s3.8-3.4,6.1-4.7c2.3-1.3,4.9-2.1,7.6-2.8l6.8-1.7v-2.1   c0-1.3,0-2.5-0.2-3.8c-0.2-1.1-0.6-2.3-1.3-3.2s-1.5-1.7-2.3-2.1c-1.3-0.6-2.5-0.8-3.8-0.8c-1.5,0-3,0.2-4.4,1.1   c-1.1,0.6-2.1,1.5-3,2.3s-1.5,1.9-1.9,3s-0.8,1.9-1.3,2.5h-0.8c-0.6-0.6-1.1-1.3-1.5-2.1c-0.4-0.8-0.6-1.7-1.1-2.5   c1.1-1.1,2.3-2.3,3.4-3.4c1.3-1.1,2.8-2.1,4.2-3c1.7-0.8,3.4-1.7,5.3-2.3c2.1-0.6,4-0.8,6.1-0.8c2.3,0,4.7,0.2,6.8,1.1   c1.7,0.6,3,1.7,4,3.2s1.7,3.2,1.9,5.1c0.4,2.3,0.6,4.4,0.4,6.8v11c0,1.7,0,3.2,0,4.7s0.2,2.8,0.6,4.2c0.4,1.1,1.1,2.1,1.9,2.8   c0.8,0.8,2.1,1.3,3.4,1.1c0.2,0,0.4,0,0.6,0L518,347.1z M500.6,327.6h-0.4h-0.4c-1.3,0-2.5,0.2-3.8,0.4c-1.3,0.4-2.3,0.8-3.4,1.7   c-1.1,0.6-1.9,1.7-2.5,2.8c-0.6,1.3-1.1,2.8-0.8,4.2c0,1.9,0.6,3.8,1.7,5.3c1.3,1.5,3,2.1,4.9,2.1c1.3,0,2.5-0.2,3.6-0.8   c0.6-0.4,1.3-0.8,1.9-1.3c0-0.4-0.2-1.3-0.2-2.1c0-0.8-0.2-1.9-0.2-2.8L500.6,327.6L500.6,327.6z"/>
	<path class="st1" d="M527.3,318.8c0-0.8,0-1.5,0-2.3s-0.2-1.5-0.2-2.3c-0.2-0.6-0.4-1.3-0.8-1.7c-0.4-0.4-0.8-0.6-1.5-0.6   s-1.3,0-1.7,0.2l-1.1,0.2v-2.5c3-1.1,5.7-1.7,8.7-2.3c2.3-0.4,4.9-0.6,7.2-0.8v5.1c0.6-0.6,1.5-1.1,2.1-1.7c0.8-0.6,1.9-1.3,3-1.7   c1.3-0.6,2.5-1.1,4-1.3c1.7-0.4,3.4-0.6,5.1-0.4c1.9,0,3.8,0.2,5.5,0.8c1.7,0.4,3,1.5,4.2,2.5c1.3,1.5,2.3,3,2.8,4.9   c0.6,2.5,1.1,5.1,1.1,7.6v17.6c0,1.1,0,1.9,0.2,3c0,0.6,0.2,1.3,0.4,1.7c0.2,0.4,0.6,0.8,1.1,1.1c0.6,0.2,1.3,0.4,1.9,0.4l1.9,0.2   v2.3h-21.8v-2.3l1.9-0.2c0.6,0,1.3-0.2,1.9-0.4c0.4-0.2,0.8-0.4,1.1-1.1c0.2-0.6,0.4-1.1,0.4-1.7c0-1.1,0.2-1.9,0.2-3v-12.7   c0-1.7,0-3.6-0.2-5.5c0-1.7-0.4-3.4-1.1-5.1c-0.6-1.5-1.5-2.8-2.8-3.6c-1.5-1.1-3.4-1.5-5.3-1.5c-1.7,0-3.2,0.2-4.4,1.1   c-1.1,0.6-1.9,1.5-2.8,2.3v25c0,1.1,0,1.9,0.2,3c0,0.6,0.2,1.3,0.4,1.7c0.2,0.4,0.6,0.8,1.1,1.1c0.6,0.2,1.3,0.4,1.9,0.4l1.9,0.2   v2.3h-21.6v-2.3l1.9-0.2c0.6,0,1.3-0.2,1.9-0.4c0.4-0.2,0.8-0.4,1.1-1.1c0.2-0.6,0.4-1.1,0.4-1.7c0-1.1,0.2-1.9,0.2-3v-21.2   C527.7,318.8,527.3,318.8,527.3,318.8z"/>
	<path class="st1" d="M573.6,345.8l1.9-0.2c0.6,0,1.3-0.2,1.9-0.4c0.4-0.2,0.8-0.4,1.1-0.8c0.2-0.6,0.4-1.1,0.4-1.7   c0-1.1,0.2-1.9,0.2-3v-40c0-3,0-5.7-0.4-8.7c-0.2-1.7-1.1-2.8-2.5-2.8c-0.4,0-1.1,0-1.5,0h-1.1v-2.1c1.9-0.4,3.4-0.6,5.1-0.8   c1.7-0.2,2.8-0.4,4-0.6c1.3-0.2,2.5-0.2,3.6-0.4c1.1-0.2,2.3,0,3.6,0v40.8c0.8,0,1.5,0,2.1,0s1.3-0.2,1.9-0.4   c0.6-0.2,1.3-0.6,1.9-1.1c0.8-0.6,1.5-1.3,2.1-2.1l3-3.4c1.1-1.3,2.1-2.5,3.2-4c0.4-0.6,0.6-1.5,0.8-2.3c0-0.4-0.2-0.6-0.8-0.8   l-1.9-0.4l-2.8-0.4v-2.5h19.7v2.3l-1.7,0.2c-1.1,0.2-2.3,0.4-3.2,0.8c-1.1,0.4-1.9,1.1-2.8,1.7c-1.3,1.1-2.3,2.3-3.6,3.6   c-1.5,1.5-3.4,3.6-5.9,6.1l6.1,9.5c1.7,2.5,3.2,4.7,4.2,6.6c1.1,1.9,2.1,3.2,3,4c0.6,0.8,1.3,1.5,2.1,2.1c0.4,0.4,1.1,0.6,1.7,0.8   c0.6,0.2,1.1,0.2,1.7,0.2v2.3H614c-1.9,0-3.8-0.2-5.5-0.6c-1.3-0.4-2.5-1.1-3.4-1.9c-1.1-0.8-1.9-2.1-2.5-3.2   c-0.8-1.3-1.7-2.8-3-4.7c-1.3-1.9-1.9-3.2-2.5-4.4c-0.6-1.1-1.1-1.9-1.9-3c-0.4-0.6-1.1-1.1-1.7-1.5c-0.6-0.4-1.5-0.4-2.3-0.4h-1.3   v11.2c0,1.1,0,1.9,0.2,3c0,0.6,0.2,1.3,0.4,1.7c0.2,0.4,0.6,0.8,1.1,1.1c0.6,0.2,1.3,0.4,1.9,0.4l1.9,0.2v2.3h-21.8L573.6,345.8   L573.6,345.8z"/>
</g>
</svg>