<svg xmlns="http://www.w3.org/2000/svg" viewBox="0 0 24 24"><path fill="#327887" d="M6.06 11.34v.01l-.01 10.96c0 .24-.2.44-.45.44-.12 0-.23-.05-.31-.12L.32 17.69c-.2-.2-.32-.47-.32-.78V5.34l6.06 6z"/><path fill="#E83860" d="M23.99 5.35V16.9c0 .31-.12.58-.32.78l-4.98 4.93c-.08.07-.19.12-.31.12a.45.45 0 0 1-.45-.43V11.35l6.06-6z"/><path fill="#DFC586" d="m24 5.34-.01.01-6.06 6L12 17.22h-.01V8.71l.01.01 7.39-7.32a.445.445 0 0 1 .63 0L24 5.34z"/><path d="m12 17.22-.01.01v-.01z"/><path fill="#8ABB9C" d="M11.99 8.71v8.52l-5.93-5.89-6.06-6 3.96-3.96a.445.445 0 0 1 .63 0l7.4 7.33z"/></svg>