<?xml version="1.0" encoding="UTF-8"?>
<svg width="25px" height="26px" viewBox="0 0 25 26" version="1.1" xmlns="http://www.w3.org/2000/svg" xmlns:xlink="http://www.w3.org/1999/xlink">
    <title>linkedin-6</title>
    <g id="Symbols" stroke="none" stroke-width="1" fill="none" fill-rule="evenodd">
        <g id="Footer/4" transform="translate(-1085.000000, -280.000000)" fill="#153F45" fill-rule="nonzero">
            <g id="linkedin-6" transform="translate(1085.000000, 280.000000)">
                <path d="M25,26 L25,16.4775 C25,11.7975 24.03125,8.2225 18.78125,8.2225 C16.25,8.2225 14.5625,9.6525 13.875,11.0175 L13.8125,11.0175 L13.8125,8.645 L8.84375,8.645 L8.84375,26 L14.03125,26 L14.03125,17.3875 C14.03125,15.1125 14.4375,12.935 17.125,12.935 C19.78125,12.935 19.8125,15.5025 19.8125,17.5175 L19.8125,25.9675 L25,25.9675 L25,26 Z" id="Path"></path>
                <polygon id="Path" points="0.40625 8.645 5.59375 8.645 5.59375 26 0.40625 26"></polygon>
                <path d="M3,0 C1.34375,0 0,1.3975 0,3.12 C0,4.8425 1.34375,6.2725 3,6.2725 C4.65625,6.2725 6,4.8425 6,3.12 C6,1.3975 4.65625,0 3,0 Z" id="Path"></path>
            </g>
        </g>
    </g>
</svg>