<?xml version="1.0" encoding="UTF-8"?>
<svg width="25px" height="32px" viewBox="0 0 25 32" version="1.1" xmlns="http://www.w3.org/2000/svg" xmlns:xlink="http://www.w3.org/1999/xlink">
    <title>Group 78</title>
    <g id="bank-switching-journey---desktop" stroke="none" stroke-width="1" fill="none" fill-rule="evenodd" stroke-linecap="round" stroke-linejoin="round">
        <g id="Group-78" transform="translate(1.000000, 1.000000)" stroke="#7DBC42" stroke-width="2">
            <path d="M6.21428571,30 L1.57142857,30 C0.714285714,30 1.8189894e-12,29.2628993 1.8189894e-12,28.3783784 L1.8189894e-12,7.14987715 C1.8189894e-12,6.26535627 0.714285714,5.52825553 1.57142857,5.52825553 L15.7857143,5.52825553 C16.6428571,5.52825553 17.3571429,6.26535627 17.3571429,7.14987715 L17.3571429,28.3783784 C17.3571429,29.2628993 16.6428571,30 15.7857143,30 L6.21428571,30" id="Path"></path>
            <path d="M5.64285714,2.43243243 L5.64285714,1.62162162 C5.64285714,0.737100737 6.35714286,0 7.21428571,0 L21.4285714,0 C22.2857143,0 23,0.737100737 23,1.62162162 L23,22.8501229 C23,23.7346437 22.2857143,24.4717445 21.4285714,24.4717445 L20.5714286,24.4717445" id="Path"></path>
        </g>
    </g>
</svg>