<?xml version="1.0" encoding="UTF-8"?>
<svg width="18px" height="18px" viewBox="0 0 18 18" version="1.1" xmlns="http://www.w3.org/2000/svg" xmlns:xlink="http://www.w3.org/1999/xlink">
    <title>Group 7</title>
    <g id="bank-switching-journey---desktop" stroke="none" stroke-width="1" fill="none" fill-rule="evenodd">
        <g id="bank-score:-bad-bank-copy-17" transform="translate(-1250.000000, -75.000000)" fill="#ADA9A3">
            <g id="Group-7" transform="translate(1250.000000, 75.000000)">
                <path d="M7.72720779,-1.20710489 C7.72720779,-1.89637005 8.29215548,-2.45512986 8.97017136,-2.45512986 L9.02982864,-2.45512986 C9.71629846,-2.45512986 10.2727922,-1.88880569 10.2727922,-1.20710489 L10.2727922,19.2071049 C10.2727922,19.89637 9.70784452,20.4551299 9.02982864,20.4551299 L8.97017136,20.4551299 C8.28370154,20.4551299 7.72720779,19.8888057 7.72720779,19.2071049 L7.72720779,-1.20710489 Z" id="Rectangle-2" transform="translate(9.000000, 9.000000) rotate(-315.000000) translate(-9.000000, -9.000000) "></path>
                <path d="M7.72720779,-1.20710489 C7.72720779,-1.89637005 8.29215548,-2.45512986 8.97017136,-2.45512986 L9.02982864,-2.45512986 C9.71629846,-2.45512986 10.2727922,-1.88880569 10.2727922,-1.20710489 L10.2727922,19.2071049 C10.2727922,19.89637 9.70784452,20.4551299 9.02982864,20.4551299 L8.97017136,20.4551299 C8.28370154,20.4551299 7.72720779,19.8888057 7.72720779,19.2071049 L7.72720779,-1.20710489 Z" id="Rectangle-2-Copy" transform="translate(9.000000, 9.000000) scale(-1, 1) rotate(-315.000000) translate(-9.000000, -9.000000) "></path>
            </g>
        </g>
    </g>
</svg>