<?xml version="1.0" encoding="UTF-8"?>
<svg width="33px" height="25px" viewBox="0 0 33 25" version="1.1" xmlns="http://www.w3.org/2000/svg" xmlns:xlink="http://www.w3.org/1999/xlink">
    <title>cloud-computing</title>
    <g id="bank-switching-jounrey---mobile" stroke="none" stroke-width="1" fill="none" fill-rule="evenodd">
        <g id="Profile/Main-Copy-136" transform="translate(-176.000000, -309.000000)" fill="#ADA9A3" fill-rule="nonzero">
            <g id="cloud-computing" transform="translate(176.000000, 309.000000)">
                <path d="M27.4949785,8.28324698 C25.9697966,2.42006974 19.8080387,-1.13982749 13.7321875,0.331968181 C8.98405523,1.48217781 5.5363812,5.44226963 5.18115419,10.1538691 C1.80978437,10.6903848 -0.472574938,13.7626479 0.0834017309,17.0160091 C0.577639018,19.9082935 3.17468872,22.0264329 6.2122921,22.014851 L11.3679816,22.014851 L11.3679816,20.0247137 L6.2122921,20.0247137 C3.93437957,20.0247137 2.08774048,18.2427128 2.08774048,16.0445344 C2.08774048,13.846356 3.93437957,12.0643551 6.2122921,12.0643551 C6.78180245,12.0643551 7.24343,11.618886 7.24343,11.0693103 C7.23827431,6.12337781 11.3890555,2.10986452 16.5143909,2.10495148 C20.9511195,2.10066035 24.7703899,5.12746232 25.6286188,9.32798185 C25.7133655,9.74739324 26.0660791,10.0677977 26.5050861,10.1240177 C29.3240882,10.5114011 31.2838302,13.030668 30.8824598,15.750934 C30.5220127,18.1936447 28.3607476,20.0124 25.8039123,20.0247137 L21.6793607,20.0247137 L21.6793607,22.014851 L25.8039123,22.014851 C29.7902914,22.0031738 33.0120818,18.8752504 33,15.0284071 C32.9899123,11.8262285 30.7185733,9.04315027 27.4949785,8.28324698 Z" id="Path"></path>
                <path d="M15.7915632,12.3529803 L11.6670116,16.3331596 L13.1209161,17.7361728 L15.4925332,15.4575202 L15.4925332,25 L17.554809,25 L17.554809,15.4575202 L19.9161149,17.7361728 L21.3700193,16.3331596 L17.2454677,12.3529803 C16.8432594,11.9671517 16.1937715,11.9671517 15.7915632,12.3529803 Z" id="Path"></path>
            </g>
        </g>
    </g>
</svg>