<?xml version="1.0" encoding="UTF-8"?>
<svg width="22px" height="14px" viewBox="0 0 22 14" version="1.1" xmlns="http://www.w3.org/2000/svg" xmlns:xlink="http://www.w3.org/1999/xlink">
    <title>programs icon</title>
    <g id="Symbols" stroke="none" stroke-width="1" fill="none" fill-rule="evenodd" stroke-linecap="round" stroke-linejoin="round">
        <g id="icon/menu/programs/white" transform="translate(0.000000, -4.000000)" stroke="#FFFFFF">
            <g id="programs-icon" transform="translate(1.000000, 5.000000)">
                <g id="Group" transform="translate(5.203314, 0.000000)">
                    <ellipse id="Oval" cx="4.79923066" cy="2.73078574" rx="2.69786759" ry="2.73078574"></ellipse>
                    <path d="M8.24537473,12 C9.81319212,11.9072563 9.77246959,9.45985401 9.34997335,8.1253757 C8.93256742,6.79604981 7.80760754,5.93044225 7.04915042,6.26534994 C5.96491307,6.99699442 5.70021663,7.1721769 4.79923066,7.1721769 L4.79923066,7.1721769 C3.89315437,7.1721769 3.63354825,6.99699442 2.5493109,6.26534994 C1.78576346,5.93044225 0.6658939,6.79604981 0.248487971,8.1253757 C-0.168917958,9.45470159 -0.214730804,11.9072563 1.35308659,12 C2.22353066,12 7.37493066,12 8.24537473,12 Z" id="Path"></path>
                </g>
                <g id="Group" transform="translate(0.000000, 1.514813)">
                    <g>
                        <ellipse id="Oval" cx="3.45639852" cy="1.96307428" rx="1.93941047" ry="1.96307428"></ellipse>
                        <path d="M4.49482302,5.18849292 C4.13341057,5.4048948 3.90434634,5.46672392 3.4513082,5.46672392 L3.4513082,5.46672392 C2.79974773,5.46672392 2.61140603,5.33791327 1.83258765,4.81236582 C1.2828335,4.57535423 0.478563536,5.19364534 0.178234879,6.15199657 C-0.122093777,7.11034779 -0.152635674,8.87247746 0.972324208,8.939459 C1.32355603,8.939459 2.64703824,8.939459 3.84835286,8.939459" id="Path"></path>
                    </g>
                    <g transform="translate(14.609281, 0.000000)">
                        <ellipse id="Oval" cx="1.93941047" cy="1.96307428" rx="1.93941047" ry="1.96307428"></ellipse>
                        <path d="M0.895895652,5.18849292 C1.2573081,5.4048948 1.48637233,5.46672392 1.93941047,5.46672392 L1.93941047,5.46672392 C2.59097095,5.46672392 2.77931265,5.33791327 3.55813103,4.81236582 C4.10788518,4.57535423 4.91215514,5.19364534 5.2124838,6.15199657 C5.51281245,7.11034779 5.54335435,8.87247746 4.41839447,8.939459 C4.06716265,8.939459 2.74368044,8.939459 1.54236581,8.939459" id="Path"></path>
                    </g>
                </g>
            </g>
        </g>
    </g>
</svg>