<?xml version="1.0" encoding="UTF-8"?>
<svg width="18px" height="37px" viewBox="0 0 18 37" version="1.1" xmlns="http://www.w3.org/2000/svg" xmlns:xlink="http://www.w3.org/1999/xlink">
    <title>Path</title>
    <g id="dashboard---desktop" stroke="none" stroke-width="1" fill="none" fill-rule="evenodd">
        <g id="CUSTOM-PROGRAM---SOCIALS" transform="translate(-695.000000, -463.000000)" stroke="#404041" stroke-width="1.2">
            <g id="Group-16" transform="translate(325.000000, 393.000000)">
                <path d="M381.545159,81.4984839 L386.960944,81.4984839 L386.375102,88.5008081 L381.297803,88.5008081 L381.297803,106 L374.410903,106 L374.410903,88.5008081 L371,88.5008081 L371,81.4984839 L374.410903,81.4984839 L374.410903,78.4010476 C374.410903,78.4010476 374.423922,74.6417658 376.181448,73.0003892 C378.459723,70.8692471 381.141579,71.0016162 381.141579,71.0016162 L387,71.0016162 L387,76.9846984 L383.45891,76.9846984 C383.081367,76.9846984 382.690806,77.050883 382.3393,77.196489 C382.170057,77.2626735 382.03987,77.3420949 381.948739,77.4612271 C381.857608,77.5538855 381.766477,77.6994914 381.701383,77.8318605 C381.571196,78.1230725 381.519121,78.4539952 381.519121,78.7849179 L381.545159,81.4984839 Z" id="Path"></path>
            </g>
        </g>
    </g>
</svg>