<?xml version="1.0" encoding="UTF-8"?>
<svg width="24px" height="20px" viewBox="0 0 24 20" version="1.1" xmlns="http://www.w3.org/2000/svg" xmlns:xlink="http://www.w3.org/1999/xlink">
    <title>Group</title>
    <g id="dashboard---mobile" stroke="none" stroke-width="1" fill="none" fill-rule="evenodd">
        <g id="Profile/Main-Copy-102" transform="translate(-25.000000, -59.000000)" fill="#FFFFFF" fill-rule="nonzero">
            <g id="Group" transform="translate(25.000000, 59.000000)">
                <path d="M22.3472941,8.5132549 L1.06415686,8.5132549 C0.476439256,8.5132549 0,8.98969416 0,9.57741176 C0,10.1651294 0.476439256,10.6415686 1.06415686,10.6415686 L22.3472941,10.6415686 C22.9350117,10.6415686 23.411451,10.1651294 23.411451,9.57741176 C23.411451,8.98969416 22.9350117,8.5132549 22.3472941,8.5132549 Z" id="Path"></path>
                <path d="M1.06415686,2.12831373 L22.3472941,2.12831373 C22.9350117,2.12831373 23.411451,1.65187447 23.411451,1.06415686 C23.411451,0.476439256 22.9350117,0 22.3472941,0 L1.06415686,0 C0.476439256,0 0,0.476439256 0,1.06415686 C0,1.65187447 0.476439256,2.12831373 1.06415686,2.12831373 Z" id="Path"></path>
                <path d="M22.3472941,17.0265098 L1.06415686,17.0265098 C0.476439256,17.0265098 0,17.5029491 0,18.0906667 C0,18.6783843 0.476439256,19.1548235 1.06415686,19.1548235 L22.3472941,19.1548235 C22.9350117,19.1548235 23.411451,18.6783843 23.411451,18.0906667 C23.411451,17.5029491 22.9350117,17.0265098 22.3472941,17.0265098 Z" id="Path"></path>
            </g>
        </g>
    </g>
</svg>