<?xml version="1.0" encoding="UTF-8"?>
<svg width="18px" height="18px" viewBox="0 0 18 18" version="1.1" xmlns="http://www.w3.org/2000/svg" xmlns:xlink="http://www.w3.org/1999/xlink">
    <title>Group</title>
    <g id="bank-switching-jounrey---mobile" stroke="none" stroke-width="1" fill="none" fill-rule="evenodd">
        <g id="Profile/Main-Copy-37" transform="translate(-36.000000, -55.000000)" fill="#153F45" fill-rule="nonzero">
            <g id="Group" transform="translate(35.676055, 55.034486)">
                <path d="M19.671239,7.96551354 L-1.61189822,7.96551354 C-2.19961583,7.96551354 -2.67605508,8.4419528 -2.67605508,9.02967041 C-2.67605508,9.61738801 -2.19961583,10.0938273 -1.61189822,10.0938273 L19.671239,10.0938273 C20.2589566,10.0938273 20.7353959,9.61738801 20.7353959,9.02967041 C20.7353959,8.4419528 20.2589566,7.96551354 19.671239,7.96551354 Z" id="Path" transform="translate(9.029670, 9.029670) rotate(-45.000000) translate(-9.029670, -9.029670) "></path>
                <path d="M-1.61189822,10.0938273 L19.671239,10.0938273 C20.2589566,10.0938273 20.7353959,9.61738801 20.7353959,9.02967041 C20.7353959,8.4419528 20.2589566,7.96551354 19.671239,7.96551354 L-1.61189822,7.96551354 C-2.19961583,7.96551354 -2.67605508,8.4419528 -2.67605508,9.02967041 C-2.67605508,9.61738801 -2.19961583,10.0938273 -1.61189822,10.0938273 Z" id="Path" transform="translate(9.029670, 9.029670) rotate(-315.000000) translate(-9.029670, -9.029670) "></path>
            </g>
        </g>
    </g>
</svg>