<?xml version="1.0" encoding="UTF-8"?>
<svg width="62px" height="45px" viewBox="0 0 62 45" version="1.1" xmlns="http://www.w3.org/2000/svg" xmlns:xlink="http://www.w3.org/1999/xlink">
    <title>quote marks</title>
    <g id="bank-switching-journey---desktop" stroke="none" stroke-width="1" fill="none" fill-rule="evenodd" stroke-linecap="round" stroke-linejoin="round">
        <g id="SWITCHING-JOURNEY---active-user-Copy-58" transform="translate(-946.000000, -694.000000)" stroke="#153F45" stroke-width="2">
            <g id="quote-marks" transform="translate(947.000000, 695.000000)">
                <path d="M25.32,25.6 L17.32,41.61 C17.17,41.92 16.85,42.11 16.51,42.11 L5.92,42.06 C5.26,42.06 4.82,41.37 5.11,40.77 L11.85,26.71 C12.14,26.11 11.7,25.42 11.04,25.42 L0.9,25.42 C0.4,25.42 0,25.02 0,24.52 L0,0.9 C0,0.4 0.4,0 0.9,0 L24.52,0 C25.02,0 25.42,0.4 25.42,0.9 L25.42,25.21 C25.41,25.34 25.38,25.48 25.32,25.6 Z" id="Path"></path>
                <path d="M59.16,25.6 L51.16,41.61 C51.01,41.92 50.69,42.11 50.35,42.11 L39.76,42.06 C39.1,42.06 38.66,41.37 38.95,40.77 L45.69,26.71 C45.98,26.11 45.54,25.42 44.88,25.42 L34.74,25.42 C34.24,25.42 33.84,25.02 33.84,24.52 L33.84,0.9 C33.84,0.4 34.24,0 34.74,0 L58.36,0 C58.86,0 59.26,0.4 59.26,0.9 L59.26,25.21 C59.26,25.34 59.23,25.48 59.16,25.6 Z" id="Path"></path>
            </g>
        </g>
    </g>
</svg>