<?xml version="1.0" encoding="UTF-8"?>
<svg width="66px" height="51px" viewBox="0 0 66 51" version="1.1" xmlns="http://www.w3.org/2000/svg" xmlns:xlink="http://www.w3.org/1999/xlink">
    <title>icon/etc/friends/teal</title>
    <g id="dashboard---desktop" stroke="none" stroke-width="1" fill="none" fill-rule="evenodd" stroke-linecap="round" stroke-linejoin="round">
        <g id="Group-53" transform="translate(-207.666667, -283.000000)" stroke="#ADA9A3" stroke-width="2.8125">
            <g id="friends-icon_1" transform="translate(209.757576, 284.863636)">
                <path d="M28.2606236,16.9633303 C28.2606236,15.4453211 26.9394202,14.2151128 25.309128,14.2151128 C23.6788357,14.2151128 22.3576323,15.4453211 22.3576323,16.9633303 L22.1758153,22.0929602 C22.1394519,23.0466537 22.0364223,23.9947041 21.818242,24.925825 C20.5394625,30.3996875 16.6425186,33.2043365 11.7516419,33.2099797 C9.38196058,33.2099797 7.24864136,32.538444 5.4789561,31.3308084 C5.27895742,31.1953726 5.02441365,31.1615137 4.80017271,31.2518042 C4.16987385,31.5001031 2.86685216,32.1603525 1.61837557,33.6670754 C-0.0543406348,35.6816825 0,38.0461654 0,38.0461654 L0,45.5628507 C0,46.5052579 0.818380865,47.2727273 1.83655595,47.2727273 L21.6061221,47.2727273 C22.6182367,47.2727273 23.4424736,46.5109011 23.4424736,45.5628507 L23.4424736,38.1533854 C23.4424736,36.2234256 23.9273189,34.3216817 24.8545855,32.5948756 C25.8363972,30.7664927 27.0606315,28.3230056 27.5939613,26.5849132 C28.5636519,23.4586042 28.2606236,16.9633303 28.2606236,16.9633303 Z" id="Path"></path>
                <ellipse id="Oval" cx="10.9213443" cy="22.5105538" rx="7.14540728" ry="6.65328226"></ellipse>
                <path d="M30.8909092,8.96697668 L30.8909092,8.96697668 C29.7757651,8.96697668 28.8727407,8.12614627 28.8727407,7.08780535 L28.8727407,1.87917132 C28.8727407,0.840830412 29.7757651,0 30.8909092,0 L30.8909092,0 C32.0060533,0 32.9090777,0.840830412 32.9090777,1.87917132 L32.9090777,7.08780535 C32.9090777,8.12614627 32.0060533,8.96697668 30.8909092,8.96697668 Z" id="Path"></path>
                <path d="M37.945408,10.1407534 L37.945408,10.1407534 C36.8969301,9.78523446 36.3636003,8.70174829 36.7454159,7.72548211 L38.6726759,2.83850804 C39.0544916,1.86224185 40.2181202,1.36564403 41.2665982,1.72116292 L41.2665982,1.72116292 C42.3150761,2.07668182 42.8484059,3.16016799 42.4665902,4.13643418 L40.5393302,9.02340825 C40.151454,9.99967443 38.9938859,10.5019154 37.945408,10.1407534 Z" id="Path"></path>
                <path d="M23.7455019,10.1407534 L23.7455019,10.1407534 C24.7939798,9.78523446 25.3273097,8.70174829 24.945494,7.72548211 L23.018234,2.83850804 C22.6364184,1.86224185 21.4727897,1.36564403 20.4243118,1.72116292 L20.4243118,1.72116292 C19.3758339,2.07668182 18.8425041,3.16016799 19.2243197,4.13643418 L21.1515797,9.02340825 C21.5394559,9.99967443 22.697024,10.5019154 23.7455019,10.1407534 Z" id="Path"></path>
                <path d="M33.5575582,16.9633303 C33.5575582,15.4453211 34.8787616,14.2151128 36.5090539,14.2151128 C38.1393461,14.2151128 39.4605495,15.4453211 39.4605495,16.9633303 L39.6423665,22.0929602 C39.6787299,23.0466537 39.7817595,23.9947041 39.9999399,24.925825 C41.2787193,30.3996875 45.1756632,33.2043365 50.0665399,33.2099797 C52.4362212,33.2099797 54.5695405,32.538444 56.3392257,31.3308084 C56.5392244,31.1953726 56.7937682,31.1615137 57.0180091,31.2518042 C57.648308,31.5001031 58.9513297,32.1603525 60.1998062,33.6670754 C61.8725225,35.6816825 61.8181818,38.0461654 61.8181818,38.0461654 L61.8181818,45.5628507 C61.8181818,46.5052579 60.999801,47.2727273 59.9816259,47.2727273 L40.2059991,47.2727273 C39.1938846,47.2727273 38.3696476,46.5109011 38.3696476,45.5628507 L38.3696476,38.1533854 C38.3696476,36.2234256 37.8848023,34.3216817 36.9575357,32.5948756 C35.9757241,30.7664927 34.7514897,28.3230056 34.2181599,26.5849132 C33.2484694,23.4586042 33.5575582,16.9633303 33.5575582,16.9633303 Z" id="Path"></path>
                <ellipse id="Oval" cx="50.763505" cy="22.5105538" rx="7.14540728" ry="6.65328226"></ellipse>
            </g>
        </g>
    </g>
</svg>