<?xml version="1.0" encoding="UTF-8"?>
<svg width="50px" height="41px" viewBox="0 0 50 41" version="1.1" xmlns="http://www.w3.org/2000/svg" xmlns:xlink="http://www.w3.org/1999/xlink">
    <title>Group 20</title>
    <g id="dashboard---desktop" stroke="none" stroke-width="1" fill="none" fill-rule="evenodd" stroke-linecap="round" stroke-linejoin="round">
        <g id="PROFILE---ACTIVE-USER-Copy-9" transform="translate(-1006.000000, -551.000000)" stroke="#004046" stroke-width="1.65">
            <g id="Group-23" transform="translate(823.000000, 458.000000)">
                <g id="Group-20" transform="translate(183.933566, 93.840000)">
                    <path d="M37.3485604,0.453558484 C36.678631,0.159143328 35.9369236,0 35.1553393,0 L5.55084305,0 C2.4962843,0 0,2.49059308 0,5.53818781 L0,25.8130478 C0,28.8606425 2.4962843,31.3512356 5.55084305,31.3512356 L6.1250682,31.3512356 L6.08519145,38.64 L13.6298718,31.3591928 L35.1553393,31.3591928 C38.2098981,31.3591928 40.7061824,28.8685997 40.7061824,25.8210049 L40.7061824,20.5851895" id="Path"></path>
                    <line x1="6.63549055" y1="7.43199341" x2="28.3443911" y2="7.43199341" id="Path"></line>
                    <line x1="6.67536729" y1="16.3201483" x2="20.8156614" y2="16.3201483" id="Path"></line>
                    <line x1="6.85082497" y1="24.9934596" x2="18.3991306" y2="24.9934596" id="Path"></line>
                    <path d="M40.3153903,3.81943987 L25.7284766,16.2644481 C24.5002728,19.3597858 22.9131783,24.0783855 22.9131783,24.0783855 C22.9131783,24.0783855 26.4622087,23.5372982 31.1756401,22.765453 L45.8423073,10.3602306 C47.6447362,8.84041186 47.8760213,6.12701812 46.3527296,4.32869852 L46.3527296,4.32869852 C44.8294379,2.53037891 42.1098438,2.29962109 40.3153903,3.81943987 Z" id="Path"></path>
                    <line x1="25.7284766" y1="16.2962768" x2="31.1756401" y2="22.7336244" id="Path"></line>
                    <line x1="44.2552128" y1="11.6492916" x2="38.7601972" y2="5.16420099" id="Path"></line>
                </g>
            </g>
        </g>
    </g>
</svg>