<?xml version="1.0" encoding="UTF-8"?>
<svg width="49px" height="62px" viewBox="0 0 49 62" version="1.1" xmlns="http://www.w3.org/2000/svg" xmlns:xlink="http://www.w3.org/1999/xlink">
    <title>select</title>
    <g id="bank-switching-journey---desktop" stroke="none" stroke-width="1" fill="none" fill-rule="evenodd" stroke-linecap="round" stroke-linejoin="round">
        <g id="SWITCHING-JOURNEY---active-user-Copy-8" transform="translate(-456.000000, -510.000000)" stroke="#FFFFFF" stroke-width="2">
            <g id="Group-5-Copy" transform="translate(416.000000, 491.000000)">
                <g id="select" transform="translate(41.000000, 20.000000)">
                    <path d="M23.4024645,29.6833773 L23.4024645,3.93799472 C23.4024645,1.77110818 21.6245003,0 19.4415554,0 L19.4415554,0 C17.2586105,0 15.4806463,1.77110818 15.4806463,3.93799472 L15.4806463,35.926781 C15.4806463,36.1543536 15.2435844,36.3027704 15.0460329,36.1939314 C13.3174566,35.2935356 7.00568379,32.0184697 5.83025192,31.573219 C4.45726848,31.0488127 2.42248727,30.73219 1.18778993,32.1668865 C-0.35311235,33.9577836 -0.471643295,36.2038259 1.28656572,37.9551451 C2.3632218,39.0336412 20.5083339,56.5567282 20.5083339,56.5567282 C23.2839335,58.7236148 26.7312085,60 30.4748108,60 C39.6016935,60 47,52.3812665 47,42.9716359" id="Path"></path>
                    <path d="M23.3962968,16.693087 C23.3962968,14.5199642 24.9688081,12.75 27.2301587,12.75 C29.4915093,12.75 31.3333333,14.5199642 31.3333333,16.693087 L31.3333333,29.25" id="Path"></path>
                    <path d="M31.3333333,19.5296053 C31.3333333,17.4473684 32.9933264,15.75 35.0297131,15.75 L35.097271,15.75 C37.1336578,15.75 38.7936508,17.4473684 38.7936508,19.5296053 L38.7936508,30" id="Path"></path>
                    <path d="M38.7936508,22.0015244 C38.7936508,19.800686 40.6400794,18 42.8968254,18 L42.8968254,18 C45.1535714,18 47,19.800686 47,22.0015244 L47,44.25" id="Path"></path>
                </g>
            </g>
        </g>
    </g>
</svg>