<?xml version="1.0" encoding="UTF-8"?>
<svg width="50px" height="41px" viewBox="0 0 50 41" version="1.1" xmlns="http://www.w3.org/2000/svg" xmlns:xlink="http://www.w3.org/1999/xlink">
    <title>icon/etc/friends/teal</title>
    <g id="dashboard---desktop" stroke="none" stroke-width="1" fill="none" fill-rule="evenodd" stroke-linecap="round" stroke-linejoin="round">
        <g id="PROFILE---ACTIVE-USER-Copy-12" transform="translate(-1089.000000, -475.000000)" stroke="#ADA9A3" stroke-width="2.205225">
            <g id="Group-11" transform="translate(761.000000, 374.000000)">
                <g id="Group-96" transform="translate(60.000000, 96.000000)">
                    <g id="friends-icon_1" transform="translate(269.650000, 6.954545)">
                        <path d="M21.4863859,13.30969 C21.4863859,12.1186365 20.4818827,11.1533962 19.2423811,11.1533962 C18.0028795,11.1533962 16.9983763,12.1186365 16.9983763,13.30969 L16.860142,17.3344764 C16.8324951,18.0827591 16.7541623,18.826614 16.588281,19.5571858 C15.6160325,23.8520625 12.653209,26.0526333 8.93470419,26.057061 C7.13304944,26.057061 5.51109939,25.5301638 4.16561809,24.5826343 C4.01356027,24.4763693 3.82003214,24.449803 3.64954307,24.5206464 C3.17033056,24.7154655 2.17965084,25.2335073 1.23044143,26.4157053 C-0.041314865,27.9963971 0,29.8516067 0,29.8516067 L0,35.7493136 C0,36.4887408 0.622210158,37.0909091 1.39632268,37.0909091 L16.4270076,37.0909091 C17.1965123,37.0909091 17.8231748,36.4931685 17.8231748,35.7493136 L17.8231748,29.9357331 C17.8231748,28.421457 18.1917998,26.9293195 18.8967952,25.5744408 C19.6432608,24.1398635 20.574039,22.222666 20.9795265,20.8589319 C21.7167765,18.4059817 21.4863859,13.30969 21.4863859,13.30969 Z" id="Path"></path>
                        <ellipse id="Oval" cx="8.30343386" cy="17.6621268" rx="5.43261112" ry="5.22026762"></ellipse>
                        <path d="M23.4861766,7.03562786 L23.4861766,7.03562786 C22.638339,7.03562786 21.9517749,6.37589938 21.9517749,5.56120112 L21.9517749,1.47442673 C21.9517749,0.659728477 22.638339,0 23.4861766,0 L23.4861766,0 C24.3340141,0 25.0205782,0.659728477 25.0205782,1.47442673 L25.0205782,5.56120112 C25.0205782,6.37589938 24.3340141,7.03562786 23.4861766,7.03562786 Z" id="Path"></path>
                        <path d="M28.8496705,7.9565911 L28.8496705,7.9565911 C28.0525189,7.6776455 27.6470314,6.82752558 27.9373236,6.06153212 L29.402608,2.22713707 C29.6929002,1.46114361 30.5776002,1.07150531 31.3747518,1.35045091 L31.3747518,1.35045091 C32.1719034,1.62939651 32.5773909,2.47951642 32.2870987,3.24550989 L30.8218143,7.07990493 C30.5269143,7.8458984 29.6468221,8.2399644 28.8496705,7.9565911 Z" id="Path"></path>
                        <path d="M18.0535654,7.9565911 L18.0535654,7.9565911 C18.850717,7.6776455 19.2562045,6.82752558 18.9659123,6.06153212 L17.5006279,2.22713707 C17.2103357,1.46114361 16.3256357,1.07150531 15.5284841,1.35045091 L15.5284841,1.35045091 C14.7313325,1.62939651 14.325845,2.47951642 14.6161372,3.24550989 L16.0814216,7.07990493 C16.3763216,7.8458984 17.2564138,8.2399644 18.0535654,7.9565911 Z" id="Path"></path>
                        <path d="M25.5136141,13.30969 C25.5136141,12.1186365 26.5181173,11.1533962 27.7576189,11.1533962 C28.9971205,11.1533962 30.0016237,12.1186365 30.0016237,13.30969 L30.139858,17.3344764 C30.1675049,18.0827591 30.2458377,18.826614 30.411719,19.5571858 C31.3839675,23.8520625 34.346791,26.0526333 38.0652958,26.057061 C39.8669506,26.057061 41.4889006,25.5301638 42.8343819,24.5826343 C42.9864397,24.4763693 43.1799679,24.449803 43.3504569,24.5206464 C43.8296694,24.7154655 44.8203492,25.2335073 45.7695586,26.4157053 C47.0413149,27.9963971 47,29.8516067 47,29.8516067 L47,35.7493136 C47,36.4887408 46.3777898,37.0909091 45.6036773,37.0909091 L30.5683846,37.0909091 C29.7988799,37.0909091 29.1722174,36.4931685 29.1722174,35.7493136 L29.1722174,29.9357331 C29.1722174,28.421457 28.8035924,26.9293195 28.098597,25.5744408 C27.3521314,24.1398635 26.4213532,22.222666 26.0158657,20.8589319 C25.2786157,18.4059817 25.5136141,13.30969 25.5136141,13.30969 Z" id="Path"></path>
                        <ellipse id="Oval" cx="38.5951943" cy="17.6621268" rx="5.43261112" ry="5.22026762"></ellipse>
                    </g>
                </g>
            </g>
        </g>
    </g>
</svg>