<?xml version="1.0" encoding="UTF-8"?>
<svg width="37px" height="23px" viewBox="0 0 37 23" version="1.1" xmlns="http://www.w3.org/2000/svg" xmlns:xlink="http://www.w3.org/1999/xlink">
    <title>programs_teal_filled in</title>
    <g id="bank-switching-jounrey---mobile" stroke="none" stroke-width="1" fill="none" fill-rule="evenodd" stroke-linecap="round" stroke-linejoin="round">
        <g id="Group-245" transform="translate(-32.000000, -19.000000)" fill="#163F45" fill-rule="nonzero" stroke="#153F45" stroke-width="0.95625">
            <g id="programs_teal_filled-in" transform="translate(33.000000, 20.000000)">
                <g id="Group" transform="translate(9.013626, 0.000000)">
                    <ellipse id="Oval" cx="8.41504335" cy="4.76834862" rx="4.70783916" ry="4.76834862"></ellipse>
                    <path d="M14.4543926,21 C17.2125206,20.8555046 17.1174127,16.5688073 16.4041037,14.2087156 C15.6907948,11.896789 13.6935297,10.3555046 12.3620196,10.9334862 C10.4598624,12.233945 9.98432307,12.5229358 8.41504335,12.5229358 L8.41504335,12.5229358 C6.84576363,12.5229358 6.37022432,12.233945 4.46806708,10.9334862 C3.13655702,10.3555046 1.18684585,11.8486239 0.425982952,14.2087156 C-0.287326012,16.5206422 -0.382433873,20.8073394 2.37569412,21 C3.94497384,21 12.9326668,21 14.4543926,21 Z" id="Path"></path>
                </g>
                <ellipse id="Oval" cx="6.01572568" cy="6.06880734" rx="3.3763291" ry="3.41972477"></ellipse>
                <path d="M6.11083354,18.3027523 C4.11356844,18.3027523 2.25896514,18.3027523 1.68831797,18.3027523 C-0.261393202,18.206422 -0.213839271,15.1238532 0.30925397,13.4380734 C0.83234721,11.7522936 2.25896514,10.6926606 3.21004376,11.0779817 C4.58910775,11.9931193 4.92198527,12.233945 6.06327961,12.233945 L6.06327961,12.233945 C6.68148071,12.233945 7.01435823,12.1857798 7.44234361,11.9931193 C7.44234361,11.9931193 6.68148071,13.6788991 6.44371106,15.1720183 C6.15838747,16.6651376 6.11083354,18.3027523 6.11083354,18.3027523 Z" id="Path"></path>
                <ellipse id="Oval" cx="28.8891665" cy="6.06880734" rx="3.3763291" ry="3.41972477"></ellipse>
                <path d="M28.8891665,18.3027523 C30.8864316,18.3027523 32.7410349,18.3027523 33.311682,18.3027523 C35.2613932,18.206422 35.2138393,15.1238532 34.690746,13.4380734 C34.1676528,11.7522936 32.7410349,10.6926606 31.7899562,11.0779817 C30.4108922,11.9931193 30.0780147,12.233945 28.9367204,12.233945 L28.9367204,12.233945 C28.3185193,12.233945 27.9856418,12.1857798 27.5576564,11.9931193 C27.5576564,11.9931193 28.3185193,13.6788991 28.5562889,15.1720183 C28.8416125,16.6651376 28.8891665,18.3027523 28.8891665,18.3027523 Z" id="Path"></path>
            </g>
        </g>
    </g>
</svg>