<?xml version="1.0" encoding="UTF-8"?>
<svg width="20px" height="20px" viewBox="0 0 20 20" version="1.1" xmlns="http://www.w3.org/2000/svg" xmlns:xlink="http://www.w3.org/1999/xlink">
    <title>Group 90</title>
    <g id="bank-switching-jounrey---mobile" stroke="none" stroke-width="1" fill="none" fill-rule="evenodd">
        <g id="Profile/Main-Copy-37" transform="translate(-43.000000, -535.000000)" fill="#153F45" fill-rule="nonzero">
            <g id="Group-97" transform="translate(41.000000, 288.000000)">
                <g id="Group-90" transform="translate(2.000000, 247.000000)">
                    <path d="M9.96193729,18.3333693 L2.4904648,18.3333693 C2.03221178,18.3333693 1.66032288,17.9600195 1.66032288,17.5000539 L1.66032288,2.5000245 C1.66032288,2.04001967 2.03225082,1.66670913 2.4904648,1.66670913 L9.96193729,1.66670913 C10.4210102,1.66670913 10.7920792,1.29422162 10.7920792,0.833393755 C10.7920792,0.372565888 10.4210102,0 9.96193729,0 L2.4904648,0 C1.11738461,0 0,1.12169532 0,2.5000245 L0,17.5000147 C0,18.8783439 1.11738461,20 2.4904648,20 L9.96193729,20 C10.4210102,20 10.7920792,19.6275125 10.7920792,19.1666846 C10.7920792,18.7058568 10.4210102,18.3333693 9.96193729,18.3333693 Z" id="Path"></path>
                    <path d="M19.7522986,9.405803 L14.6983456,4.3986691 C14.3724947,4.07486855 13.8455037,4.07906815 13.5229759,4.40702904 C13.200448,4.73498993 13.203771,5.26323618 13.5313029,5.58703673 L17.1430286,9.16544487 L7.46488609,9.16544487 C7.00521547,9.16544487 6.63366337,9.5384631 6.63366337,9.99994757 C6.63366337,10.461432 7.00521547,10.8344895 7.46488609,10.8344895 L17.1430286,10.8344895 L13.5313029,14.4128977 C13.2038101,14.7366982 13.2013081,15.2649444 13.5229759,15.5929053 C13.6858817,15.7581417 13.900353,15.8415842 14.1148243,15.8415842 C14.3259725,15.8415842 14.5370817,15.7614779 14.6983456,15.601226 L19.7522986,10.5940921 C19.9102395,10.4372157 20,10.2235466 20,9.99990832 C20,9.77634857 19.9110605,9.56354293 19.7522986,9.405803 Z" id="Path"></path>
                </g>
            </g>
        </g>
    </g>
</svg>