<?xml version="1.0" encoding="UTF-8"?>
<svg width="52px" height="42px" viewBox="0 0 52 42" version="1.1" xmlns="http://www.w3.org/2000/svg" xmlns:xlink="http://www.w3.org/1999/xlink">
    <title>icon/menu/news &amp; blog/teal</title>
    <g id="dashboard---desktop" stroke="none" stroke-width="1" fill="none" fill-rule="evenodd" stroke-linecap="round" stroke-linejoin="round">
        <g id="PROFILE---ACTIVE-USER-Copy-9" transform="translate(-1002.000000, -553.000000)" stroke="#004046" stroke-width="2.5">
            <g id="Group-105" transform="translate(761.000000, 373.000000)">
                <g id="Group-104" transform="translate(240.000000, 174.000000)">
                    <g id="icon/menu/news-&amp;-blog/teal" transform="translate(2.822727, 8.154545)">
                        <g id="news-&amp;-blog-icon" transform="translate(0.000000, -0.000000)">
                            <path d="M37.8424051,0.446686386 C37.1636176,0.156732065 36.4121028,0 35.620184,0 L5.62423958,0 C2.52929165,0 0,2.45285682 0,5.45427587 L0,25.421941 C0,28.42336 2.52929165,30.8762169 5.62423958,30.8762169 L6.20605747,30.8762169 L6.16565345,38.0545455 L13.810094,30.8840535 L35.620184,30.8840535 C38.7151319,30.8840535 41.2444236,28.4311966 41.2444236,25.4297776 L41.2444236,20.2732926" id="Path"></path>
                            <line x1="6.72322893" y1="7.31938745" x2="28.7191774" y2="7.31938745" id="Path"></line>
                            <line x1="6.76363295" y1="16.0728733" x2="21.0908984" y2="16.0728733" id="Path"></line>
                            <line x1="6.94141063" y1="24.6147709" x2="18.6424148" y2="24.6147709" id="Path"></line>
                            <path d="M40.8484642,3.76156957 L26.0686737,16.0180171 C24.8242299,19.0664557 23.2161499,23.7135615 23.2161499,23.7135615 C23.2161499,23.7135615 26.8121077,23.1806725 31.5878628,22.4205219 L46.4484614,10.2032575 C48.2747231,8.70646623 48.5090664,6.03418451 46.9656328,4.26311218 L46.9656328,4.26311218 C45.4221993,2.49203984 42.6666451,2.26477834 40.8484642,3.76156957 Z" id="Path"></path>
                            <line x1="26.0686737" y1="16.0493635" x2="31.5878628" y2="22.3891755" id="Path"></line>
                            <line x1="44.8403814" y1="11.4727872" x2="39.2727074" y2="5.08595552" id="Path"></line>
                        </g>
                    </g>
                </g>
            </g>
        </g>
    </g>
</svg>