<?xml version="1.0" encoding="UTF-8"?>
<svg width="109px" height="115px" viewBox="0 0 109 115" version="1.1" xmlns="http://www.w3.org/2000/svg" xmlns:xlink="http://www.w3.org/1999/xlink">
    <title>post to socials icon</title>
    <g id="dashboard---desktop" stroke="none" stroke-width="1" fill="none" fill-rule="evenodd" stroke-linecap="round" stroke-linejoin="round">
        <g id="CUSTOM-PROGRAM---SOCIALS" transform="translate(-383.000000, -199.000000)" stroke="#153F45" stroke-width="2.5">
            <g id="Group-20" transform="translate(328.000000, 137.000000)">
                <g id="post-to-socials-icon" transform="translate(57.000000, 64.000000)">
                    <line x1="18.75" y1="66.1011236" x2="22.5" y2="42.4044944" id="Path"></line>
                    <g id="Group">
                        <path d="M36.6330084,77.3200278 L27.2553969,85.017537 C26.5607591,85.5803266 25.5188022,85.0901551 25.5188022,84.2005844 L25.5188022,77.3200278 C25.5188022,77.3200278 8.50017409,77.3200278 8.50017409,77.3200278 C3.82050836,77.3200278 0,73.5257367 0,68.878184 L0,38.5238551 C0,33.8763024 3.82050836,30.0820113 8.50017409,30.0820113 L39.9416783,30.0820113 C44.621344,30.0820113 48.4418524,33.8763024 48.4418524,38.5238551 L48.4418524,68.878184 C48.4418524,69.6406731 48.3321727,70.3850077 48.1493733,71.0930333" id="Path"></path>
                        <path d="M43.7804666,31.2438995 L43.7804666,10.6385387 C43.7804666,4.79278876 48.6063719,0 54.4925139,0 L94.2879526,0 C100.174095,0 105,4.79278876 105,10.6385387 L105,49.6525654 C105,55.4983153 100.174095,60.2911041 94.2879526,60.2911041 L88.8222493,60.2911041 L77.0134053,69.6588276 C76.3553273,70.1853082 75.3682103,69.7132911 75.3682103,68.878184 L75.3682103,60.3092586 C75.3682103,60.3092586 54.5107939,60.3092586 54.5107939,60.3092586 C52.3537604,60.3092586 50.3246866,59.6556965 48.6429318,58.5664263" id="Path"></path>
                        <path d="M65.2594011,105.368735 L62.8830084,105.368735 L56.1742688,110.815086 C55.6258705,111.250794 54.803273,110.869549 54.8215529,110.161524 L54.8946727,105.368735 L42.6288301,105.368735 C39.2287604,105.368735 36.431929,102.60925 36.431929,99.2143583 L36.431929,77.3563368 C36.431929,73.9795993 39.2104805,71.2019603 42.6288301,71.2019603 L65.2776811,71.2019603 C65.8809192,71.2019603 66.4658774,71.2927329 67.0142758,71.4561234 C69.573468,72.200458 71.4745822,74.5786979 71.4745822,77.3563368 L71.4745822,99.2143583 C71.4745822,102.591096 68.6960306,105.368735 65.2776811,105.368735 L65.2594011,105.368735 Z" id="Path"></path>
                        <rect id="Rectangle" x="56.5764276" y="25.8883211" width="9.41417131" height="20.9866053" rx="0.15"></rect>
                        <path d="M65.9905989,41.1017945 C65.9905989,44.5874591 68.8605501,47.4195616 72.3520195,47.4195616 L90.3943245,47.4195616 C91.216922,47.4195616 91.8932799,46.7478449 91.8932799,45.9308923 L91.8932799,27.6311534 C91.8932799,26.8142008 91.216922,26.1424842 90.3943245,26.1424842 L80.0844359,25.9972481 C79.4994777,25.9972481 79.0973189,25.416304 79.2983983,24.871669 C79.9381964,23.1833002 81.053273,19.9336442 81.0167131,17.7551038 C80.9618733,14.6869928 79.9016365,11.4918003 77.6166435,11.4918003 C75.3316504,11.4918003 76.6112465,14.7233018 74.9660515,18.3723569 C73.3208565,22.021412 66.0088788,28.8656596 66.0088788,28.8656596" id="Path"></path>
                        <line x1="11.9368036" y1="50.360591" x2="36.3953691" y2="50.360591" id="Path"></line>
                        <line x1="11.9368036" y1="57.7131647" x2="36.3953691" y2="57.7131647" id="Path"></line>
                        <line x1="26.1768802" y1="66.3365536" x2="29.9608287" y2="42.0276742" id="Path"></line>
                        <path d="M56.8506267,81.913117 C59.1721797,81.368482 61.4206128,82.9297692 62.1700905,85.1809276 C64.308844,91.6257761 54.3097145,95.7286938 54.3097145,95.7286938 C54.3097145,95.7286938 44.1643454,91.5531581 46.2299791,85.1446186 C46.9611769,82.8934602 49.1913301,81.295864 51.531163,81.8223445 C53.1397981,82.1854346 53.8344359,83.2565503 54.0903552,83.8374944 C54.145195,83.9645759 54.3097145,83.9645759 54.3645543,83.8374944 C54.6204735,83.2747048 55.2785515,82.2762071 56.8323468,81.913117 L56.8506267,81.913117 Z" id="Path"></path>
                    </g>
                </g>
            </g>
        </g>
    </g>
</svg>