<?xml version="1.0" encoding="UTF-8"?>
<svg width="60px" height="59px" viewBox="0 0 60 59" version="1.1" xmlns="http://www.w3.org/2000/svg" xmlns:xlink="http://www.w3.org/1999/xlink">
    <title>tell your friends</title>
    <g id="bank-switching-journey---desktop" stroke="none" stroke-width="1" fill="none" fill-rule="evenodd" stroke-linecap="round" stroke-linejoin="round">
        <g id="SWITCHING-JOURNEY---active-user-Copy-8" transform="translate(-453.000000, -720.000000)" stroke="#153F45" stroke-width="2">
            <g id="Group-11" transform="translate(416.000000, 697.000000)">
                <g id="tell-your-friends" transform="translate(38.000000, 24.000000)">
                    <path d="M5.05477174,49.0801708 C2.08396719,45.7519568 0.316526515,41.6129032 0.316526515,37.125 C0.316526515,26.1503795 10.8647629,17.25 23.885536,17.25 C36.9063091,17.25 47.4545455,26.1503795 47.4545455,37.125 C47.4545455,48.0996205 36.9063091,57 23.885536,57 C23.885536,57 1.98995439,57 1.48228526,57 C0.97461613,57 0.391736757,56.820861 0.109698351,56.1608752 C-0.172340055,55.5103178 0.156704752,54.8126186 0.344730356,54.6146229 C0.55155852,54.4260555 5.05477174,49.0801708 5.05477174,49.0801708 Z" id="Path"></path>
                    <path d="M50.8930811,36.75 C54.0318607,36.75 56.463708,36.75 56.623946,36.75 C57.0952342,36.75 57.6325028,36.5803846 57.8964242,35.9773077 C58.1603456,35.3742308 57.8587212,34.7334615 57.6702059,34.5544231 C57.4911163,34.3753846 53.3060768,29.4282692 53.3060768,29.4282692 C56.0584001,26.3563462 57.6984832,22.5305769 57.6984832,18.375 C57.6984832,8.22634615 47.9145394,0 35.8495606,0 C25.0382085,0 16.0554548,6.60557692 14.3116883,15.2748077" id="Path"></path>
                    <path d="M14.3116883,15.6127936 C17.2533724,14.7320766 20.4330568,14.25 23.7555413,14.25 C38.9304423,14.25 51.2207792,24.3272559 51.2207792,36.75" id="Path"></path>
                    <ellipse id="Oval" cx="13.9350649" cy="37.125" rx="3.38961039" ry="3.375"></ellipse>
                    <ellipse id="Oval" cx="24.4805195" cy="37.125" rx="3.38961039" ry="3.375"></ellipse>
                    <ellipse id="Oval" cx="34.2727273" cy="37.125" rx="3.38961039" ry="3.375"></ellipse>
                </g>
            </g>
        </g>
    </g>
</svg>