<?xml version="1.0" encoding="UTF-8"?>
<svg width="70px" height="140px" viewBox="0 0 70 140" version="1.1" xmlns="http://www.w3.org/2000/svg" xmlns:xlink="http://www.w3.org/1999/xlink">
    <title>pointing</title>
    <g id="dashboard---desktop" stroke="none" stroke-width="1" fill="none" fill-rule="evenodd">
        <g id="PROFILE---ACTIVE-USER-Copy-15" transform="translate(-357.000000, -530.000000)">
            <g id="pointing" transform="translate(357.000000, 530.000000)">
                <path d="M29.1023363,87.0482706 C28.9211478,89.1476311 28.4983746,91.3069734 28.1963938,93.3463522 C28.1963938,93.7062426 27.6528283,93.8861877 27.4112436,93.5862791 C27.4112436,88.8477225 28.6795631,84.0491841 28.25679,79.1906641 C28.619167,79.0107189 28.981544,78.770792 29.343921,78.530865 C29.8270903,79.1306823 29.8874865,79.8504631 29.7666941,80.5102621 C29.7666941,82.7295861 29.4043171,84.8889283 29.1023363,87.0482706 Z M8.86962053,58.377004 L8.32605503,58.3170223 C8.08447036,53.9983377 8.80922436,49.739635 9.65477069,45.5409139 L10.1983362,45.6008956 C10.3795247,48.0001648 11.6478442,50.2794705 11.0438825,52.7987032 C10.500317,54.7181185 9.35278986,56.3976069 8.86962053,58.377004 Z M69.5073717,36.6036362 L69.2053909,36.663618 C69.8093525,35.5839468 69.265787,35.2240565 68.6014292,34.3243305 L68.541033,34.5042757 L68.2994484,33.9644402 C68.2390522,33.8444767 68.178656,33.7245132 68.0578637,33.6645315 C67.9370714,33.0047325 67.5142982,32.3449335 66.9707327,32.0450248 L66.8499404,32.1649883 C66.6083557,31.9850431 66.366771,31.9250614 66.1251864,31.8050979 C66.6687519,31.0253354 66.9707327,30.005646 67.3331097,29.1659018 C67.6350905,28.2661759 68.0578637,27.4264317 68.178656,26.5267057 C68.1182599,25.6869615 67.2727135,26.2267971 66.9103365,26.6466692 C65.7024132,27.7263403 64.6152822,29.4058287 63.830132,31.4452075 C62.5014164,31.0853172 61.7162662,31.4452075 61.3538892,33.3046411 C60.9915122,34.5642575 60.6291352,35.8238738 60.6291352,37.1434718 C60.4479467,37.0834901 60.1459659,36.8435632 59.9647774,37.0235084 C56.9449691,40.3225035 53.3815952,42.8417361 49.9994099,45.6008956 C47.4023748,43.6814803 46.0736591,39.9626131 44.6241511,37.1434718 C42.1479083,32.2849517 39.6716654,25.2071077 33.2696718,25.2670894 C32.4241255,25.2071077 31.5785791,25.0871442 30.793429,24.8472173 C30.4914481,24.7872356 30.1290711,24.6672721 30.0082788,24.4873269 C29.8270903,23.8875096 29.7666941,23.2277106 29.4647133,22.687875 C28.5587708,21.1883318 26.5656973,21.0683684 24.995397,21.4282587 C22.3379657,21.9081126 22.3983618,21.6082039 22.2171733,24.3673635 C22.1567772,25.0271625 21.6736078,25.0871442 21.1300423,25.2670894 C20.5260807,25.4470346 19.8617228,25.6269798 19.2577612,25.7469432 C19.3181573,25.7469432 19.3785535,25.6869615 19.4389497,25.6869615 C9.11120519,25.8669067 2.28643838,37.7432891 0.897326549,46.2007129 C-0.67297378,54.838082 1.38049588,64.4351586 4.58149271,71.6929479 C4.46070037,74.332144 4.9438697,76.9713401 5.3062467,79.6105362 C5.4874352,80.2703352 6.2121892,80.3303169 6.45377387,79.5505544 L6.69535853,78.530865 L6.9369432,79.4905727 C7.1181317,80.09039 7.35971636,80.1503717 7.60130103,80.1503717 C7.90328186,80.1503717 8.08447036,79.9704265 8.08447036,79.1906641 L8.56763969,79.0707006 C8.74882819,79.430591 8.93001669,79.7904814 9.29239369,79.9704265 C9.89635536,84.4690562 10.3191285,89.0876494 11.8290327,93.4663156 C12.4329943,95.0858223 13.3389368,96.5253838 14.0032947,98.0849088 C10.8022979,105.222735 10.2587324,113.200305 9.53397836,120.817984 C9.59437452,120.817984 9.89635536,120.877966 9.95675152,120.877966 L16.6003298,122.377509 C16.5399337,122.377509 16.1171605,123.337217 15.6339912,123.277235 C13.76171,123.09729 9.41318602,121.657728 9.35278986,121.837674 C9.17160136,121.837674 8.50724353,121.837674 8.56763969,121.957637 C8.62803586,122.857363 8.86962053,123.517162 9.35278986,123.997016 C9.35278986,124.116979 9.35278986,124.296925 9.35278986,124.416888 C8.38645119,127.715883 7.72209336,131.254805 7.2993202,134.913691 C6.7557547,135.453526 6.63496237,137.133015 7.42011253,137.612868 C9.65477069,139.112412 12.6141828,139.832192 15.4528027,139.592265 C18.472611,139.292357 22.096381,138.092722 20.646873,134.673764 C20.646873,134.5538 20.4656845,134.5538 20.3448922,134.613782 C20.1033075,134.373855 19.8013267,134.19391 19.4993458,134.073946 C18.8953842,132.574403 18.3518187,131.014878 17.8686493,129.455353 C17.6270647,128.735572 17.38548,128.015792 17.4458762,127.236029 C17.5666685,125.316614 17.747857,124.47687 19.1369688,122.977326 C19.9825152,123.397199 21.5528155,120.458094 21.9151925,119.858277 C22.7003427,118.058825 23.6666813,116.439318 24.5122276,114.639866 C24.63302,114.339957 25.0557931,114.339957 25.2369816,114.579884 C25.2973778,114.699848 25.357774,114.819811 25.2973778,114.939775 C24.5726238,116.979154 23.6062852,118.958551 22.7003427,120.877966 C23.0023235,122.017619 23.1231158,123.817071 23.9686622,124.656815 C24.3914353,127.535938 21.4320232,128.855536 23.3647005,132.034568 C22.7003427,132.094549 22.6399465,132.334476 22.6399465,133.114239 C22.6399465,133.654074 22.6399465,134.253892 22.7003427,134.793727 C22.821135,135.453526 23.4250967,135.633471 24.3310391,135.813417 C25.0557931,135.993362 25.7805471,136.173307 26.5053011,136.353252 C27.2300551,136.593179 28.0152053,136.593179 28.3171861,135.813417 C31.9409561,137.013051 42.3894929,136.893088 45.8320744,135.273581 C46.7984131,134.913691 47.4627709,134.673764 46.5568284,133.594093 C46.0736591,130.535024 38.2221574,132.694367 37.0746303,129.395371 C36.8934418,128.975499 36.7122533,128.735572 36.2290839,128.675591 C36.2894801,128.3157 36.2290839,127.95581 35.8063108,127.835847 C35.6855185,127.775865 35.5647261,127.775865 35.4439338,127.655901 C35.141953,127.056084 34.6587836,126.696194 34.1152181,126.336303 C34.3568028,125.976413 34.1756143,125.856449 34.054822,125.496559 C33.9340296,124.776778 34.1756143,124.116979 34.1756143,123.397199 C34.2964066,123.157272 34.417199,122.857363 34.5983875,122.7374 C34.779576,122.617436 34.417199,122.797381 34.3568028,122.617436 C34.417199,122.557454 31.7597676,123.45718 30.3706558,123.637125 C29.706298,123.697107 29.8874865,122.917345 29.8874865,122.857363 C30.1290711,122.617436 34.9003683,121.537765 34.5983875,121.477783 C34.5379913,121.35782 34.5379913,121.237856 34.4775951,121.117893 C35.2627453,118.718624 36.2290839,115.599574 36.5310648,112.300579 C36.8330456,107.022186 36.5310648,102.583538 38.1617613,97.1851829 C40.3964194,88.6677773 44.8053396,80.6902073 44.8657358,71.6929479 C44.8053396,70.1934047 45.2281128,68.6338797 44.8053396,67.1343365 L45.2885089,66.8944096 C45.3489051,66.9543913 45.4696974,66.9543913 45.5300936,66.8944096 C45.8320744,66.4145557 45.4696974,65.8147384 45.4093013,65.2749029 C45.5904898,65.0949577 45.4696974,64.9749942 45.2885089,64.8550308 C43.2350393,57.5372598 39.7320616,56.5175704 40.6984003,47.3403658 C42.2687006,50.6393609 45.7112821,53.938356 49.5162406,53.4585022 C53.3815952,54.0583195 62.3202279,44.7011697 64.0717167,41.7020832 C64.3736975,41.7020832 64.3736975,41.5221381 64.4340937,41.2822111 C66.004394,41.4621563 67.5142982,40.2625217 67.5142982,38.7029968 C68.90341,39.542741 70.4133142,38.3431064 69.628164,36.8435632 C69.5677679,36.7235997 69.5073717,36.663618 69.5073717,36.6036362 Z" id="Skin_00000075143309432758561600000015330620803752998787_" fill="#D08B5B"></path>
                <path d="M19.9825152,134.19391 L20.3448922,135.393544 C20.7072692,136.473216 20.284496,137.372941 19.2577612,137.972759 C16.0567643,139.652247 11.8894289,139.532284 8.44684736,137.792814 C8.14486653,137.67285 7.90328186,137.492905 7.60130103,137.31296 L7.54090486,137.252978 L7.4805087,137.192996 L7.42011253,137.192996 C7.2993202,137.073033 7.17852786,137.013051 7.1181317,136.893088 L7.1181317,136.893088 L7.1181317,136.893088 L7.1181317,136.893088 C7.1181317,136.833106 7.1181317,136.833106 7.05773553,136.773124 L7.05773553,136.713142 L7.05773553,136.653161 C6.99733937,136.413234 6.99733937,136.173307 6.9369432,135.753435 L6.9369432,135.57349 L6.9369432,135.033654 L7.23892403,135.453526 C7.35971636,135.633471 7.54090486,135.753435 7.8428857,135.93338 L7.96367803,135.993362 L8.20526269,136.173307 L8.20526269,136.173307 C8.80922436,136.593179 9.47358219,136.893088 10.2587324,137.192996 C12.9765598,138.212686 16.0567643,138.092722 18.472611,136.773124 L18.5330072,136.713142 L18.7141957,136.593179 L18.7745918,136.533197 C19.1369688,136.29327 19.3785535,136.173307 19.4993458,135.93338 L19.4993458,135.93338 L19.4993458,135.93338 L19.559742,135.873398 L19.6201382,135.873398 C19.8617228,135.873398 19.9825152,135.693453 19.9825152,135.393544 L19.9825152,135.393544 L19.9825152,134.19391 Z M23.1231158,131.734659 L23.3647005,131.854622 C25.9617356,133.474129 28.3171861,134.5538 30.7330328,134.973672 C32.1221446,135.213599 33.5716526,135.273581 35.2627453,135.213599 L35.4439338,135.213599 L35.6251223,135.213599 C36.6518571,135.153618 37.5577996,135.093636 39.2488923,134.913691 L39.9132501,134.853709 L40.6984003,134.733745 L41.0607773,134.673764 C42.5706814,134.493818 43.5370201,134.313873 44.5033588,134.133928 L44.6241511,134.133928 L44.6241511,134.133928 C44.6241511,134.133928 44.6845473,134.073946 44.7449434,134.073946 L44.8053396,134.073946 C44.9261319,134.013965 44.9261319,134.013965 44.9865281,133.953983 L44.9865281,133.953983 L45.0469243,133.834019 L45.1677166,133.834019 L45.1677166,133.834019 C45.2281128,133.834019 45.2281128,133.774038 45.2885089,133.774038 L45.3489051,133.774038 L45.4093013,133.774038 L45.4093013,133.774038 L45.4696974,133.774038 L45.5300936,133.774038 C45.6508859,133.774038 45.7716783,133.714056 45.8924706,133.654074 L46.0132629,133.594093 L46.0736591,133.594093 L46.1340553,133.594093 C46.4964323,133.714056 46.6172246,134.073946 46.3756399,134.373855 L46.3756399,134.373855 L46.3756399,134.373855 L46.3756399,134.373855 C46.3756399,134.493818 46.3152438,134.5538 46.1944514,134.613782 L46.1944514,134.613782 L46.1944514,134.613782 L46.1944514,134.613782 L46.1944514,134.613782 C46.1944514,134.613782 46.1944514,134.673764 46.1340553,134.673764 L46.1340553,134.673764 L46.1340553,134.673764 L46.1340553,134.673764 L46.0132629,134.733745 L45.9528668,134.733745 C45.8320744,134.793727 45.7716783,134.853709 45.7112821,134.853709 L45.7112821,134.853709 L45.7112821,134.853709 C45.4093013,135.153618 44.9261319,135.333563 44.1409818,135.453526 L44.0805856,135.453526 L44.0201894,135.453526 L43.8993971,135.453526 C40.0944386,136.113325 36.1686878,136.29327 32.3033331,135.993362 C31.6993715,135.93338 31.0954098,135.873398 30.4914481,135.813417 L30.3102596,135.813417 L30.068675,135.813417 L29.8270903,135.753435 L29.7666941,135.753435 L29.706298,135.753435 C29.1023363,135.693453 28.7399593,135.57349 28.4379785,135.273581 L28.4379785,135.273581 L28.4379785,135.273581 C28.3171861,135.153618 28.0756015,135.213599 28.0756015,135.393544 L28.0756015,135.393544 L28.0756015,135.393544 C28.0756015,135.633471 27.9548091,135.753435 27.7132245,135.813417 C27.532036,135.813417 27.3508475,135.813417 27.1092628,135.753435 C26.9884705,135.753435 26.9280743,135.693453 26.807282,135.693453 L26.7468858,135.693453 L26.6260935,135.693453 C26.6260935,135.693453 26.6260935,135.693453 26.5656973,135.693453 L26.3241126,135.633471 L26.082528,135.57349 C25.9617356,135.57349 25.8409433,135.513508 25.720151,135.453526 L24.9350008,135.213599 L24.7538123,135.153618 C24.5726238,135.093636 24.4518315,135.093636 24.3310391,135.033654 L24.270643,135.033654 L24.0894545,134.973672 L24.0290583,134.973672 L23.9686622,134.973672 C23.4250967,134.853709 23.3043043,134.673764 23.3043043,133.953983 L23.3043043,133.894001 L23.2439082,133.594093 L23.2439082,133.414147 C23.2439082,133.234202 23.183512,133.114239 23.183512,132.934294 L23.183512,132.874312 L23.183512,132.874312 L23.183512,132.754348 C23.183512,132.754348 23.183512,132.634385 23.1231158,132.574403 C23.1231158,132.514421 23.1231158,132.45444 23.0627197,132.394458 C23.0627197,132.274495 23.0627197,132.154531 23.0627197,132.034568 C23.1231158,131.914604 23.183512,131.854622 23.3043043,131.854622 L23.3043043,131.854622 L23.3043043,131.854622 L23.1231158,131.734659 Z" id="Shoes_00000123436788142495654450000002576199644508228493_" fill="#FFFFFF"></path>
                <path d="M32.0013523,24.6672721 L34.1152181,24.907199 L34.2360105,24.907199 C35.0815568,25.0271625 35.6855185,25.0871442 36.2894801,25.2670894 C37.0142341,25.5070163 37.6181958,25.8669067 38.1617613,26.3467605 C40.8191926,28.7460297 43.6578124,33.5445681 46.7984131,40.6823938 L46.8588093,40.862339 L46.8588093,40.9223208 L46.9192054,40.9823025 C47.2815824,41.6421015 47.8855441,42.5418274 48.6102981,43.4415534 L48.6706942,43.5015351 L48.7914866,43.6214986 L48.8518827,43.6814803 C49.1538636,44.0413707 49.3954482,44.4012611 49.6370329,44.641188 L49.6974291,44.7011697 L49.7578252,44.7611514 L49.8182214,44.8211332 C49.8786176,44.8811149 49.8786176,44.8811149 49.9390137,44.9410966 L49.9994099,45.0010784 L50.0598061,45.0610601 L50.0598061,45.0010784 L50.2409946,44.8811149 C51.9320872,44.1013524 53.5627837,43.0216813 55.3142726,41.7020832 L55.3746687,41.6421015 C56.7637806,40.5024487 58.1528924,39.3028141 59.9043812,37.6233256 L60.3875505,37.1434718 L60.6291352,37.6833074 C61.5350777,39.7226862 62.6826049,41.0422842 64.2529052,41.2822111 L64.3133014,41.2822111 L65.2192439,41.4021746 L64.4944899,42.0019919 L64.4340937,42.0619736 C63.5885474,42.7817544 62.8637934,43.4415534 61.5954739,44.641188 L61.3538892,44.8811149 L60.7499275,45.4209505 C60.2667582,45.9008043 59.9043812,46.2007129 59.6024004,46.5006216 L59.5420042,46.5606033 L59.3004196,46.8005302 L59.1192311,46.9204937 C57.6697231,48.2400917 56.5825921,49.0798359 55.4954611,49.9195802 L55.3746687,49.9795619 L55.3142726,50.0395436 C53.8647646,51.059233 52.4756527,51.8989772 51.0261447,52.4388128 L50.9657486,52.4987945 L50.9053524,52.4987945 L50.8449562,52.4987945 C50.6637677,52.5587762 50.4825792,52.618758 50.1202022,52.6787397 L50.0598061,52.6787397 L49.8182214,52.7387214 C49.7578252,52.7387214 49.6974291,52.7387214 49.6370329,52.7987032 L49.5766367,52.7987032 L49.5162406,52.7987032 L49.4558444,52.7987032 C47.9459402,52.7987032 46.5568284,52.3188493 45.1677166,51.4191234 L45.1073204,51.3591417 C44.1409818,50.6993426 43.2954354,49.9195802 42.0875121,48.7199456 L41.9667198,48.5999821 L41.8459274,48.4800187 L41.1815696,47.7602379 L41.1815696,47.8202196 C40.8191926,49.5596898 40.6380041,51.5990686 40.7587964,52.5587762 L40.7587964,52.618758 L40.7587964,52.6787397 C40.8795888,53.7584108 41.1211734,54.7781002 41.6043428,55.9177531 C41.9667198,56.817479 42.3894929,57.717205 42.9934546,58.7968761 L43.0538508,58.8568578 L43.1746431,59.036803 C44.2013779,60.9562183 44.9261319,62.9955971 45.4093013,65.0949577 L45.4093013,65.2149211 L45.4093013,65.2749029 L45.4093013,65.3348846 C45.2281128,65.9946836 44.8053396,66.4745374 44.0805856,66.9543913 L44.0201894,66.9543913 L43.9597933,67.014373 C43.0538508,67.5542086 42.0875121,67.9140989 40.5776079,68.2739893 C35.5647261,69.5336056 30.7330328,70.0134595 26.2033203,69.4136422 C23.908266,69.1137335 21.6132117,68.6938614 19.0161765,68.0940441 L18.8953842,68.0340624 L18.5330072,67.9140989 C16.7815183,67.4942268 15.0904257,67.014373 12.5537867,66.354574 L12.0706174,66.2346105 L11.225071,65.9946836 L11.1042787,65.9347019 L10.7419017,65.8147384 L10.6211094,65.7547567 L10.5607132,65.7547567 L10.500317,65.7547567 L10.4399209,65.7547567 C10.13794,65.6347932 9.89635536,65.5748115 9.65477069,65.454848 L9.53397836,65.3948663 L9.47358219,65.3348846 L9.29239369,65.2149211 L9.23199753,64.795049 C9.23199753,64.6151038 9.23199753,64.4351586 9.17160136,64.2552135 L9.17160136,64.0752683 L9.05080903,62.3957799 C9.05080903,62.2758164 9.05080903,62.0958712 8.99041286,61.9759077 L8.99041286,61.6759991 L8.99041286,61.4360722 L8.99041286,61.3161087 C9.11120519,59.1567665 9.71516686,56.9374425 10.6815055,54.7781002 L10.7419017,54.7181185 L10.8022979,54.6581368 C11.587448,53.0986118 11.8894289,51.8389955 11.8290327,50.5193974 L11.8290327,50.4594157 C11.7686365,49.4397263 11.5270519,48.4800187 10.9230902,46.5006216 L10.862694,46.3806581 L10.8022979,46.2007129 C10.6211094,45.4809322 10.4399209,44.7611514 10.3795247,44.1613341 L10.3795247,44.1013524 L10.3795247,44.1613341 C9.23199753,48.18011 8.62803586,52.2588676 8.62803586,56.2176617 L8.62803586,56.3376252 L8.62803586,56.5175704 L8.62803586,56.7574973 C8.62803586,57.8971502 8.68843203,59.036803 8.80922436,60.7162914 L8.80922436,60.8362549 L8.86962053,61.4360722 L8.86962053,61.6160174 L8.86962053,61.6759991 L8.86962053,61.7359808 L8.86962053,61.7959626 C8.80922436,62.3957799 8.86962053,62.815652 8.99041286,63.2355241 L8.99041286,63.2955058 L8.99041286,63.4154693 C8.99041286,63.5954144 8.99041286,63.7153779 9.05080903,63.9553048 L9.05080903,64.0152865 L9.11120519,64.6750856 L9.11120519,64.795049 C9.17160136,65.3948663 9.17160136,65.8147384 9.17160136,66.2346105 L9.17160136,66.2945923 L9.17160136,66.354574 L9.17160136,66.4745374 C9.05080903,67.4942268 8.68843203,68.1540259 7.96367803,68.8138249 L7.90328186,68.8738066 C7.17852786,69.5935874 6.3933777,70.1334229 5.54783137,70.553295 L5.4874352,70.553295 L5.42703904,70.553295 L5.00426587,70.7332402 L4.88347354,70.3133681 C2.70921154,64.0152865 1.44089205,58.7368944 1.13891121,53.6384474 C0.776534216,47.7002562 1.74287288,42.2419188 4.27951187,37.1434718 L4.33990804,36.9635266 L4.40030421,36.7835814 C7.17852786,31.0853172 11.587448,26.8865961 16.9023107,25.3870529 L17.0834992,25.3270711 L17.2646877,25.2670894 L18.5934033,24.907199 L17.6874608,25.9268884 C17.1438953,26.5267057 17.38548,27.4864134 18.110234,28.5061028 L18.110234,28.5660845 L18.1706302,28.6260662 C19.4389497,30.5454816 21.5528155,31.8650796 24.1498507,32.5248787 C26.5053011,33.1246959 29.1627325,33.1846777 31.518183,32.7648056 L31.5785791,32.7648056 L31.6389753,32.7648056 C33.9340296,32.3449335 35.6251223,30.905372 35.8063108,28.9859566 L35.8063108,28.9259749 L35.8063108,28.8060114 C35.9271031,27.3664499 35.0815568,25.9268884 33.8132373,25.1471259 L33.7528411,25.1471259 L32.0013523,24.6672721 Z" id="Top_00000018941524158653267980000010502737530610328755_" fill="#FFFFFF"></path>
                <path d="M28.5587708,79.3106275 C28.8003555,79.1906641 29.0419401,79.0107189 29.2835248,78.8907554 C29.6459018,79.4905727 29.5855056,80.0304083 29.5251095,80.750189 C29.4647133,81.8898419 29.4647133,83.0294947 29.2231286,84.1691476 C28.8003555,87.0482706 28.5587708,90.0473571 27.9548091,92.8065166 C27.9548091,92.9864618 27.9548091,93.1064253 27.894413,93.2863704 C27.894413,93.4663156 27.532036,93.4663156 27.5924321,93.2863704 C28.0152053,88.6677773 28.8607516,83.9892024 28.5587708,79.3106275 Z M30.7330328,135.093636 C33.7528411,135.57349 36.8934418,135.213599 39.9132501,134.913691 L40.3360233,134.853709 C41.7855313,134.673764 43.2350393,134.493818 44.6241511,134.133928 C44.7449434,134.013965 44.9261319,134.013965 44.9865281,133.834019 L45.0469243,133.834019 C45.1073204,133.774038 45.1677166,133.774038 45.2885089,133.714056 C45.5300936,133.654074 45.7112821,133.654074 45.8924706,133.594093 C46.1944514,133.714056 46.2548476,133.953983 46.0132629,134.133928 C46.0132629,134.253892 45.8924706,134.313873 45.8320744,134.313873 C45.8320744,134.313873 45.7716783,134.373855 45.7716783,134.373855 C45.6508859,134.433837 45.4696974,134.5538 45.3489051,134.613782 C44.9865281,135.033654 44.1409818,135.153618 43.6578124,135.273581 L43.5974163,135.273581 C39.7924578,135.93338 35.866707,136.113325 32.0013523,135.813417 C31.3369945,135.753435 30.6726366,135.693453 30.0082788,135.633471 L29.8270903,135.633471 C29.2835248,135.57349 28.619167,135.513508 28.1963938,135.093636 C27.9548091,134.913691 27.532036,135.033654 27.532036,135.333563 L27.532036,135.333563 C27.5924321,135.873398 26.3241126,135.453526 26.0221318,135.333563 L26.0221318,135.333563 C25.2973778,135.153618 24.63302,134.913691 23.908266,134.733745 L23.7270775,134.673764 C23.1231158,134.5538 23.0627197,134.493818 23.0627197,133.714056 L23.0627197,133.534111 C23.0023235,133.234202 23.0023235,132.994275 22.9419273,132.694367 L22.9419273,132.574403 C22.9419273,132.45444 22.7003427,131.734659 23.0627197,131.854622 C23.1231158,131.854622 23.1231158,131.854622 23.1231158,131.794641 C25.5993586,133.414147 28.0756015,134.673764 30.7330328,135.093636 Z M18.6537995,136.953069 L18.834988,136.833106 C19.1369688,136.653161 19.4993458,136.413234 19.7409305,136.113325 C20.1033075,136.113325 20.284496,135.753435 20.284496,135.453526 C20.5864768,136.473216 20.2240998,137.31296 19.2577612,137.852795 C15.9963682,139.592265 11.8290327,139.292357 8.56763969,137.67285 C8.26565886,137.492905 7.96367803,137.31296 7.6616972,137.133015 L7.60130103,137.073033 C7.4805087,137.013051 7.35971636,136.953069 7.2993202,136.833106 C7.17852786,136.413234 7.17852786,135.993362 7.1181317,135.57349 C7.35971636,135.873398 7.78248953,136.113325 8.08447036,136.353252 C8.74882819,136.773124 9.41318602,137.133015 10.13794,137.372941 C12.9161637,138.392631 16.1171605,138.332649 18.6537995,136.953069 Z M8.80922436,52.1389041 C9.05080903,49.9195802 9.53397836,47.7002562 9.95675152,45.4809322 C10.13794,47.8802014 11.3458634,50.1595071 10.8022979,52.5587762 C10.2587324,54.4781916 9.11120519,56.2176617 8.62803586,58.1970588 C8.50724353,56.2176617 8.56763969,54.1782829 8.80922436,52.1389041 Z M12.0102212,71.6329662 C11.7082404,71.6929479 11.4062595,71.6929479 11.1042787,71.6929479 C9.89635536,71.5729844 9.71516686,72.2927652 9.71516686,73.2524729 C9.65477069,73.9122719 9.65477069,74.5720709 9.59437452,75.2318699 L9.59437452,75.651742 C9.59437452,76.1915776 9.47358219,76.7314132 9.59437452,77.3312305 C9.35278986,77.8110843 9.23199753,78.3509199 9.23199753,78.8907554 C9.11120519,78.8907554 9.05080903,78.8907554 8.93001669,78.9507371 C8.50724353,78.1709747 8.38645119,77.211267 8.26565886,76.3715228 C8.20526269,75.9516507 7.60130103,75.8916689 7.60130103,76.3715228 C7.60130103,76.9713401 7.60130103,77.5711574 7.54090486,78.2309564 L7.54090486,79.1906641 L7.54090486,79.1906641 C7.54090486,79.3106275 7.60130103,79.6705179 7.42011253,79.6705179 L7.42011253,79.6705179 C7.1181317,79.6705179 7.1181317,78.530865 7.05773553,78.2909381 L6.81615087,76.4315045 C6.7557547,76.0116324 6.15179303,76.1315959 6.15179303,76.4914862 L6.15179303,76.4914862 C6.09139687,77.3312305 6.0310007,78.1709747 5.97060453,79.0107189 C5.97060453,79.1306823 5.97060453,79.430591 5.78941604,79.4905727 C5.6686237,79.3706092 5.60822754,79.1306823 5.60822754,78.9507371 C5.36664287,76.551468 4.82307737,74.1521988 4.52109654,71.6929479 C4.70228504,71.6929479 4.88347354,71.5130027 4.9438697,71.3330575 C6.51417003,71.0331489 8.20526269,70.1334229 9.05080903,68.6338797 C9.23199753,68.7538432 9.35278986,68.9337883 9.47358219,69.1137335 C9.71516686,69.3536605 10.0171477,69.5336056 10.2587324,69.7735326 C10.9834864,70.3733499 11.7082404,70.9731671 12.4329943,71.5729844 C12.1914097,71.5130027 12.1310135,71.6329662 12.0102212,71.6329662 Z M44.3221703,66.0546653 C44.2013779,66.6544826 43.8390009,66.7144644 43.2954354,67.0743547 C42.2687006,67.674172 41.1211734,68.0340624 40.0340424,68.3339711 C35.3835376,69.5336056 30.5518443,70.0734412 25.8409433,69.4736239 C20.7676653,68.8138249 15.8151797,67.4342451 10.862694,66.0546653 C10.3795247,65.8747202 9.77556302,65.7547567 9.29239369,65.5148298 C9.23199753,65.454848 9.23199753,65.454848 9.17160136,65.3948663 C9.11120519,64.1952317 8.99041286,63.0555789 8.86962053,61.8559443 C8.99041286,59.5766386 9.59437452,57.3573146 10.5607132,55.3179358 C12.312202,51.958959 11.7686365,49.9195802 10.6815055,46.5006216 C10.4399209,45.6008956 10.2587324,44.7011697 10.2587324,43.8014438 C10.3795247,43.2616082 10.500317,42.6617909 10.5607132,42.1219553 C10.6211094,42.0019919 10.6211094,41.8820284 10.6815055,41.8220467 C10.6815055,41.8220467 10.6815055,41.762065 10.6211094,41.8220467 C10.6211094,41.8820284 10.5607132,41.8820284 10.5607132,41.9420102 C10.6211094,41.5221381 10.6815055,41.1022659 10.7419017,40.6224121 C10.7419017,40.5624304 10.6815055,40.5624304 10.6815055,40.6224121 C8.74882819,45.8408226 7.60130103,51.4191234 7.6616972,56.9374425 C7.6616972,58.5569492 7.78248953,60.2364376 7.90328186,61.8559443 L7.90328186,62.0358895 C7.8428857,62.6357068 7.8428857,63.2955058 8.08447036,63.8953231 C8.14486653,64.9150125 8.32605503,65.8747202 8.26565886,66.8944096 C8.14486653,67.7941355 7.8428857,68.4539345 7.17852786,69.1137335 C6.51417003,69.8335143 5.6686237,70.3733499 4.7626812,70.793222 C1.01811888,59.8765472 -1.21653928,48.5999821 4.21911571,37.8032708 C6.7557547,32.5848604 11.0438825,27.8463038 16.9023107,26.3467605 C16.0567643,27.2464865 16.7211222,28.6260662 17.3250838,29.4658105 L17.38548,29.5257922 C20.2240998,33.7245132 26.5053011,34.7442026 31.2162021,33.8444767 C33.5112565,33.4845863 35.6251223,31.9850431 35.8063108,29.5257922 C35.9271031,27.9062855 35.0211606,26.2867788 33.5716526,25.4470346 L33.7528411,25.4470346 C35.141953,25.6269798 36.4706686,25.806925 37.5577996,26.8266144 C41.4835504,30.4255181 43.2954354,35.5839468 45.5904898,40.20254 L45.7112821,40.3824852 C46.6776208,42.1819371 47.6439594,44.1613341 49.3350521,45.5409139 L49.0330712,45.7808408 C48.9726751,45.8408226 49.0330712,45.9008043 49.0934674,45.8408226 C49.2746559,45.7808408 49.3954482,45.7208591 49.5766367,45.6608774 C49.8182214,45.8408226 50.0598061,45.6608774 50.0598061,45.4209505 C53.8043684,43.6214986 56.9449691,40.862339 59.843985,37.983216 C60.568739,39.6627044 61.8370585,41.5221381 63.830132,41.8220467 C61.9578509,43.3815717 60.2667582,45.1210418 58.5152694,46.8005302 L58.3944771,46.9204937 C55.9786304,49.0798359 53.3815952,51.2391782 50.3013907,52.4388128 C49.8786176,52.5587762 49.4558444,52.618758 49.0330712,52.7387214 C45.4696974,52.7987032 43.0538508,50.0395436 40.8191926,47.7002562 C41.0003811,43.6814803 40.8795888,39.4827593 39.2488923,35.763892 L39.1884961,35.6439286 C38.8261191,34.6842209 38.3429498,33.6645315 37.5577996,32.9447508 C38.2221574,33.7245132 38.5845344,34.6842209 38.8865153,35.7039103 L38.8865153,35.763892 C39.7924578,39.0628871 39.9736463,42.5418274 39.8528539,46.0207677 L39.8528539,46.1407312 C39.7924578,48.4800187 39.5508731,50.7593244 39.8528539,53.0986118 C40.0340424,55.497881 41.1211734,57.6572232 42.2687006,59.696602 C43.2954354,61.6160174 44.1409818,64.0752683 44.5637549,66.1746288 L44.9865281,67.0743547 C45.1677166,67.2542999 45.4696974,67.3142817 45.5904898,67.0743547 C45.6508859,66.9543913 45.7112821,66.8344278 45.7716783,66.7144644 C45.8320744,66.2346105 45.6508859,65.8147384 45.5904898,65.3348846 C45.7716783,65.0949577 45.6508859,64.795049 45.4093013,64.6750856 C43.3558316,57.1773694 40.2152309,57.2973329 40.8191926,48.3000735 C42.3290968,51.059233 44.9865281,53.3985205 48.1875249,53.8183926 C48.6102981,53.8783743 49.0934674,53.938356 49.5162406,53.7584108 C53.6231799,54.1183012 62.018247,45.3609687 64.1321129,42.0019919 C64.3736975,42.0019919 64.4944899,41.8220467 64.554886,41.5821198 C66.004394,41.6421015 67.453902,40.6224121 67.6350905,39.1228689 C68.6618254,39.6027227 69.8697487,38.9429237 69.990541,37.8632526 C70.0509372,37.323417 69.8093525,36.8435632 69.628164,36.3637093 C69.628164,36.3037276 69.5677679,36.3037276 69.5677679,36.3037276 C69.8697487,35.5839468 69.3865794,34.9841296 68.9638062,34.444294 L68.8430139,34.2643488 C68.7222215,34.0844036 68.6618254,33.8444767 68.541033,33.7245132 C68.541033,33.7245132 68.541033,33.7245132 68.4806369,33.7245132 C68.2994484,33.9644402 68.4806369,34.3243305 68.541033,34.5642575 C69.0242024,35.6439286 69.0242024,36.0638007 67.7558829,36.3637093 C66.6083557,36.003819 66.6083557,38.2831247 68.6618254,37.1434718 C68.9638062,36.9635266 69.265787,36.7835814 69.4469755,36.4236911 C69.3261832,37.0235084 69.5677679,37.6833074 69.0242024,38.1631612 C68.8430139,38.3431064 68.541033,38.4030881 68.2994484,38.4030881 C67.9974675,38.3431064 67.816279,38.1631612 67.5746944,38.0431978 C67.2123174,37.8632526 66.8499404,38.2231429 66.9707327,38.5830333 C66.6083557,38.882942 66.4271672,39.3028141 66.1251864,39.6627044 C65.7628094,40.0225948 65.2192439,40.3225035 64.7360745,40.3225035 C64.3133014,40.3225035 63.7697359,40.3225035 63.7093397,40.862339 C61.9578509,40.3824852 61.1727007,38.643015 60.5083429,37.0834901 L60.4479467,36.9035449 C61.1123045,35.763892 61.4142854,34.5042757 61.8370585,33.3046411 C62.1994355,31.6851344 62.6826049,31.6851344 64.0717167,32.1050065 L64.192509,32.1649883 C64.6756784,32.2849517 65.5212247,32.5248787 65.27964,33.2446594 C65.2192439,33.4845863 64.9776592,33.6645315 64.7360745,33.6645315 C64.4944899,33.6645315 64.3133014,33.5445681 64.192509,33.4246046 C64.1321129,33.3646229 64.0113205,33.3646229 63.8905282,33.3046411 C63.6489435,33.1246959 63.3469627,33.4246046 63.4073589,33.6645315 C63.4073589,34.0244219 63.5885474,34.2043671 63.830132,34.3243305 L63.8905282,34.3243305 C64.0113205,35.0441113 63.8905282,35.8238738 63.7697359,36.5436545 C63.7093397,36.9035449 63.5885474,37.2034535 63.6489435,37.5633439 C63.7093397,37.9232343 64.192509,37.983216 64.4340937,37.7432891 C65.2192439,36.9035449 64.8568669,35.4040017 64.3736975,34.5042757 C65.9439979,34.8641661 66.8499404,32.884769 65.7024132,31.8650796 C65.1588477,31.3852258 64.3736975,31.3252441 63.7093397,31.1452989 C64.7964707,29.6457556 65.7628094,27.9662672 67.2123174,26.7666326 C67.3331097,26.7066509 67.5746944,26.4067423 67.6954867,26.4067423 C67.816279,26.6466692 67.453902,27.4264317 67.3935059,27.7263403 C67.091525,28.6260662 66.729148,29.4658105 66.366771,30.3055547 C66.2459787,30.5454816 66.1855825,30.7254268 66.0647902,30.9653537 C65.9439979,31.2052806 65.8232055,31.4452075 65.8232055,31.6851344 C65.8232055,31.8650796 66.0647902,32.0450248 66.2459787,31.9250614 C66.6083557,31.6851344 66.7895442,31.0253354 66.9707327,30.665445 C67.1519212,30.1855912 67.3935059,29.7057374 67.5746944,29.2258835 C67.7558829,28.7460297 67.9370714,28.2061941 68.1182599,27.7263403 L68.1182599,27.6663586 C68.2390522,27.3064682 68.4202407,26.8865961 68.4202407,26.466724 C68.4202407,26.1068336 68.2390522,25.806925 67.816279,25.7469432 C67.3935059,25.6869615 67.0311289,26.1068336 66.729148,26.3467605 L66.6687519,26.4067423 C65.27964,27.6663586 64.3736975,29.345847 63.6489435,31.0853172 C61.9578509,30.7254268 61.3538892,31.7451162 61.0519084,33.1846777 C60.7499275,34.3243305 60.3875505,35.4639834 60.3271544,36.663618 C60.1459659,36.5436545 59.843985,36.6036362 59.7231927,36.7835814 C58.4548732,38.1031795 57.1261576,39.3627958 55.7974419,40.5624304 L55.6162534,40.6823938 C53.8043684,42.2419188 51.8112949,43.6214986 49.9390137,45.1810235 C49.1538636,44.641188 48.6102981,43.9214072 48.1271287,43.1416447 L48.0667326,43.081663 C47.5231671,42.2419188 46.9796016,41.3421929 46.4964323,40.4424669 C44.5637549,36.7235997 43.1142469,32.7048238 40.5776079,29.2858653 C38.4033459,26.2867788 37.0142341,25.0871442 33.2092756,24.907199 C32.4241255,24.8472173 31.5785791,24.7272538 30.793429,24.4873269 C30.6122405,24.4273452 30.2498635,24.3673635 30.1894673,24.2474 C30.1290711,24.1874183 30.068675,24.1274365 29.9478826,24.1274365 C29.706298,23.5276193 29.5855056,22.8678202 29.5251095,22.2680029 C29.5251095,22.2080212 29.4647133,22.2080212 29.4647133,22.2680029 C29.343921,22.7478568 29.2231286,23.2277106 29.2835248,23.7075644 C29.343921,24.7272538 29.706298,25.7469432 30.3102596,26.5866875 C30.6122405,27.0065596 31.0350136,27.6063769 31.5785791,27.5463951 C31.8201638,27.5463951 31.9409561,27.3664499 31.88056,27.126523 C31.7597676,26.5267057 31.0954098,26.1668153 30.793429,25.6869615 C31.8201638,25.9268884 32.967691,26.2867788 33.7528411,26.9465778 C35.141953,28.026249 35.2023491,30.1855912 34.1152181,31.4452075 L34.1152181,31.5051893 C33.5112565,32.22497 32.605314,32.6448421 31.6389753,32.884769 L31.5785791,32.884769 C26.807282,34.1443853 19.0765727,32.7648056 17.3250838,27.5463951 C17.2646877,26.6466692 18.2310263,26.2867788 18.8953842,25.9268884 L18.9557803,25.9268884 C19.8013267,25.6869615 20.646873,25.4470346 21.4924193,25.2071077 C21.3112308,25.5669981 21.0696462,25.8669067 20.7676653,26.1068336 C20.5864768,26.3467605 20.3448922,26.7666326 20.7072692,26.9465778 C21.1300423,27.1865047 21.4924193,26.7066509 21.6736078,26.4067423 C22.3379657,25.5669981 22.6399465,24.4273452 22.5191542,23.4076558 C22.458758,23.1077472 22.458758,22.8678202 22.3379657,22.6278933 C22.2775695,22.5679116 22.2171733,22.5079299 22.1567772,22.3879664 C22.1567772,22.3279847 22.096381,22.3879664 22.096381,22.3879664 C22.1567772,22.5079299 22.0359848,22.7478568 22.0359848,22.8678202 C22.0359848,23.0477654 22.0359848,23.2277106 22.0359848,23.3476741 C21.9755887,23.9474914 21.8547963,24.5473087 21.5528155,25.0271625 C19.6805343,25.1471259 17.8686493,25.3270711 16.0567643,25.7469432 C7.1181317,28.1462124 2.34683454,37.5633439 0.595345716,45.960786 C-1.15614311,54.5381733 1.25970355,63.2355241 3.91713487,71.3930392 C3.97753104,71.5729844 4.09832337,71.6929479 4.21911571,71.7529296 C4.09832337,73.9722536 4.58149271,76.1315959 4.7626812,78.3509199 C4.82307737,78.770792 4.82307737,79.1906641 4.9438697,79.5505544 C5.24585054,80.5102621 6.33298153,80.4502804 6.5745662,79.4905727 C6.69535853,79.9704265 6.9369432,80.3902986 7.4805087,80.3902986 C8.14486653,80.3902986 8.26565886,79.7904814 8.26565886,79.2506458 L8.26565886,79.1906641 C8.44684736,79.5505544 8.62803586,79.9104448 8.93001669,80.1503717 C9.35278986,83.6892938 9.83595919,87.2282158 10.5607132,90.7071561 C10.6211094,91.0070647 10.7419017,91.3669551 10.862694,91.6668638 C11.0438825,92.3266628 11.225071,92.9264801 11.4666557,93.5862791 C12.0706174,95.1458041 12.9765598,96.6453473 13.6409177,98.1448905 C10.500317,105.222735 9.95675152,113.080341 9.17160136,120.698021 L9.11120519,121.177875 C9.77556302,121.237856 10.4399209,121.297838 11.0438825,121.477783 C11.2854672,121.537765 11.5270519,121.657728 11.7686365,121.777692 C11.8290327,121.777692 11.8290327,121.837674 11.8290327,121.837674 C12.0102212,121.897655 12.2518059,122.017619 12.4329943,122.077601 C13.399333,122.197564 14.3052755,122.437491 15.2716142,122.557454 C15.4528027,122.617436 15.3924065,122.917345 15.211218,122.857363 C14.486464,122.7374 13.8221062,122.557454 13.0973522,122.437491 C13.0973522,122.437491 13.036956,122.497473 12.9765598,122.497473 L12.9161637,122.497473 C12.674579,122.497473 12.4329943,122.377509 12.1914097,122.317527 C11.8290327,122.137582 11.4666557,122.137582 11.0438825,122.017619 C11.0438825,122.017619 11.1042787,122.017619 11.1646749,122.017619 L11.225071,122.017619 C10.500317,121.71771 9.65477069,121.657728 8.80922436,121.657728 L8.68843203,121.657728 C8.44684736,121.71771 8.08447036,121.777692 8.14486653,122.077601 C8.20526269,122.857363 8.44684736,123.637125 8.99041286,124.176961 C8.99041286,124.296925 8.99041286,124.356906 8.99041286,124.47687 C8.0240742,127.895828 7.35971636,131.374769 6.9369432,134.913691 C6.45377387,135.453526 6.45377387,136.29327 6.5745662,136.953069 L6.5745662,137.013051 C6.63496237,137.432923 6.87654703,137.67285 7.17852786,137.912777 C9.53397836,139.532284 12.5537867,140.192083 15.3924065,139.952156 C17.3250838,139.712229 20.1033075,139.232375 21.00925,137.31296 C21.3112308,136.533197 21.1300423,135.57349 20.8884577,134.793727 L20.8884577,134.673764 C20.8280615,134.433837 20.646873,134.373855 20.4656845,134.373855 C20.2240998,134.19391 19.9825152,134.013965 19.7409305,133.894001 C19.2577612,132.634385 18.7745918,131.374769 18.4122148,130.115152 C18.1706302,129.155445 17.747857,128.255719 17.747857,127.236029 C17.8082532,126.456267 17.8686493,125.676504 18.110234,124.956724 C18.3518187,124.296925 18.834988,123.877052 19.2577612,123.277235 C19.3181573,123.277235 19.3785535,123.277235 19.4389497,123.277235 C19.8617228,123.157272 20.1033075,123.037308 20.3448922,122.677418 L20.3448922,122.617436 C21.00925,121.777692 21.6132117,120.937948 22.1567772,119.97824 C22.9419273,118.178788 23.908266,116.4993 24.7538123,114.75983 C24.8142085,114.579884 25.1161893,114.699848 25.0557931,114.879793 C24.3914353,116.739227 23.545889,118.478697 22.7003427,120.278149 L22.3983618,120.877966 C22.5795503,121.837674 22.821135,122.7374 23.0627197,123.637125 C23.183512,124.056998 23.3647005,124.536851 23.6666813,124.83676 C23.8478698,125.916431 23.545889,126.636212 23.0023235,127.535938 L22.9419273,127.59592 C22.2775695,128.915518 22.096381,130.535024 22.821135,131.854622 C22.2775695,131.974586 22.2775695,132.574403 22.2775695,133.054257 L22.2775695,133.234202 C22.2775695,133.774038 22.2775695,134.373855 22.3983618,134.913691 C22.5795503,135.93338 23.7874737,135.993362 24.6934161,136.233289 L24.7538123,136.233289 C25.2973778,136.353252 25.8409433,136.473216 26.3845088,136.653161 C27.1092628,136.833106 27.9548091,136.953069 28.3775823,136.233289 C28.6795631,136.353252 29.0419401,136.473216 29.4043171,136.473216 L29.4647133,136.473216 C34.3568028,137.192996 39.3092884,137.073033 44.1409818,136.173307 C44.6845473,136.053343 45.4093013,135.873398 45.9528668,135.513508 C46.3152438,135.333563 46.7380169,135.213599 47.0399978,134.973672 C47.4023748,134.5538 47.1003939,133.894001 46.7984131,133.534111 C46.5568284,132.094549 44.9261319,131.794641 43.6578124,131.614695 L43.5370201,131.614695 L41.5439466,131.314787 C40.3964194,131.134842 39.0677038,131.07486 38.0409689,130.355079 C37.0746303,129.69528 37.3766111,128.795554 36.4706686,128.495646 C36.5310648,128.075773 36.2290839,127.715883 35.866707,127.59592 C35.8063108,127.59592 35.6855185,127.535938 35.6251223,127.475956 C35.5647261,127.415974 35.50433,127.236029 35.4439338,127.176048 C35.2023491,126.816157 34.8399721,126.57623 34.4775951,126.336303 L34.417199,126.276322 C34.5379913,125.976413 34.3568028,125.736486 34.2964066,125.436577 C34.2360105,124.776778 34.417199,124.116979 34.417199,123.45718 C34.4775951,123.337217 34.5379913,123.217253 34.6587836,123.037308 C34.7191798,122.917345 34.8399721,122.857363 34.9003683,122.797381 C34.9607645,122.677418 35.0211606,122.557454 34.9607645,122.437491 C34.8399721,122.197564 34.5379913,122.257546 34.2964066,122.317527 L34.2360105,122.317527 C33.0280871,122.497473 31.88056,122.857363 30.793429,123.217253 L30.4914481,123.337217 C30.3102596,123.397199 30.1894673,123.09729 30.431052,123.037308 L30.7330328,122.917345 C30.7330328,122.857363 30.793429,122.857363 30.8538251,122.857363 C32.1825408,122.497473 33.5112565,122.077601 34.8399721,121.837674 C34.9003683,121.657728 34.779576,121.35782 34.7191798,121.117893 C35.6855185,118.23877 36.4706686,115.299665 36.7726494,112.300579 C37.0142341,109.721364 36.8934418,107.082168 37.0746303,104.442972 C37.2558188,101.983721 37.7389881,99.584452 38.4033459,97.1851829 C40.6380041,88.727759 45.0469243,80.6902073 45.1073204,71.7529296 C45.1073204,71.1531123 45.1073204,70.6132768 45.1677166,70.0134595 C45.2281128,68.9937701 45.4696974,68.5139162 45.2281128,67.4942268 L44.3221703,66.0546653 Z M66.6687519,31.4452075 C66.6687519,31.4452075 66.6687519,31.3852258 66.6687519,31.3852258 C68.178656,32.0450248 68.8430139,34.2643488 67.6954867,35.5239651 C67.3331097,35.9438372 66.729148,36.1837641 66.2459787,35.9438372 C65.5816209,35.8238738 65.2192439,35.1640747 65.1588477,34.6242392 C65.1588477,34.6242392 65.1588477,34.5642575 65.2192439,34.6242392 L65.2192439,34.6242392 C65.4608285,34.9241478 65.8232055,35.104093 66.1855825,35.2840382 C66.3063749,35.2240565 66.366771,35.1640747 66.4875634,35.1640747 C66.6687519,35.104093 66.7895442,35.2240565 66.7895442,35.4040017 C67.5142982,35.2840382 67.816279,34.444294 67.816279,33.784495 L67.816279,33.784495 C67.816279,32.8247873 67.3935059,31.9850431 66.6687519,31.4452075 Z" id="Ink_00000067232031752838051640000012522967741779001784_" fill="#242424"></path>
                <path d="M4.7626812,70.793222 C1.01811888,59.8765472 -1.21653928,48.5999821 4.21911571,37.8032708 C6.7557547,32.5848604 11.0438825,27.8463038 16.9023107,26.3467605 C16.0567643,27.2464865 16.7211222,28.6260662 17.3250838,29.4658105 L17.38548,29.5257922 C20.2240998,33.7245132 26.5053011,34.7442026 31.2162021,33.8444767 C33.5112565,33.4845863 35.6251223,31.9850431 35.8063108,29.5257922 C35.9271031,27.9062855 35.0211606,26.2867788 33.5716526,25.4470346 L33.7528411,25.4470346 C35.141953,25.6269798 36.4706686,25.806925 37.5577996,26.8266144 C41.4835504,30.4255181 43.2954354,35.5839468 45.5904898,40.20254 L45.7112821,40.3824852 C46.6776208,42.1819371 47.6439594,44.1613341 49.3350521,45.5409139 L49.0330712,45.7808408 C48.9726751,45.8408226 49.0330712,45.9008043 49.0934674,45.8408226 C49.2746559,45.7808408 49.3954482,45.7208591 49.5766367,45.6608774 C49.8182214,45.8408226 50.0598061,45.6608774 50.0598061,45.4209505 C53.8043684,43.6214986 56.9449691,40.862339 59.843985,37.983216 C60.568739,39.6627044 61.8370585,41.5221381 63.830132,41.8220467 C61.9578509,43.3815717 60.2667582,45.1210418 58.5152694,46.8005302 L58.3944771,46.9204937 C55.9786304,49.0798359 53.3815952,51.2391782 50.3013907,52.4388128 C49.8786176,52.5587762 49.4558444,52.618758 49.0330712,52.7387214 C45.4696974,52.7987032 43.0538508,50.0395436 40.8191926,47.7002562 C41.0003811,43.6814803 40.8795888,39.4827593 39.2488923,35.763892 L39.1884961,35.6439286 C38.8261191,34.6842209 38.3429498,33.6645315 37.5577996,32.9447508 C37.5577996,32.9447508 37.4974034,32.9447508 37.5577996,32.9447508 C38.2221574,33.7245132 38.5845344,34.6842209 38.8865153,35.7039103 L38.8865153,35.763892 C39.7924578,39.0628871 39.9736463,42.5418274 39.8528539,46.0207677 L39.8528539,46.1407312 C39.7924578,48.4800187 39.5508731,50.7593244 39.8528539,53.0986118 C40.0340424,55.497881 41.1211734,57.6572232 42.2687006,59.696602 C43.2954354,61.6160174 44.1409818,64.0752683 44.5637549,66.1746288 L44.9865281,67.0743547 C45.1677166,67.2542999 45.4696974,67.3142817 45.5904898,67.0743547 C45.6508859,66.9543913 45.7112821,66.8344278 45.7716783,66.7144644 C45.8320744,66.2346105 45.6508859,65.8147384 45.5904898,65.3348846 C45.7716783,65.0949577 45.6508859,64.795049 45.4093013,64.6750856 C43.3558316,57.1773694 40.2152309,57.2973329 40.8191926,48.3000735 C42.3290968,51.059233 44.9865281,53.3985205 48.1875249,53.8183926 C48.6102981,53.8783743 49.0934674,53.938356 49.5162406,53.7584108 C53.6231799,54.1183012 62.018247,45.3609687 64.1321129,42.0019919 C64.3736975,42.0019919 64.4944899,41.8220467 64.554886,41.5821198 C66.004394,41.6421015 67.453902,40.6224121 67.6350905,39.1228689 C68.6618254,39.6027227 69.8697487,38.9429237 69.990541,37.8632526 C70.0509372,37.323417 69.8093525,36.8435632 69.628164,36.3637093 C69.628164,36.3037276 69.5677679,36.3037276 69.5677679,36.3037276 C69.8697487,35.5839468 69.3865794,34.9841296 68.9638062,34.444294 L68.8430139,34.2643488 C68.7222215,34.0844036 68.6618254,33.8444767 68.541033,33.7245132 C68.541033,33.7245132 68.541033,33.7245132 68.4806369,33.7245132 C68.2994484,33.9644402 68.4806369,34.3243305 68.541033,34.5642575 L68.541033,34.5642575 C69.0242024,35.6439286 69.0242024,36.0638007 67.7558829,36.3637093 C66.6083557,36.003819 66.6083557,38.2831247 68.6618254,37.1434718 C68.9638062,36.9635266 69.265787,36.7835814 69.4469755,36.4236911 C69.3261832,37.0235084 69.5677679,37.6833074 69.0242024,38.1631612 C68.8430139,38.3431064 68.541033,38.4030881 68.2994484,38.4030881 C67.9974675,38.3431064 67.816279,38.1631612 67.5746944,38.0431978 C67.2123174,37.8632526 66.8499404,38.2231429 66.9707327,38.5830333 C66.6083557,38.882942 66.4271672,39.3028141 66.1251864,39.6627044 C65.7628094,40.0225948 65.2192439,40.3225035 64.7360745,40.3225035 C64.3133014,40.3225035 63.7697359,40.3225035 63.7093397,40.862339 C61.9578509,40.3824852 61.1727007,38.643015 60.5083429,37.0834901 L60.4479467,36.9035449 C61.1123045,35.763892 61.4142854,34.5042757 61.8370585,33.3046411 C62.1994355,31.6851344 62.6826049,31.6851344 64.0717167,32.1050065 L64.192509,32.1649883 C64.6756784,32.2849517 65.5212247,32.5248787 65.27964,33.2446594 C65.2192439,33.4845863 64.9776592,33.6645315 64.7360745,33.6645315 L64.7360745,33.6645315 C64.4944899,33.6645315 64.3133014,33.5445681 64.192509,33.4246046 C64.1321129,33.3646229 64.0113205,33.3646229 63.8905282,33.3046411 C63.6489435,33.1246959 63.3469627,33.4246046 63.4073589,33.6645315 C63.4073589,34.0244219 63.5885474,34.2043671 63.830132,34.3243305 L63.8905282,34.3243305 C64.0113205,35.0441113 63.8905282,35.8238738 63.7697359,36.5436545 C63.7093397,36.9035449 63.5885474,37.2034535 63.6489435,37.5633439 C63.7093397,37.9232343 64.192509,37.983216 64.4340937,37.7432891 C65.2192439,36.9035449 64.8568669,35.4040017 64.3736975,34.5042757 C65.9439979,34.8641661 66.8499404,32.884769 65.7024132,31.8650796 C65.1588477,31.3852258 64.3736975,31.3252441 63.7093397,31.1452989 C64.7964707,29.6457556 65.7628094,27.9662672 67.2123174,26.7666326 C67.3331097,26.7066509 67.5746944,26.4067423 67.6954867,26.4067423 C67.816279,26.6466692 67.453902,27.4264317 67.3935059,27.7263403 C67.091525,28.6260662 66.729148,29.4658105 66.366771,30.3055547 C66.2459787,30.5454816 66.1855825,30.7254268 66.0647902,30.9653537 C65.9439979,31.2052806 65.8232055,31.4452075 65.8232055,31.6851344 C65.8232055,31.8650796 66.0647902,32.0450248 66.2459787,31.9250614 C66.6083557,31.6851344 66.7895442,31.0253354 66.9707327,30.665445 C67.1519212,30.1855912 67.3935059,29.7057374 67.5746944,29.2258835 C67.7558829,28.7460297 67.9370714,28.2061941 68.1182599,27.7263403 L68.1182599,27.6663586 C68.2390522,27.3064682 68.4202407,26.8865961 68.4202407,26.466724 C68.4202407,26.1068336 68.2390522,25.806925 67.816279,25.7469432 C67.3935059,25.6869615 67.0311289,26.1068336 66.729148,26.3467605 L66.6687519,26.4067423 C65.27964,27.6663586 64.3736975,29.345847 63.6489435,31.0853172 C61.9578509,30.7254268 61.3538892,31.7451162 61.0519084,33.1846777 C60.7499275,34.3243305 60.3875505,35.4639834 60.3271544,36.663618 C60.1459659,36.5436545 59.843985,36.6036362 59.7231927,36.7835814 C58.4548732,38.1031795 57.1261576,39.3627958 55.7974419,40.5624304 L55.6162534,40.6823938 C53.8043684,42.2419188 51.8112949,43.6214986 49.9390137,45.1810235 C49.1538636,44.641188 48.6102981,43.9214072 48.1271287,43.1416447 L48.0667326,43.081663 C47.5231671,42.2419188 46.9796016,41.3421929 46.4964323,40.4424669 C44.5637549,36.7235997 43.1142469,32.7048238 40.5776079,29.2858653 C38.4033459,26.2867788 37.0142341,25.0871442 33.2092756,24.907199 C32.4241255,24.8472173 31.5785791,24.7272538 30.793429,24.4873269 L30.793429,24.4873269 C30.6122405,24.4273452 30.2498635,24.3673635 30.1894673,24.2474 C30.1290711,24.1874183 30.068675,24.1274365 29.9478826,24.1274365 C29.706298,23.5276193 29.5855056,22.8678202 29.5251095,22.2680029 C29.5251095,22.2080212 29.4647133,22.2080212 29.4647133,22.2680029 C29.343921,22.7478568 29.2231286,23.2277106 29.2835248,23.7075644 C29.343921,24.7272538 29.706298,25.7469432 30.3102596,26.5866875 C30.6122405,27.0065596 31.0350136,27.6063769 31.5785791,27.5463951 C31.8201638,27.5463951 31.9409561,27.3664499 31.88056,27.126523 C31.7597676,26.5267057 31.0954098,26.1668153 30.793429,25.6869615 C31.8201638,25.9268884 32.967691,26.2867788 33.7528411,26.9465778 C35.141953,28.026249 35.2023491,30.1855912 34.1152181,31.4452075 L34.1152181,31.5051893 C33.5112565,32.22497 32.605314,32.6448421 31.6389753,32.884769 L31.5785791,32.884769 C26.807282,34.1443853 19.0765727,32.7648056 17.3250838,27.5463951 C17.2646877,26.6466692 18.2310263,26.2867788 18.8953842,25.9268884 L18.9557803,25.9268884 C19.8013267,25.6869615 20.646873,25.4470346 21.4924193,25.2071077 C21.3112308,25.5669981 21.0696462,25.8669067 20.7676653,26.1068336 L20.7676653,26.1068336 C20.5864768,26.3467605 20.3448922,26.7666326 20.7072692,26.9465778 C21.1300423,27.1865047 21.4924193,26.7066509 21.6736078,26.4067423 L21.6736078,26.4067423 C22.3379657,25.5669981 22.6399465,24.4273452 22.5191542,23.4076558 C22.458758,23.1077472 22.458758,22.8678202 22.3379657,22.6278933 C22.2775695,22.5679116 22.2171733,22.5079299 22.1567772,22.3879664 C22.1567772,22.3279847 22.096381,22.3879664 22.096381,22.3879664 C22.1567772,22.5079299 22.0359848,22.7478568 22.0359848,22.8678202 C22.0359848,23.0477654 22.0359848,23.2277106 22.0359848,23.3476741 C21.9755887,23.9474914 21.8547963,24.5473087 21.5528155,25.0271625 C19.6805343,25.1471259 17.8686493,25.3270711 16.0567643,25.7469432 C7.1181317,28.1462124 2.34683454,37.5633439 0.595345716,45.960786 C-1.15614311,54.5381733 1.25970355,63.2355241 3.91713487,71.3930392 C3.97753104,71.5729844 4.09832337,71.6929479 4.21911571,71.7529296 L4.7626812,70.793222 Z M8.20526269,65.3348846 C8.26565886,65.8747202 8.26565886,66.354574 8.26565886,66.8944096 C8.14486653,67.7941355 7.8428857,68.4539345 7.17852786,69.1137335 C6.51417003,69.8335143 7.2993202,70.1934047 6.3933777,70.6132768 M9.05080903,65.454848 C8.99041286,64.2552135 8.86962053,63.1155606 8.74882819,61.915926 C8.86962053,59.6366203 9.47358219,57.4172963 10.4399209,55.3779175 C12.1914097,52.0189407 11.6478442,49.9795619 10.5607132,46.5606033 C10.3191285,45.6608774 10.13794,44.7611514 10.13794,43.8614255 C10.2587324,43.3215899 10.3795247,42.7217726 10.4399209,42.1819371 C10.500317,42.0619736 10.500317,41.9420102 10.5607132,41.8820284 C10.5607132,41.8820284 10.5607132,41.8220467 10.500317,41.8820284 C10.500317,41.9420102 10.4399209,41.9420102 10.4399209,42.0019919 C10.500317,41.5821198 10.5607132,41.1622477 10.6211094,40.6823938 C10.6211094,40.6224121 10.5607132,40.6224121 10.5607132,40.6823938 C8.62803586,45.9008043 7.4805087,51.4791051 7.54090486,56.9974242 C7.54090486,58.6169309 7.6616972,60.2964193 7.78248953,61.915926 L7.78248953,62.0958712 C7.72209336,62.6956885 7.72209336,63.3554875 7.96367803,63.9553048 C7.96367803,64.4351586 8.0240742,64.6151038 8.08447036,65.0949577 L9.05080903,65.454848 Z" id="Ink_00000179634764278042533410000016683751350038610306_" fill="#231F20"></path>
                <g id="Head_x2F_Long_00000171692049890379427150000009126999675222580664_" transform="translate(9.517175, 0.000000)">
                    <path d="M27.9592047,12.730908 C27.7783984,9.37193114 26.6935609,5.59308219 23.4390485,3.9735755 C16.387605,1.15443422 7.1062177,8.23227828 6.62406771,15.4900675 C6.44326147,17.9493184 7.82944268,20.708478 10.3607301,21.368277 C10.9031488,22.0880578 11.7469113,22.5679116 12.5906738,22.927802 C22.595286,28.0862307 29.1043109,23.9474914 27.9592047,12.730908 L27.9592047,12.730908 Z" id="Skin_00000033339679071747823820000006383833998734480313_" fill="#D08B5B"></path>
                    <path d="M30.1891483,10.6315475 C29.8275359,9.67183979 29.4659234,8.71213212 29.0440421,7.75242445 C28.6824296,6.79271678 28.3208171,5.83300911 27.8386672,4.9932649 C25.006036,-0.34510901 19.8229236,-0.34510901 17.1710987,0.374671741 C15.7849175,-0.225145552 13.1933613,-0.0452003639 11.7469113,0.4946352 C9.39643014,1.33437941 6.56379896,4.75333798 5.59949899,6.31286294 C3.42982405,9.67183979 2.10391158,14.1704695 3.55036154,18.0692819 C3.73116779,18.6091175 3.97224278,19.0289896 4.21331777,19.5088434 C4.03251153,19.7487703 3.85170528,19.9287155 3.61063029,20.1686424 C2.94767406,20.7684597 2.34498657,21.4282587 1.80256784,22.0880578 C1.2601491,22.8078385 0.777999115,23.5276193 0.476655372,24.3673635 C-0.18630086,25.9268884 -0.18630086,27.6663586 0.657461618,29.1659018 C1.3806866,30.4854999 2.70659906,31.4452075 4.15304903,31.5051893 C4.21331777,31.5051893 4.27358652,31.5051893 4.39412402,31.5051893 C4.57493027,31.8050979 4.81600526,32.1050065 5.117349,32.3449335 C5.96111148,33.1246959 7.88971143,33.5445681 9.03481765,33.5445681 C9.0950864,33.6045498 9.15535515,33.6645315 9.21562389,33.6645315 C9.87858013,34.2043671 10.6018051,34.7442026 11.3852988,35.104093 C11.9277176,35.3440199 12.6509426,35.5839468 13.1933613,35.4040017 C13.4344363,35.5839468 13.8563175,35.5239651 14.0973925,35.4040017 C14.5192738,35.1640747 14.8206175,34.7442026 15.0616925,34.3243305 C15.5438425,33.3046411 15.423305,32.22497 15.3027675,31.1452989 C15.18223,29.9456643 15.0014237,28.7460297 14.8808862,27.5463951 C14.7603487,26.5866875 14.6398113,25.6869615 14.3987363,24.7872356 C14.2781988,24.3073817 14.0371238,23.8875096 13.7960488,23.4676375 C13.7960488,23.4076558 13.7960488,23.4076558 13.7960488,23.3476741 C13.73578,23.1077472 13.5549738,22.927802 13.3741675,22.7478568 C13.3741675,22.7478568 13.3138988,22.687875 13.3138988,22.687875 C13.1933613,22.5679116 13.1330925,22.4479481 13.012555,22.3879664 C12.9522863,22.3279847 12.9522863,22.3279847 12.8920175,22.2680029 C12.5304051,21.9081126 12.1687926,21.4882405 11.8674488,21.0683684 C11.5661051,20.6484962 11.3250301,20.2286241 11.0236863,19.808752 C10.7826114,19.3888799 10.6018051,18.8490444 10.3607301,18.4291723 C10.3607301,18.3691905 10.3004614,18.3691905 10.2401926,18.4291723 C10.1799239,18.489154 10.1196551,18.6091175 10.1196551,18.6690992 L10.0593864,18.6690992 C10.0593864,18.5491357 9.93884887,18.4291723 9.75804263,18.4291723 C9.45669889,18.489154 9.27589264,18.489154 9.03481765,18.4291723 C9.0950864,18.1292636 9.0950864,17.8893367 9.15535515,17.5894281 C9.21562389,17.1095742 9.27589264,16.5697387 9.33616139,16.0898848 C9.45669889,16.1498666 9.57723638,16.1498666 9.75804263,16.2098483 C9.93884887,16.26983 10.1196551,16.3897935 10.2401926,16.5097569 C10.3607301,16.6297204 10.4812676,16.8096656 10.6620739,16.929629 C10.8428801,17.0495925 11.1442238,16.8696473 11.0839551,16.6297204 C10.9634176,16.1498666 10.2401926,15.9099396 9.81831138,15.7899762 C9.69777388,15.7299944 9.51696764,15.7299944 9.39643014,15.7299944 C9.45669889,15.4300858 9.45669889,15.0701954 9.45669889,14.7702868 C9.45669889,14.5903416 9.45669889,14.4703781 9.51696764,14.2904329 C9.87858013,14.1704695 10.1799239,14.1704695 10.5415364,14.2304512 C10.6620739,14.3504147 10.7826114,14.4103964 10.9031488,14.5303599 C11.2647613,14.8302685 11.6263738,15.1301772 11.9277176,15.4300858 C11.9879863,15.4300858 11.9879863,15.4900675 12.0482551,15.4900675 C12.2290613,15.6700127 12.5304051,15.4900675 12.4701363,15.2501406 C12.1687926,13.2107618 13.4344363,11.5912551 14.8808862,10.3316388 C16.5081425,8.95205903 19.4613111,8.77211385 21.3899111,6.37284467 C22.2939423,6.55278986 24.282811,7.09262542 25.0663047,8.41222347 C26.2114109,10.2116753 26.0908735,11.8911638 26.1511422,13.9305426 C26.2114109,15.9699214 26.4524859,18.1292636 25.970336,20.1686424 C25.5484547,22.028076 24.3430797,23.6475827 22.5350173,24.3673635 C22.4747485,24.3673635 22.4144798,24.4273452 22.4144798,24.4273452 C21.4501798,24.7872356 20.4256111,24.907199 19.4613111,24.6672721 C18.3764737,24.4873269 17.4724424,23.9474914 16.5081425,23.3476741 C16.4478737,23.2876923 16.387605,23.4076558 16.4478737,23.4076558 C17.6532487,25.0271625 20.0037299,25.5070163 21.8720611,25.0871442 C21.9323298,25.0871442 22.0528673,25.0271625 22.1131361,25.0271625 C21.6912548,26.2267971 21.7515236,27.5463951 22.3542111,28.7460297 C22.6555548,29.4658105 23.1979735,30.0656278 23.800661,30.5454816 C24.4636172,31.0853172 25.3073797,31.5051893 25.7895297,32.22497 C26.2114109,32.884769 26.0908735,33.6645315 25.3676485,34.0844036 C25.1868422,34.2043671 25.1265735,34.5042757 25.3073797,34.6242392 C25.3676485,34.6842209 25.4279172,34.7442026 25.5484547,34.8041844 C25.970336,35.104093 27.1154422,35.7039103 27.2962484,35.7039103 C28.9235046,35.8838555 30.0083421,34.6842209 30.7315671,33.3046411 C31.5753296,31.6851344 31.3342546,29.6457556 30.4302233,28.0862307 C29.7069984,26.8266144 28.2605484,25.6269798 28.8632359,24.0074731 C29.0440421,23.4676375 29.4659234,22.927802 29.8878046,22.5079299 C30.3699546,22.028076 30.8521046,21.5482222 31.2739858,21.0083866 C31.6958671,20.4685511 32.1177483,19.9287155 32.2985545,19.3288982 C32.5998983,18.3691905 32.4793608,17.3495011 32.2382858,16.4497752 C31.5753296,14.5903416 30.9123733,12.6109445 30.1891483,10.6315475 Z" id="Ink_00000117639762176363743240000013539085894086665137_" fill="#000000" fill-rule="nonzero"></path>
                </g>
                <g id="Face_00000036239016231394901060000014525463606705138333_" transform="translate(25.599359, 10.451602)" fill="#000000" fill-rule="nonzero">
                    <g id="Face_x2F_Smile_00000069383397974317417740000004160055210690017178_">
                        <path d="M5.01288182,10.196894 C4.65050482,10.0769305 4.34852399,9.77702188 4.10693932,9.47711323 C4.04654316,9.35714977 3.98614699,9.23718631 4.04654316,9.17720459 C4.04654316,9.05724113 4.10693932,8.93727767 4.22773165,8.87729594 C4.34852399,8.81731421 4.46931632,8.75733248 4.59010865,8.81731421 C4.71090099,8.81731421 4.77129715,8.87729594 4.89208949,8.9972594 L4.89208949,8.9972594 C5.01288182,9.17720459 5.19407032,9.35714977 5.43565498,9.4171315 C5.61684348,9.53709496 5.85842815,9.53709496 6.10001282,9.53709496 C6.52278598,9.47711323 6.82476681,9.23718631 7.18714381,8.93727767 C7.24753998,8.87729594 7.24753998,8.87729594 7.30793615,8.81731421 C7.30793615,8.75733248 7.36833231,8.75733248 7.42872848,8.75733248 C7.48912465,8.75733248 7.54952081,8.75733248 7.54952081,8.75733248 C7.60991698,8.75733248 7.60991698,8.81731421 7.67031315,8.81731421 C7.67031315,8.87729594 7.73070931,8.87729594 7.73070931,8.93727767 C7.73070931,9.29716804 7.54952081,9.59707669 7.24753998,9.83700361 C6.94555915,10.0769305 6.58318215,10.2568757 6.28120132,10.3168574 C5.79803198,10.3768392 5.37525882,10.3168574 5.01288182,10.196894 L5.01288182,10.196894 Z M6.34159748,4.97848353 C6.76437065,5.21841045 7.36833231,5.81822774 6.94555915,6.41804504 C6.40199365,6.9578806 5.67723965,6.35806331 5.31486265,6.05815466 C4.95248565,5.81822774 4.59010865,6.41804504 4.89208949,6.65797195 C7.54952081,8.57738729 8.63665181,5.03846526 6.52278598,4.67857489 C6.34159748,4.67857489 6.22080515,4.9185018 6.34159748,4.97848353 Z M1.57030033,2.75915955 C1.6306965,2.21932398 2.47624283,2.09936053 2.53663899,2.63919609 C2.59703516,3.11904992 2.53663899,3.59890376 2.29505433,4.01877586 C2.05346966,4.43864797 1.57030033,4.25870278 1.50990416,3.83883068 C1.50990416,3.29899511 1.57030033,3.11904992 1.57030033,2.75915955 Z M8.09308631,2.51923263 C8.21387864,2.33928744 8.39506714,2.27930571 8.57625564,2.33928744 C9.24061347,2.51923263 8.99902881,3.41895857 8.81784031,3.89881241 C8.69704798,4.13873932 8.27427481,4.19872105 8.09308631,3.95879413 C7.79110548,3.59890376 7.67031315,2.87912301 8.09308631,2.51923263 C8.03269014,2.51923263 8.03269014,2.51923263 8.09308631,2.51923263 Z M2.35545049,0.299908647 L2.47624283,0.299908647 C2.77822366,0.239926917 3.20099682,0.179945188 3.38218532,0.419872105 C3.50297766,0.539835564 3.56337382,0.779762481 3.38218532,0.89972594 C3.08020449,1.13965286 2.77822366,1.0196894 2.47624283,1.07967113 C2.17426199,1.07967113 1.93267733,1.13965286 1.69109266,1.19963459 C1.087131,1.37957977 0.664357831,1.67948842 0.120792333,1.97939707 C0.0603961665,2.0393788 0,1.91941534 0,1.85943361 C0.301980832,1.31959804 0.845546331,0.83974421 1.38911183,0.539835564 C1.69109266,0.479853835 1.99307349,0.359890376 2.35545049,0.299908647 Z M7.48912465,0.0599817293 L7.54952081,0.0599817293 C8.39506714,0.239926917 9.48219814,0.599817293 9.90497131,1.37957977 C9.90497131,1.49954323 9.90497131,1.49954323 9.90497131,1.55952496 L9.90497131,1.55952496 C9.90497131,1.55952496 9.90497131,1.61950669 9.84457514,1.61950669 C9.84457514,1.61950669 9.84457514,1.61950669 9.78417897,1.61950669 C9.60299047,1.55952496 9.48219814,1.49954323 9.30100964,1.4395615 L9.11982114,1.37957977 C8.93863264,1.31959804 8.75744414,1.19963459 8.57625564,1.13965286 C8.15348248,1.0196894 7.73070931,0.89972594 7.36833231,0.83974421 C7.24753998,0.83974421 7.18714381,0.779762481 7.12674765,0.719780752 C7.06635148,0.659799022 7.00595531,0.599817293 7.00595531,0.479853835 C7.00595531,0.359890376 7.00595531,0.299908647 7.06635148,0.179945188 C7.12674765,0.119963459 7.18714381,0.0599817293 7.24753998,0 C7.30793615,0.0599817293 7.36833231,0.0599817293 7.48912465,0.0599817293 Z" id="Ink_00000156549952861567533020000006524515661265646985_"></path>
                    </g>
                </g>
                <g id="Accessories_00000055702396253762894710000007273684068373878923_" transform="translate(17.438585, 11.123024)" fill="#000000" fill-rule="nonzero">
                    <g id="Accessories_x2F_Glasses_2_00000002385002218076308860000010677383196616860301_">
                        <path d="M19.3340642,4.66695227 C18.6697064,5.3267513 17.5825754,5.50669649 16.737029,5.14680611 C14.5023709,4.24708017 15.5895019,1.30797543 17.3409907,0.528212952 C17.5825754,0.468231223 17.82416,0.348267764 18.1261409,0.348267764 C18.1261409,0.348267764 18.186537,0.348267764 18.2469332,0.348267764 C20.1192144,0.528212952 20.5419875,3.46731769 19.3340642,4.66695227 M12.0865242,4.84689746 C11.3617702,5.80660513 9.97265839,6.10651378 8.88552739,5.68664167 C6.65086923,4.84689746 7.43601939,2.2676831 8.94592356,1.2479937 C12.1469204,0.0483591175 13.475636,3.04744558 12.0865242,4.84689746 M20.8439684,1.66786581 C20.6627799,1.66786581 20.4211952,1.66786581 20.2400067,1.847811 C19.8776297,0.588194681 18.4885179,-0.551458176 17.3409907,0.288286035 C16.4350482,0.588194681 15.7102942,1.2479937 15.3479172,2.08773791 C14.6231632,1.66786581 13.5360322,1.847811 12.9320705,2.38764656 C12.5092974,1.06804852 11.5429587,0.588194681 10.3954316,0.528212952 C9.12711206,0.348267764 7.85879256,1.54790235 7.43601939,2.56759175 C7.13403856,2.50761002 6.59047306,2.44762829 6.28849223,2.62757348 C4.23502257,2.08773791 0.732044913,1.78782927 0.309271747,2.08773791 C0.0072909149,2.20770137 -0.173897585,2.8675004 0.248875581,2.92748212 C0.61125258,2.8675004 0.188479414,2.44762829 0.550856413,2.38764656 C2.48353374,2.2676831 4.3558149,2.62757348 6.22809606,2.80751867 C6.40928456,3.04744558 6.95285006,3.10742731 7.25483089,3.04744558 C6.77166156,4.726934 7.79839639,5.86658686 9.24790439,6.22647724 C11.5429587,6.7663128 13.5360322,4.726934 12.9320705,2.56759175 C13.6568245,2.20770137 14.4419747,2.20770137 15.1667287,2.44762829 C13.8984092,7.06622145 21.44793,6.88627626 20.2400067,2.02775618 C21.085553,2.32766483 21.2667415,1.72784754 20.8439684,1.66786581" id="Ink_00000130622015643706416830000010985805327413141674_"></path>
                    </g>
                </g>
            </g>
        </g>
    </g>
</svg>