<?xml version="1.0" encoding="UTF-8"?>
<svg width="47px" height="48px" viewBox="0 0 47 48" version="1.1" xmlns="http://www.w3.org/2000/svg" xmlns:xlink="http://www.w3.org/1999/xlink">
    <title>Group 48</title>
    <g id="bank-switching-journey---desktop" stroke="none" stroke-width="1" fill="none" fill-rule="evenodd" stroke-linecap="round" stroke-linejoin="round">
        <g id="Group-55" transform="translate(-43.000000, -21.000000)" stroke="#153F45" stroke-width="2">
            <g id="Group-48" transform="translate(44.000000, 22.000000)">
                <path d="M24.3966942,26.1230595 C24.3966942,26.1230595 24.0991736,21.0593523 26.553719,18.2629766 C29.0082645,15.466601 30.3471074,14.635246 30.3471074,14.635246 C30.3471074,14.635246 31.1652893,9.49596104 31.5371901,8.28671752 C31.9090909,7.15305171 32.5785124,6.24611907 34.3636364,6.24611907 C36.2231405,6.32169679 36.8181818,7.83325119 36.8181818,8.51345068 C36.8181818,9.26922788 37.7107438,19.1699093 37.6363636,23.7045725 C37.5619835,28.2392357 36.2231405,31.1111891 36.2231405,31.1111891 L45,43.6570907" id="Path"></path>
                <path d="M9.29752066,40.4828264 C4.16528926,40.331671 0,36.0237409 0,30.8088782 C0,30.2798342 0.0743801653,29.8263678 0.148760331,29.2973238" id="Path"></path>
                <path d="M9.66942149,36.4016295 C6.61983471,36.4016295 4.09090909,33.831987 4.09090909,30.7333005 C4.09090909,30.3554119 4.16528926,29.9775233 4.23966942,29.5996347" id="Path"></path>
                <path d="M23.0578512,0.124323713 C23.2809917,0.124323713 23.5041322,0.124323713 23.7272727,0.124323713 C26.8512397,0.124323713 29.4545455,2.46723305 29.7520661,5.56591958" id="Path"></path>
                <path d="M23.8760331,3.82763201 C25.1404959,3.82763201 26.1818182,4.8857201 26.1818182,6.17054135 C26.1818182,6.32169679 26.1818182,6.47285223 26.107438,6.62400767" id="Path"></path>
                <path d="M13.4628099,23.7045725 L5.20661157,11.6121372 C4.31404959,10.327316 4.61157025,8.5890284 5.87603306,7.68209575 L5.87603306,7.68209575 C7.14049587,6.77516311 8.85123967,7.15305171 9.66942149,8.36229524" id="Path"></path>
                <path d="M24.5454545,46 C24.5454545,46 22.4628099,42.9013135 21.5702479,41.9943808 C20.6033058,41.0874482 18.0743802,40.6339819 15.768595,37.2329844 C13.4628099,33.831987 3.27272727,18.9431761 3.27272727,18.9431761 C2.38016529,17.6583548 2.75206612,15.9200673 4.01652893,15.0131346 L4.01652893,15.0131346 C5.28099174,14.106202 7.0661157,14.4085129 7.88429752,15.6933341" id="Path"></path>
                <path d="M17.6280992,20.0012642 L7.95867769,5.86823046 C7.0661157,4.58340922 7.43801653,2.84512165 8.70247934,1.938189 L8.7768595,1.86261128 C10.0413223,0.955678638 11.7520661,1.25798952 12.6446281,2.54281077 L14.1322314,4.65898694" id="Path"></path>
                <path d="M22.5371901,17.0537331 L13.9090909,4.43225378 C13.0165289,3.14743253 13.3884298,1.40914496 14.5785124,0.502212315 L14.5785124,0.502212315 C15.8429752,-0.404720329 17.553719,-0.0268317274 18.446281,1.1824118 L28.4876033,15.9200673" id="Path"></path>
            </g>
        </g>
    </g>
</svg>