<?xml version="1.0" encoding="UTF-8"?>
<svg width="29px" height="23px" viewBox="0 0 29 23" version="1.1" xmlns="http://www.w3.org/2000/svg" xmlns:xlink="http://www.w3.org/1999/xlink">
    <title>twitter-5</title>
    <g id="Symbols" stroke="none" stroke-width="1" fill="none" fill-rule="evenodd">
        <g id="Footer/4" transform="translate(-1038.000000, -282.000000)" fill="#153F45" fill-rule="nonzero">
            <g id="twitter-5" transform="translate(1038.000000, 282.000000)">
                <path d="M29,2.72284615 C27.9215625,3.18461538 26.7724375,3.49069231 25.574375,3.63930769 C26.806875,2.921 27.7475625,1.79223077 28.1898125,0.431692308 C27.0406875,1.10046154 25.7719375,1.57284615 24.4198125,1.83646154 C23.3286875,0.702384615 21.7735625,0 20.0770625,0 C16.7855625,0 14.1356875,2.60784615 14.1356875,5.80484615 C14.1356875,6.26484615 14.1755625,6.70715385 14.2734375,7.12823077 C9.33075,6.89292308 4.9571875,4.58053846 2.019125,1.058 C1.5061875,1.92669231 1.2053125,2.921 1.2053125,3.99138462 C1.2053125,6.00123077 2.265625,7.78284615 3.846125,8.81430769 C2.8909375,8.79661538 1.953875,8.52592308 1.16,8.09953846 C1.16,8.11723077 1.16,8.14023077 1.16,8.16323077 C1.16,10.9833846 3.2208125,13.3258462 5.92325,13.8654615 C5.4393125,13.9946154 4.911875,14.0565385 4.3645,14.0565385 C3.983875,14.0565385 3.599625,14.0353077 3.2389375,13.9574615 C4.00925,16.2556923 6.195125,17.9453077 8.79425,18.0001538 C6.7715,19.5446923 4.2031875,20.4753077 1.4228125,20.4753077 C0.93525,20.4753077 0.467625,20.4540769 0,20.3956923 C2.6335625,22.0534615 5.7546875,23 9.1205,23 C20.06075,23 26.042,14.1538462 26.042,6.486 C26.042,6.22946154 26.0329375,5.98176923 26.02025,5.73584615 C27.2001875,4.91846154 28.191625,3.89761538 29,2.72284615 Z" id="Path"></path>
            </g>
        </g>
    </g>
</svg>