<?xml version="1.0" encoding="UTF-8"?>
<svg width="47px" height="37px" viewBox="0 0 47 37" version="1.1" xmlns="http://www.w3.org/2000/svg" xmlns:xlink="http://www.w3.org/1999/xlink">
    <title>Group 43</title>
    <g id="bank-switching-journey---desktop" stroke="none" stroke-width="1" fill="none" fill-rule="evenodd" stroke-linecap="round">
        <g id="Group-79" transform="translate(-43.000000, -23.000000)" stroke="#FFFFFF" stroke-width="2">
            <g id="Group-43" transform="translate(44.000000, 24.000000)">
                <path d="M25.0562155,17.4651377 C22.1839869,20.4823045 19.0285808,20.683449 19.0285808,20.683449 L9.36009301,20.683449 C8.34874492,20.683449 7.37785074,21.0857379 6.64968011,21.809858 C6.00241733,22.4535202 5.39560847,23.3787848 5.39560847,24.5856515 C5.39560847,25.510916 5.75969378,26.3154939 6.24514087,26.9591561 C7.05421935,28.0453362 8.34874492,28.6487696 9.6837244,28.6487696 L18.6240416,28.6487696 C18.8667651,28.6487696 19.1094887,28.7292274 19.2713044,28.890143 C20.2017446,29.614263 23.3976046,31.5452498 28.6970687,31.5452498 C35.0483347,31.5452498 38.2846486,28.6889985 38.2846486,28.6889985" id="Path"></path>
                <path d="M39.0128193,30.9820453 L44.2313754,30.9820453 C44.6359147,30.9820453 45,30.6602142 45,30.2176964 L45,14.5686574 C45,14.1663685 44.6763686,13.8043085 44.2313754,13.8043085 L39.0128193,13.8043085 C38.60828,13.8043085 38.2441947,14.1261396 38.2441947,14.5686574 L38.2441947,30.2176964 C38.2441947,30.6199853 38.5678261,30.9820453 39.0128193,30.9820453 Z" id="Path"></path>
                <path d="M18.9881269,28.7694563 L18.9881269,31.867081 C18.9881269,33.2750922 17.855417,34.4015011 16.4395297,34.4015011 L16.4395297,34.4015011 C15.0236424,34.4015011 13.8909325,33.2750922 13.8909325,31.867081 L13.8909325,28.6889985" id="Path"></path>
                <path d="M8.02511352,20.8845935 L22.5076183,0.3678586 C22.7907958,-0.0344303186 23.3571507,-0.114888102 23.7616899,0.166714141 L26.8361882,2.29884541 C27.2407274,2.58044765 27.3216352,3.14365214 27.0384578,3.54594106 L14.9831884,20.6432201" id="Path"></path>
                <path d="M8.71283023,29.4533474 L7.01376543,31.867081 L2.72564949,34.844019 C2.07838671,35.2865368 1.18840038,34.7233323 1.39067,33.9589833 L2.56383379,28.6487696 L5.31470062,24.7465671" id="Path"></path>
                <line x1="9.27918517" y1="28.6889985" x2="8.71283023" y2="29.4533474" id="Path"></line>
                <path d="M17.4104239,7.60905914 L15.9945365,6.96539687 C15.5090895,6.76425241 14.9831884,6.72402352 14.4977414,6.92516798 L9.23873124,9.13775703 C8.67237631,9.37913038 8.22738314,9.74119041 7.90375175,10.264166 L0.622045444,21.6087135 C-0.0252173395,22.5742069 -0.551118351,24.2638204 1.10749253,25.5511449 C3.33245835,27.2809873 5.43606239,24.6661093 5.43606239,24.6661093" id="Path"></path>
                <path d="M38.2441947,15.1720908 L34.6437955,15.1720908 C34.2797102,15.1720908 33.9156248,15.091633 33.5919935,14.9307175 L22.8717036,9.54004595" id="Path"></path>
                <path d="M13.8100246,28.7292274 L13.8100246,31.8268521 C13.8100246,33.2348633 12.6773148,34.3612723 11.2614274,34.3612723 L11.2614274,34.3612723 C9.8455401,34.3612723 8.71283023,33.2348633 8.71283023,31.8268521 L8.71283023,29.5338052" id="Path"></path>
                <line x1="19.8376593" y1="4.22983222" x2="24.3280449" y2="7.40791468" id="Path"></line>
            </g>
        </g>
    </g>
</svg>