<?xml version="1.0" encoding="UTF-8"?>
<svg width="48px" height="33px" viewBox="0 0 48 33" version="1.1" xmlns="http://www.w3.org/2000/svg" xmlns:xlink="http://www.w3.org/1999/xlink">
    <title>Group 284</title>
    <g id="bank-switching-journey---desktop" stroke="none" stroke-width="1" fill="none" fill-rule="evenodd" stroke-linecap="round" stroke-linejoin="round">
        <g id="Group-287" transform="translate(-10.618110, -18.481928)" stroke="#7DBC42" stroke-width="1.6">
            <g id="Group-284" transform="translate(12.291339, 19.349398)">
                <path d="M43.0677422,25.0524269 L27.1681013,25.0524269 L22.3504803,30.7831325 L17.7192997,25.0524269 L1.71525207,25.0524269 C0.775592241,25.0524269 0,24.2907976 0,23.3517013 L0,1.70072555 C0,0.769023729 0.768134624,0 1.71525207,0 L43.0602846,0 C43.9999445,0 44.7755906,0.76162927 44.7755906,1.70072555 L44.7755906,23.3517013 C44.7829943,24.2834031 44.0148597,25.0524269 43.0677422,25.0524269 Z" id="Path"></path>
                <path d="M8.56548791,9.88502881 L9.87617519,7.36215915 C9.99809959,7.12292151 10.3562525,7.12292151 10.4857972,7.36215915 L11.7964845,9.88502881 C11.8422061,9.97927394 11.9412697,10.0445206 12.0479535,10.0590198 L14.9741391,10.4649988 C15.248469,10.501247 15.3627731,10.8274801 15.164646,11.0159704 L13.0462095,12.9806189 C12.9700068,13.0531151 12.9319054,13.1618595 12.947146,13.2633543 L13.4424638,16.0399608 C13.4881855,16.3009473 13.198615,16.5039368 12.947146,16.3806932 L10.3257714,15.068511 C10.2267078,15.0177636 10.1124037,15.0177636 10.0133401,15.068511 L7.39196557,16.3734436 C7.1404965,16.4966872 6.85092605,16.2936977 6.90426798,16.0327112 L7.40720612,13.2561046 C7.42244667,13.1546099 7.39196557,13.0458655 7.30814255,12.9733692 L5.18970612,11.0087208 C4.99157898,10.8202305 5.09826283,10.4939973 5.380213,10.4577492 L8.30639856,10.0517702 C8.42070268,10.0517702 8.51976626,9.97927394 8.56548791,9.88502881 Z" id="Path"></path>
                <path d="M20.7770126,9.88502881 L22.0876999,7.36215915 C22.2096243,7.12292151 22.5677772,7.12292151 22.6973219,7.36215915 L24.0080092,9.88502881 C24.0537308,9.97927394 24.1527944,10.0445206 24.2594782,10.0590198 L27.1856638,10.4649988 C27.4599937,10.501247 27.5742978,10.8274801 27.3761707,11.0159704 L25.2577342,12.9806189 C25.1815315,13.0531151 25.1434301,13.1618595 25.1586707,13.2633543 L25.6539885,16.0399608 C25.6997102,16.3009473 25.4101397,16.5039368 25.1586707,16.3806932 L22.5372961,15.068511 C22.4382325,15.0177636 22.3239284,15.0177636 22.2248648,15.068511 L19.6034903,16.3734436 C19.3520212,16.4966872 19.0624507,16.2936977 19.1157927,16.0327112 L19.6187308,13.2561046 C19.6339714,13.1546099 19.6034903,13.0458655 19.5196672,12.9733692 L17.4012308,11.0087208 C17.2031037,10.8202305 17.3097875,10.4939973 17.5917377,10.4577492 L20.5179233,10.0517702 C20.6322274,10.0517702 20.731291,9.97927394 20.7770126,9.88502881 Z" id="Path"></path>
                <path d="M32.9885373,9.88502881 L34.2992246,7.36215915 C34.421149,7.12292151 34.7793019,7.12292151 34.9088466,7.36215915 L36.2195339,9.88502881 C36.2652555,9.97927394 36.3643191,10.0445206 36.4710029,10.0590198 L39.3971885,10.4649988 C39.6715184,10.501247 39.7858225,10.8274801 39.5876954,11.0159704 L37.4692589,12.9806189 C37.3930562,13.0531151 37.3549548,13.1618595 37.3701954,13.2633543 L37.8655132,16.0399608 C37.9112349,16.3009473 37.6216644,16.5039368 37.3701954,16.3806932 L34.7488208,15.068511 C34.6497572,15.0177636 34.5354531,15.0177636 34.4363895,15.068511 L31.815015,16.3734436 C31.5635459,16.4966872 31.2739754,16.2936977 31.3273174,16.0327112 L31.8302555,13.2561046 C31.8454961,13.1546099 31.815015,13.0458655 31.7311919,12.9733692 L29.6127555,11.0087208 C29.4146284,10.8202305 29.5213122,10.4939973 29.8032624,10.4577492 L32.729448,10.0517702 C32.8437521,10.0517702 32.9351954,9.97927394 32.9885373,9.88502881 Z" id="Path"></path>
            </g>
        </g>
    </g>
</svg>