<?xml version="1.0" encoding="UTF-8"?>
<svg width="62px" height="62px" viewBox="0 0 62 62" version="1.1" xmlns="http://www.w3.org/2000/svg" xmlns:xlink="http://www.w3.org/1999/xlink">
    <title>hi letter copy 2</title>
    <g id="bank-switching-journey---desktop" stroke="none" stroke-width="1" fill="none" fill-rule="evenodd" stroke-linecap="round" stroke-linejoin="round">
        <g id="SWITCHING-JOURNEY---active-user-Copy-8" transform="translate(-768.000000, -514.000000)" stroke="#153F45" stroke-width="2">
            <g id="Group-13" transform="translate(735.000000, 491.000000)">
                <g id="hi-letter-copy-2" transform="translate(34.000000, 24.000000)">
                    <path d="M32.2693794,33.9906288 C32.2693794,33.9906288 31.8279368,27.4179262 35.1588218,23.8122733 C38.4897068,20.2066203 40.2354115,19.0964329 40.2354115,19.0964329 C40.2354115,19.0964329 41.339018,12.3665357 41.8406573,10.8731862 C42.3422966,9.37983676 43.2954113,8.25 45.6129848,8.25 C48.091083,8.31877267 48.9238042,10.2935308 48.9238042,11.2268742 C48.9238042,12.1700423 50.0976402,25.1189541 50.0173779,30.9842805 C49.9471484,36.849607 48.1613125,40.6517533 48.1613125,40.6517533 L60,57" id="Path"></path>
                    <path d="M12.75,52.5 C5.67349398,52.3168133 0,46.8597767 0,40.1493572 C0,39.5033829 0.0512048193,38.8670501 0.153614458,38.25" id="Path"></path>
                    <path d="M12.75,47.25 C8.60447263,47.25 5.25,43.9 5.25,39.76 C5.25,39.24 5.30006676,38.74 5.40020027,38.25" id="Path"></path>
                    <path d="M30,0.0501113586 C30.2963776,0.0200445434 30.5927552,0 30.8990121,0 C35.3743139,0 39,3.67817372 39,8.21826281 C39,8.47884187 38.9901207,8.73942094 38.960483,9" id="Path"></path>
                    <path d="M30,5.34 C30.2805195,5.28 30.561039,5.25 30.8532468,5.25 C32.8636364,5.25 34.5,6.65 34.5,8.37 C34.5,8.59 34.4766234,8.8 34.4298701,9" id="Path"></path>
                    <path d="M18,31.5 L6.67111221,15.5281609 C5.49144347,13.8552999 5.90839535,11.5551161 7.59654201,10.4000454 L7.59654201,10.4000454 C9.29485822,9.24497479 11.6440262,9.67314753 12.8236949,11.336051" id="Path"></path>
                    <path d="M32.25,60 C32.25,60 29.4875671,55.9658234 28.2264565,54.7298624 C26.9653459,53.5037891 23.55234,52.9500786 20.4496075,48.470956 C17.3468749,43.9918334 3.64480766,24.5823021 3.64480766,24.5823021 C2.48378515,22.9211706 2.93418181,20.6074516 4.64568912,19.4308168 L4.64568912,19.4308168 C6.36720525,18.2541819 8.7192767,18.6398017 9.89030801,20.3009333" id="Path"></path>
                    <path d="M23.25,26.25 C18.725633,19.6960747 15.3047692,14.7786097 12.9874086,11.497605 C12.4479768,10.7338576 11.5836521,9.58419452 10.3944345,8.04861569 C9.24643938,6.41341111 9.67198928,4.1455381 11.3543959,2.99700155 L11.473154,2.9094013 C13.1555605,1.76086475 15.9649713,1.94313304 17.1228629,3.57833762 L19.1062897,6.23282414" id="Path"></path>
                    <path d="M30.0921695,21.75 L18.6514303,5.63013794 C17.5043899,4.00460563 17.9098094,1.75982292 19.5710403,0.637431563 L19.5710403,0.637431563 C21.2322712,-0.484959792 23.526352,-0.0882525029 24.6733924,1.53727981 L38.25,20.656636" id="Path"></path>
                </g>
            </g>
        </g>
    </g>
</svg>