<?xml version="1.0" encoding="UTF-8"?>
<svg width="50px" height="44px" viewBox="0 0 50 44" version="1.1" xmlns="http://www.w3.org/2000/svg" xmlns:xlink="http://www.w3.org/1999/xlink">
    <title>newspaper-folded</title>
    <g id="dashboard---desktop" stroke="none" stroke-width="1" fill="none" fill-rule="evenodd">
        <g id="ACADEMY" transform="translate(-366.000000, -784.000000)" fill="#153F45" fill-rule="nonzero">
            <g id="newspaper-folded" transform="translate(366.000000, 784.000000)">
                <path d="M19.3438914,34.974359 L7.91855204,34.974359 C7.29377828,34.974359 6.78733032,35.4794564 6.78733032,36.1025641 C6.78733032,36.7256718 7.29377828,37.2307692 7.91855204,37.2307692 L19.3438914,37.2307692 C19.9686652,37.2307692 20.4751131,36.7256718 20.4751131,36.1025641 C20.4751131,35.4794564 19.9686652,34.974359 19.3438914,34.974359 Z" id="Path"></path>
                <path d="M36.4253394,34.974359 L25,34.974359 C24.3752262,34.974359 23.8687783,35.4794564 23.8687783,36.1025641 C23.8687783,36.7256718 24.3752262,37.2307692 25,37.2307692 L36.4253394,37.2307692 C37.05,37.2307692 37.5565611,36.7256718 37.5565611,36.1025641 C37.5565611,35.4794564 37.05,34.974359 36.4253394,34.974359 Z" id="Path"></path>
                <path d="M36.4253394,6.76923077 L7.91855204,6.76923077 C7.29377828,6.76923077 6.78733032,7.27432821 6.78733032,7.8974359 C6.78733032,8.52054359 7.29377828,9.02564103 7.91855204,9.02564103 L36.4253394,9.02564103 C37.05,9.02564103 37.5565611,8.52054359 37.5565611,7.8974359 C37.5565611,7.27432821 37.05,6.76923077 36.4253394,6.76923077 Z" id="Path"></path>
                <path d="M36.4253394,12.4102564 L25,12.4102564 C24.3752262,12.4102564 23.8687783,12.9153538 23.8687783,13.5384615 C23.8687783,14.1615692 24.3752262,14.6666667 25,14.6666667 L36.4253394,14.6666667 C37.05,14.6666667 37.5565611,14.1615692 37.5565611,13.5384615 C37.5565611,12.9153538 37.05,12.4102564 36.4253394,12.4102564 Z" id="Path"></path>
                <path d="M36.4253394,18.0512821 L25,18.0512821 C24.3752262,18.0512821 23.8687783,18.5563795 23.8687783,19.1794872 C23.8687783,19.8025949 24.3752262,20.3076923 25,20.3076923 L36.4253394,20.3076923 C37.05,20.3076923 37.5565611,19.8025949 37.5565611,19.1794872 C37.5565611,18.5563795 37.05,18.0512821 36.4253394,18.0512821 Z" id="Path"></path>
                <path d="M36.4253394,23.6923077 L25,23.6923077 C24.3752262,23.6923077 23.8687783,24.1974051 23.8687783,24.8205128 C23.8687783,25.4436205 24.3752262,25.9487179 25,25.9487179 L36.4253394,25.9487179 C37.05,25.9487179 37.5565611,25.4436205 37.5565611,24.8205128 C37.5565611,24.1974051 37.05,23.6923077 36.4253394,23.6923077 Z" id="Path"></path>
                <path d="M36.4253394,29.3333333 L25,29.3333333 C24.3752262,29.3333333 23.8687783,29.8384308 23.8687783,30.4615385 C23.8687783,31.0846462 24.3752262,31.5897436 25,31.5897436 L36.4253394,31.5897436 C37.05,31.5897436 37.5565611,31.0846462 37.5565611,30.4615385 C37.5565611,29.8384308 37.05,29.3333333 36.4253394,29.3333333 Z" id="Path"></path>
                <path d="M19.3438914,29.3333333 L7.91855204,29.3333333 C7.29377828,29.3333333 6.78733032,29.8384308 6.78733032,30.4615385 C6.78733032,31.0846462 7.29377828,31.5897436 7.91855204,31.5897436 L19.3438914,31.5897436 C19.9686652,31.5897436 20.4751131,31.0846462 20.4751131,30.4615385 C20.4751131,29.8384308 19.9686652,29.3333333 19.3438914,29.3333333 Z" id="Path"></path>
                <path d="M19.3438914,12.4102564 L7.91855204,12.4102564 C7.29377828,12.4102564 6.78733032,12.9153538 6.78733032,13.5384615 L6.78733032,24.9333333 C6.78733032,25.556441 7.29377828,26.0615385 7.91855204,26.0615385 L19.3438914,26.0615385 C19.9686652,26.0615385 20.4751131,25.556441 20.4751131,24.9333333 L20.4751131,13.5384615 C20.4751131,12.9153538 19.9686652,12.4102564 19.3438914,12.4102564 Z M18.2126697,23.8051282 L9.04977376,23.8051282 L9.04977376,14.6666667 L18.2126697,14.6666667 L18.2126697,23.8051282 Z" id="Shape"></path>
                <path d="M47.7375566,5.64102564 L44.3438914,5.64102564 L44.3438914,2.25641026 C44.3438914,1.01222564 43.3289593,0 42.081448,0 L2.26244344,0 C1.01493213,0 0,1.01222564 0,2.25641026 L0,38.3589744 C0,41.4694359 2.53733032,44 5.6561086,44 L44.3438914,44 C47.4626697,44 50,41.4694359 50,38.3589744 L50,7.8974359 C50,6.65325128 48.9850679,5.64102564 47.7375566,5.64102564 Z M47.7375566,38.3589744 C47.7375566,40.2252513 46.2151584,41.7435897 44.3438914,41.7435897 L5.6561086,41.7435897 C3.78484163,41.7435897 2.26244344,40.2252513 2.26244344,38.3589744 L2.26244344,2.25641026 L42.081448,2.25641026 L42.081448,36.6666667 C42.081448,38.2218974 43.3501131,39.4871795 44.9095023,39.4871795 C45.5341629,39.4871795 46.040724,38.9820821 46.040724,38.3589744 C46.040724,37.7358667 45.5341629,37.2307692 44.9095023,37.2307692 C44.5976244,37.2307692 44.3438914,36.9777128 44.3438914,36.6666667 L44.3438914,7.8974359 L47.7375566,7.8974359 L47.7375566,38.3589744 Z" id="Shape"></path>
            </g>
        </g>
    </g>
</svg>