<?xml version="1.0" encoding="UTF-8"?>
<svg width="76px" height="53px" viewBox="0 0 76 53" version="1.1" xmlns="http://www.w3.org/2000/svg" xmlns:xlink="http://www.w3.org/1999/xlink">
    <title>google review</title>
    <g id="bank-switching-journey---desktop" stroke="none" stroke-width="1" fill="none" fill-rule="evenodd" stroke-linecap="round" stroke-linejoin="round">
        <g id="SWITCHING-JOURNEY---active-user-Copy-8" transform="translate(-604.000000, -724.000000)" stroke="#153F45" stroke-width="2">
            <g id="Group-7" transform="translate(575.000000, 697.000000)">
                <g id="google-review" transform="translate(30.000000, 28.000000)">
                    <path d="M71.1774627,41.505645 L44.9003457,41.505645 L36.93833,51 L29.2844418,41.505645 L2.83477341,41.505645 C1.28181058,41.505645 0,40.2438146 0,38.6879654 L0,2.81767956 C0,1.27408119 1.26948548,0 2.83477341,0 L71.1651376,0 C72.7181004,0 74,1.26183041 74,2.81767956 L74,38.6879654 C74.0122361,40.2315638 72.7427506,41.505645 71.1774627,41.505645 Z" id="Path"></path>
                    <path d="M14.0281254,16.377036 L16.1096259,12.197268 C16.3032538,11.8009107 16.8720359,11.8009107 17.0777656,12.197268 L19.1592661,16.377036 C19.2318765,16.5331767 19.3891992,16.6412742 19.5586237,16.6652958 L24.2056945,17.3379022 C24.6413573,17.3979563 24.8228835,17.9384436 24.5082381,18.2507251 L21.1439525,21.5056594 C21.0229351,21.6257676 20.9624263,21.8059301 20.9866298,21.9740816 L21.7732434,26.5742286 C21.8458538,27.0066184 21.3859875,27.3429216 20.9866298,27.1387375 L16.8236289,24.9647777 C16.6663062,24.8807019 16.48478,24.8807019 16.3274573,24.9647777 L12.1644564,27.1267267 C11.7650988,27.3309107 11.3052324,26.9946076 11.3899446,26.5622178 L12.1886599,21.9620708 C12.2128634,21.7939192 12.1644564,21.6137568 12.0313372,21.4936485 L8.66705161,18.2387143 C8.3524062,17.9264327 8.52183065,17.3859455 8.96959528,17.3258914 L13.616666,16.653285 C13.7981922,16.653285 13.9555149,16.5331767 14.0281254,16.377036 Z" id="Path"></path>
                    <path d="M34.4419185,16.377036 L36.523419,12.197268 C36.7170469,11.8009107 37.285829,11.8009107 37.4915587,12.197268 L39.5730592,16.377036 C39.6456696,16.5331767 39.8029924,16.6412742 39.9724168,16.6652958 L44.6194876,17.3379022 C45.0551504,17.3979563 45.2366766,17.9384436 44.9220312,18.2507251 L41.5577456,21.5056594 C41.4367282,21.6257676 41.3762194,21.8059301 41.4004229,21.9740816 L42.1870365,26.5742286 C42.2596469,27.0066184 41.7997806,27.3429216 41.4004229,27.1387375 L37.237422,24.9647777 C37.0800993,24.8807019 36.8985731,24.8807019 36.7412504,24.9647777 L32.5782495,27.1267267 C32.1788919,27.3309107 31.7190255,26.9946076 31.8037377,26.5622178 L32.602453,21.9620708 C32.6266565,21.7939192 32.5782495,21.6137568 32.4451303,21.4936485 L29.0808447,18.2387143 C28.7661993,17.9264327 28.9356238,17.3859455 29.3833884,17.3258914 L34.0304591,16.653285 C34.2119853,16.653285 34.3693081,16.5331767 34.4419185,16.377036 Z" id="Path"></path>
                    <path d="M54.8557116,16.377036 L56.9372121,12.197268 C57.13084,11.8009107 57.6996221,11.8009107 57.9053518,12.197268 L59.9868523,16.377036 C60.0594627,16.5331767 60.2167855,16.6412742 60.3862099,16.6652958 L65.0332807,17.3379022 C65.4689436,17.3979563 65.6504698,17.9384436 65.3358243,18.2507251 L61.9715387,21.5056594 C61.8505213,21.6257676 61.7900125,21.8059301 61.814216,21.9740816 L62.6008296,26.5742286 C62.67344,27.0066184 62.2135737,27.3429216 61.814216,27.1387375 L57.6512151,24.9647777 C57.4938924,24.8807019 57.3123662,24.8807019 57.1550435,24.9647777 L52.9920426,27.1267267 C52.592685,27.3309107 52.1328186,26.9946076 52.2175308,26.5622178 L53.0162461,21.9620708 C53.0404496,21.7939192 52.9920426,21.6137568 52.8589234,21.4936485 L49.4946378,18.2387143 C49.1799924,17.9264327 49.3494169,17.3859455 49.7971815,17.3258914 L54.4442522,16.653285 C54.6257784,16.653285 54.7709994,16.5331767 54.8557116,16.377036 Z" id="Path"></path>
                </g>
            </g>
        </g>
    </g>
</svg>