<?xml version="1.0" encoding="UTF-8"?>
<svg width="47px" height="38px" viewBox="0 0 47 38" version="1.1" xmlns="http://www.w3.org/2000/svg" xmlns:xlink="http://www.w3.org/1999/xlink">
    <title>Group 286</title>
    <g id="bank-switching-journey---desktop" stroke="none" stroke-width="1" fill="none" fill-rule="evenodd" stroke-linecap="round">
        <g id="Group-285" transform="translate(-11.358268, -16.481928)" stroke="#7DBC42" stroke-width="1.6">
            <g id="Group-286" transform="translate(12.291339, 17.590361)">
                <path d="M24.9312632,17.5553191 C22.0733581,20.5880652 18.9336876,20.7902482 18.9336876,20.7902482 L9.31341538,20.7902482 C8.30711075,20.7902482 7.34105831,21.1946144 6.61651898,21.9224734 C5.97248401,22.5694593 5.36870123,23.4995014 5.36870123,24.7125998 C5.36870123,25.6426419 5.7309709,26.4513742 6.21399712,27.09836 C7.01904083,28.1901486 8.30711075,28.7966978 9.63543287,28.7966978 L18.5311658,28.7966978 C18.7726789,28.7966978 19.014192,28.8775711 19.1752008,29.0393175 C20.101001,29.7671766 23.2809237,31.7081341 28.5539599,31.7081341 C34.873553,31.7081341 38.0937278,28.8371345 38.0937278,28.8371345" id="Path"></path>
                <path d="M38.8182671,31.1420215 L44.010799,31.1420215 C44.4133209,31.1420215 44.7755906,30.8185286 44.7755906,30.3737258 L44.7755906,14.6438829 C44.7755906,14.2395167 44.4535731,13.8755872 44.010799,13.8755872 L38.8182671,13.8755872 C38.4157453,13.8755872 38.0534756,14.1990801 38.0534756,14.6438829 L38.0534756,30.3737258 C38.0534756,30.7780919 38.3754931,31.1420215 38.8182671,31.1420215 Z" id="Path"></path>
                <path d="M18.8934355,28.9180077 L18.8934355,32.031627 C18.8934355,33.4469085 17.7663743,34.5791337 16.3575478,34.5791337 L16.3575478,34.5791337 C14.9487213,34.5791337 13.8216601,33.4469085 13.8216601,32.031627 L13.8216601,28.8371345" id="Path"></path>
                <path d="M7.98509327,20.9924313 L22.3953756,0.369758042 C22.6771409,-0.0346081 23.2406715,-0.115481328 23.6431933,0.167574971 L26.7023594,2.31071553 C27.1048812,2.59377182 27.1853856,3.15988442 26.9036203,3.56425057 L14.9084691,20.7498116" id="Path"></path>
                <path d="M8.66938042,29.6054301 L6.97878864,32.031627 L2.71205701,35.0239364 C2.06802205,35.4687392 1.18247397,34.9026266 1.3837349,34.1343309 L2.55104827,28.7966978 L5.28819686,24.8743463" id="Path"></path>
                <line x1="9.23291101" y1="28.8371345" x2="8.66938042" y2="29.6054301" id="Path"></line>
                <path d="M17.3236002,7.6483486 L15.9147738,7.00136278 C15.4317475,6.7991797 14.9084691,6.75874309 14.4254429,6.96092616 L9.19265883,9.18493994 C8.62912824,9.42755963 8.1863542,9.79148916 7.86433672,10.3171651 L0.61894338,21.7202904 C-0.0250915837,22.6907691 -0.548369991,24.3891069 1.1019696,25.6830785 C3.31583979,27.421853 5.40895342,24.793473 5.40895342,24.793473" id="Path"></path>
                <path d="M38.0534756,15.2504321 L34.4710311,15.2504321 C34.1087615,15.2504321 33.7464918,15.1695588 33.4244743,15.0078124 L22.7576452,9.58930609" id="Path"></path>
                <path d="M13.7411558,28.8775711 L13.7411558,31.9911904 C13.7411558,33.4064719 12.6140946,34.5386971 11.2052681,34.5386971 L11.2052681,34.5386971 C9.79644161,34.5386971 8.66938042,33.4064719 8.66938042,31.9911904 L8.66938042,29.6863034" id="Path"></path>
                <line x1="19.7387314" y1="4.25167301" x2="24.2067239" y2="7.44616553" id="Path"></line>
            </g>
        </g>
    </g>
</svg>