<?xml version="1.0" encoding="UTF-8"?>
<svg width="25px" height="32px" viewBox="0 0 25 32" version="1.1" xmlns="http://www.w3.org/2000/svg" xmlns:xlink="http://www.w3.org/1999/xlink">
    <title>copy</title>
    <g id="bank-switching-journey---desktop" stroke="none" stroke-width="1" fill="none" fill-rule="evenodd">
        <g id="SWITCHING-JOURNEY---active-user-Copy-43" transform="translate(-677.000000, -506.000000)" fill="#EC3793" fill-rule="nonzero">
            <g id="copy" transform="translate(677.000000, 506.000000)">
                <path d="M16.9820972,5.59655949 L2.46803069,5.59655949 C1.10613811,5.59655949 0,6.73028876 0,8.12615196 L0,29.4704075 C0,30.8662707 1.10613811,32 2.46803069,32 L16.9820972,32 C18.3439898,32 19.4501279,30.8662707 19.4501279,29.4704075 L19.4501279,8.12615196 C19.443734,6.73028876 18.3375959,5.59655949 16.9820972,5.59655949 Z M17.7173913,29.4638542 C17.7173913,29.8832685 17.3849105,30.2240426 16.9757033,30.2240426 L2.46163683,30.2240426 C2.05242967,30.2240426 1.71994885,29.8832685 1.71994885,29.4638542 L1.71994885,8.12615196 C1.71994885,7.70673766 2.05242967,7.36596355 2.46163683,7.36596355 L16.9757033,7.36596355 C17.3849105,7.36596355 17.7173913,7.70673766 17.7173913,8.12615196 L17.7173913,29.4638542 Z" id="Shape"></path>
                <path d="M22.5319693,0 L8.01790281,0 C6.65601023,0 5.54987212,1.13372926 5.54987212,2.52959246 C5.54987212,3.02109359 5.93350384,3.41429449 6.41304348,3.41429449 C6.89258312,3.41429449 7.27621483,3.02109359 7.27621483,2.52959246 C7.27621483,2.11017817 7.60869565,1.76940405 8.01790281,1.76940405 L22.5319693,1.76940405 C22.9411765,1.76940405 23.2736573,2.11017817 23.2736573,2.52959246 L23.2736573,23.873848 C23.2736573,24.2932623 22.9411765,24.6340365 22.5319693,24.6340365 C22.0524297,24.6340365 21.668798,25.0272374 21.668798,25.5187385 C21.668798,26.0102396 22.0524297,26.4034405 22.5319693,26.4034405 C23.8938619,26.4034405 25,25.2697112 25,23.873848 L25,2.52959246 C25,1.13372926 23.8938619,0 22.5319693,0 Z" id="Path"></path>
            </g>
        </g>
    </g>
</svg>