<?xml version="1.0" encoding="UTF-8"?>
<svg width="64px" height="43px" viewBox="0 0 64 43" version="1.1" xmlns="http://www.w3.org/2000/svg" xmlns:xlink="http://www.w3.org/1999/xlink">
    <title>record a video</title>
    <g id="bank-switching-journey---desktop" stroke="none" stroke-width="1" fill="none" fill-rule="evenodd" stroke-linecap="round" stroke-linejoin="round">
        <g id="SWITCHING-JOURNEY---active-user-Copy-8" transform="translate(-773.000000, -727.000000)" stroke="#153F45" stroke-width="2">
            <g id="Group-8" transform="translate(735.000000, 697.000000)">
                <g id="record-a-video" transform="translate(39.000000, 31.000000)">
                    <path d="M39.4950776,41 L3.83022365,41 C1.71812889,41 0,39.2651312 0,37.1569363 L0,3.84306374 C0,1.72388859 1.72907239,0 3.83022365,0 L39.4950776,0 C41.6071723,0 43.3253012,1.73486877 43.3253012,3.84306374 L43.3253012,37.1569363 C43.3253012,39.2651312 41.6071723,41 39.4950776,41 Z" id="Path"></path>
                    <line x1="7.46987952" y1="11.5545455" x2="17.1807229" y2="11.5545455" id="Path"></line>
                    <path d="M43.3361334,26.7353061 L57.5154726,36.7507747 C59.4111061,38.0854352 62,36.7066537 62,34.3572101 L62,7.38824448 C62,5.03880085 59.4111061,3.66001938 57.5154726,4.99467984 L43.3253012,15.0101485" id="Path"></path>
                </g>
            </g>
        </g>
    </g>
</svg>