<?xml version="1.0" encoding="UTF-8"?>
<svg width="50px" height="53px" viewBox="0 0 50 53" version="1.1" xmlns="http://www.w3.org/2000/svg" xmlns:xlink="http://www.w3.org/1999/xlink">
    <title>Group 59</title>
    <g id="bank-switching-journey---desktop" stroke="none" stroke-width="1" fill="none" fill-rule="evenodd" stroke-linecap="round" stroke-linejoin="round">
        <g id="Group-105" transform="translate(-42.000000, -26.000000)" stroke="#FFFFFF" stroke-width="2">
            <g id="Group-59" transform="translate(43.000000, 27.000000)">
                <line x1="8.57142857" y1="30.3707865" x2="10.2857143" y2="19.4831461" id="Path"></line>
                <path d="M16.7465181,35.5254182 L12.45961,39.0621116 C12.1420613,39.3206906 11.6657382,39.0954766 11.6657382,38.686755 L11.6657382,35.5254182 C11.6657382,35.5254182 3.88579387,35.5254182 3.88579387,35.5254182 C1.74651811,35.5254182 0,33.7820952 0,31.6467332 L0,17.7001497 C0,15.5647876 1.74651811,13.8214646 3.88579387,13.8214646 L18.2590529,13.8214646 C20.3983287,13.8214646 22.1448468,15.5647876 22.1448468,17.7001497 L22.1448468,31.6467332 C22.1448468,31.997066 22.0947075,32.3390576 22.0111421,32.6643667" id="Path"></path>
                <path d="M20.0139276,14.3553052 L20.0139276,4.88797724 C20.0139276,2.20209213 22.2200557,0 24.9108635,0 L43.1030641,0 C45.7938719,0 48,2.20209213 48,4.88797724 L48,22.8133409 C48,25.499226 45.7938719,27.7013181 43.1030641,27.7013181 L40.6044568,27.7013181 L35.2061281,32.0054073 C34.9052925,32.2473038 34.454039,32.030431 34.454039,31.6467332 L34.454039,27.7096594 C34.454039,27.7096594 24.9192201,27.7096594 24.9192201,27.7096594 C23.9331476,27.7096594 23.005571,27.4093741 22.2367688,26.9088986" id="Path"></path>
                <path d="M29.8328691,48.4126619 L28.7465181,48.4126619 L25.6796657,50.9150394 C25.4289694,51.1152295 25.0529248,50.9400631 25.0612813,50.6147541 L25.0947075,48.4126619 L19.4874652,48.4126619 C17.9331476,48.4126619 16.6545961,47.1447907 16.6545961,45.5849754 L16.6545961,35.5421007 C16.6545961,33.9906267 17.9247911,32.7144142 19.4874652,32.7144142 L29.8412256,32.7144142 C30.1169916,32.7144142 30.3844011,32.7561205 30.6350975,32.8311918 C31.8050139,33.1731834 32.6740947,34.2658882 32.6740947,35.5421007 L32.6740947,45.5849754 C32.6740947,47.1364494 31.4038997,48.4126619 29.8412256,48.4126619 L29.8328691,48.4126619 Z" id="Path"></path>
                <rect id="Rectangle" x="25.8635097" y="11.894634" width="4.30362117" height="9.64249435" rx="0.0676967625"></rect>
                <path d="M30.1671309,18.8846083 C30.1671309,20.4861299 31.4791086,21.7873661 33.0752089,21.7873661 L41.3231198,21.7873661 C41.6991643,21.7873661 42.0083565,21.4787396 42.0083565,21.103383 L42.0083565,12.6953948 C42.0083565,12.3200382 41.6991643,12.0114116 41.3231198,12.0114116 L36.6100279,11.9446816 C36.3426184,11.9446816 36.1587744,11.6777613 36.2506964,11.4275236 C36.5431755,10.6517866 37.0529248,9.15870138 37.0362117,8.15775041 C37.0111421,6.74807779 36.5264624,5.28001637 35.4818942,5.28001637 C34.4373259,5.28001637 35.0222841,6.76476031 34.270195,8.44135318 C33.5181058,10.1179461 30.1754875,13.2626004 30.1754875,13.2626004" id="Path"></path>
                <line x1="5.45682451" y1="23.1386499" x2="16.637883" y2="23.1386499" id="Path"></line>
                <line x1="5.45682451" y1="26.5168595" x2="16.637883" y2="26.5168595" id="Path"></line>
                <line x1="11.9665738" y1="30.478957" x2="13.6963788" y2="19.3100125" id="Path"></line>
                <path d="M25.9888579,37.6357565 C27.0501393,37.3855187 28.0779944,38.1028669 28.4206128,39.1371829 C29.3983287,42.0983296 24.8272981,43.9834539 24.8272981,43.9834539 C24.8272981,43.9834539 20.189415,42.0649645 21.1337047,39.1205004 C21.4679666,38.0861844 22.4874652,37.3521537 23.5571031,37.5940502 C24.2924791,37.7608754 24.6100279,38.2530096 24.7270195,38.5199298 C24.7520891,38.5783186 24.8272981,38.5783186 24.8523677,38.5199298 C24.9693593,38.2613508 25.270195,37.8025816 25.9805014,37.6357565 L25.9888579,37.6357565 Z" id="Path"></path>
            </g>
        </g>
    </g>
</svg>