<?xml version="1.0" encoding="UTF-8"?>
<svg width="41px" height="42px" viewBox="0 0 41 42" version="1.1" xmlns="http://www.w3.org/2000/svg" xmlns:xlink="http://www.w3.org/1999/xlink">
    <title>Group 278</title>
    <g id="bank-switching-journey---desktop" stroke="none" stroke-width="1" fill="none" fill-rule="evenodd" stroke-linecap="round" stroke-linejoin="round">
        <g id="Group-281" transform="translate(-13.618110, -14.000000)" stroke="#7DBC42" stroke-width="1.6">
            <g id="Group-278" transform="translate(14.925197, 14.951807)">
                <path d="M20.9431639,22.4762312 C20.9431639,22.4762312 20.6877595,18.119427 22.7948461,15.7134306 C24.9019327,13.3074343 26.0512527,12.5921381 26.0512527,12.5921381 C26.0512527,12.5921381 26.7536149,8.17030697 27.0728704,7.12987612 C27.392126,6.1544722 27.966786,5.37414907 29.4992126,5.37414907 C31.0954903,5.43917599 31.6062992,6.73971456 31.6062992,7.32495691 C31.6062992,7.97522619 32.3725125,16.4937538 32.3086614,20.3953695 C32.2448103,24.2969851 31.0954903,26.7680084 31.0954903,26.7680084 L38.6299213,37.5624785" id="Path"></path>
                <path d="M7.98138869,34.8313475 C3.57566213,34.7012936 1.8189894e-12,30.9947587 1.8189894e-12,26.5079007 C1.8189894e-12,26.0527122 0.0638511095,25.6625506 0.127702219,25.2073621" id="Path"></path>
                <path d="M8.30064424,31.3198934 C5.68274875,31.3198934 3.51181102,29.1089778 3.51181102,26.4428738 C3.51181102,26.1177391 3.57566213,25.7926045 3.63951324,25.4674699" id="Path"></path>
                <path d="M19.793844,0.106967889 C19.9853973,0.106967889 20.1769506,0.106967889 20.3685039,0.106967889 C23.0502505,0.106967889 25.2850394,2.12280266 25.5404438,4.78890671" id="Path"></path>
                <path d="M20.4962062,3.29328737 C21.581675,3.29328737 22.4755906,4.20366436 22.4755906,5.30912214 C22.4755906,5.43917599 22.4755906,5.56922985 22.4117394,5.69928371" id="Path"></path>
                <path d="M11.5570508,20.3953695 L4.46957767,9.99106096 C3.70336435,8.88560318 3.95876879,7.38998384 5.04423765,6.6096607 L5.04423765,6.6096607 C6.12970651,5.82933756 7.59828203,6.1544722 8.30064424,7.19490305" id="Path"></path>
                <path d="M21.0708661,39.5783133 C21.0708661,39.5783133 19.2830351,36.9122092 18.5168218,36.1318861 C17.6867573,35.3515629 15.5158196,34.9614014 13.5364352,32.0351896 C11.5570508,29.1089778 2.80944882,16.298673 2.80944882,16.298673 C2.0432355,15.1932152 2.36249105,13.6975959 3.44795991,12.9172727 L3.44795991,12.9172727 C4.53342878,12.1369496 6.0658554,12.3970573 6.76821761,13.5025151" id="Path"></path>
                <path d="M15.132713,17.20905 L6.83206872,5.04901443 C6.0658554,3.94355665 6.38511095,2.4479373 7.47057981,1.66761416 L7.53443092,1.60258724 C8.61989979,0.822264098 10.0884753,1.08237181 10.8546886,2.18782959 L12.1317108,4.00858358" id="Path"></path>
                <path d="M19.3468862,14.6729998 L11.9401575,3.81350279 C11.1739442,2.70804501 11.4931997,1.21242567 12.5148175,0.432102529 L12.5148175,0.432102529 C13.6002863,-0.348220608 15.0688618,-0.0230859677 15.8350752,1.01734488 L24.4549749,13.6975959" id="Path"></path>
            </g>
        </g>
    </g>
</svg>