<?xml version="1.0" encoding="UTF-8"?>
<svg width="25px" height="25px" viewBox="0 0 25 25" version="1.1" xmlns="http://www.w3.org/2000/svg" xmlns:xlink="http://www.w3.org/1999/xlink">
    <title>heart</title>
    <g id="bank-switching-jounrey---mobile" stroke="none" stroke-width="1" fill="none" fill-rule="evenodd">
        <g id="Profile/Main-Copy-37" transform="translate(-41.000000, -381.000000)" fill="#153F45" fill-rule="nonzero">
            <g id="Group-97" transform="translate(41.000000, 288.000000)">
                <g id="heart" transform="translate(0.000000, 93.000000)">
                    <path d="M19.5899877,1.42046079 C18.7731077,0.504454925 17.6408002,0 16.4015823,0 C15.0183766,0 13.819379,0.652581902 12.9341883,1.88713672 C12.8677928,1.9796977 12.805719,2.07225869 12.7475248,2.16388868 C12.6893796,2.07220969 12.6273058,1.9796977 12.5609103,1.88713672 C11.6756705,0.652581902 10.4766729,0 9.09346723,0 C7.85424931,0 6.7218927,0.504454925 5.90506177,1.42041179 C5.12992443,2.28967166 4.7029703,3.45175548 4.7029703,4.6925823 C4.7029703,6.0410131 5.22740591,7.28526991 6.35323101,8.60846571 C7.33555946,9.76290554 8.74459649,10.9495384 10.3761958,12.3235962 C10.9791076,12.8313831 11.6025962,13.356418 12.2651265,13.9293749 C12.4035158,14.0490329 12.5754957,14.1089109 12.7474756,14.1089109 C12.9194064,14.1089109 13.0913864,14.0490329 13.2298248,13.9293749 C13.8922568,13.356565 14.5156472,12.8315301 15.1185591,12.3238412 C16.166399,11.4413513 17.0713316,10.6792544 17.8566345,9.94004051 C19.3812742,8.50473273 20.7920792,6.87562997 20.7920792,4.6926313 C20.7920792,3.45175548 20.3651742,2.28972066 19.5899877,1.42046079 Z M16.8458228,8.87100767 C16.0902309,9.58234057 15.1996872,10.3322855 14.1685444,11.2006633 C13.7098167,11.5869303 13.2393519,11.9831442 12.7475248,12.4039561 C12.2555993,11.9831932 11.7849873,11.5868813 11.3262596,11.2005163 C8.11457641,8.49576573 6.17594732,6.86318397 6.17594732,4.6926313 C6.17594732,2.85527857 7.43009439,1.46975478 9.09341812,1.46975478 C9.98204648,1.46975478 10.7377857,1.88713672 11.3396172,2.71028759 C11.8335561,3.38580149 12.0363274,4.08610939 12.0377025,4.09081339 C12.1260988,4.40916634 12.4164315,4.62956831 12.7474756,4.62956831 C13.0785198,4.62956831 13.3688525,4.40916634 13.4572488,4.09081339 C13.464517,4.06459839 14.2100907,1.46975478 16.4015823,1.46975478 C18.0648569,1.46975478 19.3191513,2.85532757 19.3191513,4.6926313 C19.3191513,6.0239121 18.6256823,7.19540392 16.8458228,8.87100767 Z" id="Shape"></path>
                    <path d="M22.8027377,14.7737029 C22.1951329,14.7737029 21.6090172,15.0281 21.1947168,15.4716268 L19.0420444,17.7763489 C18.7638092,16.8842298 17.9282732,16.2346233 16.9433879,16.2346233 L13.5598286,16.2346233 C13.0861401,16.2346233 12.6293498,16.062736 12.2737049,15.750621 C10.3610269,14.0719798 7.48607603,14.0572216 5.55522996,15.7042031 C5.15704638,15.1419772 4.50094454,14.7737516 3.75976534,14.7737516 L0.732437042,14.7737516 C0.32795324,14.7737516 0,15.100771 0,15.5042118 L0,24.2695398 C0,24.6729319 0.327904401,25 0.732437042,25 L3.75976534,25 C4.4175277,25 5.00828308,24.7098519 5.41130171,24.2516156 L5.84504002,24.3731885 C7.32866824,24.7890983 8.8623075,25 10.4034191,25 L16.9433391,25 C18.5484785,25 20.0817759,24.2353474 21.044879,22.9546919 L24.5612313,18.2789573 C24.5612801,18.2788599 24.561329,18.2787625 24.5614266,18.2786651 C24.8483552,17.8970937 25,17.4428514 25,16.9649861 C25,15.7567094 24.0142844,14.7737029 22.8027377,14.7737029 Z M4.49220238,22.8085706 C4.49220238,23.2113295 4.16366307,23.5390308 3.75976534,23.5390308 L1.46482524,23.5390308 L1.46482524,16.2345746 L3.75976534,16.2345746 C4.16361424,16.2345746 4.49220238,16.5622272 4.49220238,16.9650348 L4.49220238,22.8085706 Z M23.3894395,17.4022784 C23.3894395,17.4023271 23.3893906,17.4023271 23.3893418,17.4023758 L19.8730384,22.0782078 C19.1850936,22.9929756 18.0898812,23.5390795 16.9433391,23.5390795 L10.4035656,23.5390795 C8.99646797,23.5390795 7.59615892,23.3465404 6.24156308,22.9668199 L5.95512291,22.8865019 C5.95605085,22.8605898 5.9571253,22.8347263 5.9571253,22.8086193 L5.9571253,17.2952202 L6.46754069,16.8472611 C7.84675133,15.6368899 9.92684909,15.6367925 11.3061574,16.8472611 C11.9293907,17.394193 12.7297138,17.6953977 13.5599263,17.6953977 L16.9434856,17.6953977 C17.3473345,17.6953977 17.6759226,18.023099 17.6759226,18.4258579 C17.6759226,18.8286168 17.3473833,19.1563181 16.9434856,19.1563181 L11.737991,19.1563181 C11.3335072,19.1563181 11.005554,19.4833375 11.005554,19.8867784 C11.005554,20.2902192 11.3334584,20.6172386 11.737991,20.6172386 L17.4342677,20.6172386 C18.0418725,20.6172386 18.6278905,20.3629389 19.0420933,19.9195095 L22.2665842,16.4673458 C22.4068007,16.3172305 22.5972236,16.2345746 22.8027377,16.2345746 C23.2065866,16.2345746 23.5351748,16.5622272 23.5351748,16.9650348 C23.5351748,17.124307 23.484773,17.2754938 23.3894395,17.4022784 Z" id="Shape"></path>
                </g>
            </g>
        </g>
    </g>
</svg>