<?xml version="1.0" encoding="UTF-8"?>
<svg width="37px" height="23px" viewBox="0 0 37 23" version="1.1" xmlns="http://www.w3.org/2000/svg" xmlns:xlink="http://www.w3.org/1999/xlink">
    <title>Group 12</title>
    <g id="bank-switching-jounrey---mobile" stroke="none" stroke-width="1" fill="none" fill-rule="evenodd" stroke-linecap="round" stroke-linejoin="round">
        <g id="Group-246" transform="translate(-32.000000, -19.000000)" stroke="#153F45" stroke-width="1.5">
            <g id="Group-12" transform="translate(33.000000, 20.000000)">
                <ellipse id="Oval" cx="17.4754934" cy="4.76595745" rx="4.70525833" ry="4.76595745"></ellipse>
                <path d="M23.5041057,21 C26.2488397,20.8510638 26.1508135,16.5319149 25.4156169,14.1985816 C24.6804203,11.8652482 22.719896,10.3758865 21.3965421,10.9219858 C19.4850309,12.212766 19.0439129,12.5106383 17.4754934,12.5106383 L17.4754934,12.5106383 C15.907074,12.5106383 15.4169429,12.212766 13.5544448,10.9219858 C12.2310909,10.3262411 10.2705666,11.8652482 9.53537002,14.1985816 C8.80017341,16.5319149 8.70214719,20.8014184 11.4468812,21 C12.9662876,21 21.9846993,21 23.5041057,21 Z" id="Path"></path>
                <ellipse id="Oval" cx="6.05543938" cy="6.05673759" rx="3.38190442" ry="3.42553191"></ellipse>
                <path d="M7.86892436,11.7163121 C7.23175397,12.1134752 6.8396491,12.212766 6.05543938,12.212766 L6.05543938,12.212766 C4.92813791,12.212766 4.58504616,12.0141844 3.21267915,11.070922 C2.23241699,10.6737589 0.860049982,11.7163121 0.320905799,13.4042553 C-0.218238384,15.0921986 -0.267251492,18.1702128 1.69327281,18.2695035 C2.33044321,18.2695035 4.63405926,18.2695035 6.74162289,18.2695035" id="Path"></path>
                <ellipse id="Oval" cx="28.9445606" cy="6.05673759" rx="3.38190442" ry="3.42553191"></ellipse>
                <path d="M27.1310756,11.7163121 C27.768246,12.1134752 28.1603509,12.212766 28.9445606,12.212766 L28.9445606,12.212766 C30.0718621,12.212766 30.4149538,12.0141844 31.7873209,11.070922 C32.767583,10.6737589 34.13995,11.7163121 34.6790942,13.4042553 C35.2182384,15.0921986 35.2672515,18.1702128 33.3067272,18.2695035 C32.6695568,18.2695035 30.3659407,18.2695035 28.2583771,18.2695035" id="Path"></path>
            </g>
        </g>
    </g>
</svg>