<?xml version="1.0" encoding="UTF-8"?>
<svg width="28px" height="27px" viewBox="0 0 28 27" version="1.1" xmlns="http://www.w3.org/2000/svg" xmlns:xlink="http://www.w3.org/1999/xlink">
    <title>linkedin icon</title>
    <g id="bank-switching-journey---desktop" stroke="none" stroke-width="1" fill="none" fill-rule="evenodd">
        <g id="SWITCHING-JOURNEY---active-user-Copy-78" transform="translate(-629.000000, -982.000000)" stroke="#153F45" stroke-width="1.265625">
            <g id="Group-9" transform="translate(520.000000, 982.000000)">
                <g id="linkedin-icon" transform="translate(110.000000, 1.000000)">
                    <path d="M5.1237785,24.9170813 L1.27035831,24.9170813 C0.846905537,24.9170813 0.508143322,24.5854063 0.508143322,24.1708126 L0.508143322,8.62354892 C0.508143322,8.20895522 0.846905537,7.87728027 1.27035831,7.87728027 L5.1237785,7.87728027 C5.54723127,7.87728027 5.88599349,8.20895522 5.88599349,8.62354892 L5.88599349,24.1708126 C5.84364821,24.6268657 5.50488599,24.9170813 5.1237785,24.9170813 Z" id="Path"></path>
                    <ellipse id="Oval" cx="3.17589577" cy="3.10945274" rx="3.17589577" ry="3.10945274"></ellipse>
                    <path d="M26,24.212272 C26,24.6268657 25.6612378,24.9585406 25.237785,24.9585406 L21.3843648,24.9585406 C20.9609121,24.9585406 20.6221498,24.6268657 20.6221498,24.212272 L20.6221498,17.0812604 L20.6221498,15.0082919 C20.6221498,13.4328358 19.3094463,12.1475954 17.7003257,12.1475954 C16.0912052,12.1475954 14.7785016,13.4328358 14.7785016,15.0082919 L14.7785016,16.5837479 L14.7785016,24.2537313 C14.7785016,24.668325 14.4397394,25 14.0162866,25 L9.6970684,25 C9.27361564,25 8.93485342,24.668325 8.93485342,24.2537313 L8.93485342,8.70646766 C8.93485342,8.29187396 9.27361564,7.960199 9.6970684,7.960199 L13.5504886,7.960199 C13.9739414,7.960199 14.3127036,8.29187396 14.3127036,8.70646766 L14.2703583,10.4063018 C14.990228,8.70646766 16.8534202,7.50414594 18.8436482,7.50414594 L20.1563518,7.50414594 C23.2899023,7.50414594 25.8729642,10.0331675 25.8729642,13.1011609 L26,24.212272 Z" id="Path"></path>
                </g>
            </g>
        </g>
    </g>
</svg>