<?xml version="1.0" encoding="UTF-8"?>
<svg width="28px" height="23px" viewBox="0 0 28 23" version="1.1" xmlns="http://www.w3.org/2000/svg" xmlns:xlink="http://www.w3.org/1999/xlink">
    <title>Path</title>
    <g id="bank-switching-journey---desktop" stroke="none" stroke-width="1" fill="none" fill-rule="evenodd">
        <g id="SWITCHING-JOURNEY---active-user-Copy-78" transform="translate(-590.000000, -984.000000)" fill="#153F45">
            <g id="Group-9" transform="translate(520.000000, 982.000000)">
                <path d="M84.0631947,9.31194444 C84.0631947,9.31194444 80.9950597,9.48149629 77.2815974,7.46948105 C73.568135,5.4574658 72.5039111,3.53587822 72.5039111,3.53587822 C72.5039111,3.53587822 71.3264718,4.96011372 71.75669,7.28862574 C72.1755867,9.61713776 74.1228901,10.9283387 74.1228901,10.9283387 C74.1228901,10.9283387 73.6700288,10.9396422 72.8662001,10.7587869 C72.0623713,10.5666281 71.6321531,10.2953451 71.6321531,10.2953451 C71.6321531,10.2953451 71.7227254,12.4995191 72.9001647,13.8446305 C74.077604,15.1897418 76.0928366,15.7549146 76.0928366,15.7549146 C76.0928366,15.7549146 75.8211198,15.9583768 75.0399341,15.9922872 C74.2587485,16.0261975 73.6134212,15.9018595 73.6134212,15.9018595 C73.6134212,15.9018595 74.077604,17.6312884 75.6286538,18.637296 C77.1797036,19.6320001 78.8552902,19.7450347 78.8552902,19.7450347 C78.8552902,19.7450347 77.0438452,21.1240564 75.2890078,21.6553188 C73.5341704,22.1865813 70.5,21.9944225 70.5,21.9944225 C70.5,21.9944225 78.957184,27.7139715 88.1842322,21.8700845 C95.7923014,16.4896393 95.2262248,7.98944004 95.2262248,7.98944004 C95.2262248,7.98944004 96.5621655,6.80257712 96.935776,6.40695614 C97.3093866,6.01133517 98,5.0957552 98,5.0957552 C98,5.0957552 97.3999588,5.38964507 96.5168794,5.66092802 C95.6337999,5.93221097 94.8526142,5.98872826 94.8526142,5.98872826 C94.8526142,5.98872826 96.1093042,4.97141718 96.5395224,4.33842362 C96.9697406,3.70543006 97.1848497,2.95940194 97.1848497,2.95940194 C97.1848497,2.95940194 95.8941951,3.60369895 95.2488678,3.82976808 C94.6035406,4.05583721 93.5959242,4.29320979 93.5959242,4.29320979 C93.5959242,4.29320979 91.5806916,1.43343532 87.3351173,2.93679503 C83.0442569,4.45145818 84.0631947,9.31194444 84.0631947,9.31194444 Z" id="Path"></path>
            </g>
        </g>
    </g>
</svg>