<?xml version="1.0" encoding="UTF-8"?>
<svg width="32px" height="32px" viewBox="0 0 32 32" version="1.1" xmlns="http://www.w3.org/2000/svg" xmlns:xlink="http://www.w3.org/1999/xlink">
    <title>Add Button</title>
    <g id="dashboard---desktop" stroke="none" stroke-width="1" fill="none" fill-rule="evenodd">
        <g id="PROFILE---ACTIVE-USER-Copy-12" transform="translate(-1489.000000, -184.000000)">
            <g id="Add-Button" transform="translate(1489.000000, 184.000000)">
                <path d="M16,0 C24.836556,-1.623249e-15 32,7.163444 32,16 C32,24.836556 24.836556,32 16,32 C7.163444,32 1.082166e-15,24.836556 0,16 C-1.082166e-15,7.163444 7.163444,1.623249e-15 16,0 Z" id="Bg" fill="#EC3793"></path>
                <g id="Plus-Icon" transform="translate(6.400000, 6.400000)">
                    <rect id="Rectangle" x="0" y="0" width="19.2" height="19.2"></rect>
                    <path d="M9.6,3.2 C10.0418278,3.2 10.4,3.5581722 10.4,4 L10.4,8.8 L15.2,8.8 C15.6418278,8.8 16,9.1581722 16,9.6 C16,10.0418278 15.6418278,10.4 15.2,10.4 L10.399,10.4 L10.4,15.2 C10.4,15.6418278 10.0418278,16 9.6,16 C9.1581722,16 8.8,15.6418278 8.8,15.2 L8.799,10.4 L4,10.4 C3.5581722,10.4 3.2,10.0418278 3.2,9.6 C3.2,9.1581722 3.5581722,8.8 4,8.8 L8.8,8.8 L8.8,4 C8.8,3.5581722 9.1581722,3.2 9.6,3.2 Z" id="Combined-Shape" fill="#FFFFFF"></path>
                </g>
            </g>
        </g>
    </g>
</svg>