<?xml version="1.0" encoding="UTF-8"?>
<svg width="31px" height="31px" viewBox="0 0 31 31" version="1.1" xmlns="http://www.w3.org/2000/svg" xmlns:xlink="http://www.w3.org/1999/xlink">
    <title>points icon copy</title>
    <g id="dashboard---desktop" stroke="none" stroke-width="1" fill="none" fill-rule="evenodd" stroke-linecap="round" stroke-linejoin="round">
        <g id="PROFILE---ACTIVE-USER-Copy-15" transform="translate(-1233.000000, -60.000000)" stroke="#EC3793" stroke-width="2">
            <g id="points-icon-copy" transform="translate(1234.000000, 61.000000)">
                <path d="M12.0886008,9.77266911 L14.0639197,5.60933186 C14.4499016,4.79373504 15.5624375,4.79847689 15.9484193,5.6140737 L17.9101153,9.78215279 C18.064508,10.104598 18.3596706,10.3322065 18.7002428,10.3843667 L23.1004359,11.0577083 C23.9632189,11.1904799 24.3037911,12.295329 23.6816792,12.9307359 L20.4939232,16.1646721 C20.2441702,16.4159897 20.1306462,16.7811115 20.1896787,17.1367497 L20.9343966,21.717369 C21.0797074,22.6135771 20.1805968,23.2964024 19.4086331,22.8696366 L15.4761592,20.7026148 C15.1719147,20.5319085 14.8040967,20.5319085 14.4998522,20.7026148 L10.5582963,22.8554111 C9.78633265,23.277435 8.887222,22.5946098 9.03707377,21.6984016 L9.79541458,17.1225242 C9.8544471,16.766886 9.74092302,16.4017642 9.49571103,16.1504465 L6.31703699,12.9022848 C5.69492507,12.266878 6.04003825,11.1620288 6.9028212,11.0339991 L11.3030143,10.374883 C11.6390455,10.3179809 11.9342081,10.0951144 12.0886008,9.77266911 Z" id="Path"></path>
                <circle id="Oval" cx="14.5" cy="14.5" r="14.5"></circle>
            </g>
        </g>
    </g>
</svg>