<?xml version="1.0" encoding="UTF-8"?>
<svg width="25px" height="25px" viewBox="0 0 25 25" version="1.1" xmlns="http://www.w3.org/2000/svg" xmlns:xlink="http://www.w3.org/1999/xlink">
    <title>dashboard_teal_filled in</title>
    <g id="bank-switching-jounrey---mobile" stroke="none" stroke-width="1" fill="none" fill-rule="evenodd" stroke-linecap="round" stroke-linejoin="round">
        <g id="Group-247" transform="translate(-189.000000, -18.000000)" fill="#163F45" fill-rule="nonzero" stroke="#153F45" stroke-width="0.95625">
            <g id="dashboard_teal_filled-in" transform="translate(190.000000, 19.000000)">
                <g id="Group" transform="translate(0.000000, 0.048523)">
                    <path d="M8.69102296,6.5021097 L1.05636743,6.5021097 C0.480167015,6.5021097 0,6.01687764 0,5.43459916 L0,1.06751055 C0,0.485232068 0.480167015,0 1.05636743,0 L8.69102296,0 C9.26722338,0 9.7473904,0.485232068 9.7473904,1.06751055 L9.7473904,5.43459916 C9.7473904,6.01687764 9.26722338,6.5021097 8.69102296,6.5021097 Z" id="Path"></path>
                    <path d="M8.69102296,22.9514768 L1.05636743,22.9514768 C0.480167015,22.9514768 0,22.4662447 0,21.8839662 L0,11.2088608 C0,10.6265823 0.480167015,10.1413502 1.05636743,10.1413502 L8.69102296,10.1413502 C9.26722338,10.1413502 9.7473904,10.6265823 9.7473904,11.2088608 L9.7473904,21.8839662 C9.7473904,22.4662447 9.26722338,22.9514768 8.69102296,22.9514768 Z" id="Path"></path>
                </g>
                <g id="Group" transform="translate(13.249569, 0.000000)">
                    <path d="M1.05940782,16.4493671 L8.69406335,16.4493671 C9.27026377,16.4493671 9.75043079,16.9345992 9.75043079,17.5168776 L9.75043079,21.8839662 C9.75043079,22.4662447 9.27026377,22.9514768 8.69406335,22.9514768 L1.05940782,22.9514768 C0.483207404,22.9514768 0.00304038983,22.4662447 0.00304038983,21.8839662 L0.00304038983,17.5168776 C-0.0449763116,16.9831224 0.483207404,16.4493671 1.05940782,16.4493671 Z" id="Path"></path>
                    <path d="M1.05940782,0 L8.69406335,0 C9.27026377,0 9.75043079,0.485232068 9.75043079,1.06751055 L9.75043079,11.742616 C9.75043079,12.3248945 9.27026377,12.8101266 8.69406335,12.8101266 L1.05940782,12.8101266 C0.483207404,12.8101266 0.00304038983,12.3248945 0.00304038983,11.742616 L0.00304038983,1.06751055 C-0.0449763116,0.485232068 0.483207404,0 1.05940782,0 Z" id="Path"></path>
                </g>
            </g>
        </g>
    </g>
</svg>