<?xml version="1.0" encoding="UTF-8"?>
<svg width="155px" height="173px" viewBox="0 0 155 173" version="1.1" xmlns="http://www.w3.org/2000/svg" xmlns:xlink="http://www.w3.org/1999/xlink">
    <title>globe</title>
    <g id="bank-switching-journey---desktop" stroke="none" stroke-width="1" fill="none" fill-rule="evenodd">
        <g id="SWITCHING-JOURNEY---new-user" transform="translate(-393.000000, -196.000000)" fill-rule="nonzero">
            <g id="globe" transform="translate(393.000000, 196.000000)">
                <polygon id="Path" fill="#ED3794" points="29.9109916 166.886062 15.949552 167.047231 16.9234082 150.493498 29.9109916 149.965458"></polygon>
                <path d="M120.86235,128.918084 C120.86235,128.918084 137.17763,163.728426 139.73347,163.605429 C142.289311,163.484552 154.303038,166.358022 154.749566,168.340823 C154.81123,168.582576 154.815482,168.834933 154.766577,169.080927 C154.715545,169.324801 154.611355,169.555951 154.45826,169.755291 C154.307291,169.952511 154.111669,170.115801 153.888405,170.228195 C153.665141,170.342709 153.418488,170.402087 153.167582,170.406328 C147.566846,170.527205 132.429549,170.60991 131.453567,170.325744 C130.479711,170.041578 128.125871,168.383236 127.232815,165.711227 C125.406303,160.288744 123.985919,155.105895 122.646335,149.64312 L118.059856,130.862712 L120.860224,128.920204 L120.86235,128.918084 Z" id="Path" fill="#FFFFFF"></path>
                <path d="M140.182125,170.730787 C135.757246,170.730787 131.902221,170.690495 131.374893,170.529326 C129.914109,170.124283 127.96427,168.465941 127.03294,165.793932 C125.408429,160.895248 123.947645,155.797224 122.446461,149.683412 L117.859981,130.903005 C117.859981,130.82242 117.859981,130.741836 117.940782,130.701544 L120.741149,128.759035 L120.90275,128.759035 L121.02395,128.83962 C127.315742,142.237838 137.906958,163.406088 139.69307,163.406088 L139.73347,163.406088 C142.248911,163.325504 154.464639,166.11839 154.953693,168.304772 C155.01323,168.576214 155.015357,168.856139 154.960072,169.127581 C154.904788,169.399023 154.792093,169.657742 154.628366,169.88253 C154.447628,170.098835 154.226491,170.274849 153.975585,170.399967 C153.724678,170.525084 153.448256,170.597186 153.167582,170.612031 C150.407614,170.652323 144.930205,170.732907 140.182125,170.732907 L140.182125,170.730787 Z M118.306509,130.941176 L122.852589,149.560415 C124.313373,155.672106 125.774157,160.772251 127.439068,165.630642 C128.332124,168.383236 130.362763,169.840117 131.49822,170.164575 C132.633676,170.489034 147.286171,170.325744 153.169708,170.204867 C153.607731,170.168817 154.013858,169.967356 154.307291,169.638656 C154.43487,169.458401 154.524176,169.25482 154.566703,169.036394 C154.609229,168.820088 154.604976,168.597421 154.551818,168.383236 C154.186091,166.642188 142.742218,163.80901 139.899324,163.80901 L139.737723,163.80901 C137.139356,163.80901 122.854715,133.69377 120.783676,129.242542 L118.308635,130.943297 L118.306509,130.941176 Z" id="Shape" fill="#02133B"></path>
                <path d="M128.249197,167.776732 C128.249197,167.776732 130.805038,171.50058 133.363005,172.230081 C135.918846,172.959582 142.657165,172.999874 142.737965,172.230081 C142.818766,171.462408 137.543357,169.356611 134.132734,167.819145 L128.249197,167.778853 L128.249197,167.776732 Z" id="Path" fill="#FFFFFF"></path>
                <path d="M139.004141,172.997753 C137.079819,173.023201 135.161875,172.832343 133.280079,172.431542 C130.683838,171.702041 128.206671,168.058778 128.085471,167.897609 C128.070586,167.874282 128.062081,167.848834 128.057828,167.821266 C128.055702,167.793697 128.057828,167.766129 128.064207,167.740681 C128.070586,167.713113 128.085471,167.689786 128.102481,167.668579 C128.119492,167.647373 128.140755,167.630408 128.166271,167.617684 C128.210924,167.592236 128.264082,167.583754 128.315114,167.592236 C128.366145,167.598598 128.415051,167.621925 128.451198,167.657976 C128.451198,167.698268 130.966639,171.341532 133.403405,172.02862 C135.838046,172.715708 142.210637,172.715708 142.535965,172.189789 C142.861292,171.663869 138.761741,170.083991 136.324974,168.99186 L134.051934,168.020606 C134.000902,167.995158 133.962629,167.952745 133.939239,167.90185 C133.915849,167.850955 133.913723,167.791577 133.928607,167.738561 C133.937113,167.710992 133.951997,167.685544 133.971134,167.662217 C133.990271,167.641011 134.01366,167.624046 134.041302,167.611322 C134.068945,167.598598 134.098713,167.594357 134.126355,167.594357 C134.156124,167.594357 134.183766,167.602839 134.211408,167.615563 L136.484448,168.62711 C140.949727,170.569618 143.05904,171.581164 142.93784,172.270373 C142.816639,172.957461 142.857039,172.471834 142.735839,172.552418 C142.614639,172.633003 140.747727,172.997753 139.002015,172.997753 L139.004141,172.997753 Z" id="Path" fill="#02133B"></path>
                <path d="M154.751693,168.544405 L142.737965,168.342944 C142.684807,168.342944 142.631649,168.321737 142.593375,168.283566 C142.555101,168.245394 142.533838,168.194499 142.533838,168.139362 C142.533838,168.084225 142.555101,168.03333 142.593375,167.995158 C142.631649,167.956987 142.682681,167.93578 142.737965,167.93578 L154.751693,168.137241 C154.804851,168.137241 154.858009,168.158448 154.896283,168.196619 C154.934556,168.234791 154.95582,168.285686 154.95582,168.340823 C154.95582,168.39596 154.934556,168.446855 154.896283,168.485027 C154.858009,168.523198 154.806977,168.544405 154.751693,168.544405 Z" id="Path" fill="#02133B"></path>
                <path d="M150.286413,166.116269 L145.984861,165.912688 C145.931703,165.912688 145.878545,165.891481 145.842398,165.85331 C145.804124,165.815138 145.78286,165.764243 145.78286,165.709106 C145.78286,165.653969 145.804124,165.603074 145.842398,165.564902 C145.880671,165.526731 145.931703,165.505524 145.984861,165.505524 L150.326814,165.706985 C150.35233,165.706985 150.377845,165.711227 150.401235,165.72183 C150.424625,165.732433 150.443761,165.747277 150.460772,165.766363 C150.475656,165.785449 150.488414,165.808776 150.492667,165.834224 C150.496919,165.859672 150.496919,165.885119 150.492667,165.908446 C150.492667,165.961462 150.471404,166.014478 150.43313,166.05265 C150.394856,166.090822 150.343824,166.112028 150.28854,166.112028 L150.286413,166.116269 Z" id="Path" fill="#02133B"></path>
                <path d="M153.331309,169.799825 C152.899665,169.81679 152.468021,169.734085 152.074651,169.555951 C151.840756,169.45416 151.636629,169.292991 151.48566,169.087289 C151.334691,168.879466 151.245385,168.635592 151.221996,168.383236 C151.221996,168.33022 151.243259,168.277204 151.281533,168.239032 C151.319807,168.200861 151.370838,168.179654 151.426123,168.179654 C151.481407,168.179654 151.532439,168.200861 151.570713,168.239032 C151.608987,168.277204 151.63025,168.328099 151.63025,168.383236 C151.64726,168.56137 151.713176,168.731021 151.819493,168.873104 C151.927935,169.017308 152.072525,169.127581 152.238378,169.193321 C152.625369,169.341766 153.040002,169.411747 153.454635,169.394782 C153.507793,169.394782 153.560952,169.415989 153.599225,169.45416 C153.637499,169.492332 153.658762,169.543227 153.658762,169.596243 C153.658762,169.649259 153.637499,169.702275 153.599225,169.740447 C153.560952,169.778618 153.50992,169.799825 153.454635,169.799825 L153.333435,169.799825 L153.331309,169.799825 Z" id="Path" fill="#02133B"></path>
                <path d="M151.179469,167.615563 C150.760584,167.609201 150.356582,167.450153 150.044013,167.170228 C149.87178,167.023904 149.733569,166.84365 149.635759,166.642188 C149.537948,166.440727 149.48479,166.220181 149.476284,165.995393 C149.476284,165.874516 149.557085,165.751519 149.637885,165.751519 C149.718685,165.751519 149.882412,165.832103 149.882412,165.9551 C149.882412,166.133234 149.922812,166.309248 150.001486,166.470416 C150.078034,166.631585 150.190729,166.773668 150.32894,166.886062 C150.607488,167.102368 150.951953,167.216883 151.302796,167.210521 C151.383596,167.170228 151.504797,167.250813 151.504797,167.371689 C151.504797,167.428947 151.48566,167.486204 151.449512,167.530738 C151.411239,167.575271 151.360207,167.60496 151.302796,167.615563 L151.181596,167.615563 L151.179469,167.615563 Z" id="Path" fill="#02133B"></path>
                <path d="M139.329469,171.86533 C139.329469,171.86533 138.55974,170.408449 140.060924,170.448741 L139.329469,171.86533 Z" id="Path" fill="#FFFFFF"></path>
                <path d="M139.329469,172.066791 L139.125342,171.986207 C139.084942,171.905623 138.759614,171.135829 139.084942,170.650202 C139.410269,170.164575 139.57187,170.24516 140.099198,170.24516 C140.626526,170.24516 140.260799,170.366036 140.260799,170.486913 C140.260799,170.512361 140.256546,170.537808 140.245914,170.561135 C140.235283,170.584462 140.218272,170.603548 140.199135,170.620513 C140.179998,170.635358 140.156609,170.645961 140.131093,170.652323 C140.105577,170.658685 140.082187,170.656564 140.056671,170.652323 C139.939724,170.637478 139.822776,170.648082 139.710081,170.682012 C139.597386,170.718063 139.495322,170.77532 139.408143,170.853784 C139.357111,171.00647 139.337974,171.167639 139.352858,171.328808 C139.365616,171.487856 139.412395,171.644784 139.488943,171.784746 C139.512333,171.803832 139.529343,171.8314 139.539975,171.861089 C139.54848,171.890778 139.54848,171.922588 139.539975,171.952277 C139.53147,171.981966 139.514459,172.009534 139.491069,172.02862 C139.46768,172.049826 139.440038,172.06255 139.408143,172.066791 L139.327343,172.066791 L139.329469,172.066791 Z" id="Path" fill="#02133B"></path>
                <path d="M3.93582466,141.870966 L7.58884831,165.306184 C7.72068036,166.196854 8.18847152,167.004818 8.89866354,167.560427 C9.60885557,168.118156 10.5040377,168.383236 11.4034725,168.300531 L20.899633,167.409861 L20.0065771,150.775543 L10.1850892,139.037788 C9.75557188,138.522472 9.18784353,138.138636 8.54782018,137.932934 C7.90992315,137.725111 7.22312068,137.701784 6.57246571,137.865073 C5.71130472,138.08562 4.9649652,138.620022 4.47591081,139.360126 C3.98898275,140.102351 3.79548732,140.997262 3.93369834,141.873087 L3.93582466,141.870966 Z" id="Path" fill="#FFFFFF"></path>
                <path d="M11.0802714,168.544405 C10.1808366,168.544405 9.31329661,168.219946 8.63499944,167.632528 C7.95670226,167.045111 7.51230067,166.232905 7.38684758,165.346476 L3.73382394,141.870966 C3.59348659,140.948487 3.80399261,140.006922 4.3206892,139.228646 C4.8373858,138.45037 5.62625179,137.892642 6.53419189,137.661492 C7.225247,137.504564 7.94394432,137.540615 8.61586253,137.761162 C9.28778073,137.981709 9.88740393,138.380389 10.3488161,138.916912 L20.170304,150.654667 C20.1851883,150.671632 20.1958199,150.690718 20.2021989,150.711924 C20.2085778,150.73313 20.2128305,150.754337 20.2107042,150.775543 L21.10376,167.411982 C21.10376,167.458636 21.0888757,167.50529 21.0591072,167.543461 C21.0293387,167.581633 20.9868122,167.60496 20.9421594,167.615563 L11.445999,168.506233 L11.0802714,168.546525 L11.0802714,168.544405 Z M4.13995171,141.830674 L7.75257521,165.306184 C7.89291256,166.145958 8.34794577,166.903027 9.02624295,167.422585 C9.70454012,167.942142 10.5550695,168.181775 11.4055989,168.10119 L20.6997586,167.250813 L19.8067027,150.858248 L10.025615,139.160786 C9.54931851,138.609419 8.90716883,138.229824 8.19697681,138.072896 C7.48465846,137.918089 6.74257159,137.996553 6.07915868,138.297684 C5.41574577,138.598815 4.86928065,139.105649 4.52056361,139.741842 C4.17184656,140.380155 4.03788819,141.111776 4.14207804,141.830674 L4.13995171,141.830674 Z" id="Shape" fill="#163F45"></path>
                <polygon id="Path" fill="#ED3794" points="29.4240636 169.437195 15.462624 169.598364 16.4364801 153.04251 29.4240636 152.51659"></polygon>
                <path d="M122.403934,141.060881 C122.403934,141.060881 132.55075,171.33729 112.216719,170.486913 C91.8826879,169.636535 22.4412174,170.486913 22.4412174,170.486913 L22.1988166,152.798636 L22.1988166,150.247503 C22.1988166,150.247503 68.8312156,132.843392 72.6458399,133.69377 C78.1657755,134.947069 122.403934,141.060881 122.403934,141.060881 L122.403934,141.060881 Z" id="Path" fill="#FFFFFF"></path>
                <path d="M113.069375,170.690495 L112.216719,170.690495 C92.1272151,169.799825 23.1322726,170.650202 22.4412174,170.690495 L22.2796169,170.60991 C22.2796169,170.569618 22.2392167,170.529326 22.2392167,170.489034 L21.9968158,152.841049 L21.9968158,150.249624 C22.0053211,150.20509 22.0244581,150.164798 22.0542266,150.128747 C22.0839951,150.092696 22.1180163,150.065128 22.1605428,150.048163 C24.0678549,149.361075 68.8737421,132.644052 72.6883663,133.534722 C78.0849752,134.747729 121.959533,140.821248 122.406061,140.861541 L122.567661,140.982417 C123.547896,144.184587 124.266594,147.458859 124.719501,150.777664 C125.368029,155.676347 125.491356,162.436955 122.32526,166.644309 C120.337148,169.356611 117.211453,170.692615 113.071501,170.692615 L113.069375,170.690495 Z M79.9518872,169.880409 C93.2626718,169.880409 105.480526,169.960994 112.216719,170.285452 C116.641598,170.486913 119.967168,169.150908 122.038207,166.398315 C127.679343,158.910327 122.727136,142.801928 122.240207,141.262342 C119.60144,140.897592 77.9212483,135.110359 72.6458399,133.895231 C69.0332164,133.085146 25.2011853,149.356834 22.4412174,150.408672 L22.4412174,152.836807 L22.6836183,170.283331 C25.3627858,170.243039 54.6252488,169.878289 79.9497608,169.878289 L79.9518872,169.880409 Z" id="Shape" fill="#163F45"></path>
                <polygon id="Path" fill="#FFFFFF" points="111.000462 107.830417 105.318926 107.830417 105.318926 114.440459 111.000462 114.440459 111.000462 107.830417"></polygon>
                <path d="M111.000462,114.629196 L105.318926,114.629196 C105.265768,114.629196 105.212609,114.60799 105.174336,114.569818 C105.136062,114.531647 105.114799,114.480751 105.114799,114.425614 L105.114799,107.828296 C105.114799,107.77528 105.136062,107.724385 105.174336,107.686213 C105.212609,107.648042 105.263641,107.626835 105.318926,107.626835 L111.000462,107.626835 C111.05362,107.626835 111.106778,107.648042 111.142926,107.686213 C111.181199,107.724385 111.202463,107.77528 111.202463,107.828296 L111.202463,114.425614 C111.202463,114.47863 111.181199,114.531647 111.142926,114.569818 C111.104652,114.60799 111.05362,114.629196 111.000462,114.629196 Z M105.520926,114.224153 L110.796335,114.224153 L110.796335,108.031878 L105.520926,108.031878 L105.520926,114.224153 L105.520926,114.224153 Z" id="Shape" fill="#02133B"></path>
                <polygon id="Path" fill="#163F45" points="114.815086 117.301205 115.544415 118.47392 122.403934 129.685756 119.076238 131.507388 114.083631 118.675381 114.815086 117.299085"></polygon>
                <path d="M93.9133268,126.774114 C95.3294582,123.497722 97.2771705,120.475807 99.6777896,117.829245 C102.680158,114.550732 106.73931,111.433388 110.677261,112.852098 C118.185309,115.481694 124.151772,148.55311 124.151772,148.55311 L89.0440461,137.746317 L93.9133268,126.776235 L93.9133268,126.774114 Z" id="Path" fill="#163F45"></path>
                <path d="M74.1895507,130.254088 C74.1895507,130.254088 67.7765592,127.136744 63.4750069,125.843152 C52.5584625,122.524347 40.8275361,123.860352 46.3474717,118.111291 C46.3474717,118.111291 42.8985751,117.90983 46.428272,115.804032 C46.428272,115.804032 46.2262713,114.711901 47.5233286,114.953654 C63.7982081,117.948001 68.6674887,113.700355 71.548657,115.074531 C73.4963692,116.005493 93.5454728,129.363418 93.5454728,129.363418 L93.9112005,128.877791 C95.1614786,127.215208 96.9688536,126.059458 99.0037451,125.620485 C101.038637,125.181512 103.16496,125.491126 104.991472,126.492069 C106.9647,127.571476 108.438242,129.378263 109.097402,131.524353 C109.756563,133.670443 109.550309,135.990425 108.523295,137.98807 C105.480526,143.89618 100.853646,150.656787 96.307567,147.904194 C88.6783185,143.289676 74.1874244,130.256209 74.1874244,130.256209 L74.1895507,130.254088 Z" id="Path" fill="#FFFFFF"></path>
                <path d="M98.4594063,148.75245 C97.6514034,148.737606 96.8646637,148.500094 96.1863665,148.065362 C88.7591188,143.571721 74.7168789,130.983589 74.0662239,130.417378 C73.4176953,129.851166 67.532032,127.300034 63.3920803,126.046734 C59.8602571,124.952483 56.2901601,124.386271 53.1240645,123.860352 C48.6183852,123.130851 45.3714893,122.604932 44.8441611,121.027174 C44.5592337,120.297673 44.9249614,119.366711 45.9392176,118.27458 C45.4926897,118.193996 44.7612345,117.990414 44.640034,117.504787 C44.5188336,117.01916 45.0461618,116.412656 46.2220187,115.725568 C46.2050081,115.594088 46.217766,115.460488 46.2602925,115.333249 C46.3028189,115.208131 46.3729876,115.091496 46.4644195,114.996067 C46.6132622,114.868829 46.789747,114.777641 46.9811161,114.735228 C47.1724852,114.692815 47.3723596,114.699177 47.5594761,114.752193 C57.9082922,116.654409 63.7110288,115.602571 67.1620518,114.993947 C69.1905643,114.629196 70.5301481,114.387443 71.627331,114.913362 C73.4942429,115.804032 91.4319074,127.745368 93.5029464,129.079252 L93.7453472,128.754794 C95.084931,127.015867 97.0262643,125.838911 99.1908615,125.448713 C101.355459,125.060635 103.585972,125.486884 105.450758,126.651117 C107.315543,127.813229 108.678517,129.626378 109.27814,131.736417 C109.875637,133.846456 109.663004,136.102819 108.682769,138.066534 C106.53093,142.316301 103.203234,147.577615 99.673537,148.550989 C99.2801671,148.676107 98.8697867,148.743968 98.45728,148.75245 L98.4594063,148.75245 Z M47.2001274,115.116944 C47.1193271,115.112703 47.0364005,115.125426 46.9598529,115.152995 C46.8833052,115.180563 46.8131366,115.222976 46.7535995,115.278113 C46.6536623,115.420196 46.6090095,115.591968 46.6323991,115.76374 C46.6323991,115.844324 46.6323991,115.924908 46.5515988,115.965201 C45.0504144,116.85587 45.0100143,117.301205 45.0504144,117.422082 C45.0908146,117.542959 45.86267,117.867417 46.3899982,117.907709 C46.9173264,117.948001 46.5111986,117.948001 46.5515988,118.028586 C46.5643567,118.068878 46.566483,118.111291 46.5601041,118.153703 C46.5537251,118.196116 46.5367145,118.234288 46.5111986,118.270339 C45.4161421,119.404882 45.0100143,120.253139 45.212015,120.902056 C45.6585429,122.278353 48.9862391,122.804272 53.2069911,123.49136 C56.6877826,123.974866 60.1324265,124.691644 63.5154071,125.63745 C67.8169594,126.933162 74.2299508,130.050507 74.270351,130.090799 L74.3107511,130.090799 C74.4723517,130.251968 88.8803192,143.164558 96.3883673,147.738784 C96.8561584,148.027191 97.379234,148.215928 97.9235728,148.292271 C98.4679116,148.368614 99.0250083,148.332563 99.5544628,148.184118 C102.965086,147.212864 106.209855,142.032135 108.321294,137.862953 C109.346182,135.922565 109.560941,133.657719 108.923044,131.558283 C108.285147,129.458847 106.8435,127.696594 104.910672,126.648996 C103.12456,125.66926 101.042889,125.368128 99.0526505,125.800739 C97.0602855,126.23123 95.2933107,127.367894 94.0749274,128.998668 L93.7091997,129.484295 C93.6773049,129.526708 93.6283995,129.556397 93.5752414,129.562759 C93.5220833,129.569121 93.4667989,129.556397 93.4242724,129.524587 C93.2222717,129.403711 73.3751688,116.166662 71.4678567,115.275992 C70.4940006,114.790365 69.194817,115.034239 67.2471047,115.396869 C63.7556816,116.003372 57.9125449,117.057331 47.5233286,115.152995 L47.1980011,115.112703 L47.2001274,115.116944 Z" id="Shape" fill="#02133B"></path>
                <path d="M58.7673269,117.220621 C91.2235277,117.220621 117.534654,90.9797937 117.534654,58.6103105 C117.534654,26.2408272 91.2235277,0 58.7673269,0 C26.3111261,0 0,26.2408272 0,58.6103105 C0,90.9797937 26.3111261,117.220621 58.7673269,117.220621 Z" id="Path" fill="#163F45"></path>
                <path d="M33.1174874,83.544822 C35.1864001,83.1800715 37.4594398,83.9095725 39.4071521,83.0591949 C42.8964488,81.5196087 42.8560487,76.2582952 45.9009438,73.9913287 C47.9294564,72.4941553 50.6894242,72.6956163 53.2069911,72.9797823 C54.4253744,73.1409511 55.6416314,73.2639484 56.6558877,73.9107443 C57.670144,74.5575402 58.7248004,76.0568342 59.3350552,77.3928388 C60.8362396,80.711644 61.608095,84.677245 59.9431837,87.9175863 C59.2542549,89.2535909 58.1974722,90.3457217 57.5085434,91.7220185 C57.0088574,92.7590126 56.7579512,93.8999181 56.7707092,95.0514268 C56.7855934,96.2029356 57.0641418,97.3353585 57.5893437,98.3617494 C58.157072,99.4941724 59.090528,100.548132 59.0501279,101.841723 C59.0501279,103.743939 57.0216153,104.918775 55.2355037,105.605863 C50.6447714,107.281171 45.7393432,107.932208 40.8679363,107.508079 C39.7601218,107.452943 38.6650652,107.234517 37.6210404,106.861284 C36.3835202,106.314158 35.2672004,105.531641 34.3337444,104.554025 C32.4413165,102.706945 31.0825959,100.386963 30.3979197,97.8337095 C29.9917919,96.2559516 29.9109916,94.5954888 29.545264,93.0177309 C29.1795364,91.4399731 28.4098073,90.5493034 28.2864805,89.2535909 C28.0419534,86.6218739 30.7211209,83.9901569 33.115361,83.5469426 L33.1174874,83.544822 Z" id="Path" fill="#7EBC42"></path>
                <path d="M66.5603022,77.6345921 C64.61259,76.0568342 62.9072786,74.0719131 62.2587499,71.6437777 C61.6102213,69.2156423 62.2587499,66.3824643 64.2872625,64.9255831 C66.315775,63.4687018 69.2798699,63.7507473 71.7953105,64.3996638 C74.3107511,65.0464597 76.9091183,65.8968372 79.424559,65.2500413 C80.4792154,64.9658753 81.4530715,64.439956 82.4673278,64.1579106 C83.7516271,63.8270904 85.0827056,63.716817 86.4031524,63.8334523 C87.9872634,63.9543289 89.6096482,64.1982028 90.9492319,65.0082881 C92.2888157,65.8183735 93.585873,67.8414662 94.3577284,69.6228056 C95.1295838,71.4041451 95.939713,74.3581998 95.656912,76.7863352 C95.3719847,79.2144705 93.7495999,82.412399 91.9230881,84.8002422 C90.7068311,86.3801207 89.3268472,87.9175863 87.4599352,88.6852588 C86.1947728,89.1242318 84.861568,89.3426579 83.5219842,89.3320547 C81.0639543,89.3617437 78.6144297,89.1030253 76.2159369,88.5643822 C75.6801034,88.464712 75.1697858,88.2590097 74.7147526,87.9578785 C73.8620969,87.2304982 73.8620969,85.9347858 73.8216967,84.8405344 C73.6600961,81.197271 68.9928162,79.6598054 66.5560496,77.6367127 L66.5603022,77.6345921 Z" id="Path" fill="#7EBC42"></path>
                <path d="M84.2130393,20.6847445 C82.0207999,20.6847445 79.6669598,20.0379486 77.8000479,21.1300794 C75.9331359,22.2222101 75.1208803,25.6237203 73.2539684,27.5259364 C71.3870564,29.4281525 69.0736165,29.6720263 67.814833,31.5339502 C66.5560496,33.3958741 66.8409769,34.5707099 66.8005768,36.1484678 C66.6985133,38.3772628 66.7793135,40.6102991 67.0429776,42.8263702 C67.4087053,45.2142134 68.4229615,47.7250538 70.5344007,48.8171846 C71.9951849,49.5869777 73.7004963,49.5466855 75.3228811,49.3431038 C77.8383217,49.0589378 80.3154885,48.4524341 82.8309291,48.6136029 C85.3463697,48.7747717 88.0255372,50.0301919 88.9993934,52.3374507 C89.4863214,53.4698736 89.5267216,54.7252939 90.0136496,55.8598375 C90.351735,56.5893384 90.8578,57.2276517 91.4935707,57.7196407 C92.1293414,58.2116297 92.8735546,58.5466912 93.6666733,58.6930155 C95.9801132,59.057766 98.5763541,57.7620536 100.687793,58.8138921 C102.799232,59.8657307 103.203234,62.3362789 103.730562,64.5205404 C104.25789,66.7069226 105.476274,69.1753501 107.708913,69.2559345 C109.941553,69.3365189 113.796577,65.7759606 114.528032,63.7910395 C115.744289,60.5125266 114.243105,59.4203958 114.283505,55.9383012 C114.568433,41.3673683 108.034241,25.418018 96.7498422,16.1486907 C93.7878737,13.6802631 93.2584192,16.0278141 91.1087062,17.9703224 C89.220531,19.6901633 86.7646274,20.6550555 84.2087867,20.6826238 L84.2130393,20.6847445 Z" id="Path" fill="#7EBC42"></path>
                <path d="M14.9756959,23.3546331 C21.9564157,13.2349283 33.8893428,6.19227536 46.1858712,6.59731803 C47.3638543,6.63761024 48.5397112,6.75848684 49.5135673,7.36711117 C50.4874234,7.97361485 51.4208794,9.47290892 51.8270072,10.8067929 C53.7343193,16.7976072 51.5016797,23.8402602 46.5111986,27.6446923 C45.212015,28.5756543 43.791631,29.3857396 42.7369746,30.5584548 C41.6886971,31.8032718 41.1082108,33.3725471 41.0933265,34.996959 C41.0784423,36.621371 41.6312864,38.2012495 42.6540479,39.4630316 C43.9936317,41.0004972 45.9817441,41.891167 47.2001274,43.5113376 C48.4185108,45.1293877 48.7013118,47.8819813 48.499311,50.1489479 C48.2973103,52.4159144 47.8911825,54.1166695 46.6727992,55.613843 C44.278559,58.6506027 39.6920794,58.8117715 35.9178553,57.9613939 C32.1436312,57.1110164 28.4502074,56.0188856 25.975167,58.447021 C23.5001265,60.8751564 24.5951831,67.1501368 21.1058863,69.2135217 C19.3197747,70.3056525 16.9659346,69.6991488 15.2606232,68.4840208 C13.5553118,67.2688928 12.379455,65.5299661 10.9994711,63.9903798 C8.36070371,61.1169096 8.0779027,60.4679931 6.49379175,55.4505535 C5.35833504,51.8072901 6.49379175,47.8013969 7.0615201,44.0351363 C8.15657667,36.6680251 10.7145437,29.5044956 14.9756959,23.3525124 L14.9756959,23.3546331 Z" id="Path" fill="#7EBC42"></path>
                <path d="M101.098174,23.9632574 C101.098174,26.3511006 96.7966214,33.8390884 96.7966214,33.8390884 C96.7966214,33.8390884 92.4546689,26.3511006 92.4546689,23.9632574 C92.5588588,22.8923331 93.0585448,21.8977519 93.8580424,21.1746128 C94.6554137,20.4514738 95.6973121,20.0506725 96.7774844,20.0506725 C97.8576567,20.0506725 98.8974289,20.4514738 99.6969265,21.1746128 C100.496424,21.8977519 100.99611,22.8923331 101.1003,23.9632574 L101.098174,23.9632574 Z" id="Path" fill="#ED3794"></path>
                <path d="M96.7966214,26.3913928 C98.0511522,26.3913928 99.0696611,25.3756051 99.0696611,24.1244262 C99.0696611,22.8732473 98.0511522,21.8574597 96.7966214,21.8574597 C95.5420905,21.8574597 94.5235816,22.8732473 94.5235816,24.1244262 C94.5235816,25.3756051 95.5420905,26.3913928 96.7966214,26.3913928 Z" id="Path" fill="#FFFFFF"></path>
                <path d="M34.5378714,41.5285371 C34.5378714,43.8760881 30.2363191,51.4043681 30.2363191,51.4043681 C30.2363191,51.4043681 25.8943667,43.8760881 25.8943667,41.5285371 C25.836956,40.9262747 25.9049983,40.3197711 26.0942411,39.7471977 C26.2856102,39.1746242 26.5939271,38.6465843 27.0000549,38.1991288 C27.4061826,37.7516733 27.9037423,37.3954054 28.4565864,37.1494109 C29.0094305,36.905537 29.6090537,36.7782985 30.2150559,36.7782985 C30.8210581,36.7782985 31.4206813,36.905537 31.9735254,37.1494109 C32.5263695,37.3932848 33.0239291,37.7516733 33.4300569,38.1991288 C33.8361847,38.6465843 34.1466279,39.1746242 34.3358707,39.7471977 C34.5272398,40.3197711 34.5952822,40.9262747 34.5357451,41.5285371 L34.5378714,41.5285371 Z" id="Path" fill="#ED3794"></path>
                <path d="M30.2363191,43.9587932 C31.49085,43.9587932 32.5093589,42.9430055 32.5093589,41.6918266 C32.5093589,40.4406477 31.49085,39.42486 30.2363191,39.42486 C28.9817883,39.42486 27.9632794,40.4406477 27.9632794,41.6918266 C27.9632794,42.9430055 28.9817883,43.9587932 30.2363191,43.9587932 Z" id="Path" fill="#FFFFFF"></path>
                <path d="M46.4303983,14.2485953 C46.4303983,16.6364384 42.1288461,24.1244262 42.1288461,24.1244262 C42.1288461,24.1244262 37.7868936,16.6364384 37.7868936,14.2485953 C37.8910835,13.1776709 38.3907695,12.1830897 39.1902671,11.4599507 C39.9897647,10.7368117 41.0295368,10.3360103 42.1097091,10.3360103 C43.1898814,10.3360103 44.2296536,10.7368117 45.0291512,11.4599507 C45.8286488,12.1830897 46.3283348,13.1776709 46.4325247,14.2485953 L46.4303983,14.2485953 Z" id="Path" fill="#ED3794"></path>
                <path d="M42.1267197,16.6767306 C43.3812506,16.6767306 44.3997595,15.660943 44.3997595,14.4097641 C44.3997595,13.1585851 43.3812506,12.1427975 42.1267197,12.1427975 C40.8721889,12.1427975 39.85368,13.1585851 39.85368,14.4097641 C39.85368,15.660943 40.8721889,16.6767306 42.1267197,16.6767306 Z" id="Path" fill="#FFFFFF"></path>
                <path d="M80.1964144,71.8049465 C80.1964144,74.1927897 75.8948621,81.6807775 75.8948621,81.6807775 C75.8948621,81.6807775 71.5529096,74.1927897 71.5529096,71.8049465 C71.6570995,70.7340222 72.1589118,69.739441 72.9562831,69.016302 C73.7536544,68.293163 74.7955529,67.8923616 75.8757252,67.8923616 C76.9558975,67.8923616 77.9956696,68.293163 78.7951672,69.016302 C79.5946648,69.739441 80.0943508,70.7340222 80.1985407,71.8049465 L80.1964144,71.8049465 Z" id="Path" fill="#ED3794"></path>
                <path d="M75.8948621,74.2352025 C77.1493929,74.2352025 78.1679018,73.2194149 78.1679018,71.968236 C78.1679018,70.717057 77.1493929,69.7012694 75.8948621,69.7012694 C74.6403312,69.7012694 73.6218223,70.717057 73.6218223,71.968236 C73.6218223,73.2194149 74.6403312,74.2352025 75.8948621,74.2352025 Z" id="Path" fill="#FFFFFF"></path>
                <path d="M56.8196146,83.7865752 C56.8196146,86.1744184 52.5180623,93.6624062 52.5180623,93.6624062 C52.5180623,93.6624062 48.1761099,86.1744184 48.1761099,83.7865752 C48.2802997,82.7156509 48.7799857,81.7210697 49.5794833,80.9979307 C50.3789809,80.2747917 51.4187531,79.8739903 52.4989254,79.8739903 C53.5790977,79.8739903 54.6188699,80.2747917 55.4183675,80.9979307 C56.2178651,81.7210697 56.7175511,82.7156509 56.8217409,83.7865752 L56.8196146,83.7865752 Z" id="Path" fill="#ED3794"></path>
                <path d="M52.5180623,86.2168312 C53.7725931,86.2168312 54.7911021,85.2010436 54.7911021,83.9498647 C54.7911021,82.6986858 53.7725931,81.6828981 52.5180623,81.6828981 C51.2635315,81.6828981 50.2450226,82.6986858 50.2450226,83.9498647 C50.2450226,85.2010436 51.2635315,86.2168312 52.5180623,86.2168312 Z" id="Path" fill="#FFFFFF"></path>
                <path d="M44.1169585,92.1249405 C44.1169585,94.5127837 39.8154062,102.000771 39.8154062,102.000771 C39.8154062,102.000771 35.5138539,94.5127837 35.5138539,92.1249405 C35.5138539,90.9882763 35.9667608,89.8961455 36.7747637,89.0924221 C37.5806402,88.2865781 38.6756968,87.8348813 39.8175325,87.8348813 C40.9593682,87.8348813 42.0522984,88.2865781 42.8603013,89.0924221 C43.6661779,89.8961455 44.1212111,90.9882763 44.1212111,92.1249405 L44.1169585,92.1249405 Z" id="Path" fill="#ED3794"></path>
                <path d="M39.8132798,94.5551966 C41.0678107,94.5551966 42.0863196,93.5394089 42.0863196,92.28823 C42.0863196,91.0370511 41.0678107,90.0212634 39.8132798,90.0212634 C38.558749,90.0212634 37.5402401,91.0370511 37.5402401,92.28823 C37.5402401,93.5394089 38.558749,94.5551966 39.8132798,94.5551966 Z" id="Path" fill="#FFFFFF"></path>
                <path d="M113.069375,54.5217122 C113.069375,56.9095554 108.727422,64.3975431 108.727422,64.3975431 C108.727422,64.3975431 104.42587,56.9095554 104.42587,54.5217122 C104.368459,53.9215704 104.436501,53.3129461 104.625744,52.7403727 C104.814987,52.1677993 105.12543,51.6397594 105.531558,51.1923039 C105.939812,50.7448484 106.435245,50.3885805 106.98809,50.142586 C107.54306,49.8987121 108.140557,49.7714736 108.746559,49.7714736 C109.352561,49.7714736 109.950058,49.8987121 110.505028,50.142586 C111.057873,50.3864598 111.555432,50.7448484 111.96156,51.1923039 C112.367688,51.6397594 112.678131,52.1677993 112.867374,52.7403727 C113.058743,53.3129461 113.126785,53.9215704 113.067248,54.5217122 L113.069375,54.5217122 Z" id="Path" fill="#ED3794"></path>
                <path d="M108.727422,56.9498476 C109.981953,56.9498476 111.000462,55.9340599 111.000462,54.682881 C111.000462,53.4317021 109.981953,52.4159144 108.727422,52.4159144 C107.472891,52.4159144 106.454382,53.4317021 106.454382,54.682881 C106.454382,55.9340599 107.472891,56.9498476 108.727422,56.9498476 Z" id="Path" fill="#FFFFFF"></path>
                <path d="M97.8108776,45.9818859 C97.8108776,48.369729 93.5093253,55.8577168 93.5093253,55.8577168 C93.5093253,55.8577168 89.1673729,48.369729 89.1673729,45.9818859 C89.2715627,44.9109615 89.7712488,43.9163803 90.5707464,43.1932413 C91.370244,42.4701023 92.4100161,42.0693009 93.4901884,42.0693009 C94.5703607,42.0693009 95.6101329,42.4701023 96.4096305,43.1932413 C97.2091281,43.9163803 97.7088141,44.9109615 97.813004,45.9818859 L97.8108776,45.9818859 Z" id="Path" fill="#ED3794"></path>
                <path d="M93.5093253,48.4100212 C94.7638562,48.4100212 95.7823651,47.3942336 95.7823651,46.1430547 C95.7823651,44.8918758 94.7638562,43.8760881 93.5093253,43.8760881 C92.2547945,43.8760881 91.2362856,44.8918758 91.2362856,46.1430547 C91.2362856,47.3942336 92.2547945,48.4100212 93.5093253,48.4100212 Z" id="Path" fill="#FFFFFF"></path>
                <path d="M20.6976322,55.696548 C20.6976322,58.0843912 16.3960799,65.572379 16.3960799,65.572379 C16.3960799,65.572379 12.0541275,58.0843912 12.0541275,55.696548 C12.1583174,54.6256237 12.6580034,53.6310425 13.457501,52.9079034 C14.2569986,52.1847644 15.2967707,51.7839631 16.376943,51.7839631 C17.4571153,51.7839631 18.4968875,52.1847644 19.2963851,52.9079034 C20.0958827,53.6310425 20.5955687,54.6256237 20.6997586,55.696548 L20.6976322,55.696548 Z" id="Path" fill="#ED3794"></path>
                <path d="M16.3960799,58.1246834 C17.6506108,58.1246834 18.6691197,57.1088957 18.6691197,55.8577168 C18.6691197,54.6065379 17.6506108,53.5907503 16.3960799,53.5907503 C15.1415491,53.5907503 14.1230402,54.6065379 14.1230402,55.8577168 C14.1230402,57.1088957 15.1415491,58.1246834 16.3960799,58.1246834 Z" id="Path" fill="#FFFFFF"></path>
                <path d="M79.5074856,30.3167016 C79.5074856,34.0405494 72.771293,45.7783042 72.771293,45.7783042 C72.771293,45.7783042 65.9925739,34.0405494 65.9925739,30.3167016 C66.1244059,28.6201878 66.894135,27.0339474 68.1465395,25.8781974 C69.398944,24.7224473 71.042592,24.0798927 72.7500297,24.0798927 C74.4574674,24.0798927 76.1011154,24.7224473 77.3535199,25.8781974 C78.6059244,27.0339474 79.3756535,28.6201878 79.5074856,30.3167016 L79.5074856,30.3167016 Z" id="Path" fill="#ED3794"></path>
                <path d="M72.7691666,34.1635466 C74.7423948,34.1635466 76.3392637,32.5688236 76.3392637,30.6008676 C76.3392637,28.6329116 74.7402685,27.0381887 72.7691666,27.0381887 C70.7980648,27.0381887 69.1969433,28.6329116 69.1969433,30.6008676 C69.1969433,32.5688236 70.7959385,34.1635466 72.7691666,34.1635466 Z" id="Path" fill="#FFFFFF"></path>
                <path d="M22.241343,23.5985069 C22.241343,25.9863501 17.9397908,33.4743379 17.9397908,33.4743379 C17.9397908,33.4743379 13.5978383,25.9863501 13.5978383,23.5985069 C13.7020282,22.5275826 14.2017142,21.5330014 15.0012118,20.8098624 C15.8007094,20.0867234 16.8404815,19.685922 17.9206538,19.685922 C19.0008261,19.685922 20.0405983,20.0867234 20.8400959,20.8098624 C21.6395935,21.5330014 22.1392795,22.5275826 22.2434694,23.5985069 L22.241343,23.5985069 Z" id="Path" fill="#ED3794"></path>
                <path d="M17.9376644,26.0266423 C19.1921952,26.0266423 20.2107042,25.0108547 20.2107042,23.7596757 C20.2107042,22.5084968 19.1921952,21.4927092 17.9376644,21.4927092 C16.6831336,21.4927092 15.6646247,22.5084968 15.6646247,23.7596757 C15.6646247,25.0108547 16.6831336,26.0266423 17.9376644,26.0266423 Z" id="Path" fill="#FFFFFF"></path>
                <path d="M62.0142227,123.412896 C61.6888953,123.211435 50.3258229,113.051438 51.1784786,111.634849 C52.0311343,110.21826 59.0522542,112.080184 64.895391,118.111291 C64.895391,118.111291 67.9806863,115.804032 73.5006219,118.677502 L62.0142227,123.412896 Z" id="Path" fill="#FFFFFF"></path>
                <path d="M62.0142227,123.616478 C61.9738226,123.616478 61.9334225,123.616478 61.9334225,123.576186 C61.9334225,123.535894 58.807727,120.904176 56.0073591,118.111291 C50.366223,112.565811 50.8531511,111.796018 51.0147517,111.513973 C51.1465837,111.350683 51.3145633,111.219203 51.503806,111.128016 C51.6930488,111.036828 51.9014285,110.990174 52.1119345,110.988053 C54.3445741,110.7463 59.94531,112.769393 64.9379175,117.869537 C65.6268462,117.424203 68.6313412,115.927029 73.6239487,118.516333 C73.6622225,118.541781 73.6941173,118.577832 73.7068753,118.622365 C73.7217595,118.666899 73.7196332,118.715674 73.7047489,118.758087 C73.6239487,118.878963 73.5027482,118.919255 73.4219479,118.838671 C68.0636129,116.086077 65.0612442,118.270339 65.0208441,118.270339 C64.9804439,118.270339 64.8188433,118.350923 64.7784432,118.270339 C60.0707631,113.414068 54.4296271,111.147102 52.1565873,111.388855 C51.7504596,111.429147 51.4655322,111.550024 51.3847319,111.713313 C51.3039316,111.874482 51.1423311,112.765152 56.2540126,117.784712 C59.0947807,120.577598 61.9759489,123.12661 62.1396758,123.249607 C62.1822023,123.281416 62.2119708,123.330191 62.2183498,123.383207 C62.2268551,123.436223 62.2119708,123.49136 62.180076,123.533773 C62.1609391,123.559221 62.1375495,123.578306 62.107781,123.593151 C62.0801388,123.605875 62.0482439,123.614357 62.0163491,123.614357 L62.0142227,123.616478 Z" id="Path" fill="#02133B"></path>
                <path d="M54.5465749,118.798379 L54.5061747,118.798379 L46.4707985,118.312752 C46.3899982,118.312752 46.3091979,118.191875 46.3091979,118.111291 C46.3091979,118.058275 46.3304611,118.005259 46.368735,117.967087 C46.4070088,117.928915 46.4580406,117.907709 46.513325,117.907709 L54.5487012,118.393336 C54.6061119,118.401819 54.6571437,118.431508 54.6954175,118.476041 C54.7336913,118.520575 54.7528282,118.577832 54.7528282,118.635089 C54.7336913,118.675381 54.7060491,118.711432 54.6720279,118.741121 C54.6358805,118.76869 54.5954803,118.787776 54.5508275,118.796258 L54.5465749,118.798379 Z" id="Path" fill="#02133B"></path>
                <path d="M2.71956766,144.057349 L6.33219116,167.492566 C6.47252851,168.387477 6.94882496,169.195442 7.66539595,169.75105 C8.38196695,170.308779 9.28352808,170.571739 10.1872155,170.489034 L19.683376,169.598364 L18.7903201,152.961925 L8.92843207,141.224171 C8.50742003,140.708854 7.94819697,140.325018 7.31455259,140.117195 C6.68090821,139.909372 6.00261103,139.886045 5.35620871,140.051455 C4.49504772,140.272002 3.7487082,140.806404 3.25965381,141.546508 C2.77272575,142.288733 2.57923032,143.183644 2.71744134,144.059469 L2.71956766,144.057349 Z" id="Path" fill="#FFFFFF"></path>
                <path d="M9.86188805,170.690495 C8.96457957,170.690495 8.09703961,170.376639 7.41236347,169.797704 C6.72768732,169.218769 6.27265411,168.417166 6.12806412,167.532858 L2.51544061,144.057349 C2.36659797,143.132749 2.57072502,142.186942 3.08954794,141.406546 C3.60837086,140.626149 4.40361582,140.070541 5.31580857,139.847874 C6.00048471,139.690946 6.71492938,139.724876 7.38046861,139.945423 C8.04600785,140.16597 8.63712576,140.566771 9.09003265,141.101173 L18.9519207,152.838928 C18.966805,152.855893 18.9774366,152.874979 18.9838156,152.896185 C18.9901945,152.917392 18.9944472,152.938598 18.9923208,152.961925 L19.8853767,169.598364 C19.8853767,169.65138 19.8641135,169.704396 19.8258396,169.740447 C19.7875658,169.778618 19.736534,169.799825 19.6812496,169.799825 L10.1850892,170.690495 L9.85976173,170.690495 L9.86188805,170.690495 Z M2.92156839,144.017056 L6.53419189,167.452274 C6.65539233,168.296289 7.0976676,169.061841 7.77171212,169.589881 C8.44363033,170.117921 9.2941597,170.366036 10.1468154,170.285452 L19.4813752,169.435074 L18.5883194,153.040389 L8.80723163,141.342926 C8.39685121,140.863661 7.86101771,140.507393 7.25714186,140.314415 C6.65539233,140.121437 6.01111633,140.10023 5.39660886,140.250796 C4.58010066,140.443774 3.86990864,140.942125 3.40849645,141.641937 C2.94921059,142.341749 2.77485207,143.192127 2.92156839,144.014936 L2.92156839,144.017056 Z" id="Shape" fill="#163F45"></path>
                <path d="M105.480526,109.003132 C101.867903,106.939747 102.395231,104.267738 104.060142,102.000771 C104.060142,101.839603 104.50667,97.8740017 105.318926,100.463306 C106.169455,99.5599123 107.122048,98.7583095 108.159694,98.0754627 C108.682769,97.6640581 109.282393,97.3650475 109.922416,97.1911549 C110.564566,97.0172622 111.234357,96.9748494 111.893518,97.0639163 C113.72003,97.3459618 114.166557,98.5610898 115.221214,100.908641 C116.601198,104.066277 113.354302,113.577358 105.480526,109.003132 Z" id="Path" fill="#FFFFFF"></path>
                <path d="M109.418477,110.419721 C107.983209,110.375188 106.584088,109.957421 105.359326,109.206714 C103.858141,108.316044 102.924685,107.223913 102.680158,106.008785 C102.435631,104.793657 102.801359,103.417361 103.856015,101.920187 C103.936815,100.948933 104.181343,99.4517595 104.749071,99.4114673 C105.318926,99.3711751 105.195599,99.5726361 105.3976,100.098555 C106.216234,99.2990733 107.098658,98.5674517 108.036367,97.9121732 C108.580706,97.4816829 109.205845,97.1678278 109.875637,96.9854526 C110.545429,96.805198 111.244989,96.7606645 111.931792,96.8603347 C113.758303,97.1423801 114.285632,98.3172159 115.219088,100.461185 L115.380688,100.825936 C116.273744,102.808736 115.421088,106.897334 113.026848,109.043424 C112.040234,109.940456 110.749556,110.432445 109.414225,110.419721 L109.418477,110.419721 Z M104.751197,99.8143893 C104.589597,99.8949737 104.34507,101.06981 104.264269,102.000771 L104.264269,102.121648 C103.250013,103.497945 102.843885,104.793657 103.088412,105.92608 C103.33294,107.060624 104.185595,107.989465 105.603853,108.841963 C109.176076,110.905348 111.489516,109.893802 112.8291,108.721087 C115.021339,106.778578 115.871869,102.85327 115.06174,100.989225 L114.900139,100.624475 C113.966683,98.5610898 113.520155,97.5071306 111.93817,97.2653774 C111.3024,97.1720691 110.651745,97.2102407 110.030858,97.3777714 C109.409972,97.5453021 108.829486,97.8358301 108.325547,98.2366315 C107.300659,98.9364434 106.350193,99.7359256 105.484779,100.624475 C105.444379,100.664767 105.363578,100.705059 105.323178,100.664767 C105.282778,100.624475 105.201978,100.624475 105.161578,100.54389 C105.121178,100.463306 104.75545,99.8143893 104.75545,99.8143893 L104.751197,99.8143893 Z" id="Shape" fill="#02133B"></path>
                <path d="M107.998093,98.1157549 C107.998093,98.1157549 105.238125,113.25502 116.033469,112.039892 C115.463615,111.482163 115.138287,110.725094 115.121277,109.929853 C115.106392,109.134612 115.404078,108.36694 115.950543,107.788004 C117.494254,106.046957 119.116638,103.497945 117.736654,101.06981 C115.382814,96.9409191 112.420846,95.2019924 107.995967,98.1157549 L107.998093,98.1157549 Z" id="Path" fill="#02133B"></path>
                <path d="M105.197725,111.513973 L109.418477,110.21826 C109.418477,110.21826 105.523053,109.611757 105.318926,109.003132 L105.197725,111.513973 L105.197725,111.513973 Z" id="Path" fill="#02133B"></path>
                <path d="M54.0192467,112.120476 C54.0192467,112.120476 56.171086,114.711901 53.370718,115.074531 L54.0192467,112.120476 Z" id="Path" fill="#FFFFFF"></path>
                <path d="M53.3685917,115.278113 C53.3218126,115.278113 53.2750335,115.263268 53.2367596,115.233579 C53.2006121,115.20389 53.1750963,115.161477 53.1644646,115.116944 C53.1495804,115.091496 53.1410751,115.061807 53.1410751,115.029997 C53.1410751,114.998188 53.1517067,114.970619 53.1687173,114.945172 C53.1857279,114.919724 53.2091174,114.900638 53.2367596,114.887914 C53.2644018,114.875191 53.2962967,114.870949 53.3260652,114.875191 C54.0171203,114.794606 54.4211218,114.550732 54.5444485,114.188102 C54.665649,113.823352 54.1383208,112.567932 53.8555198,112.245594 C53.8321302,112.201061 53.8214986,112.148045 53.8300039,112.097149 C53.8363828,112.046254 53.8597724,111.9996 53.8959199,111.961428 C53.9384464,111.929618 53.9937308,111.916895 54.0468889,111.923257 C54.1000469,111.929618 54.1489524,111.959307 54.1808472,112.00172 C54.2212474,112.042013 55.3163039,113.378017 54.9123025,114.349271 C54.5061747,115.320525 54.2233737,115.157236 53.370718,115.280233 L53.3685917,115.278113 Z" id="Path" fill="#02133B"></path>
                <path d="M47.1193271,121.875431 C47.1193271,121.875431 47.5254549,120.823592 45.1312147,120.134383 L47.1193271,121.875431 Z" id="Path" fill="#FFFFFF"></path>
                <path d="M47.1193271,122.079012 L47.0385268,122.079012 C47.0108846,122.076892 46.9853688,122.066288 46.9641055,122.051444 C46.9428423,122.036599 46.9237054,122.015393 46.9109474,121.989945 C46.8981895,121.966618 46.8939369,121.93905 46.8939369,121.913602 C46.8939369,121.886034 46.9024421,121.860586 46.9152001,121.837259 C46.9364633,121.684573 46.9088211,121.527645 46.8343998,121.391924 C46.6727992,121.067466 46.2666714,120.664544 45.0886883,120.340086 C45.0610461,120.337965 45.0355302,120.327362 45.0142669,120.310397 C44.9930037,120.295552 44.9738668,120.274346 44.9611089,120.251019 C44.9483509,120.225571 44.9440983,120.200123 44.9440983,120.172555 C44.9440983,120.144987 44.9526036,120.119539 44.9674878,120.096212 C44.9674878,119.975335 45.0886883,119.935043 45.2098887,119.935043 C46.2645451,120.259501 46.9556002,120.664544 47.1980011,121.190463 C47.2681698,121.304978 47.3128226,121.432216 47.3277068,121.565817 C47.3425911,121.699417 47.3255805,121.833018 47.2809277,121.958136 C47.2809277,122.03872 47.2001274,122.079012 47.1193271,122.079012 Z" id="Path" fill="#02133B"></path>
                <path d="M109.17395,106.859163 C110.383828,106.859163 111.366189,105.879426 111.366189,104.672781 C111.366189,103.466135 110.383828,102.486399 109.17395,102.486399 C107.964072,102.486399 106.981711,103.466135 106.981711,104.672781 C106.981711,105.879426 107.961946,106.859163 109.17395,106.859163 Z" id="Path" fill="#FFFFFF"></path>
                <path d="M108.321294,105.279284 C108.289399,105.283526 108.255378,105.279284 108.227736,105.26444 C108.197968,105.249595 108.174578,105.226268 108.159694,105.1987 C108.125673,105.156287 108.112915,105.10115 108.12142,105.048134 C108.129925,104.995118 108.157567,104.946344 108.200094,104.914534 L110.228606,103.457653 C110.24987,103.442808 110.273259,103.430084 110.300901,103.423722 C110.326417,103.417361 110.35406,103.41524 110.379575,103.419481 C110.405091,103.421602 110.430607,103.432205 110.453997,103.444929 C110.477386,103.457653 110.496523,103.476738 110.513534,103.497945 C110.528418,103.519151 110.541176,103.542478 110.547555,103.570047 C110.553934,103.595494 110.55606,103.623063 110.551808,103.648511 C110.547555,103.673958 110.53905,103.699406 110.526292,103.722733 C110.511407,103.74606 110.494397,103.765146 110.473134,103.782111 L108.442495,105.238992 L108.321294,105.279284 L108.321294,105.279284 Z" id="Path" fill="#02133B"></path>
                <path d="M109.865005,105.442574 C109.743805,105.442574 109.703405,105.361989 109.663004,105.281405 L109.337677,104.269859 C109.297277,104.189274 109.378077,104.068398 109.458877,104.028105 C109.514162,104.01114 109.571573,104.015382 109.622604,104.036588 C109.673636,104.059915 109.716162,104.098087 109.741678,104.148982 L110.026606,105.160528 C110.067006,105.281405 110.026606,105.404402 109.905405,105.404402 C109.905405,105.415006 109.901153,105.425609 109.894774,105.434091 C109.886268,105.440453 109.875637,105.444695 109.865005,105.444695 L109.865005,105.442574 Z" id="Path" fill="#02133B"></path>
                <path d="M106.131181,101.79931 C106.309792,101.79931 106.454382,101.655107 106.454382,101.474852 C106.454382,101.294598 106.309792,101.150394 106.131181,101.150394 C105.95257,101.150394 105.805854,101.296718 105.805854,101.474852 C105.805854,101.652986 105.950444,101.79931 106.131181,101.79931 Z" id="Path" fill="#02133B"></path>
                <path d="M103.207486,103.417361 C103.207486,103.417361 102.882159,105.885788 106.131181,105.684327 L103.207486,103.417361 Z" id="Path" fill="#FFFFFF"></path>
                <path d="M105.765454,105.887909 C104.751197,105.887909 104.019742,105.644035 103.573214,105.118116 C103.364834,104.882724 103.207486,104.60492 103.109676,104.30591 C103.011865,104.006899 102.975717,103.690923 103.005486,103.377068 C103.045886,103.256192 103.126686,103.173487 103.247887,103.2159 C103.369087,103.256192 103.452014,103.296484 103.409487,103.417361 C103.37334,103.928435 103.532814,104.435269 103.856015,104.83395 C104.302543,105.319577 105.072272,105.523158 106.129055,105.480745 C106.250255,105.440453 106.331056,105.521038 106.331056,105.641914 C106.331056,105.762791 106.250255,105.843375 106.169455,105.885788 L105.763327,105.885788 L105.765454,105.887909 Z" id="Path" fill="#02133B"></path>
                <path d="M117.373053,111.47368 C117.090252,111.486404 116.809577,111.443991 116.543787,111.346442 C116.277997,111.248892 116.035596,111.100447 115.829342,110.907469 C115.221214,110.341257 115.017087,109.410296 115.221214,108.074291 C115.748542,104.431028 114.936287,102.810857 114.936287,102.810857 C114.936287,102.810857 114.895886,102.569104 115.017087,102.528811 C115.040476,102.513967 115.065992,102.505484 115.093634,102.501243 C115.121277,102.497002 115.148919,102.501243 115.174435,102.507605 C115.202077,102.513967 115.225466,102.526691 115.248856,102.545777 C115.270119,102.562742 115.28713,102.583948 115.299888,102.609396 C115.340288,102.68998 116.192944,104.350443 115.623089,108.154875 C115.421088,109.32759 115.582689,110.137676 116.069617,110.623303 C116.556545,111.10893 117.815328,111.028346 117.855729,111.028346 C117.896129,111.028346 118.057729,111.068638 118.098129,111.189514 C118.098129,111.24041 118.078993,111.291305 118.05135,111.333718 C118.023708,111.376131 117.983308,111.410061 117.936529,111.433388 L117.368801,111.47368 L117.373053,111.47368 Z" id="Path" fill="#02133B"></path>
                <path d="M12.1753279,150.694959 L12.0137274,150.614374 C11.9967168,150.593168 11.9860852,150.56772 11.9797062,150.542273 C11.9733272,150.516825 11.9712009,150.491377 11.9754535,150.463809 C11.9797062,150.438361 11.9882115,150.412913 12.0009694,150.389586 C12.0137274,150.366259 12.0328643,150.347173 12.0541275,150.330208 L14.7736952,148.307116 C14.8162216,148.273185 14.871506,148.260461 14.9246641,148.268944 C14.9778222,148.277427 15.0267277,148.304995 15.0586225,148.347408 C15.0820121,148.391941 15.0926437,148.444957 15.0841384,148.495853 C15.0777594,148.546748 15.0543699,148.593402 15.0182224,148.631574 L12.2986547,150.654667 L12.1774543,150.694959 L12.1753279,150.694959 Z" id="Path" fill="#02133B"></path>
                <path d="M13.2299844,151.910087 C13.1980895,151.914328 13.1661947,151.910087 13.1364261,151.895242 C13.1066576,151.880398 13.083268,151.857071 13.0683838,151.829502 C13.0364889,151.78709 13.0216047,151.731953 13.03011,151.678937 C13.0386153,151.625921 13.0662575,151.577146 13.1087839,151.545336 L15.8687517,149.602828 C15.9176572,149.57526 15.9750679,149.568898 16.028226,149.585863 C16.0813841,149.600707 16.1260369,149.636758 16.1536791,149.685533 C16.1813213,149.734308 16.1877002,149.791565 16.172816,149.844581 C16.1579317,149.897597 16.1217842,149.942131 16.0728788,149.969699 L13.3533111,151.871915 L13.2321107,151.912207 L13.2299844,151.910087 Z" id="Path" fill="#02133B"></path>
                <path d="M14.4887678,153.243971 L14.2867671,153.163386 C14.2718828,153.140059 14.2633775,153.112491 14.2591249,153.087043 C14.2548723,153.059475 14.2591249,153.031907 14.2655039,153.006459 C14.2740092,152.97889 14.2867671,152.955563 14.3037777,152.932236 C14.3207883,152.91103 14.3420515,152.894065 14.3675674,152.881341 L17.1275352,150.979125 C17.1700617,150.947315 17.2253461,150.932471 17.2785042,150.940953 C17.3316623,150.949436 17.3805677,150.977004 17.4124625,151.019417 C17.4443574,151.06183 17.4592417,151.116967 17.4507364,151.169983 C17.4422311,151.222999 17.4145889,151.271773 17.3720624,151.303583 L14.5716944,153.205799 L14.4908942,153.246091 L14.4887678,153.243971 Z" id="Path" fill="#02133B"></path>
                <path d="M16.5172804,148.712158 L16.3556798,148.631574 C16.3386692,148.610367 16.3280376,148.58704 16.3216586,148.559472 C16.3152797,148.534024 16.3131533,148.508577 16.317406,148.481008 C16.3216586,148.455561 16.3301639,148.430113 16.3429219,148.406786 C16.3556798,148.383459 16.3748167,148.364373 16.3960799,148.347408 L17.3699361,147.617907 C17.4124625,147.586097 17.467747,147.573373 17.520905,147.579735 C17.5740631,147.586097 17.6229686,147.615786 17.6548634,147.658199 C17.678253,147.702733 17.6888846,147.755749 17.6803793,147.806644 C17.6740003,147.857539 17.6506108,147.906314 17.6144633,147.942365 L16.6406071,148.671866 L16.5194067,148.712158 L16.5172804,148.712158 Z" id="Path" fill="#02133B"></path>
                <path d="M17.3295359,149.683412 L17.1679353,149.602828 C17.1509248,149.581622 17.1402931,149.558295 17.1339142,149.530726 C17.1275352,149.505278 17.1254089,149.479831 17.1296615,149.452262 C17.1339142,149.424694 17.1424195,149.401367 17.1551774,149.37804 C17.1679353,149.354713 17.1870723,149.335627 17.2083355,149.318662 L18.1013913,148.631574 C18.1184019,148.608247 18.1417915,148.589161 18.1694337,148.576437 C18.1970759,148.565834 18.2268444,148.561593 18.2566129,148.565834 C18.2863815,148.570075 18.3140237,148.580678 18.3352869,148.599764 C18.3586765,148.61885 18.3756871,148.642177 18.3863187,148.671866 C18.4182135,148.714279 18.4330978,148.769416 18.4245925,148.822432 C18.4160872,148.875448 18.388445,148.924223 18.3459185,148.956032 L17.4528627,149.64312 L17.3316623,149.683412 L17.3295359,149.683412 Z" id="Path" fill="#02133B"></path>
                <path d="M18.1821916,150.775543 C18.1502968,150.775543 18.1205282,150.769181 18.0907597,150.754337 C18.0631175,150.739492 18.0376016,150.718286 18.0184647,150.694959 C17.9376644,150.574082 17.9376644,150.453206 18.0588649,150.410793 L19.032721,149.600707 C19.0773738,149.57738 19.1305319,149.566777 19.1815636,149.57526 C19.2325954,149.581622 19.2793745,149.607069 19.3176483,149.64312 C19.3495432,149.685533 19.3644274,149.74067 19.3559222,149.793686 C19.3474169,149.846702 19.3197747,149.895477 19.2772482,149.927286 L18.3033921,150.697079 L18.1821916,150.777664 L18.1821916,150.775543 Z" id="Path" fill="#02133B"></path>
                <path d="M9.37495999,170.690495 C9.3218019,170.690495 9.26864382,170.669288 9.23037,170.631117 C9.19209617,170.592945 9.17083294,170.54205 9.17083294,170.486913 L4.42275273,140.371672 C4.42275273,140.250796 4.50355302,140.127798 4.58435331,140.127798 C4.6651536,140.127798 4.82675418,140.168091 4.82675418,140.288967 L9.57483439,170.4445 C9.58121336,170.469948 9.58121336,170.497516 9.57483439,170.525084 C9.57058174,170.552653 9.55995013,170.578101 9.54506586,170.601428 C9.5301816,170.624755 9.51104469,170.64384 9.48765513,170.658685 C9.46426557,170.673529 9.43874969,170.684133 9.41323381,170.688374 L9.37283367,170.688374 L9.37495999,170.690495 Z" id="Path" fill="#163F45"></path>
                <path d="M8.36070371,140.85942 C8.3139246,140.85942 8.26714548,140.844576 8.22887166,140.814887 C8.19272416,140.785198 8.16720828,140.742785 8.15657667,140.698251 L7.6696486,137.865073 C7.62924846,137.784489 7.71004875,137.663612 7.83124918,137.621199 C7.95244962,137.580907 8.03324991,137.701784 8.03324991,137.782368 L8.56057812,140.657959 C8.56057812,140.738543 8.52017797,140.85942 8.39897754,140.85942 L8.35857739,140.85942 L8.36070371,140.85942 Z" id="Path" fill="#163F45"></path>
                <polygon id="Path" fill="#02133B" points="120.050094 130.981468 120.98355 130.455549 116.803198 123.048146"></polygon>
                <polygon id="Path" fill="#02133B" points="20.3340309 152.881341 22.0393423 150.292037 22.0393423 152.800757"></polygon>
                <polygon id="Path" fill="#02133B" points="22.037216 152.800757 20.9017593 169.558072 22.241343 169.517779 22.0393423 152.800757"></polygon>
                <path d="M22.2009429,153.002218 C22.1584164,153.002218 22.11589,152.985252 22.0861214,152.955563 C22.0563529,152.923754 22.0393423,152.883462 22.0393423,152.841049 C21.9989422,152.720172 22.0797425,152.639588 22.2009429,152.597175 L78.8568306,147.416446 C78.9036097,147.416446 78.9503888,147.43129 78.9886627,147.460979 C79.0269365,147.490668 79.050326,147.533081 79.0609577,147.577615 C79.0758419,147.605183 79.0843472,147.634872 79.0843472,147.664561 C79.0843472,147.696371 79.0737156,147.72606 79.056705,147.749387 C79.0396944,147.774834 79.0163049,147.79392 78.9886627,147.808765 C78.9610205,147.821489 78.9291256,147.82573 78.8993571,147.821489 L22.2434694,153.002218 L22.2030692,153.002218 L22.2009429,153.002218 Z" id="Path" fill="#163F45"></path>
                <polygon id="Path" fill="#02133B" points="108.525421 137.98595 108.525421 143.73289 105.805854 142.882513"></polygon>
            </g>
        </g>
    </g>
</svg>