<?xml version="1.0" encoding="UTF-8"?>
<svg width="51px" height="31px" viewBox="0 0 51 31" version="1.1" xmlns="http://www.w3.org/2000/svg" xmlns:xlink="http://www.w3.org/1999/xlink">
    <title>Group 21</title>
    <g id="dashboard---desktop" stroke="none" stroke-width="1" fill="none" fill-rule="evenodd" stroke-linecap="round" stroke-linejoin="round">
        <g id="PROFILE---ACTIVE-USER-Copy-9" transform="translate(-1008.000000, -471.000000)" stroke="#004046" stroke-width="1.65">
            <g id="Group-23" transform="translate(823.000000, 458.000000)">
                <g id="Group-27" transform="translate(186.136364, 3.312000)">
                    <g id="Group-21" transform="translate(0.000000, 11.040000)">
                        <ellipse id="Oval" cx="24.2369363" cy="6.5320395" rx="6.5371407" ry="6.5320395"></ellipse>
                        <path d="M32.5872085,28.704 C36.3861507,28.4821571 36.2874768,22.6279708 35.2637359,19.4358987 C34.2523293,16.2561511 31.5264649,14.1856179 29.688665,14.986717 C27.0614745,16.7368106 26.4200947,17.1558471 24.2369363,17.1558471 L24.2369363,17.1558471 C22.0414438,17.1558471 21.4123982,16.7368106 18.7852077,14.986717 C16.9350735,14.1856179 14.2215434,16.2561511 13.2101368,19.4358987 C12.1987301,22.6156462 12.087722,28.4821571 15.8866642,28.704 C17.9958171,28.704 30.4780556,28.704 32.5872085,28.704 Z" id="Path"></path>
                        <ellipse id="Oval" cx="8.37511948" cy="8.31910691" rx="4.69934077" ry="4.69567368"></ellipse>
                        <path d="M10.8913019,16.0343083 C10.0155718,16.5519416 9.46053152,16.6998368 8.36278525,16.6998368 L8.36278525,16.6998368 C6.7840041,16.6998368 6.32763768,16.3917218 4.44050084,15.1346123 C3.10840424,14.5676805 1.15959626,16.0466329 0.431876823,18.339009 C-0.295842613,20.6313851 -0.369847979,24.8463993 2.35601635,25.0066191 C3.20707806,25.0066191 6.41397727,25.0066191 9.32485502,25.0066191" id="Path"></path>
                        <ellipse id="Oval" cx="40.0987532" cy="8.31910691" rx="4.69934077" ry="4.69567368"></ellipse>
                        <path d="M37.5702365,16.0343083 C38.4459667,16.5519416 39.0010069,16.6998368 40.0987532,16.6998368 L40.0987532,16.6998368 C41.6775344,16.6998368 42.1339008,16.3917218 44.0210376,15.1346123 C45.3531342,14.5676805 47.3019422,16.0466329 48.0296616,18.339009 C48.7573811,20.6313851 48.8313864,24.8463993 46.1055221,25.0066191 C45.2544604,25.0066191 42.0475612,25.0066191 39.1366834,25.0066191" id="Path"></path>
                    </g>
                </g>
            </g>
        </g>
    </g>
</svg>