<?xml version="1.0" encoding="UTF-8"?>
<svg width="45px" height="35px" viewBox="0 0 45 35" version="1.1" xmlns="http://www.w3.org/2000/svg" xmlns:xlink="http://www.w3.org/1999/xlink">
    <title>Group 282</title>
    <g id="bank-switching-journey---desktop" stroke="none" stroke-width="1" fill="none" fill-rule="evenodd" stroke-linecap="round" stroke-linejoin="round">
        <g id="Group-315" transform="translate(-12.000000, -18.481928)" stroke="#7DBC42" stroke-width="1.6">
            <g id="Group-282" transform="translate(13.169291, 19.349398)">
                <path d="M31.8859141,25.8621378 C35.9887733,25.8621378 41.8160226,25.8621378 42.0538696,25.8621378 C42.3511782,25.8621378 42.7674103,25.7395684 42.9457955,25.3105756 C43.1241807,24.8815828 42.9457955,24.45259 42.7674103,24.3300206 C42.6484868,24.2074513 39.7943239,20.7142241 39.7943239,20.7142241 C41.6970992,18.5692601 42.7674103,15.8727339 42.7674103,12.9310689 C42.7674103,5.82204524 36.1076968,-3.63797881e-12 27.8425166,-3.63797881e-12 C23.6801956,-3.63797881e-12 19.9935685,1.47083248 17.258329,3.79965058" id="Path"></path>
                <path d="M3.16589942,27.394255 C1.26312412,25.2492909 0.192813019,22.5527647 0.192813019,19.6110998 C0.192813019,12.5020761 6.85252656,6.68003086 15.1177068,6.68003086 C23.382887,6.68003086 30.0426005,12.4407914 30.0426005,19.6110998 C30.0426005,26.7814081 23.382887,32.5421687 15.1177068,32.5421687 C15.1177068,32.5421687 1.26312412,32.5421687 0.965815483,32.5421687 C0.668506843,32.5421687 0.252274747,32.4195993 0.0738895626,31.9906065 C-0.104495622,31.5616137 0.0738895626,31.1326209 0.252274747,31.0100515 C0.311736475,30.8874821 3.16589942,27.394255 3.16589942,27.394255 Z" id="Path"></path>
                <line x1="7.68499075" y1="15.0147483" x2="21.836882" y2="15.0147483" id="Path"></line>
                <line x1="5.54436854" y1="19.365961" x2="23.9180425" y2="19.365961" id="Path"></line>
                <line x1="7.68499075" y1="23.472035" x2="21.836882" y2="23.472035" id="Path"></line>
            </g>
        </g>
    </g>
</svg>