<?xml version="1.0" encoding="UTF-8"?>
<svg width="25px" height="28px" viewBox="0 0 25 28" version="1.1" xmlns="http://www.w3.org/2000/svg" xmlns:xlink="http://www.w3.org/1999/xlink">
    <title>bell off</title>
    <g id="dashboard---desktop" stroke="none" stroke-width="1" fill="none" fill-rule="evenodd" stroke-linecap="round" stroke-linejoin="round">
        <g id="PROFILE---ACTIVE-USER-Copy-15" transform="translate(-1628.000000, -69.000000)" stroke="#004046" stroke-width="0.8625">
            <g id="Group-4" transform="translate(1618.000000, 61.000000)">
                <g id="bell-off" transform="translate(10.853333, 8.800000)">
                    <g id="Group" transform="translate(0.000000, 2.082193)">
                        <path d="M15.2974691,20.5875164 C15.2489198,22.6564542 13.5629321,24.3178068 11.492963,24.3178068 C9.42740741,24.3178068 7.74583333,22.6653147 7.68845679,20.6008073" id="Path"></path>
                        <path d="M11.5988889,0 C15.9727469,0.0133261439 19.1725926,3.81450084 19.1725926,8.12958726 L19.1240432,10.911799 C19.1240432,13.8933731 20.4172222,16.5692583 22.469537,18.4122521 L22.4739506,18.4166824 C22.7387654,18.6470566 22.88,18.9704666 22.88,19.3470399 C22.88,20.0337323 22.3238889,20.5919467 21.639784,20.5919467 L1.24021605,20.6008073 C0.556111111,20.6008073 0,20.0425928 0,19.3559004 C0,18.9793272 0.141234568,18.6559172 0.406049383,18.425543 L0.410462963,18.4211127 C2.46277778,16.5825492 3.75595679,13.9022337 3.75595679,10.9206596 L3.70740741,8.13844781 C3.70740741,3.72589537 7.16324074,-0.0132554973 11.5988889,0 L11.5988889,0 Z" id="Path"></path>
                    </g>
                    <path d="M9.43182099,2.38791744 C9.41416667,2.2771606 9.40533951,2.16197349 9.40533951,2.04678637 C9.40533951,0.917066622 10.3189506,0 11.4444136,0 C12.5698765,0 13.4834877,0.917066622 13.4834877,2.04678637 C13.4834877,2.1088102 13.4790741,2.17083403 13.4746605,2.23285786" id="Path"></path>
                </g>
            </g>
        </g>
    </g>
</svg>