<?xml version="1.0" encoding="UTF-8"?>
<svg width="38px" height="28px" viewBox="0 0 38 28" version="1.1" xmlns="http://www.w3.org/2000/svg" xmlns:xlink="http://www.w3.org/1999/xlink">
    <title>Path</title>
    <g id="dashboard---desktop" stroke="none" stroke-width="1" fill="none" fill-rule="evenodd">
        <g id="CUSTOM-PROGRAM---SOCIALS" transform="translate(-413.000000, -470.000000)" stroke="#404041" stroke-width="1.2">
            <g id="Group-16" transform="translate(325.000000, 393.000000)">
                <path d="M107.275834,86.0504798 C107.275834,86.0504798 103.594072,86.2508592 99.1379168,83.8730231 C94.681762,81.4951869 93.4046933,79.2242197 93.4046933,79.2242197 C93.4046933,79.2242197 91.9917662,80.9074071 92.508028,83.659285 C93.010704,86.4111628 95.3474681,87.9607639 95.3474681,87.9607639 C95.3474681,87.9607639 94.8040346,87.9741226 93.8394401,87.7603845 C92.8748456,87.5332878 92.3585838,87.2126806 92.3585838,87.2126806 C92.3585838,87.2126806 92.4672705,89.8176135 93.8801976,91.4072905 C95.2931247,92.9969676 97.7114039,93.6648991 97.7114039,93.6648991 C97.7114039,93.6648991 97.3853438,93.9053544 96.447921,93.9454303 C95.5104981,93.9855062 94.7361054,93.8385613 94.7361054,93.8385613 C94.7361054,93.8385613 95.2931247,95.8824317 97.1543845,97.0713498 C99.0156443,98.2469093 101.026348,98.3804956 101.026348,98.3804956 C101.026348,98.3804956 98.8526142,100.010248 96.7468094,100.638104 C94.6410045,101.26596 91,101.038863 91,101.038863 C91,101.038863 101.148621,107.79833 112.221079,100.891918 C121.350762,94.53321 120.67147,84.48752 120.67147,84.48752 C120.67147,84.48752 122.274599,83.0848639 122.722931,82.6173118 C123.171264,82.1497597 124,81.0677107 124,81.0677107 C124,81.0677107 123.279951,81.4150351 122.220255,81.7356422 C121.16056,82.0562493 120.223137,82.1230425 120.223137,82.1230425 C120.223137,82.1230425 121.731165,80.9207658 122.247427,80.1726825 C122.763689,79.4245992 123.02182,78.5429296 123.02182,78.5429296 C123.02182,78.5429296 121.473034,79.3043715 120.698641,79.5715441 C119.924249,79.8387167 118.715109,80.1192479 118.715109,80.1192479 C118.715109,80.1192479 116.29683,76.7395145 111.202141,78.5162123 C106.053108,80.3062688 107.275834,86.0504798 107.275834,86.0504798 Z" id="Path"></path>
            </g>
        </g>
    </g>
</svg>