<?xml version="1.0" encoding="UTF-8"?>
<svg width="50px" height="31px" viewBox="0 0 50 31" version="1.1" xmlns="http://www.w3.org/2000/svg" xmlns:xlink="http://www.w3.org/1999/xlink">
    <title>icon/menu/programs/teal</title>
    <g id="dashboard---desktop" stroke="none" stroke-width="1" fill="none" fill-rule="evenodd" stroke-linecap="round" stroke-linejoin="round">
        <g id="PROFILE---ACTIVE-USER-Copy-12" transform="translate(-911.000000, -480.000000)" stroke="#ADA9A3" stroke-width="2.45025">
            <g id="Group-11" transform="translate(761.000000, 374.000000)">
                <g id="Group-96" transform="translate(60.000000, 96.000000)">
                    <g id="programs-icon" transform="translate(91.450000, 11.590909)">
                        <g id="Group" transform="translate(12.227789, 0.000000)">
                            <ellipse id="Oval" cx="11.278192" cy="6.33045786" rx="6.33998884" ry="6.33045786"></ellipse>
                            <path d="M19.3766306,27.8181818 C23.0610015,27.6031851 22.9653035,21.9296616 21.9724374,18.8360982 C20.9915334,15.7544791 18.3478777,13.7478434 16.5655035,14.5242203 C14.0175457,16.2203052 13.3955091,16.6264101 11.278192,16.6264101 L11.278192,16.6264101 C9.14891278,16.6264101 8.53883838,16.2203052 5.99088061,14.5242203 C4.19654414,13.7478434 1.56485066,15.7544791 0.583946731,18.8360982 C-0.396957202,21.9177173 -0.50461739,27.6031851 3.17975348,27.8181818 C5.22529705,27.8181818 17.3310871,27.8181818 19.3766306,27.8181818 Z" id="Path"></path>
                        </g>
                        <g id="Group" transform="translate(0.000000, 3.511612)">
                            <g>
                                <ellipse id="Oval" cx="8.12253651" cy="4.55076311" rx="4.55761462" ry="4.55076311"></ellipse>
                                <path d="M10.5628341,12.0278699 C9.71351484,12.5295289 9.17521391,12.67286 8.11057427,12.67286 L8.11057427,12.67286 C6.57940716,12.67286 6.13680416,12.3742535 4.30658097,11.155939 C3.01465872,10.606503 1.12462431,12.0398142 0.418851967,14.2614466 C-0.286920375,16.483079 -0.358693834,20.5680159 2.28496189,20.7232913 C3.11035666,20.7232913 6.22053986,20.7232913 9.04362923,20.7232913" id="Path"></path>
                            </g>
                            <g transform="translate(34.331811, 0.000000)">
                                <ellipse id="Oval" cx="4.55761462" cy="4.55076311" rx="4.55761462" ry="4.55076311"></ellipse>
                                <path d="M2.10535478,12.0278699 C2.95467404,12.5295289 3.49297498,12.67286 4.55761462,12.67286 L4.55761462,12.67286 C6.08878173,12.67286 6.53138472,12.3742535 8.36160792,11.155939 C9.65353017,10.606503 11.5435646,12.0398142 12.2493369,14.2614466 C12.9551093,16.483079 13.0268827,20.5680159 10.383227,20.7232913 C9.55783223,20.7232913 6.44764902,20.7232913 3.62455965,20.7232913" id="Path"></path>
                            </g>
                        </g>
                    </g>
                </g>
            </g>
        </g>
    </g>
</svg>