<?xml version="1.0" encoding="UTF-8"?>
<svg width="48px" height="48px" viewBox="0 0 48 48" version="1.1" xmlns="http://www.w3.org/2000/svg" xmlns:xlink="http://www.w3.org/1999/xlink">
    <title>carbon-dioxide</title>
    <g id="dashboard---desktop" stroke="none" stroke-width="1" fill="none" fill-rule="evenodd">
        <g id="PROFILE---ACTIVE-USER-Copy-12" transform="translate(-1287.000000, -839.000000)" fill="#153F45" fill-rule="nonzero">
            <g id="carbon-dioxide" transform="translate(1287.000000, 839.000000)">
                <path d="M17.8064516,17.0322581 C19.5143226,17.0322581 20.9032258,15.6433548 20.9032258,13.9354839 L19.3548387,13.9354839 C19.3548387,14.7894194 18.6603871,15.483871 17.8064516,15.483871 C16.9525161,15.483871 16.2580645,14.7894194 16.2580645,13.9354839 L16.2580645,10.8387097 C16.2580645,9.98477419 16.9525161,9.29032258 17.8064516,9.29032258 C18.6603871,9.29032258 19.3548387,9.98477419 19.3548387,10.8387097 L20.9032258,10.8387097 C20.9032258,9.13083871 19.5143226,7.74193548 17.8064516,7.74193548 C16.0985806,7.74193548 14.7096774,9.13083871 14.7096774,10.8387097 L14.7096774,13.9354839 C14.7096774,15.6433548 16.0985806,17.0322581 17.8064516,17.0322581 Z" id="Path"></path>
                <path d="M25.5483871,17.0322581 C27.2562581,17.0322581 28.6451613,15.6433548 28.6451613,13.9354839 L28.6451613,10.8387097 C28.6451613,9.13083871 27.2562581,7.74193548 25.5483871,7.74193548 C23.8405161,7.74193548 22.4516129,9.13083871 22.4516129,10.8387097 L22.4516129,13.9354839 C22.4516129,15.6433548 23.8405161,17.0322581 25.5483871,17.0322581 Z M24,10.8387097 C24,9.98477419 24.6944516,9.29032258 25.5483871,9.29032258 C26.4023226,9.29032258 27.0967742,9.98477419 27.0967742,10.8387097 L27.0967742,13.9354839 C27.0967742,14.7894194 26.4023226,15.483871 25.5483871,15.483871 C24.6944516,15.483871 24,14.7894194 24,13.9354839 L24,10.8387097 Z" id="Shape"></path>
                <path d="M34.0645161,18.5806452 L32.0624516,18.5806452 L34.1581935,16.4849032 C34.5971613,16.0467097 34.8387097,15.4629677 34.8387097,14.8420645 L34.8387097,14.7096774 C34.8387097,13.4291613 33.7966452,12.3870968 32.516129,12.3870968 C31.2356129,12.3870968 30.1935484,13.4291613 30.1935484,14.7096774 L30.1935484,15.483871 L31.7419355,15.483871 L31.7419355,14.7096774 C31.7419355,14.2830968 32.0895484,13.9354839 32.516129,13.9354839 C32.9427097,13.9354839 33.2903226,14.2830968 33.2903226,14.7096774 L33.2903226,14.8420645 C33.2903226,15.0487742 33.2098065,15.243871 33.0634839,15.3901935 L30.1935484,18.260129 L30.1935484,20.1290323 L34.0645161,20.1290323 L34.0645161,18.5806452 Z" id="Path"></path>
                <path d="M45.6789677,45.7246452 C43.1458065,41.5014194 41.8064516,36.6658065 41.8064516,31.7419355 L41.8064516,30.9677419 L37.9354839,30.9677419 L37.9354839,28.6451613 C37.9354839,28.2178065 38.2830968,27.8709677 38.7096774,27.8709677 L40.8619355,27.8709677 C43.7767742,27.8709677 46.2255484,25.6730323 46.436129,22.8673548 C46.508129,21.9065806 46.3339355,20.9736774 45.9290323,20.1267097 C47.2087742,19.275871 48,17.8350968 48,16.2580645 C48,14.8056774 47.3101935,13.4500645 46.1612903,12.5783226 C46.4756129,11.660129 46.536,10.6807742 46.3339355,9.71070968 C45.9166452,7.71174194 44.3698065,6.09522581 42.3925161,5.59122581 C41.4596129,5.35354839 40.5011613,5.3643871 39.5899355,5.61677419 C38.8335484,4.8 37.8387097,4.23096774 36.7556129,3.9956129 C35.8513548,1.6203871 33.5388387,0 30.9677419,0 C28.6436129,0 26.5695484,1.26812903 25.5027097,3.28567742 C24.5156129,3.03483871 23.4851613,3.03483871 22.4972903,3.28567742 C21.4304516,1.26812903 19.3563871,0 17.0322581,0 C14.4286452,0 12.1509677,1.60490323 11.2490323,3.98632258 C10.8572903,3.90967742 10.4616774,3.87096774 10.0645161,3.87096774 C6.89187097,3.87096774 4.26812903,6.26941935 3.912,9.3483871 C1.69780645,9.70064516 0,11.6237419 0,13.9354839 C0,16.2332903 1.67767742,18.1463226 3.87096774,18.5163871 C3.86864516,18.675871 3.87483871,18.836129 3.88877419,18.9963871 C4.09780645,21.3677419 6.20129032,23.2258065 8.67716129,23.2258065 L9.29032258,23.2258065 C9.71690323,23.2258065 10.0645161,23.5734194 10.0645161,24 L10.0645161,27.8709677 L6.19354839,27.8709677 L6.19354839,30.6503226 C6.19354839,34.3509677 5.45419355,37.9532903 3.9963871,41.355871 L1.8123871,46.4516129 L0,46.4516129 L0,48 L48,48 L48,46.4516129 L46.1156129,46.4516129 L45.6789677,45.7246452 Z M44.3132903,46.4516129 L26.0585806,46.4516129 L25.0590968,44.1197419 C26.3372903,41.4402581 27.2020645,38.5571613 27.6054194,35.6129032 L40.5329032,35.6129032 C41.0531613,39.4304516 42.3267097,43.1202581 44.3132903,46.4516129 L44.3132903,46.4516129 Z M17.8064516,27.8709677 L17.8064516,25.5483871 C17.8064516,25.1210323 18.1540645,24.7741935 18.5806452,24.7741935 L22.2154839,24.7741935 C23.1058065,26.6423226 24.9948387,27.8709677 27.0967742,27.8709677 L29.4193548,27.8709677 C29.8459355,27.8709677 30.1935484,28.2178065 30.1935484,28.6451613 L30.1935484,30.9677419 L26.3225806,30.9677419 L26.3225806,31.7419355 C26.3225806,35.3101935 25.6002581,38.8861935 24.2299355,42.1858065 L23.8745806,41.355871 C22.4167742,37.9525161 21.6774194,34.3509677 21.6774194,30.6503226 L21.6774194,27.8709677 L17.8064516,27.8709677 Z M20.3388387,34.0645161 L7.53212903,34.0645161 C7.59329032,33.5504516 7.64129032,33.0348387 7.67458065,32.516129 L20.1956129,32.516129 C20.2296774,33.0348387 20.2776774,33.5504516 20.3388387,34.0645161 Z M40.3602581,34.0645161 L27.7757419,34.0645161 C27.8183226,33.5489032 27.8461935,33.0325161 27.8609032,32.516129 L40.2689032,32.516129 C40.2828387,33.0340645 40.3184516,33.5496774 40.3602581,34.0645161 L40.3602581,34.0645161 Z M9.29032258,21.6774194 L8.67716129,21.6774194 C6.9963871,21.6774194 5.57109677,20.4394839 5.43174194,18.8609032 C5.40541935,18.5550968 5.42245161,18.2500645 5.48283871,17.9543226 L5.6763871,17.0113548 L4.71406452,17.0245161 C4.66529032,17.0252903 4.61806452,17.0299355 4.64516129,17.0322581 C2.93729032,17.0322581 1.5483871,15.6433548 1.5483871,13.9354839 C1.5483871,12.2276129 2.93729032,10.8387097 4.64516129,10.8387097 L5.41935484,10.8387097 L5.41935484,10.0645161 C5.41935484,7.50270968 7.50270968,5.41935484 10.0645161,5.41935484 C10.5569032,5.41935484 11.0485161,5.49987097 11.5254194,5.65780645 L12.3243871,5.92258065 L12.5210323,5.10425806 C13.0258065,3.01083871 14.8807742,1.5483871 17.0322581,1.5483871 C18.9584516,1.5483871 20.6562581,2.71045161 21.3569032,4.50967742 L21.6356129,5.22503226 L22.3532903,4.95174194 C23.4255484,4.54529032 24.5744516,4.54529032 25.6467097,4.95174194 L26.3643871,5.22503226 L26.6430968,4.50967742 C27.3437419,2.71045161 29.0415484,1.5483871 30.9677419,1.5483871 C33.020129,1.5483871 34.8534194,2.92567742 35.4255484,4.89754839 L35.5687742,5.38916129 L36.0774194,5.45032258 C37.1194839,5.57574194 38.0810323,6.13316129 38.7143226,6.98167742 L39.068129,7.45548387 L39.6178065,7.23870968 C40.3912258,6.93367742 41.1963871,6.88490323 42.0108387,7.0923871 C43.3981935,7.44541935 44.5261935,8.62451613 44.8180645,10.0273548 C44.9969032,10.8859355 44.8892903,11.7530323 44.5060645,12.5365161 L44.1809032,13.2007742 L44.8296774,13.556129 C45.8307097,14.1027097 46.4516129,15.1385806 46.4516129,16.2580645 C46.4516129,17.5052903 45.7091613,18.6255484 44.5602581,19.1117419 L43.6861935,19.4818065 L44.2234839,20.2637419 C44.7274839,20.9976774 44.9589677,21.8578065 44.8916129,22.752 C44.7414194,24.7540645 42.9708387,26.3225806 40.8619355,26.3225806 L38.7096774,26.3225806 C37.4291613,26.3225806 36.3870968,27.3646452 36.3870968,28.6451613 L36.3870968,30.9677419 L31.7419355,30.9677419 L31.7419355,28.6451613 C31.7419355,27.3646452 30.699871,26.3225806 29.4193548,26.3225806 L27.0967742,26.3225806 C25.7876129,26.3225806 24.596129,25.6529032 23.8885161,24.5992258 C26.6113548,23.9489032 28.6451613,21.500129 28.6451613,18.5806452 L27.0967742,18.5806452 C27.0967742,21.1424516 25.0134194,23.2258065 22.4516129,23.2258065 L18.5806452,23.2258065 C17.300129,23.2258065 16.2580645,24.267871 16.2580645,25.5483871 L16.2580645,27.8709677 L11.6129032,27.8709677 L11.6129032,24 C11.6129032,22.7194839 10.5708387,21.6774194 9.29032258,21.6774194 L9.29032258,21.6774194 Z M7.74193548,29.4193548 L20.1290323,29.4193548 L20.1290323,30.6503226 C20.1290323,30.7563871 20.136,30.8616774 20.1367742,30.9677419 L7.73419355,30.9677419 C7.73496774,30.8616774 7.74193548,30.7563871 7.74193548,30.6503226 L7.74193548,29.4193548 Z M5.41935484,41.9651613 C6.2996129,39.9104516 6.9236129,37.7852903 7.30374194,35.6129032 L20.5664516,35.6129032 C20.9465806,37.7852903 21.5705806,39.9104516 22.4508387,41.9651613 L24.3747097,46.4516129 L3.49625806,46.4516129 L5.41935484,41.9651613 Z" id="Shape"></path>
                <path d="M6.96774194,10.0645161 L8.51612903,10.0645161 C8.51612903,9.21058065 9.21058065,8.51612903 10.0645161,8.51612903 L10.0645161,6.96774194 C8.35664516,6.96774194 6.96774194,8.35664516 6.96774194,10.0645161 Z" id="Path"></path>
                <path d="M32.516129,6.19354839 L34.0645161,6.19354839 C34.0645161,4.48567742 32.6756129,3.09677419 30.9677419,3.09677419 L30.9677419,4.64516129 C31.8216774,4.64516129 32.516129,5.3396129 32.516129,6.19354839 Z" id="Path"></path>
            </g>
        </g>
    </g>
</svg>