<?xml version="1.0" encoding="UTF-8"?>
<svg width="25px" height="25px" viewBox="0 0 25 25" version="1.1" xmlns="http://www.w3.org/2000/svg" xmlns:xlink="http://www.w3.org/1999/xlink">
    <title>Group 4</title>
    <g id="bank-switching-jounrey---mobile" stroke="none" stroke-width="1" fill="none" fill-rule="evenodd" stroke-linecap="round" stroke-linejoin="round">
        <g id="Group-246" transform="translate(-189.000000, -18.000000)" stroke="#153F45" stroke-width="1.5">
            <g id="Group-4" transform="translate(190.000000, 19.000000)">
                <path d="M8.69102296,6.55063291 L1.05636743,6.55063291 C0.480167015,6.55063291 0,6.06540084 0,5.48312236 L0,1.11603376 C0,0.533755274 0.480167015,0.0485232068 1.05636743,0.0485232068 L8.69102296,0.0485232068 C9.26722338,0.0485232068 9.7473904,0.533755274 9.7473904,1.11603376 L9.7473904,5.48312236 C9.7473904,6.06540084 9.26722338,6.55063291 8.69102296,6.55063291 Z" id="Path"></path>
                <path d="M8.69102296,23 L1.05636743,23 C0.480167015,23 0,22.5147679 0,21.9324895 L0,11.257384 C0,10.6751055 0.480167015,10.1898734 1.05636743,10.1898734 L8.69102296,10.1898734 C9.26722338,10.1898734 9.7473904,10.6751055 9.7473904,11.257384 L9.7473904,21.9324895 C9.7473904,22.5147679 9.26722338,23 8.69102296,23 Z" id="Path"></path>
                <path d="M14.308977,16.4493671 L21.9436326,16.4493671 C22.519833,16.4493671 23,16.9345992 23,17.5168776 L23,21.8839662 C23,22.4662447 22.519833,22.9514768 21.9436326,22.9514768 L14.308977,22.9514768 C13.7327766,22.9514768 13.2526096,22.4662447 13.2526096,21.8839662 L13.2526096,17.5168776 C13.2045929,16.9831224 13.7327766,16.4493671 14.308977,16.4493671 Z" id="Path"></path>
                <path d="M14.308977,0 L21.9436326,0 C22.519833,0 23,0.485232068 23,1.06751055 L23,11.742616 C23,12.3248945 22.519833,12.8101266 21.9436326,12.8101266 L14.308977,12.8101266 C13.7327766,12.8101266 13.2526096,12.3248945 13.2526096,11.742616 L13.2526096,1.06751055 C13.2045929,0.485232068 13.7327766,0 14.308977,0 Z" id="Path"></path>
            </g>
        </g>
    </g>
</svg>