<?xml version="1.0" encoding="UTF-8"?>
<svg width="50px" height="41px" viewBox="0 0 50 41" version="1.1" xmlns="http://www.w3.org/2000/svg" xmlns:xlink="http://www.w3.org/1999/xlink">
    <title>icon/menu/news &amp; blog/teal</title>
    <g id="dashboard---desktop" stroke="none" stroke-width="1" fill="none" fill-rule="evenodd" stroke-linecap="round" stroke-linejoin="round">
        <g id="PROFILE---ACTIVE-USER-Copy-12" transform="translate(-1000.000000, -476.000000)" stroke="#ADA9A3" stroke-width="2.45025">
            <g id="Group-11" transform="translate(761.000000, 374.000000)">
                <g id="Group-96" transform="translate(60.000000, 96.000000)">
                    <g id="news-&amp;-blog-icon" transform="translate(180.902500, 7.997727)">
                        <path d="M36.230599,0.438096263 C35.5807228,0.153717987 34.8612169,0 34.103028,0 L5.38468864,0 C2.42156256,0 0,2.4056865 0,5.34938595 L0,24.9330575 C0,27.876757 2.42156256,30.2824435 5.38468864,30.2824435 L5.94172539,30.2824435 L5.90304228,37.3227273 L13.2218863,30.2901294 L34.103028,30.2901294 C37.0661541,30.2901294 39.4877167,27.8844429 39.4877167,24.9407434 L39.4877167,19.8834216" id="Path"></path>
                        <line x1="6.43686917" y1="7.17863" x2="27.4959532" y2="7.17863" id="Path"></line>
                        <line x1="6.47555228" y1="15.7637796" x2="20.1925824" y2="15.7637796" id="Path"></line>
                        <line x1="6.64575796" y1="24.1414099" x2="17.848386" y2="24.1414099" id="Path"></line>
                        <path d="M39.1086222,3.68923169 L24.9583413,15.7099783 C23.7669016,18.6997931 22.2273139,23.2575315 22.2273139,23.2575315 C22.2273139,23.2575315 25.6701105,22.7348903 30.2424539,21.9893581 L44.470101,10.007041 C46.2185775,8.53903418 46.4429395,5.9181425 44.9652448,4.18112925 L44.9652448,4.18112925 C43.48755,2.444116 40.8493621,2.22122491 39.1086222,3.68923169 Z" id="Path"></path>
                        <line x1="24.9583413" y1="15.7407219" x2="30.2424539" y2="21.9586145" id="Path"></line>
                        <line x1="42.9305133" y1="11.2521567" x2="37.599981" y2="4.98814868" id="Path"></line>
                    </g>
                </g>
            </g>
        </g>
    </g>
</svg>