<?xml version="1.0" encoding="UTF-8"?>
<svg width="26px" height="26px" viewBox="0 0 26 26" version="1.1" xmlns="http://www.w3.org/2000/svg" xmlns:xlink="http://www.w3.org/1999/xlink">
    <title>Group 202</title>
    <g id="bank-switching-jounrey---mobile" stroke="none" stroke-width="1" fill="none" fill-rule="evenodd" opacity="0.298459734">
        <g id="Profile/Main-Copy-68" transform="translate(-341.000000, -57.000000)" fill-rule="nonzero">
            <g id="Group-11" transform="translate(-1.000000, 0.000000)">
                <g id="Group-202" transform="translate(343.000000, 58.000000)">
                    <path d="M12,0 C5.41463415,0 0,5.41463415 0,12 C0,18.5853659 5.41463415,24 12,24 C18.5853659,24 24,18.5853659 24,12 C24,5.41463415 18.5853659,0 12,0 Z" id="Path" stroke="#FFFFFF" stroke-width="1.5"></path>
                    <path d="M17.0086957,12.9913043 L12.9913043,12.9913043 L12.9913043,17.0086957 C12.9913043,17.5826087 12.5478261,18 12,18 C11.4521739,18 11.0086957,17.5565217 11.0086957,17.0086957 L11.0086957,12.9913043 L6.99130435,12.9913043 C6.4173913,12.9913043 6,12.5478261 6,12 C6,11.4521739 6.4173913,11.0086957 6.99130435,11.0086957 L11.0086957,11.0086957 L11.0086957,6.99130435 C11.0086957,6.4173913 11.4521739,6 12,6 C12.5478261,6 12.9913043,6.44347826 12.9913043,6.99130435 L12.9913043,11.0086957 L17.0086957,11.0086957 C17.5826087,11.0086957 18,11.4521739 18,12 C18,12.5478261 17.5565217,12.9913043 17.0086957,12.9913043 Z" id="Path" fill="#FFFFFF"></path>
                </g>
            </g>
        </g>
    </g>
</svg>