<?xml version="1.0" encoding="UTF-8"?>
<svg width="18px" height="17px" viewBox="0 0 18 17" version="1.1" xmlns="http://www.w3.org/2000/svg" xmlns:xlink="http://www.w3.org/1999/xlink">
    <title>Group 11</title>
    <g id="dashboard---desktop" stroke="none" stroke-width="1" fill="none" fill-rule="evenodd" opacity="0.75" stroke-linecap="round" stroke-linejoin="round">
        <g id="PROFILE---ACTIVE-USER-Copy-21" transform="translate(-929.000000, -632.000000)" stroke="#153F45" stroke-width="1.155">
            <g id="Group-17" transform="translate(930.412299, 632.824650)">
                <g id="points-icon-copy-5" transform="translate(0.000000, 0.700718)">
                    <path d="M6.33066262,4.87778577 L7.36511462,2.79975909 C7.56724892,2.39267413 8.14987131,2.39504091 8.35200561,2.80212586 L9.37932346,4.88251932 C9.46017718,5.04345988 9.61475047,5.15706498 9.79310426,5.18309949 L12.0974353,5.51918125 C12.5492649,5.5854509 12.7276187,6.136909 12.4018257,6.45405658 L10.7324342,8.06819576 C10.6016415,8.19363473 10.5421902,8.37587625 10.5731048,8.55338422 L10.9631051,10.8396869 C11.0392028,11.287007 10.5683487,11.6278223 10.1640801,11.4148128 L8.10468835,10.3331975 C7.94535896,10.2479937 7.75273687,10.2479937 7.59340748,10.3331975 L5.52925958,11.4077124 C5.12499098,11.6183552 4.65413697,11.2775399 4.73261264,10.8302198 L5.12974709,8.5462839 C5.16066174,8.36877593 5.10121048,8.18653441 4.97279575,8.06109544 L3.30816035,6.43985594 C2.98236742,6.12270836 3.16309926,5.57125026 3.61492887,5.50734739 L5.91925988,5.17836594 C6.09523562,5.14996467 6.2498089,5.03872634 6.33066262,4.87778577 Z" id="Path"></path>
                    <path d="M7.5934849,14.4746318 C9.46150442,14.4746318 11.1719804,13.831746 12.4946354,12.7654507 C14.1413848,11.4378776 15.1869698,9.45397422 15.1869698,7.23731592 C15.1869698,3.24025671 11.7872508,0 7.5934849,0 C3.39971899,0 0,3.24025671 0,7.23731592 C0,11.2343751 3.39971899,14.4746318 7.5934849,14.4746318 Z" id="Oval"></path>
                </g>
            </g>
        </g>
    </g>
</svg>