<?xml version="1.0" encoding="UTF-8"?>
<svg width="27px" height="27px" viewBox="0 0 27 27" version="1.1" xmlns="http://www.w3.org/2000/svg" xmlns:xlink="http://www.w3.org/1999/xlink">
    <title>instagram-5</title>
    <g id="Symbols" stroke="none" stroke-width="1" fill="none" fill-rule="evenodd">
        <g id="Footer/4" transform="translate(-994.000000, -280.000000)" fill="#153F45" fill-rule="nonzero">
            <g id="instagram-5" transform="translate(994.000000, 280.000000)">
                <path d="M26.9313774,7.93809806 C26.8681127,6.50347967 26.6360736,5.5171924 26.3036765,4.66256126 C25.9607696,3.75539125 25.4332206,2.94320313 24.742049,2.26802802 C24.0667451,1.58234513 23.2490441,1.04953988 22.3522107,0.712055308 C21.4924706,0.379721637 20.5111471,0.147726739 19.0762549,0.0844741277 C17.630647,0.015864645 17.1717206,0 13.5052549,0 C9.83878921,0 9.37986276,0.015864645 7.93961274,0.0791172565 C6.50472061,0.142369868 5.51824514,0.374570735 4.66365693,0.706698437 C3.75610781,1.04953988 2.94376473,1.57698826 2.26846078,2.26802802 C1.58264706,2.94320313 1.04994615,3.76074812 0.712191176,4.65741036 C0.379794092,5.5171924 0.147754927,6.4981228 0.0844902462,7.93274119 C0.0158676722,9.37807333 0,9.83691222 0,13.5026784 C0,17.1684447 0.0158676722,17.6272835 0.0791323529,19.0672588 C0.142397034,20.5018772 0.374642207,21.4881645 0.70703929,22.3427956 C1.04994615,23.2499656 1.58264706,24.0621537 2.26846078,24.7373289 C2.94376473,25.4230117 3.76146571,25.955817 4.65829904,26.2933016 C5.51824514,26.6256352 6.49936271,26.8576301 7.93446085,26.9208827 C9.37450487,26.9843413 9.83363732,27 13.500103,27 C17.1665687,27 17.6254951,26.9843413 19.0657452,26.9208827 C20.5006373,26.8576301 21.4871128,26.6256352 22.341701,26.2933016 C24.1565932,25.591754 25.5914853,24.1571356 26.2931667,22.3427956 C26.6253578,21.4830136 26.857603,20.5018772 26.9208676,19.0672588 C26.9841323,17.6272835 27,17.1684447 27,13.5026784 C27,9.83691222 26.9946421,9.37807333 26.9313774,7.93809806 Z M24.4995001,18.9617691 C24.4413873,20.2803901 24.2198579,20.9924454 24.0352157,21.4671489 C23.5814412,22.6434 22.6477206,23.5769424 21.4712451,24.0306304 C20.996451,24.2152373 20.2791079,24.4367245 18.9653872,24.4946202 C17.5410049,24.5580788 17.1138138,24.5737375 13.5106128,24.5737375 C9.90741178,24.5737375 9.47486279,24.5580788 8.05563232,24.4946202 C6.73675977,24.4367245 6.0245686,24.2152373 5.54977448,24.0306304 C4.96431867,23.8142942 4.43141176,23.4714527 3.99886277,23.0231216 C3.5504461,22.5852983 3.20753924,22.0578499 2.99116174,21.4725058 C2.80651958,20.9978023 2.58499019,20.2803901 2.52708341,18.967126 C2.46361272,17.5430154 2.44795105,17.1156998 2.44795105,13.5131862 C2.44795105,9.9106726 2.46361272,9.47820613 2.52708341,8.05945238 C2.58499019,6.74083144 2.80651958,6.02877614 2.99116174,5.5540726 C3.20753924,4.96852251 3.5504461,4.43592323 4.00422066,4.00325079 C4.44192154,3.55491967 4.96947056,3.21207822 5.55513237,2.99594797 C6.02992649,2.81134104 6.74747556,2.58985392 8.06099021,2.53175221 C9.48537257,2.4684996 9.91276967,2.45263495 13.5157647,2.45263495 C17.1243236,2.45263495 17.5515147,2.4684996 18.9707451,2.53175221 C20.2896177,2.58985392 21.0018089,2.81134104 21.476603,2.99594797 C22.0620588,3.21207822 22.5949657,3.55491967 23.0275147,4.00325079 C23.4759314,4.44107414 23.8188382,4.96852251 24.0352157,5.5540726 C24.2198579,6.02877614 24.4413873,6.74598235 24.4995001,8.05945238 C24.5627647,9.483563 24.5786324,9.9106726 24.5786324,13.5131862 C24.5786324,17.1156998 24.5627647,17.5376585 24.4995001,18.9617691 Z" id="Shape"></path>
                <path d="M13.5052549,6.56673229 C9.67537262,6.56673229 6.56798529,9.67332084 6.56798529,13.5026784 C6.56798529,17.332036 9.67537262,20.4386246 13.5052549,20.4386246 C17.3353432,20.4386246 20.4425245,17.332036 20.4425245,13.5026784 C20.4425245,9.67332084 17.3353432,6.56673229 13.5052549,6.56673229 Z M13.5052549,18.0018543 C11.0206226,18.0018543 9.00522055,15.9870427 9.00522055,13.5026784 C9.00522055,11.0183142 11.0206226,9.00350259 13.5052549,9.00350259 C15.9900932,9.00350259 18.0052892,11.0183142 18.0052892,13.5026784 C18.0052892,15.9870427 15.9900932,18.0018543 13.5052549,18.0018543 L13.5052549,18.0018543 Z" id="Shape"></path>
                <path d="M22.3365491,6.29250032 C22.3365491,7.18669015 21.6113753,7.91172565 20.7168088,7.91172565 C19.8224483,7.91172565 19.0972745,7.18669015 19.0972745,6.29250032 C19.0972745,5.39810448 19.8224483,4.673275 20.7168088,4.673275 C21.6113753,4.673275 22.3365491,5.39810448 22.3365491,6.29250032 L22.3365491,6.29250032 Z" id="Path"></path>
            </g>
        </g>
    </g>
</svg>