<?xml version="1.0" encoding="UTF-8"?>
<svg width="13px" height="27px" viewBox="0 0 13 27" version="1.1" xmlns="http://www.w3.org/2000/svg" xmlns:xlink="http://www.w3.org/1999/xlink">
    <title>Path</title>
    <g id="bank-switching-journey---desktop" stroke="none" stroke-width="1" fill="none" fill-rule="evenodd">
        <g id="SWITCHING-JOURNEY---active-user-Copy-78" transform="translate(-520.000000, -982.000000)" fill="#153F45">
            <g id="Group-9" transform="translate(520.000000, 982.000000)">
                <path d="M8.23840521,8.09883047 L12.4694874,8.09883047 L12.0117982,13.5006234 L8.04515867,13.5006234 L8.04515867,27 L2.6647681,27 L2.6647681,13.5006234 L0,13.5006234 L0,8.09883047 L2.6647681,8.09883047 L2.6647681,5.70937954 C2.6647681,5.70937954 2.67493897,2.80936217 4.04800651,1.54315741 C5.82790887,-0.100866521 7.92310822,0.00124676643 7.92310822,0.00124676643 L12.5,0.00124676643 L12.5,4.61676736 L9.73352319,4.61676736 C9.43856794,4.61676736 9.13344182,4.66782401 8.85882832,4.78014862 C8.726607,4.83120527 8.62489829,4.89247324 8.5537022,4.9843752 C8.4825061,5.0558545 8.41131001,5.16817912 8.36045566,5.27029241 C8.25874695,5.49494164 8.21806347,5.75022486 8.21806347,6.00550808 L8.23840521,8.09883047 Z" id="Path"></path>
            </g>
        </g>
    </g>
</svg>