<?xml version="1.0" encoding="UTF-8"?>
<svg width="22px" height="19px" viewBox="0 0 22 19" version="1.1" xmlns="http://www.w3.org/2000/svg" xmlns:xlink="http://www.w3.org/1999/xlink">
    <title>news &amp; blog icon</title>
    <g id="Symbols" stroke="none" stroke-width="1" fill="none" fill-rule="evenodd" stroke-linecap="round" stroke-linejoin="round">
        <g id="icon/menu/news-&amp;-blog/white" transform="translate(0.000000, -2.000000)" stroke="#FFFFFF">
            <g id="news-&amp;-blog-icon" transform="translate(1.150000, 3.450000)">
                <path d="M15.4172762,0.188982702 C15.1407331,0.0663097199 14.8345604,0 14.5119268,0 L2.29135687,0 C1.03045215,0 0,1.03774712 0,2.30757825 L0,10.7554366 C0,12.0252677 1.03045215,13.0630148 2.29135687,13.0630148 L2.52839378,13.0630148 L2.51193289,16.1 L5.62633461,13.0663303 L14.5119268,13.0663303 C15.7728315,13.0663303 16.8032837,12.0285832 16.8032837,10.7587521 L16.8032837,8.57716227" id="Path"></path>
                <line x1="2.73909327" y1="3.09666392" x2="11.7004056" y2="3.09666392" id="Path"></line>
                <line x1="2.75555416" y1="6.80006178" x2="8.59258825" y2="6.80006178" id="Path"></line>
                <line x1="2.82798211" y1="10.4139415" x2="7.59505789" y2="10.4139415" id="Path"></line>
                <path d="M16.6419669,1.59143328 L10.6205708,6.77685338 C10.1135751,8.06657743 9.45843143,10.0326606 9.45843143,10.0326606 C9.45843143,10.0326606 10.9234513,9.80720758 12.8691293,9.48560544 L18.9234472,4.31676277 C19.6674798,3.68350494 19.762953,2.55292422 19.1341467,1.80362438 L19.1341467,1.80362438 C18.5053404,1.05432455 17.3827073,0.958175453 16.6419669,1.59143328 Z" id="Path"></path>
                <line x1="10.6205708" y1="6.79011532" x2="12.8691293" y2="9.47234349" id="Path"></line>
                <line x1="18.2683035" y1="4.8538715" x2="15.9999919" y2="2.15175041" id="Path"></line>
            </g>
        </g>
    </g>
</svg>