<?xml version="1.0" encoding="UTF-8"?>
<svg width="51px" height="42px" viewBox="0 0 51 42" version="1.1" xmlns="http://www.w3.org/2000/svg" xmlns:xlink="http://www.w3.org/1999/xlink">
    <title>Group 19</title>
    <g id="dashboard---desktop" stroke="none" stroke-width="1" fill="none" fill-rule="evenodd" stroke-linecap="round" stroke-linejoin="round">
        <g id="PROFILE---ACTIVE-USER-Copy-9" transform="translate(-822.000000, -549.000000)" stroke="#153F45" stroke-width="1.65">
            <g id="Group-23" transform="translate(823.000000, 458.000000)">
                <g id="Group-28" transform="translate(0.000000, 87.216000)">
                    <g id="Group-19" transform="translate(0.000000, 5.520000)">
                        <path d="M22.1545386,13.8655652 C22.1545386,12.6247678 21.1187989,11.6192145 19.840753,11.6192145 C18.5627072,11.6192145 17.5269674,12.6247678 17.5269674,13.8655652 L17.3844344,18.0584457 C17.3559278,18.8379802 17.2751591,19.612902 17.1041195,20.3739859 C16.1016375,24.8482368 13.0466803,27.1407139 9.21254278,27.1453265 C7.35486276,27.1453265 5.68247564,26.5964235 4.2951545,25.6093208 C4.1383682,25.4986176 3.93882201,25.4709419 3.76303132,25.5447439 C3.26891694,25.7476997 2.24743049,26.2873773 1.26870393,27.5189495 C-0.0425996153,29.1656584 0,31.0983502 0,31.0983502 L0,37.2423732 C0,38.0126823 0.641558755,38.64 1.43974352,38.64 L16.937831,38.64 C17.7312647,38.64 18.3774143,38.017295 18.3774143,37.2423732 L18.3774143,31.1859902 C18.3774143,29.6084708 18.7575023,28.0540146 19.4844205,26.6425498 C20.2540987,25.1480578 21.2138209,23.1507891 21.6319176,21.7300991 C22.3920936,19.1747022 22.1545386,13.8655652 22.1545386,13.8655652 Z" id="Path"></path>
                        <ellipse id="Oval" cx="8.56164211" cy="18.3997804" rx="5.60154666" ry="5.43829056"></ellipse>
                        <path d="M24.2165159,7.32946878 L24.2165159,7.32946878 C23.3423136,7.32946878 22.6343997,6.64218694 22.6343997,5.79346305 L22.6343997,1.53600573 C22.6343997,0.687281843 23.3423136,0 24.2165159,0 L24.2165159,0 C25.0907183,0 25.7986322,0.687281843 25.7986322,1.53600573 L25.7986322,5.79346305 C25.7986322,6.64218694 25.0907183,7.32946878 24.2165159,7.32946878 Z" id="Path"></path>
                        <path d="M29.7467961,8.28889579 L29.7467961,8.28889579 C28.9248558,7.99830011 28.506759,7.11267518 28.8060783,6.31469022 L30.3169281,2.3201528 C30.6162474,1.52216784 31.5284585,1.11625642 32.3503988,1.4068521 L32.3503988,1.4068521 C33.172339,1.69744777 33.5904358,2.5830727 33.2911165,3.38105766 L31.7802668,7.37559508 C31.4761964,8.17358004 30.5687364,8.58410409 29.7467961,8.28889579 Z" id="Path"></path>
                        <path d="M18.6149693,8.28889579 L18.6149693,8.28889579 C19.4369095,7.99830011 19.8550063,7.11267518 19.555687,6.31469022 L18.0448373,2.3201528 C17.745518,1.52216784 16.8333069,1.11625642 16.0113666,1.4068521 L16.0113666,1.4068521 C15.1894263,1.69744777 14.7713295,2.5830727 15.0706488,3.38105766 L16.5814986,7.37559508 C16.8855689,8.17358004 17.793029,8.58410409 18.6149693,8.28889579 Z" id="Path"></path>
                        <path d="M26.3069998,13.8655652 C26.3069998,12.6247678 27.3427396,11.6192145 28.6207854,11.6192145 C29.8988313,11.6192145 30.934571,12.6247678 30.934571,13.8655652 L31.077104,18.0584457 C31.1056106,18.8379802 31.1863793,19.612902 31.3574189,20.3739859 C32.359901,24.8482368 35.4148581,27.1407139 39.2489957,27.1453265 C41.1066757,27.1453265 42.7790628,26.5964235 44.166384,25.6093208 C44.3231703,25.4986176 44.5227164,25.4709419 44.6985071,25.5447439 C45.1926215,25.7476997 46.214108,26.2873773 47.1928345,27.5189495 C48.5041381,29.1656584 48.4615385,31.0983502 48.4615385,31.0983502 L48.4615385,37.2423732 C48.4615385,38.0126823 47.8199797,38.64 47.0217949,38.64 L31.5189563,38.64 C30.7255226,38.64 30.0793731,38.017295 30.0793731,37.2423732 L30.0793731,31.1859902 C30.0793731,29.6084708 29.6992851,28.0540146 28.9723668,26.6425498 C28.2026887,25.1480578 27.2429665,23.1507891 26.8248697,21.7300991 C26.0646938,19.1747022 26.3069998,13.8655652 26.3069998,13.8655652 Z" id="Path"></path>
                        <ellipse id="Oval" cx="39.7953722" cy="18.3997804" rx="5.60154666" ry="5.43829056"></ellipse>
                    </g>
                </g>
            </g>
        </g>
    </g>
</svg>