<?xml version="1.0" encoding="UTF-8"?>
<svg width="43px" height="45px" viewBox="0 0 43 45" version="1.1" xmlns="http://www.w3.org/2000/svg" xmlns:xlink="http://www.w3.org/1999/xlink">
    <title>Group 280</title>
    <g id="bank-switching-journey---desktop" stroke="none" stroke-width="1" fill="none" fill-rule="evenodd" stroke-linecap="round" stroke-linejoin="round">
        <g id="Group-283" transform="translate(-12.358268, -13.000000)" stroke="#7DBC42" stroke-width="1.6">
            <g id="Group-280" transform="translate(14.047244, 14.072289)">
                <line x1="7.21175478" y1="25.1403818" x2="8.65410574" y2="16.1277921" id="Path"></line>
                <path d="M14.0900412,29.4072916 L10.4831594,32.3349017 C10.215983,32.5489487 9.81521834,32.3625207 9.81521834,32.0241884 L9.81521834,29.4072916 C9.81521834,29.4072916 3.2693958,29.4072916 3.2693958,29.4072916 C1.46947037,29.4072916 0,27.9642007 0,26.1965871 L0,14.6518602 C0,12.8842466 1.46947037,11.4411557 3.2693958,11.4411557 L15.3626448,11.4411557 C17.1625702,11.4411557 18.6320406,12.8842466 18.6320406,14.6518602 L18.6320406,26.1965871 C18.6320406,26.4865862 18.5898548,26.7696806 18.5195452,27.0389655" id="Path"></path>
                <path d="M16.8391461,11.8830591 L16.8391461,4.04617818 C16.8391461,1.8228516 18.6953192,-3.63797881e-12 20.9592879,-3.63797881e-12 L36.265685,-3.63797881e-12 C38.5296537,-3.63797881e-12 40.3858268,1.8228516 40.3858268,4.04617818 L40.3858268,18.8844664 C40.3858268,21.107793 38.5296537,22.9306446 36.265685,22.9306446 L34.1634283,22.9306446 L29.621429,26.4934909 C29.3683145,26.6937284 28.9886427,26.5142051 28.9886427,26.1965871 L28.9886427,22.9375494 C28.9886427,22.9375494 20.9663188,22.9375494 20.9663188,22.9375494 C20.1366657,22.9375494 19.3562293,22.6889787 18.7093811,22.2746942" id="Path"></path>
                <path d="M25.1005226,40.0751163 L24.1864979,40.0751163 L21.6061361,42.1465386 C21.3952073,42.3122524 21.0788142,42.1672528 21.0858451,41.8979679 L21.113969,40.0751163 L16.3961957,40.0751163 C15.0884374,40.0751163 14.0127007,39.0255957 14.0127007,37.7344092 L14.0127007,29.4211011 C14.0127007,28.1368193 15.0814064,27.0803939 16.3961957,27.0803939 L25.1075535,27.0803939 C25.3395752,27.0803939 25.5645658,27.1149176 25.7754946,27.1770603 C26.7598288,27.4601547 27.4910485,28.3646757 27.4910485,29.4211011 L27.4910485,37.7344092 C27.4910485,39.018691 26.4223428,40.0751163 25.1075535,40.0751163 L25.1005226,40.0751163 Z" id="Path"></path>
                <rect id="Rectangle" x="21.7608172" y="9.84616056" width="3.62094373" height="7.98188051" rx="0.0573603228"></rect>
                <path d="M25.3817609,15.6323335 C25.3817609,16.9580437 26.4856214,18.0351833 27.8285345,18.0351833 L34.7680908,18.0351833 C35.0844839,18.0351833 35.3446294,17.7797079 35.3446294,17.4689945 L35.3446294,10.5090157 C35.3446294,10.1983023 35.0844839,9.94282693 34.7680908,9.94282693 L30.8026301,9.887589 C30.5776394,9.887589 30.4229583,9.66663729 30.5002988,9.45949507 C30.7463824,8.81735416 31.1752709,7.58140553 31.161209,6.75283662 C31.1401161,5.58593541 30.7323205,4.370701 29.8534506,4.370701 C28.9745808,4.370701 29.4667479,5.59974489 28.8339616,6.98759782 C28.2011753,8.37545074 25.3887919,10.9785381 25.3887919,10.9785381" id="Path"></path>
                <line x1="4.59121603" y1="19.1537513" x2="13.9986388" y2="19.1537513" id="Path"></line>
                <line x1="4.59121603" y1="21.9501714" x2="13.9986388" y2="21.9501714" id="Path"></line>
                <line x1="10.0683329" y1="25.2299233" x2="11.5237413" y2="15.9844752" id="Path"></line>
                <path d="M21.8662816,31.154191 C22.7592133,30.9470488 23.6240212,31.5408565 23.9122905,32.3970444 C24.7349127,34.8482274 20.8889783,36.4086989 20.8889783,36.4086989 C20.8889783,36.4086989 16.9867962,34.8206085 17.7812946,32.3832349 C18.0625329,31.5270471 18.9203099,30.9194299 19.8202726,31.1196673 C20.4389969,31.2577622 20.7061734,31.6651419 20.8046068,31.8860936 C20.8256997,31.9344268 20.8889783,31.9344268 20.9100712,31.8860936 C21.0085046,31.6720466 21.2616191,31.2922859 21.8592506,31.154191 L21.8662816,31.154191 Z" id="Path"></path>
            </g>
        </g>
    </g>
</svg>