<?xml version="1.0" encoding="UTF-8"?>
<svg width="23px" height="23px" viewBox="0 0 23 23" version="1.1" xmlns="http://www.w3.org/2000/svg" xmlns:xlink="http://www.w3.org/1999/xlink">
    <title>help</title>
    <g id="bank-switching-journey---desktop" stroke="none" stroke-width="1" fill="none" fill-rule="evenodd">
        <g id="confirm-the-switch" transform="translate(-1628.000000, -434.000000)" fill="#EC3793" fill-rule="nonzero">
            <g id="help" transform="translate(1628.000000, 434.000000)">
                <path d="M11.1477227,15.4180859 C10.4901113,15.4180859 9.95769727,15.9661328 9.95769727,16.6237891 C9.95769727,17.2657676 10.4744336,17.8294922 11.1477227,17.8294922 C11.8210117,17.8294922 12.3534258,17.2658125 12.3534258,16.6237891 C12.3534258,15.9661328 11.8054238,15.4180859 11.1477227,15.4180859 Z" id="Path"></path>
                <path d="M11.3513086,6.28915234 C9.23741992,6.28915234 8.26661328,7.54179883 8.26661328,8.38736328 C8.26661328,8.99807617 8.78330469,9.27991602 9.20610937,9.27991602 C10.0516289,9.27991602 9.70716797,8.07421289 11.3043203,8.07421289 C12.0872637,8.07421289 12.7136094,8.41871875 12.7136094,9.13899609 C12.7136094,9.98460547 11.8367344,10.4699863 11.319998,10.9084238 C10.8659277,11.299873 10.2708926,11.9418965 10.2708926,13.2885195 C10.2708926,14.1027285 10.4900664,14.337625 11.1320898,14.337625 C11.8993555,14.337625 12.0559082,13.9931641 12.0559082,13.6956465 C12.0559082,12.8813926 12.0716309,12.4116445 12.9328281,11.7383555 C13.3555879,11.4095273 14.6865781,10.3447441 14.6865781,8.87283398 C14.6865781,7.40092383 13.3555879,6.28915234 11.3513086,6.28915234 Z" id="Path"></path>
                <path d="M11.5,0 C5.14427344,0 0,5.14341992 0,11.5 L0,22.1015625 C0,22.5977695 0.402230469,23 0.8984375,23 L11.5,23 C17.8556816,23 23,17.8565801 23,11.5 C23,5.14427344 17.8565801,0 11.5,0 Z M11.5,21.203125 L1.796875,21.203125 L1.796875,11.5 C1.796875,6.13736133 6.13664258,1.796875 11.5,1.796875 C16.8626387,1.796875 21.203125,6.13664258 21.203125,11.5 C21.203125,16.8626387 16.8633574,21.203125 11.5,21.203125 Z" id="Shape"></path>
            </g>
        </g>
    </g>
</svg>