<?xml version="1.0" encoding="UTF-8"?>
<svg width="31px" height="26px" viewBox="0 0 31 26" version="1.1" xmlns="http://www.w3.org/2000/svg" xmlns:xlink="http://www.w3.org/1999/xlink">
    <title>Group</title>
    <g id="bank-switching-jounrey---mobile" stroke="none" stroke-width="1" fill="none" fill-rule="evenodd" stroke-linecap="round" stroke-linejoin="round">
        <g id="Group-245" transform="translate(-111.000000, -18.000000)" stroke="#153F45" stroke-width="1.5">
            <g id="Group" transform="translate(112.000000, 19.000000)">
                <path d="M22.8526069,0.295687885 C22.461964,0.0985626283 21.9736605,0 21.5341873,0 L3.41812496,0 C1.56257141,0 0,1.52772074 0,3.44969199 L0,16.0164271 C0,17.889117 1.51374105,19.4661191 3.41812496,19.4661191 L3.75993746,19.4661191 L3.75993746,24 L8.39882134,19.4661191 L21.5830176,19.4661191 C23.4385712,19.4661191 25.0011426,17.9383984 25.0011426,16.0164271 L25.0011426,12.7638604" id="Path"></path>
                <line x1="4.0529196" y1="4.63244353" x2="17.3347766" y2="4.63244353" id="Path"></line>
                <line x1="4.0529196" y1="10.1026694" x2="12.6958927" y2="10.1026694" id="Path"></line>
                <line x1="4.15058031" y1="15.4743326" x2="11.230982" y2="15.4743326" id="Path"></line>
                <path d="M24.6593301,2.36550308 L15.7233748,10.1026694 C14.9909195,12.0246407 14.0143123,14.9322382 14.0143123,14.9322382 C14.0143123,14.9322382 16.162848,14.587269 19.0926694,14.0944559 L28.077455,6.40657084 C29.2005533,5.47022587 29.298214,3.79466119 28.3704372,2.66119097 L28.3704372,2.66119097 C27.4426604,1.57700205 25.7335979,1.42915811 24.6593301,2.36550308 Z" id="Path"></path>
                <line x1="15.7233748" y1="10.1026694" x2="19.0438391" y2="14.0944559" id="Path"></line>
                <line x1="27.0520176" y1="7.24435318" x2="23.682723" y2="3.20328542" id="Path"></line>
            </g>
        </g>
    </g>
</svg>