<?xml version="1.0" encoding="UTF-8"?>
<svg width="55px" height="38px" viewBox="0 0 55 38" version="1.1" xmlns="http://www.w3.org/2000/svg" xmlns:xlink="http://www.w3.org/1999/xlink">
    <title>Group 72</title>
    <g id="bank-switching-journey---desktop" stroke="none" stroke-width="1" fill="none" fill-rule="evenodd" stroke-linecap="round" stroke-linejoin="round">
        <g id="Group-93" transform="translate(-39.000000, -33.000000)" stroke="#FFFFFF" stroke-width="2">
            <g id="Group-72" transform="translate(40.000000, 34.000000)">
                <path d="M50.978453,29.2981023 L32.1583557,29.2981023 L26.4558309,36 L20.9739921,29.2981023 L2.03031068,29.2981023 C0.918053526,29.2981023 0,28.4073985 0,27.3091521 L0,1.98895028 C0,0.899351429 0.909226088,0 2.03031068,0 L50.9696256,0 C52.0818827,0 53,0.890703819 53,1.98895028 L53,27.3091521 C53.0087637,28.3987509 52.0995376,29.2981023 50.978453,29.2981023 Z" id="Path"></path>
                <path d="M10.1388023,11.5602607 L11.6902374,8.60983622 C11.834557,8.33005459 12.2584957,8.33005459 12.4118352,8.60983622 L13.9632704,11.5602607 C14.0173902,11.6704777 14.1346498,11.7467818 14.2609294,11.7637382 L17.7245987,12.2385192 C18.0493177,12.2809104 18.1846172,12.6624308 17.950098,12.8828648 L15.4425458,15.1804654 C15.352346,15.2652477 15.3072462,15.3924212 15.3252861,15.5111165 L15.9115843,18.758279 C15.9657041,19.0634953 15.6229452,19.3008858 15.3252861,19.1567559 L12.2224158,17.622196 C12.1051561,17.5628484 11.9698566,17.5628484 11.8525969,17.622196 L8.74972659,19.1482777 C8.45206752,19.2924076 8.10930858,19.0550171 8.17244839,18.7498008 L8.76776654,15.5026382 C8.78580648,15.383943 8.74972659,15.2567695 8.6505069,15.1719872 L6.1429547,12.8743865 C5.90843543,12.6539525 6.03471504,12.2724321 6.368454,12.230041 L9.83212322,11.75526 C9.9674228,11.75526 10.0846824,11.6704777 10.1388023,11.5602607 Z" id="Path"></path>
                <path d="M24.5933477,11.5602607 L26.1447829,8.60983622 C26.2891024,8.33005459 26.7130411,8.33005459 26.8663806,8.60983622 L28.4178158,11.5602607 C28.4719357,11.6704777 28.5891953,11.7467818 28.7154749,11.7637382 L32.1791441,12.2385192 C32.5038631,12.2809104 32.6391627,12.6624308 32.4046434,12.8828648 L29.8970912,15.1804654 C29.8068915,15.2652477 29.7617916,15.3924212 29.7798316,15.5111165 L30.3661298,18.758279 C30.4202496,19.0634953 30.0774907,19.3008858 29.7798316,19.1567559 L26.6769612,17.622196 C26.5597016,17.5628484 26.424402,17.5628484 26.3071424,17.622196 L23.204272,19.1482777 C22.906613,19.2924076 22.563854,19.0550171 22.6269938,18.7498008 L23.222312,15.5026382 C23.2403519,15.383943 23.204272,15.2567695 23.1050524,15.1719872 L20.5975002,12.8743865 C20.3629809,12.6539525 20.4892605,12.2724321 20.8229995,12.230041 L24.2866687,11.75526 C24.4219683,11.75526 24.5392279,11.6704777 24.5933477,11.5602607 Z" id="Path"></path>
                <path d="M39.0478932,11.5602607 L40.5993283,8.60983622 C40.7436479,8.33005459 41.1675866,8.33005459 41.3209261,8.60983622 L42.8723613,11.5602607 C42.9264811,11.6704777 43.0437407,11.7467818 43.1700203,11.7637382 L46.6336896,12.2385192 C46.9584086,12.2809104 47.0937081,12.6624308 46.8591889,12.8828648 L44.3516367,15.1804654 C44.261437,15.2652477 44.2163371,15.3924212 44.234377,15.5111165 L44.8206752,18.758279 C44.874795,19.0634953 44.5320361,19.3008858 44.234377,19.1567559 L41.1315067,17.622196 C41.0142471,17.5628484 40.8789475,17.5628484 40.7616878,17.622196 L37.6588175,19.1482777 C37.3611584,19.2924076 37.0183995,19.0550171 37.0815393,18.7498008 L37.6768574,15.5026382 C37.6948974,15.383943 37.6588175,15.2567695 37.5595978,15.1719872 L35.0520456,12.8743865 C34.8175263,12.6539525 34.9438059,12.2724321 35.2775449,12.230041 L38.7412141,11.75526 C38.8765137,11.75526 38.9847534,11.6704777 39.0478932,11.5602607 Z" id="Path"></path>
            </g>
        </g>
    </g>
</svg>