<?xml version="1.0" encoding="UTF-8"?>
<svg width="19px" height="19px" viewBox="0 0 19 19" version="1.1" xmlns="http://www.w3.org/2000/svg" xmlns:xlink="http://www.w3.org/1999/xlink">
    <title>calendar</title>
    <g id="bank-switching-journey---desktop" stroke="none" stroke-width="1" fill="none" fill-rule="evenodd">
        <g id="confirm-the-switch" transform="translate(-864.000000, -706.000000)" fill="#153F45" fill-rule="nonzero">
            <g id="calendar" transform="translate(864.000000, 706.000000)">
                <path d="M16.5507812,1.484375 L14.84375,1.484375 L14.84375,0.59375 C14.84375,0.265851562 14.5779355,0 14.25,0 C13.9220645,0 13.65625,0.265851562 13.65625,0.59375 L13.65625,1.484375 L5.34375,1.484375 L5.34375,0.59375 C5.34375,0.265851562 5.07793555,0 4.75,0 C4.42206445,0 4.15625,0.265851562 4.15625,0.59375 L4.15625,1.484375 L2.44921875,1.484375 C1.09869727,1.484375 0,2.58307227 0,3.93359375 L0,16.5507812 C0,17.9013027 1.09869727,19 2.44921875,19 L16.5507812,19 C17.9013027,19 19,17.9013027 19,16.5507812 L19,3.93359375 C19,2.58307227 17.9013027,1.484375 16.5507812,1.484375 Z M2.44921875,2.671875 L4.15625,2.671875 L4.15625,3.265625 C4.15625,3.59352344 4.42206445,3.859375 4.75,3.859375 C5.07793555,3.859375 5.34375,3.59352344 5.34375,3.265625 L5.34375,2.671875 L13.65625,2.671875 L13.65625,3.265625 C13.65625,3.59352344 13.9220645,3.859375 14.25,3.859375 C14.5779355,3.859375 14.84375,3.59352344 14.84375,3.265625 L14.84375,2.671875 L16.5507813,2.671875 C17.2465078,2.671875 17.8125,3.23786719 17.8125,3.93359375 L17.8125,5.34375 L1.1875,5.34375 L1.1875,3.93359375 C1.1875,3.23786719 1.75349219,2.671875 2.44921875,2.671875 Z M16.5507813,17.8125 L2.44921875,17.8125 C1.75349219,17.8125 1.1875,17.2465078 1.1875,16.5507813 L1.1875,6.53125 L17.8125,6.53125 L17.8125,16.5507813 C17.8125,17.2465078 17.2465078,17.8125 16.5507813,17.8125 Z" id="Shape"></path>
            </g>
        </g>
    </g>
</svg>