<?xml version="1.0" encoding="UTF-8"?>
<svg width="22px" height="18px" viewBox="0 0 22 18" version="1.1" xmlns="http://www.w3.org/2000/svg" xmlns:xlink="http://www.w3.org/1999/xlink">
    <title>friends icon_1</title>
    <g id="Symbols" stroke="none" stroke-width="1" fill="none" fill-rule="evenodd" stroke-linecap="round" stroke-linejoin="round">
        <g id="icon/etc/friends/teal" transform="translate(0.000000, -2.000000)" stroke="#153F45" stroke-width="0.9">
            <g id="friends-icon_1" transform="translate(1.000000, 3.000000)">
                <path d="M9.14314292,5.74143488 C9.14314292,5.22764713 8.71569477,4.81126895 8.18824728,4.81126895 C7.66079979,4.81126895 7.23335163,5.22764713 7.23335163,5.74143488 L7.17452849,7.47761729 C7.16276387,7.80040587 7.12943075,8.12128447 7.05884298,8.43643309 C6.64512023,10.289125 5.38434426,11.2383908 3.80200178,11.2403008 C3.03534019,11.2403008 2.34514868,11.0130118 1.77260344,10.6042736 C1.70789799,10.5584338 1.62554559,10.5469739 1.55299705,10.5775337 C1.34907683,10.6615734 0.927510994,10.8850424 0.523592097,11.3950101 C-0.0175807936,12.0768772 0,12.8771637 0,12.8771637 L0,15.4212725 C0,15.7402411 0.26477028,16 0.594179866,16 L6.99021599,16 C7.3176648,16 7.5843297,15.7421511 7.5843297,15.4212725 L7.5843297,12.9134535 C7.5843297,12.2602364 7.74119141,11.6165692 8.04118943,11.0321117 C8.35883439,10.4132744 8.7549102,9.58624806 8.92745808,8.99797063 C9.24118149,7.93983526 9.14314292,5.74143488 9.14314292,5.74143488 Z" id="Path"></path>
                <ellipse id="Oval" cx="3.53337611" cy="7.61895667" rx="2.31174941" ry="2.25188015"></ellipse>
                <path d="M9.99411769,3.03497672 L9.99411769,3.03497672 C9.63333576,3.03497672 9.34118083,2.75038797 9.34118083,2.3989495 L9.34118083,0.636027217 C9.34118083,0.284588755 9.63333576,0 9.99411769,0 L9.99411769,0 C10.3548996,0 10.6470545,0.284588755 10.6470545,0.636027217 L10.6470545,2.3989495 C10.6470545,2.75038797 10.3548996,3.03497672 9.99411769,3.03497672 Z" id="Path"></path>
                <path d="M12.2764555,3.43225498 L12.2764555,3.43225498 C11.9372421,3.31192551 11.7646942,2.94520711 11.8882228,2.61477856 L12.5117481,0.960725797 C12.6352767,0.630297242 13.0117448,0.462217978 13.3509582,0.582547451 L13.3509582,0.582547451 C13.6901717,0.702876925 13.8627195,1.06959532 13.739191,1.40002387 L13.1156657,3.05407664 C12.9901763,3.38450519 12.615669,3.55449445 12.2764555,3.43225498 Z" id="Path"></path>
                <path d="M7.68236827,3.43225498 L7.68236827,3.43225498 C8.02158171,3.31192551 8.19412959,2.94520711 8.070601,2.61477856 L7.44707571,0.960725797 C7.32354712,0.630297242 6.94707902,0.462217978 6.60786558,0.582547451 L6.60786558,0.582547451 C6.26865213,0.702876925 6.09610426,1.06959532 6.21963285,1.40002387 L6.84315814,3.05407664 C6.9686475,3.38450519 7.34315483,3.55449445 7.68236827,3.43225498 Z" id="Path"></path>
                <path d="M10.8568571,5.74143488 C10.8568571,5.22764713 11.2843052,4.81126895 11.8117527,4.81126895 C12.3392002,4.81126895 12.7666484,5.22764713 12.7666484,5.74143488 L12.8254715,7.47761729 C12.8372361,7.80040587 12.8705692,8.12128447 12.941157,8.43643309 C13.3548798,10.289125 14.6156557,11.2383908 16.1979982,11.2403008 C16.9646598,11.2403008 17.6548513,11.0130118 18.2273966,10.6042736 C18.292102,10.5584338 18.3744544,10.5469739 18.4470029,10.5775337 C18.6509232,10.6615734 19.072489,10.8850424 19.4764079,11.3950101 C20.0175808,12.0768772 20,12.8771637 20,12.8771637 L20,15.4212725 C20,15.7402411 19.7352297,16 19.4058201,16 L13.0078232,16 C12.6803744,16 12.4137095,15.7421511 12.4137095,15.4212725 L12.4137095,12.9134535 C12.4137095,12.2602364 12.2568478,11.6165692 11.9568498,11.0321117 C11.6392048,10.4132744 11.243129,9.58624806 11.0705812,8.99797063 C10.7568577,7.93983526 10.8568571,5.74143488 10.8568571,5.74143488 Z" id="Path"></path>
                <ellipse id="Oval" cx="16.4234869" cy="7.61895667" rx="2.31174941" ry="2.25188015"></ellipse>
            </g>
        </g>
    </g>
</svg>