<?xml version="1.0" encoding="UTF-8"?>
<svg width="44px" height="44px" viewBox="0 0 44 44" version="1.1" xmlns="http://www.w3.org/2000/svg" xmlns:xlink="http://www.w3.org/1999/xlink">
    <title>points icon</title>
    <g id="dashboard---desktop" stroke="none" stroke-width="1" fill="none" fill-rule="evenodd" stroke-linecap="round" stroke-linejoin="round">
        <g id="PROFILE---ACTIVE-USER-Copy-12" transform="translate(-808.000000, -758.000000)" stroke="#ADA9A3" stroke-width="2.8">
            <g id="Group-7" transform="translate(761.000000, 668.000000)">
                <g id="points-icon" transform="translate(49.000000, 92.000000)">
                    <path d="M16.7120877,13.4795436 L19.4429001,7.73700946 C19.9765072,6.61204834 21.514551,6.61858881 22.048158,7.74354994 L24.7601373,13.4926245 C24.9735801,13.9373766 25.3816326,14.2513193 25.8524623,14.3232644 L31.9355825,15.2520114 C33.1283512,15.4351446 33.5991809,16.9590745 32.7391319,17.8354977 L28.3321656,22.2960994 C27.9868904,22.6427444 27.8299472,23.1463607 27.9115577,23.6368961 L28.9411054,29.9549917 C29.1419927,31.1911409 27.8990022,32.1329688 26.8317881,31.5443264 L21.3952741,28.5553308 C20.9746662,28.3198738 20.4661701,28.3198738 20.0455622,28.5553308 L14.5964927,31.5247049 C13.5292786,32.1068069 12.2862881,31.164979 12.4934532,29.9288299 L13.5418341,23.6172747 C13.6234446,23.1267393 13.4665013,22.623123 13.1275039,22.276478 L8.73309304,17.7962549 C7.87304405,16.9198317 8.35015152,15.3959018 9.54292019,15.2193091 L15.6260404,14.3101835 C16.0905924,14.2316978 16.4986448,13.9242957 16.7120877,13.4795436 Z" id="Path"></path>
                    <ellipse id="Oval" cx="20.0457666" cy="20" rx="20.0457666" ry="20"></ellipse>
                </g>
            </g>
        </g>
    </g>
</svg>