<?xml version="1.0" encoding="UTF-8"?>
<svg width="26px" height="26px" viewBox="0 0 26 26" version="1.1" xmlns="http://www.w3.org/2000/svg" xmlns:xlink="http://www.w3.org/1999/xlink">
    <title>Group 8</title>
    <g id="bank-switching-jounrey---mobile" stroke="none" stroke-width="1" fill="none" fill-rule="evenodd">
        <g id="Profile/Main-Copy-37" transform="translate(-40.000000, -430.000000)" fill="#153F45" fill-rule="nonzero" stroke="#153F45" stroke-width="0.5">
            <g id="Group-97" transform="translate(41.000000, 288.000000)">
                <g id="Group-8" transform="translate(0.000000, 143.000000)">
                    <path d="M13.12,24 L10.88,24 C10.123,24 9.484,23.433 9.394,22.68 L9.155,20.804 C8.678,20.649 8.218,20.458 7.781,20.235 L6.287,21.396 C5.681,21.865 4.828,21.811 4.302,21.27 L2.727,19.695 C2.19,19.174 2.136,18.321 2.605,17.716 L3.766,16.221 C3.542,15.784 3.351,15.324 3.197,14.847 L1.317,14.608 C0.567,14.516 0,13.877 0,13.12 L0,10.88 C0,10.123 0.567,9.484 1.32,9.394 L3.196,9.155 C3.351,8.678 3.542,8.218 3.765,7.781 L2.605,6.287 C2.135,5.681 2.19,4.827 2.732,4.301 L4.307,2.726 C4.828,2.189 5.682,2.136 6.286,2.604 L7.78,3.766 C8.217,3.543 8.677,3.352 9.155,3.197 L9.394,1.317 C9.484,0.567 10.123,0 10.88,0 L13.12,0 C13.877,0 14.516,0.567 14.606,1.32 L14.845,3.196 C15.323,3.351 15.783,3.542 16.22,3.765 L17.714,2.604 C18.321,2.135 19.173,2.189 19.699,2.731 L21.274,4.306 C21.811,4.827 21.865,5.68 21.396,6.285 L20.235,7.78 C20.459,8.217 20.65,8.677 20.804,9.154 L22.684,9.393 C23.433,9.484 24,10.123 24,10.88 L24,13.12 C24,13.877 23.433,14.516 22.68,14.606 L20.804,14.845 C20.649,15.322 20.458,15.782 20.235,16.219 L21.396,17.713 C21.866,18.319 21.811,19.172 21.269,19.698 L19.694,21.273 C19.173,21.81 18.319,21.865 17.715,21.395 L16.22,20.234 C15.783,20.458 15.323,20.649 14.846,20.803 L14.607,22.683 C14.516,23.433 13.877,24 13.12,24 L13.12,24 Z M7.73,19.14 C7.813,19.14 7.898,19.161 7.974,19.203 C8.525,19.511 9.122,19.759 9.748,19.939 C9.94,19.994 10.081,20.158 10.106,20.356 L10.386,22.556 C10.416,22.807 10.633,23 10.88,23 L13.12,23 C13.367,23 13.584,22.807 13.613,22.561 L13.894,20.357 C13.919,20.159 14.06,19.995 14.252,19.94 C14.878,19.76 15.475,19.512 16.026,19.204 C16.201,19.106 16.419,19.123 16.576,19.246 L18.326,20.606 C18.527,20.762 18.809,20.749 18.981,20.572 L20.566,18.987 C20.747,18.811 20.761,18.529 20.605,18.327 L19.245,16.577 C19.122,16.419 19.105,16.202 19.203,16.027 C19.511,15.476 19.759,14.879 19.939,14.253 C19.994,14.061 20.158,13.92 20.356,13.895 L22.556,13.615 C22.807,13.584 23,13.367 23,13.12 L23,10.88 C23,10.633 22.807,10.416 22.561,10.387 L20.357,10.106 C20.159,10.081 19.995,9.94 19.94,9.748 C19.76,9.122 19.512,8.525 19.204,7.974 C19.106,7.799 19.122,7.582 19.246,7.424 L20.606,5.674 C20.763,5.472 20.749,5.19 20.573,5.02 L18.988,3.435 C18.813,3.253 18.53,3.239 18.328,3.396 L16.578,4.756 C16.419,4.879 16.202,4.896 16.027,4.798 C15.478,4.49 14.881,4.243 14.253,4.062 C14.061,4.007 13.92,3.843 13.895,3.645 L13.615,1.445 C13.584,1.193 13.367,1 13.12,1 L10.88,1 C10.633,1 10.416,1.193 10.387,1.439 L10.106,3.643 C10.081,3.841 9.94,4.005 9.748,4.061 C9.12,4.241 8.523,4.489 7.974,4.796 C7.799,4.895 7.582,4.877 7.423,4.755 L5.673,3.395 C5.471,3.238 5.19,3.252 5.019,3.428 L3.434,5.014 C3.253,5.19 3.239,5.472 3.395,5.674 L4.755,7.424 C4.878,7.582 4.895,7.799 4.797,7.974 C4.488,8.525 4.241,9.122 4.061,9.748 C4.006,9.94 3.842,10.081 3.644,10.106 L1.444,10.386 C1.193,10.416 1,10.633 1,10.88 L1,13.12 C1,13.367 1.193,13.584 1.439,13.613 L3.643,13.894 C3.841,13.919 4.005,14.06 4.06,14.252 C4.24,14.878 4.488,15.475 4.796,16.026 C4.894,16.201 4.878,16.418 4.754,16.576 L3.394,18.326 C3.237,18.528 3.251,18.81 3.427,18.98 L5.012,20.565 C5.187,20.746 5.468,20.76 5.672,20.604 L7.422,19.244 C7.513,19.176 7.621,19.14 7.73,19.14 Z" id="Shape"></path>
                    <path d="M11.875,16.75 C9.186925,16.75 7,14.563075 7,11.875 C7,9.186925 9.186925,7 11.875,7 C14.563075,7 16.75,9.186925 16.75,11.875 C16.75,14.563075 14.563075,16.75 11.875,16.75 Z M11.875,7.975 C9.72415,7.975 7.975,9.72415 7.975,11.875 C7.975,14.02585 9.72415,15.775 11.875,15.775 C14.02585,15.775 15.775,14.02585 15.775,11.875 C15.775,9.72415 14.02585,7.975 11.875,7.975 Z" id="Shape"></path>
                </g>
            </g>
        </g>
    </g>
</svg>