<?xml version="1.0" encoding="UTF-8"?>
<svg width="20px" height="19px" viewBox="0 0 20 19" version="1.1" xmlns="http://www.w3.org/2000/svg" xmlns:xlink="http://www.w3.org/1999/xlink">
    <title>Group</title>
    <g id="Symbols" stroke="none" stroke-width="1" fill="none" fill-rule="evenodd" stroke-linecap="round" stroke-linejoin="round">
        <g id="icon/menu/dashboard/teal" transform="translate(-1.000000, -1.000000)" stroke="#004046">
            <g id="Group" transform="translate(2.300000, 2.300000)">
                <path d="M6.68131776,4.84841535 L0.647414512,4.84841535 C0.290617181,4.84841535 0,4.55779817 0,4.20100083 L0,0.647414512 C0,0.290617181 0.290617181,0 0.647414512,0 L6.67844037,0 C7.0352377,0 7.32585488,0.290617181 7.32585488,0.647414512 L7.32585488,4.20387823 C7.32585488,4.55779817 7.0352377,4.84841535 6.68131776,4.84841535 Z" id="Path"></path>
                <path d="M6.68131776,17.0485822 L0.647414512,17.0485822 C0.290617181,17.0485822 0,16.757965 0,16.4011676 L0,8.17756464 C0,7.82076731 0.290617181,7.53015013 0.647414512,7.53015013 L6.67844037,7.53015013 C7.0352377,7.53015013 7.32585488,7.82076731 7.32585488,8.17756464 L7.32585488,16.4011676 C7.32585488,16.757965 7.0352377,17.0485822 6.68131776,17.0485822 Z" id="Path"></path>
                <path d="M10.5715596,12.2001668 L16.6025855,12.2001668 C16.9593828,12.2001668 17.25,12.490784 17.25,12.8475813 L17.25,16.404045 C17.25,16.7608424 16.9593828,17.0514595 16.6025855,17.0514595 L10.5715596,17.0514595 C10.2147623,17.0514595 9.92414512,16.7608424 9.92414512,16.404045 L9.92414512,12.8475813 C9.92414512,12.490784 10.2176397,12.2001668 10.5715596,12.2001668 Z" id="Path"></path>
                <path d="M10.5715596,0 L16.6025855,0 C16.9593828,0 17.25,0.290617181 17.25,0.647414512 L17.25,8.87101751 C17.25,9.22781485 16.9593828,9.51843203 16.6025855,9.51843203 L10.5715596,9.51843203 C10.2147623,9.51843203 9.92414512,9.22781485 9.92414512,8.87101751 L9.92414512,0.647414512 C9.92414512,0.290617181 10.2176397,0 10.5715596,0 Z" id="Path"></path>
            </g>
        </g>
    </g>
</svg>