<?xml version="1.0" encoding="UTF-8"?>
<svg width="53px" height="40px" viewBox="0 0 53 40" version="1.1" xmlns="http://www.w3.org/2000/svg" xmlns:xlink="http://www.w3.org/1999/xlink">
    <title>Group 69</title>
    <g id="bank-switching-journey---desktop" stroke="none" stroke-width="1" fill="none" fill-rule="evenodd" stroke-linecap="round" stroke-linejoin="round">
        <g id="Group-95" transform="translate(-40.000000, -32.000000)" stroke="#153F45" stroke-width="2">
            <g id="Group-69" transform="translate(41.000000, 33.000000)">
                <path d="M37.8008722,30.1996234 C42.6648274,30.1996234 49.5730537,30.1996234 49.8550221,30.1996234 C50.2074826,30.1996234 50.7009273,30.0564972 50.9124036,29.5555556 C51.12388,29.0546139 50.9124036,28.5536723 50.7009273,28.4105461 C50.5599431,28.26742 47.1763221,24.1883239 47.1763221,24.1883239 C49.4320695,21.6836158 50.7009273,18.5348399 50.7009273,15.0998117 C50.7009273,6.79849341 42.8058116,-1.8189894e-12 33.0074091,-1.8189894e-12 C28.0729618,-1.8189894e-12 23.7024513,1.71751412 20.4598145,4.43691149" id="Path"></path>
                <path d="M3.75318579,31.9887006 C1.49743845,29.4839925 0.228580566,26.3352166 0.228580566,22.9001883 C0.228580566,14.5988701 8.12369626,7.80037665 17.9220988,7.80037665 C27.7205013,7.80037665 35.615617,14.527307 35.615617,22.9001883 C35.615617,31.2730697 27.7205013,38 17.9220988,38 C17.9220988,38 1.49743845,38 1.14497792,38 C0.792517401,38 0.29907267,37.8568738 0.0875963571,37.3559322 C-0.123879956,36.8549906 0.0875963571,36.354049 0.29907267,36.2109228 C0.369564775,36.0677966 3.75318579,31.9887006 3.75318579,31.9887006 Z" id="Path"></path>
                <line x1="9.11058572" y1="17.5329567" x2="25.8877066" y2="17.5329567" id="Path"></line>
                <line x1="6.57286996" y1="22.613936" x2="28.3549302" y2="22.613936" id="Path"></line>
                <line x1="9.11058572" y1="27.4086629" x2="25.8877066" y2="27.4086629" id="Path"></line>
            </g>
        </g>
    </g>
</svg>