<?xml version="1.0" encoding="UTF-8"?>
<svg width="23px" height="23px" viewBox="0 0 23 23" version="1.1" xmlns="http://www.w3.org/2000/svg" xmlns:xlink="http://www.w3.org/1999/xlink">
    <title>Group 89</title>
    <g id="bank-switching-jounrey---mobile" stroke="none" stroke-width="1" fill="none" fill-rule="evenodd">
        <g id="Profile/Main-Copy-37" transform="translate(-42.000000, -482.000000)" fill="#153F45" fill-rule="nonzero">
            <g id="Group-97" transform="translate(41.000000, 288.000000)">
                <g id="Group-89" transform="translate(1.000000, 194.000000)">
                    <path d="M11.5,0 C5.14395898,0 0,5.143375 0,11.5 C0,17.8559512 5.143375,23 11.5,23 C17.856041,23 23,17.856625 23,11.5 C23,5.14395898 17.856625,0 11.5,0 Z M11.5,21.3953457 C6.04369922,21.3953457 1.6046543,16.9563457 1.6046543,11.5 C1.6046543,6.0436543 6.04369922,1.6046543 11.5,1.6046543 C16.9563457,1.6046543 21.3953457,6.0436543 21.3953457,11.5 C21.3953457,16.9563457 16.9563457,21.3953457 11.5,21.3953457 Z" id="Shape"></path>
                    <path d="M11.2093648,14.5024631 C10.5873065,14.5024631 10.0837438,15.0432112 10.0837438,15.6920724 C10.0837438,16.325574 10.5724945,16.8817734 11.2093648,16.8817734 C11.846235,16.8817734 12.3497537,16.325574 12.3497537,15.6920724 C12.3497537,15.0432112 11.8313791,14.5024631 11.2093648,14.5024631 Z" id="Path"></path>
                    <path d="M11.3784438,5.66502463 C9.32655658,5.66502463 8.38423645,6.88184578 8.38423645,7.70314025 C8.38423645,8.29631743 8.88579685,8.57011235 9.29615625,8.57011235 C10.1169201,8.57011235 9.78256158,7.39892368 11.3328433,7.39892368 C12.0927614,7.39892368 12.7007681,7.73356191 12.7007681,8.43321489 C12.7007681,9.25450936 11.8496038,9.72599991 11.3480434,10.151858 C10.9072386,10.5320384 10.3297225,11.1556824 10.3297225,12.4637234 C10.3297225,13.2545962 10.5425248,13.4827586 11.1656414,13.4827586 C11.9103594,13.4827586 12.0623611,13.1481655 12.0623611,12.8591146 C12.0623611,12.0682418 12.0775612,11.6119621 12.9135253,10.9579416 C13.3238847,10.6385594 14.6157635,9.60426815 14.6157635,8.17458567 C14.6157635,6.74490319 13.3238847,5.66502463 11.3784438,5.66502463 Z" id="Path"></path>
                </g>
            </g>
        </g>
    </g>
</svg>