<?xml version="1.0" encoding="UTF-8"?>
<svg width="146px" height="33px" viewBox="0 0 146 33" version="1.1" xmlns="http://www.w3.org/2000/svg" xmlns:xlink="http://www.w3.org/1999/xlink">
    <title>Logo/symbol + Name</title>
    <g id="onboarding/login---desktop" stroke="none" stroke-width="1" fill="none" fill-rule="evenodd">
        <g id="Onboarding/2" transform="translate(-55.000000, -54.000000)">
            <g id="Logo/symbol-+-Name" transform="translate(56.000000, 55.000000)">
                <g id="Switch-It-Logo/symbol-only" fill-rule="nonzero">
                    <rect id="Rectangle" stroke="#153F45" stroke-width="1.5" fill="#7DBC42" x="0" y="0" width="59.8677019" height="30.9667857" rx="15.4833929"></rect>
                    <ellipse id="Oval" stroke="#153F45" stroke-width="1.5" fill="#FAF8EE" cx="44.2118012" cy="15.531369" rx="12.7080745" ry="12.5845238"></ellipse>
                    <g id="Group" transform="translate(32.560248, 3.391548)" fill="#153F45">
                        <path d="M13.8708075,0.276785714 C14.3180124,0.31 14.0086957,2.83244048 13.4236025,3.17380952 C12.8385093,3.51517857 10.531677,2.93577381 10.015528,3.20702381 C9.49937888,3.48011905 7.45900621,8.01571429 6.71180124,7.97880952 C5.96273292,7.94190476 6.0242236,6.10404762 4.71614907,6.27380952 C3.40807453,6.44357143 3.89068323,9.30738095 4.3378882,10.1930952 C4.78509317,11.0788095 6.7136646,12.0346429 7.33229814,11.6932738 C7.95279503,11.3519048 8.15776398,10.5344643 9.53478261,11.1821429 C10.9118012,11.8298214 10.4645963,14.1474405 11.3590062,14.8966071 C12.2534161,15.6457738 13.3024845,15.1161905 14.0086957,15.817381 C14.5602484,16.3635714 14.5248447,17.623869 14.1801242,18.4080952 C13.8354037,19.1923214 12.7341615,19.6351786 11.4614907,20.5559524 C10.5875776,21.1870238 9.22360248,23.5563095 8.53602484,23.6910119 C7.8484472,23.8275595 6.40248447,23.0765476 6.40248447,23.0765476 C6.40248447,23.0765476 6.74720497,19.4967857 6.47142857,18.5427976 C6.19565217,17.5888095 4.3378882,16.4632143 4.16459627,15.5424405 C3.9931677,14.6216667 5.01242236,13.8208333 4.57826087,13.4979167 C3.89068323,12.9867857 0,10.2595238 0,8.89589286 C0,7.5322619 1.23913043,5.5560119 1.23913043,5.5560119 L3.9242236,2.48738095 L7.86521739,0.573869048 L11.1186335,4.37040175e-16 C11.1186335,4.37040175e-16 13.0136646,0.206666667 13.8726708,0.273095238 L13.8708075,0.276785714 Z" id="Path"></path>
                        <path d="M17.3813665,1.19755952 C17.3813665,1.19755952 17.7223602,4.94339286 19.0341615,5.62797619 C20.2732919,6.27565476 20.1354037,5.5947619 20.6515528,5.28660714 C21.1677019,4.98029762 21.8571429,5.45636905 21.8571429,5.45636905 L19.826087,3.10369048 L17.3813665,1.19571429 L17.3813665,1.19755952 Z" id="Path"></path>
                        <path d="M23.3701863,8.25190476 C23.3701863,8.25190476 22.4068323,7.16136905 21.7173913,7.5027381 C21.0298137,7.84410714 20.9254658,8.15041667 20.4782609,8.38845238 C20.0310559,8.6264881 18.2757764,9.24095238 17.7242236,10.1617262 C17.1726708,11.0825 17.5863354,13.7414881 18.3093168,14.3891667 C19.0322981,15.0368452 20.7801242,14.6641071 21.0279503,15.7527976 C21.3372671,17.1164286 19.8223602,17.6958333 19.3416149,18.7531548 C18.8590062,19.8104762 19.3080745,21.7535119 19.3080745,21.7535119 L22.4068323,18.1405357 L23.8770186,15.6014881 L24.0596273,12.0733929 L23.3720497,8.25559524 L23.3701863,8.25190476 Z" id="Path"></path>
                    </g>
                </g>
                <text id="Switch-It" font-family="Konsolev1.1-Regular, Konsole Regular" font-size="16" font-weight="normal" line-spacing="13" fill="#153F45">
                    <tspan x="74" y="25">Switch It</tspan>
                </text>
            </g>
        </g>
    </g>
</svg>